G04 #@! TF.GenerationSoftware,KiCad,Pcbnew,(5.0.2)-1*
G04 #@! TF.CreationDate,2019-03-12T15:58:17+02:00*
G04 #@! TF.ProjectId,ev19dashboardv1,65763139-6461-4736-9862-6f6172647631,rev?*
G04 #@! TF.SameCoordinates,Original*
G04 #@! TF.FileFunction,Paste,Top*
G04 #@! TF.FilePolarity,Positive*
%FSLAX46Y46*%
G04 Gerber Fmt 4.6, Leading zero omitted, Abs format (unit mm)*
G04 Created by KiCad (PCBNEW (5.0.2)-1) date 3/12/2019 3:58:17 PM*
%MOMM*%
%LPD*%
G01*
G04 APERTURE LIST*
%ADD10C,0.100000*%
%ADD11C,1.425000*%
%ADD12C,1.150000*%
%ADD13R,2.000000X1.500000*%
%ADD14R,2.000000X3.800000*%
%ADD15C,0.250000*%
%ADD16R,1.550000X0.600000*%
%ADD17R,3.800000X2.000000*%
%ADD18R,1.500000X2.000000*%
%ADD19R,0.400000X1.100000*%
%ADD20R,1.400000X0.900000*%
G04 APERTURE END LIST*
D10*
G04 #@! TO.C,C1*
G36*
X113974504Y-54126204D02*
X113998773Y-54129804D01*
X114022571Y-54135765D01*
X114045671Y-54144030D01*
X114067849Y-54154520D01*
X114088893Y-54167133D01*
X114108598Y-54181747D01*
X114126777Y-54198223D01*
X114143253Y-54216402D01*
X114157867Y-54236107D01*
X114170480Y-54257151D01*
X114180970Y-54279329D01*
X114189235Y-54302429D01*
X114195196Y-54326227D01*
X114198796Y-54350496D01*
X114200000Y-54375000D01*
X114200000Y-55625000D01*
X114198796Y-55649504D01*
X114195196Y-55673773D01*
X114189235Y-55697571D01*
X114180970Y-55720671D01*
X114170480Y-55742849D01*
X114157867Y-55763893D01*
X114143253Y-55783598D01*
X114126777Y-55801777D01*
X114108598Y-55818253D01*
X114088893Y-55832867D01*
X114067849Y-55845480D01*
X114045671Y-55855970D01*
X114022571Y-55864235D01*
X113998773Y-55870196D01*
X113974504Y-55873796D01*
X113950000Y-55875000D01*
X113025000Y-55875000D01*
X113000496Y-55873796D01*
X112976227Y-55870196D01*
X112952429Y-55864235D01*
X112929329Y-55855970D01*
X112907151Y-55845480D01*
X112886107Y-55832867D01*
X112866402Y-55818253D01*
X112848223Y-55801777D01*
X112831747Y-55783598D01*
X112817133Y-55763893D01*
X112804520Y-55742849D01*
X112794030Y-55720671D01*
X112785765Y-55697571D01*
X112779804Y-55673773D01*
X112776204Y-55649504D01*
X112775000Y-55625000D01*
X112775000Y-54375000D01*
X112776204Y-54350496D01*
X112779804Y-54326227D01*
X112785765Y-54302429D01*
X112794030Y-54279329D01*
X112804520Y-54257151D01*
X112817133Y-54236107D01*
X112831747Y-54216402D01*
X112848223Y-54198223D01*
X112866402Y-54181747D01*
X112886107Y-54167133D01*
X112907151Y-54154520D01*
X112929329Y-54144030D01*
X112952429Y-54135765D01*
X112976227Y-54129804D01*
X113000496Y-54126204D01*
X113025000Y-54125000D01*
X113950000Y-54125000D01*
X113974504Y-54126204D01*
X113974504Y-54126204D01*
G37*
D11*
X113487500Y-55000000D03*
D10*
G36*
X110999504Y-54126204D02*
X111023773Y-54129804D01*
X111047571Y-54135765D01*
X111070671Y-54144030D01*
X111092849Y-54154520D01*
X111113893Y-54167133D01*
X111133598Y-54181747D01*
X111151777Y-54198223D01*
X111168253Y-54216402D01*
X111182867Y-54236107D01*
X111195480Y-54257151D01*
X111205970Y-54279329D01*
X111214235Y-54302429D01*
X111220196Y-54326227D01*
X111223796Y-54350496D01*
X111225000Y-54375000D01*
X111225000Y-55625000D01*
X111223796Y-55649504D01*
X111220196Y-55673773D01*
X111214235Y-55697571D01*
X111205970Y-55720671D01*
X111195480Y-55742849D01*
X111182867Y-55763893D01*
X111168253Y-55783598D01*
X111151777Y-55801777D01*
X111133598Y-55818253D01*
X111113893Y-55832867D01*
X111092849Y-55845480D01*
X111070671Y-55855970D01*
X111047571Y-55864235D01*
X111023773Y-55870196D01*
X110999504Y-55873796D01*
X110975000Y-55875000D01*
X110050000Y-55875000D01*
X110025496Y-55873796D01*
X110001227Y-55870196D01*
X109977429Y-55864235D01*
X109954329Y-55855970D01*
X109932151Y-55845480D01*
X109911107Y-55832867D01*
X109891402Y-55818253D01*
X109873223Y-55801777D01*
X109856747Y-55783598D01*
X109842133Y-55763893D01*
X109829520Y-55742849D01*
X109819030Y-55720671D01*
X109810765Y-55697571D01*
X109804804Y-55673773D01*
X109801204Y-55649504D01*
X109800000Y-55625000D01*
X109800000Y-54375000D01*
X109801204Y-54350496D01*
X109804804Y-54326227D01*
X109810765Y-54302429D01*
X109819030Y-54279329D01*
X109829520Y-54257151D01*
X109842133Y-54236107D01*
X109856747Y-54216402D01*
X109873223Y-54198223D01*
X109891402Y-54181747D01*
X109911107Y-54167133D01*
X109932151Y-54154520D01*
X109954329Y-54144030D01*
X109977429Y-54135765D01*
X110001227Y-54129804D01*
X110025496Y-54126204D01*
X110050000Y-54125000D01*
X110975000Y-54125000D01*
X110999504Y-54126204D01*
X110999504Y-54126204D01*
G37*
D11*
X110512500Y-55000000D03*
G04 #@! TD*
D10*
G04 #@! TO.C,C2*
G36*
X113299504Y-43576204D02*
X113323773Y-43579804D01*
X113347571Y-43585765D01*
X113370671Y-43594030D01*
X113392849Y-43604520D01*
X113413893Y-43617133D01*
X113433598Y-43631747D01*
X113451777Y-43648223D01*
X113468253Y-43666402D01*
X113482867Y-43686107D01*
X113495480Y-43707151D01*
X113505970Y-43729329D01*
X113514235Y-43752429D01*
X113520196Y-43776227D01*
X113523796Y-43800496D01*
X113525000Y-43825000D01*
X113525000Y-45075000D01*
X113523796Y-45099504D01*
X113520196Y-45123773D01*
X113514235Y-45147571D01*
X113505970Y-45170671D01*
X113495480Y-45192849D01*
X113482867Y-45213893D01*
X113468253Y-45233598D01*
X113451777Y-45251777D01*
X113433598Y-45268253D01*
X113413893Y-45282867D01*
X113392849Y-45295480D01*
X113370671Y-45305970D01*
X113347571Y-45314235D01*
X113323773Y-45320196D01*
X113299504Y-45323796D01*
X113275000Y-45325000D01*
X112350000Y-45325000D01*
X112325496Y-45323796D01*
X112301227Y-45320196D01*
X112277429Y-45314235D01*
X112254329Y-45305970D01*
X112232151Y-45295480D01*
X112211107Y-45282867D01*
X112191402Y-45268253D01*
X112173223Y-45251777D01*
X112156747Y-45233598D01*
X112142133Y-45213893D01*
X112129520Y-45192849D01*
X112119030Y-45170671D01*
X112110765Y-45147571D01*
X112104804Y-45123773D01*
X112101204Y-45099504D01*
X112100000Y-45075000D01*
X112100000Y-43825000D01*
X112101204Y-43800496D01*
X112104804Y-43776227D01*
X112110765Y-43752429D01*
X112119030Y-43729329D01*
X112129520Y-43707151D01*
X112142133Y-43686107D01*
X112156747Y-43666402D01*
X112173223Y-43648223D01*
X112191402Y-43631747D01*
X112211107Y-43617133D01*
X112232151Y-43604520D01*
X112254329Y-43594030D01*
X112277429Y-43585765D01*
X112301227Y-43579804D01*
X112325496Y-43576204D01*
X112350000Y-43575000D01*
X113275000Y-43575000D01*
X113299504Y-43576204D01*
X113299504Y-43576204D01*
G37*
D11*
X112812500Y-44450000D03*
D10*
G36*
X116274504Y-43576204D02*
X116298773Y-43579804D01*
X116322571Y-43585765D01*
X116345671Y-43594030D01*
X116367849Y-43604520D01*
X116388893Y-43617133D01*
X116408598Y-43631747D01*
X116426777Y-43648223D01*
X116443253Y-43666402D01*
X116457867Y-43686107D01*
X116470480Y-43707151D01*
X116480970Y-43729329D01*
X116489235Y-43752429D01*
X116495196Y-43776227D01*
X116498796Y-43800496D01*
X116500000Y-43825000D01*
X116500000Y-45075000D01*
X116498796Y-45099504D01*
X116495196Y-45123773D01*
X116489235Y-45147571D01*
X116480970Y-45170671D01*
X116470480Y-45192849D01*
X116457867Y-45213893D01*
X116443253Y-45233598D01*
X116426777Y-45251777D01*
X116408598Y-45268253D01*
X116388893Y-45282867D01*
X116367849Y-45295480D01*
X116345671Y-45305970D01*
X116322571Y-45314235D01*
X116298773Y-45320196D01*
X116274504Y-45323796D01*
X116250000Y-45325000D01*
X115325000Y-45325000D01*
X115300496Y-45323796D01*
X115276227Y-45320196D01*
X115252429Y-45314235D01*
X115229329Y-45305970D01*
X115207151Y-45295480D01*
X115186107Y-45282867D01*
X115166402Y-45268253D01*
X115148223Y-45251777D01*
X115131747Y-45233598D01*
X115117133Y-45213893D01*
X115104520Y-45192849D01*
X115094030Y-45170671D01*
X115085765Y-45147571D01*
X115079804Y-45123773D01*
X115076204Y-45099504D01*
X115075000Y-45075000D01*
X115075000Y-43825000D01*
X115076204Y-43800496D01*
X115079804Y-43776227D01*
X115085765Y-43752429D01*
X115094030Y-43729329D01*
X115104520Y-43707151D01*
X115117133Y-43686107D01*
X115131747Y-43666402D01*
X115148223Y-43648223D01*
X115166402Y-43631747D01*
X115186107Y-43617133D01*
X115207151Y-43604520D01*
X115229329Y-43594030D01*
X115252429Y-43585765D01*
X115276227Y-43579804D01*
X115300496Y-43576204D01*
X115325000Y-43575000D01*
X116250000Y-43575000D01*
X116274504Y-43576204D01*
X116274504Y-43576204D01*
G37*
D11*
X115787500Y-44450000D03*
G04 #@! TD*
D10*
G04 #@! TO.C,C3*
G36*
X158854505Y-57721204D02*
X158878773Y-57724804D01*
X158902572Y-57730765D01*
X158925671Y-57739030D01*
X158947850Y-57749520D01*
X158968893Y-57762132D01*
X158988599Y-57776747D01*
X159006777Y-57793223D01*
X159023253Y-57811401D01*
X159037868Y-57831107D01*
X159050480Y-57852150D01*
X159060970Y-57874329D01*
X159069235Y-57897428D01*
X159075196Y-57921227D01*
X159078796Y-57945495D01*
X159080000Y-57969999D01*
X159080000Y-58870001D01*
X159078796Y-58894505D01*
X159075196Y-58918773D01*
X159069235Y-58942572D01*
X159060970Y-58965671D01*
X159050480Y-58987850D01*
X159037868Y-59008893D01*
X159023253Y-59028599D01*
X159006777Y-59046777D01*
X158988599Y-59063253D01*
X158968893Y-59077868D01*
X158947850Y-59090480D01*
X158925671Y-59100970D01*
X158902572Y-59109235D01*
X158878773Y-59115196D01*
X158854505Y-59118796D01*
X158830001Y-59120000D01*
X158179999Y-59120000D01*
X158155495Y-59118796D01*
X158131227Y-59115196D01*
X158107428Y-59109235D01*
X158084329Y-59100970D01*
X158062150Y-59090480D01*
X158041107Y-59077868D01*
X158021401Y-59063253D01*
X158003223Y-59046777D01*
X157986747Y-59028599D01*
X157972132Y-59008893D01*
X157959520Y-58987850D01*
X157949030Y-58965671D01*
X157940765Y-58942572D01*
X157934804Y-58918773D01*
X157931204Y-58894505D01*
X157930000Y-58870001D01*
X157930000Y-57969999D01*
X157931204Y-57945495D01*
X157934804Y-57921227D01*
X157940765Y-57897428D01*
X157949030Y-57874329D01*
X157959520Y-57852150D01*
X157972132Y-57831107D01*
X157986747Y-57811401D01*
X158003223Y-57793223D01*
X158021401Y-57776747D01*
X158041107Y-57762132D01*
X158062150Y-57749520D01*
X158084329Y-57739030D01*
X158107428Y-57730765D01*
X158131227Y-57724804D01*
X158155495Y-57721204D01*
X158179999Y-57720000D01*
X158830001Y-57720000D01*
X158854505Y-57721204D01*
X158854505Y-57721204D01*
G37*
D12*
X158505000Y-58420000D03*
D10*
G36*
X156804505Y-57721204D02*
X156828773Y-57724804D01*
X156852572Y-57730765D01*
X156875671Y-57739030D01*
X156897850Y-57749520D01*
X156918893Y-57762132D01*
X156938599Y-57776747D01*
X156956777Y-57793223D01*
X156973253Y-57811401D01*
X156987868Y-57831107D01*
X157000480Y-57852150D01*
X157010970Y-57874329D01*
X157019235Y-57897428D01*
X157025196Y-57921227D01*
X157028796Y-57945495D01*
X157030000Y-57969999D01*
X157030000Y-58870001D01*
X157028796Y-58894505D01*
X157025196Y-58918773D01*
X157019235Y-58942572D01*
X157010970Y-58965671D01*
X157000480Y-58987850D01*
X156987868Y-59008893D01*
X156973253Y-59028599D01*
X156956777Y-59046777D01*
X156938599Y-59063253D01*
X156918893Y-59077868D01*
X156897850Y-59090480D01*
X156875671Y-59100970D01*
X156852572Y-59109235D01*
X156828773Y-59115196D01*
X156804505Y-59118796D01*
X156780001Y-59120000D01*
X156129999Y-59120000D01*
X156105495Y-59118796D01*
X156081227Y-59115196D01*
X156057428Y-59109235D01*
X156034329Y-59100970D01*
X156012150Y-59090480D01*
X155991107Y-59077868D01*
X155971401Y-59063253D01*
X155953223Y-59046777D01*
X155936747Y-59028599D01*
X155922132Y-59008893D01*
X155909520Y-58987850D01*
X155899030Y-58965671D01*
X155890765Y-58942572D01*
X155884804Y-58918773D01*
X155881204Y-58894505D01*
X155880000Y-58870001D01*
X155880000Y-57969999D01*
X155881204Y-57945495D01*
X155884804Y-57921227D01*
X155890765Y-57897428D01*
X155899030Y-57874329D01*
X155909520Y-57852150D01*
X155922132Y-57831107D01*
X155936747Y-57811401D01*
X155953223Y-57793223D01*
X155971401Y-57776747D01*
X155991107Y-57762132D01*
X156012150Y-57749520D01*
X156034329Y-57739030D01*
X156057428Y-57730765D01*
X156081227Y-57724804D01*
X156105495Y-57721204D01*
X156129999Y-57720000D01*
X156780001Y-57720000D01*
X156804505Y-57721204D01*
X156804505Y-57721204D01*
G37*
D12*
X156455000Y-58420000D03*
G04 #@! TD*
D10*
G04 #@! TO.C,C4*
G36*
X137264505Y-61531204D02*
X137288773Y-61534804D01*
X137312572Y-61540765D01*
X137335671Y-61549030D01*
X137357850Y-61559520D01*
X137378893Y-61572132D01*
X137398599Y-61586747D01*
X137416777Y-61603223D01*
X137433253Y-61621401D01*
X137447868Y-61641107D01*
X137460480Y-61662150D01*
X137470970Y-61684329D01*
X137479235Y-61707428D01*
X137485196Y-61731227D01*
X137488796Y-61755495D01*
X137490000Y-61779999D01*
X137490000Y-62680001D01*
X137488796Y-62704505D01*
X137485196Y-62728773D01*
X137479235Y-62752572D01*
X137470970Y-62775671D01*
X137460480Y-62797850D01*
X137447868Y-62818893D01*
X137433253Y-62838599D01*
X137416777Y-62856777D01*
X137398599Y-62873253D01*
X137378893Y-62887868D01*
X137357850Y-62900480D01*
X137335671Y-62910970D01*
X137312572Y-62919235D01*
X137288773Y-62925196D01*
X137264505Y-62928796D01*
X137240001Y-62930000D01*
X136589999Y-62930000D01*
X136565495Y-62928796D01*
X136541227Y-62925196D01*
X136517428Y-62919235D01*
X136494329Y-62910970D01*
X136472150Y-62900480D01*
X136451107Y-62887868D01*
X136431401Y-62873253D01*
X136413223Y-62856777D01*
X136396747Y-62838599D01*
X136382132Y-62818893D01*
X136369520Y-62797850D01*
X136359030Y-62775671D01*
X136350765Y-62752572D01*
X136344804Y-62728773D01*
X136341204Y-62704505D01*
X136340000Y-62680001D01*
X136340000Y-61779999D01*
X136341204Y-61755495D01*
X136344804Y-61731227D01*
X136350765Y-61707428D01*
X136359030Y-61684329D01*
X136369520Y-61662150D01*
X136382132Y-61641107D01*
X136396747Y-61621401D01*
X136413223Y-61603223D01*
X136431401Y-61586747D01*
X136451107Y-61572132D01*
X136472150Y-61559520D01*
X136494329Y-61549030D01*
X136517428Y-61540765D01*
X136541227Y-61534804D01*
X136565495Y-61531204D01*
X136589999Y-61530000D01*
X137240001Y-61530000D01*
X137264505Y-61531204D01*
X137264505Y-61531204D01*
G37*
D12*
X136915000Y-62230000D03*
D10*
G36*
X135214505Y-61531204D02*
X135238773Y-61534804D01*
X135262572Y-61540765D01*
X135285671Y-61549030D01*
X135307850Y-61559520D01*
X135328893Y-61572132D01*
X135348599Y-61586747D01*
X135366777Y-61603223D01*
X135383253Y-61621401D01*
X135397868Y-61641107D01*
X135410480Y-61662150D01*
X135420970Y-61684329D01*
X135429235Y-61707428D01*
X135435196Y-61731227D01*
X135438796Y-61755495D01*
X135440000Y-61779999D01*
X135440000Y-62680001D01*
X135438796Y-62704505D01*
X135435196Y-62728773D01*
X135429235Y-62752572D01*
X135420970Y-62775671D01*
X135410480Y-62797850D01*
X135397868Y-62818893D01*
X135383253Y-62838599D01*
X135366777Y-62856777D01*
X135348599Y-62873253D01*
X135328893Y-62887868D01*
X135307850Y-62900480D01*
X135285671Y-62910970D01*
X135262572Y-62919235D01*
X135238773Y-62925196D01*
X135214505Y-62928796D01*
X135190001Y-62930000D01*
X134539999Y-62930000D01*
X134515495Y-62928796D01*
X134491227Y-62925196D01*
X134467428Y-62919235D01*
X134444329Y-62910970D01*
X134422150Y-62900480D01*
X134401107Y-62887868D01*
X134381401Y-62873253D01*
X134363223Y-62856777D01*
X134346747Y-62838599D01*
X134332132Y-62818893D01*
X134319520Y-62797850D01*
X134309030Y-62775671D01*
X134300765Y-62752572D01*
X134294804Y-62728773D01*
X134291204Y-62704505D01*
X134290000Y-62680001D01*
X134290000Y-61779999D01*
X134291204Y-61755495D01*
X134294804Y-61731227D01*
X134300765Y-61707428D01*
X134309030Y-61684329D01*
X134319520Y-61662150D01*
X134332132Y-61641107D01*
X134346747Y-61621401D01*
X134363223Y-61603223D01*
X134381401Y-61586747D01*
X134401107Y-61572132D01*
X134422150Y-61559520D01*
X134444329Y-61549030D01*
X134467428Y-61540765D01*
X134491227Y-61534804D01*
X134515495Y-61531204D01*
X134539999Y-61530000D01*
X135190001Y-61530000D01*
X135214505Y-61531204D01*
X135214505Y-61531204D01*
G37*
D12*
X134865000Y-62230000D03*
G04 #@! TD*
D10*
G04 #@! TO.C,C5*
G36*
X142714505Y-72061204D02*
X142738773Y-72064804D01*
X142762572Y-72070765D01*
X142785671Y-72079030D01*
X142807850Y-72089520D01*
X142828893Y-72102132D01*
X142848599Y-72116747D01*
X142866777Y-72133223D01*
X142883253Y-72151401D01*
X142897868Y-72171107D01*
X142910480Y-72192150D01*
X142920970Y-72214329D01*
X142929235Y-72237428D01*
X142935196Y-72261227D01*
X142938796Y-72285495D01*
X142940000Y-72309999D01*
X142940000Y-72960001D01*
X142938796Y-72984505D01*
X142935196Y-73008773D01*
X142929235Y-73032572D01*
X142920970Y-73055671D01*
X142910480Y-73077850D01*
X142897868Y-73098893D01*
X142883253Y-73118599D01*
X142866777Y-73136777D01*
X142848599Y-73153253D01*
X142828893Y-73167868D01*
X142807850Y-73180480D01*
X142785671Y-73190970D01*
X142762572Y-73199235D01*
X142738773Y-73205196D01*
X142714505Y-73208796D01*
X142690001Y-73210000D01*
X141789999Y-73210000D01*
X141765495Y-73208796D01*
X141741227Y-73205196D01*
X141717428Y-73199235D01*
X141694329Y-73190970D01*
X141672150Y-73180480D01*
X141651107Y-73167868D01*
X141631401Y-73153253D01*
X141613223Y-73136777D01*
X141596747Y-73118599D01*
X141582132Y-73098893D01*
X141569520Y-73077850D01*
X141559030Y-73055671D01*
X141550765Y-73032572D01*
X141544804Y-73008773D01*
X141541204Y-72984505D01*
X141540000Y-72960001D01*
X141540000Y-72309999D01*
X141541204Y-72285495D01*
X141544804Y-72261227D01*
X141550765Y-72237428D01*
X141559030Y-72214329D01*
X141569520Y-72192150D01*
X141582132Y-72171107D01*
X141596747Y-72151401D01*
X141613223Y-72133223D01*
X141631401Y-72116747D01*
X141651107Y-72102132D01*
X141672150Y-72089520D01*
X141694329Y-72079030D01*
X141717428Y-72070765D01*
X141741227Y-72064804D01*
X141765495Y-72061204D01*
X141789999Y-72060000D01*
X142690001Y-72060000D01*
X142714505Y-72061204D01*
X142714505Y-72061204D01*
G37*
D12*
X142240000Y-72635000D03*
D10*
G36*
X142714505Y-74111204D02*
X142738773Y-74114804D01*
X142762572Y-74120765D01*
X142785671Y-74129030D01*
X142807850Y-74139520D01*
X142828893Y-74152132D01*
X142848599Y-74166747D01*
X142866777Y-74183223D01*
X142883253Y-74201401D01*
X142897868Y-74221107D01*
X142910480Y-74242150D01*
X142920970Y-74264329D01*
X142929235Y-74287428D01*
X142935196Y-74311227D01*
X142938796Y-74335495D01*
X142940000Y-74359999D01*
X142940000Y-75010001D01*
X142938796Y-75034505D01*
X142935196Y-75058773D01*
X142929235Y-75082572D01*
X142920970Y-75105671D01*
X142910480Y-75127850D01*
X142897868Y-75148893D01*
X142883253Y-75168599D01*
X142866777Y-75186777D01*
X142848599Y-75203253D01*
X142828893Y-75217868D01*
X142807850Y-75230480D01*
X142785671Y-75240970D01*
X142762572Y-75249235D01*
X142738773Y-75255196D01*
X142714505Y-75258796D01*
X142690001Y-75260000D01*
X141789999Y-75260000D01*
X141765495Y-75258796D01*
X141741227Y-75255196D01*
X141717428Y-75249235D01*
X141694329Y-75240970D01*
X141672150Y-75230480D01*
X141651107Y-75217868D01*
X141631401Y-75203253D01*
X141613223Y-75186777D01*
X141596747Y-75168599D01*
X141582132Y-75148893D01*
X141569520Y-75127850D01*
X141559030Y-75105671D01*
X141550765Y-75082572D01*
X141544804Y-75058773D01*
X141541204Y-75034505D01*
X141540000Y-75010001D01*
X141540000Y-74359999D01*
X141541204Y-74335495D01*
X141544804Y-74311227D01*
X141550765Y-74287428D01*
X141559030Y-74264329D01*
X141569520Y-74242150D01*
X141582132Y-74221107D01*
X141596747Y-74201401D01*
X141613223Y-74183223D01*
X141631401Y-74166747D01*
X141651107Y-74152132D01*
X141672150Y-74139520D01*
X141694329Y-74129030D01*
X141717428Y-74120765D01*
X141741227Y-74114804D01*
X141765495Y-74111204D01*
X141789999Y-74110000D01*
X142690001Y-74110000D01*
X142714505Y-74111204D01*
X142714505Y-74111204D01*
G37*
D12*
X142240000Y-74685000D03*
G04 #@! TD*
D10*
G04 #@! TO.C,C6*
G36*
X151234505Y-57721204D02*
X151258773Y-57724804D01*
X151282572Y-57730765D01*
X151305671Y-57739030D01*
X151327850Y-57749520D01*
X151348893Y-57762132D01*
X151368599Y-57776747D01*
X151386777Y-57793223D01*
X151403253Y-57811401D01*
X151417868Y-57831107D01*
X151430480Y-57852150D01*
X151440970Y-57874329D01*
X151449235Y-57897428D01*
X151455196Y-57921227D01*
X151458796Y-57945495D01*
X151460000Y-57969999D01*
X151460000Y-58870001D01*
X151458796Y-58894505D01*
X151455196Y-58918773D01*
X151449235Y-58942572D01*
X151440970Y-58965671D01*
X151430480Y-58987850D01*
X151417868Y-59008893D01*
X151403253Y-59028599D01*
X151386777Y-59046777D01*
X151368599Y-59063253D01*
X151348893Y-59077868D01*
X151327850Y-59090480D01*
X151305671Y-59100970D01*
X151282572Y-59109235D01*
X151258773Y-59115196D01*
X151234505Y-59118796D01*
X151210001Y-59120000D01*
X150559999Y-59120000D01*
X150535495Y-59118796D01*
X150511227Y-59115196D01*
X150487428Y-59109235D01*
X150464329Y-59100970D01*
X150442150Y-59090480D01*
X150421107Y-59077868D01*
X150401401Y-59063253D01*
X150383223Y-59046777D01*
X150366747Y-59028599D01*
X150352132Y-59008893D01*
X150339520Y-58987850D01*
X150329030Y-58965671D01*
X150320765Y-58942572D01*
X150314804Y-58918773D01*
X150311204Y-58894505D01*
X150310000Y-58870001D01*
X150310000Y-57969999D01*
X150311204Y-57945495D01*
X150314804Y-57921227D01*
X150320765Y-57897428D01*
X150329030Y-57874329D01*
X150339520Y-57852150D01*
X150352132Y-57831107D01*
X150366747Y-57811401D01*
X150383223Y-57793223D01*
X150401401Y-57776747D01*
X150421107Y-57762132D01*
X150442150Y-57749520D01*
X150464329Y-57739030D01*
X150487428Y-57730765D01*
X150511227Y-57724804D01*
X150535495Y-57721204D01*
X150559999Y-57720000D01*
X151210001Y-57720000D01*
X151234505Y-57721204D01*
X151234505Y-57721204D01*
G37*
D12*
X150885000Y-58420000D03*
D10*
G36*
X149184505Y-57721204D02*
X149208773Y-57724804D01*
X149232572Y-57730765D01*
X149255671Y-57739030D01*
X149277850Y-57749520D01*
X149298893Y-57762132D01*
X149318599Y-57776747D01*
X149336777Y-57793223D01*
X149353253Y-57811401D01*
X149367868Y-57831107D01*
X149380480Y-57852150D01*
X149390970Y-57874329D01*
X149399235Y-57897428D01*
X149405196Y-57921227D01*
X149408796Y-57945495D01*
X149410000Y-57969999D01*
X149410000Y-58870001D01*
X149408796Y-58894505D01*
X149405196Y-58918773D01*
X149399235Y-58942572D01*
X149390970Y-58965671D01*
X149380480Y-58987850D01*
X149367868Y-59008893D01*
X149353253Y-59028599D01*
X149336777Y-59046777D01*
X149318599Y-59063253D01*
X149298893Y-59077868D01*
X149277850Y-59090480D01*
X149255671Y-59100970D01*
X149232572Y-59109235D01*
X149208773Y-59115196D01*
X149184505Y-59118796D01*
X149160001Y-59120000D01*
X148509999Y-59120000D01*
X148485495Y-59118796D01*
X148461227Y-59115196D01*
X148437428Y-59109235D01*
X148414329Y-59100970D01*
X148392150Y-59090480D01*
X148371107Y-59077868D01*
X148351401Y-59063253D01*
X148333223Y-59046777D01*
X148316747Y-59028599D01*
X148302132Y-59008893D01*
X148289520Y-58987850D01*
X148279030Y-58965671D01*
X148270765Y-58942572D01*
X148264804Y-58918773D01*
X148261204Y-58894505D01*
X148260000Y-58870001D01*
X148260000Y-57969999D01*
X148261204Y-57945495D01*
X148264804Y-57921227D01*
X148270765Y-57897428D01*
X148279030Y-57874329D01*
X148289520Y-57852150D01*
X148302132Y-57831107D01*
X148316747Y-57811401D01*
X148333223Y-57793223D01*
X148351401Y-57776747D01*
X148371107Y-57762132D01*
X148392150Y-57749520D01*
X148414329Y-57739030D01*
X148437428Y-57730765D01*
X148461227Y-57724804D01*
X148485495Y-57721204D01*
X148509999Y-57720000D01*
X149160001Y-57720000D01*
X149184505Y-57721204D01*
X149184505Y-57721204D01*
G37*
D12*
X148835000Y-58420000D03*
G04 #@! TD*
D10*
G04 #@! TO.C,C7*
G36*
X152232505Y-66992204D02*
X152256773Y-66995804D01*
X152280572Y-67001765D01*
X152303671Y-67010030D01*
X152325850Y-67020520D01*
X152346893Y-67033132D01*
X152366599Y-67047747D01*
X152384777Y-67064223D01*
X152401253Y-67082401D01*
X152415868Y-67102107D01*
X152428480Y-67123150D01*
X152438970Y-67145329D01*
X152447235Y-67168428D01*
X152453196Y-67192227D01*
X152456796Y-67216495D01*
X152458000Y-67240999D01*
X152458000Y-68141001D01*
X152456796Y-68165505D01*
X152453196Y-68189773D01*
X152447235Y-68213572D01*
X152438970Y-68236671D01*
X152428480Y-68258850D01*
X152415868Y-68279893D01*
X152401253Y-68299599D01*
X152384777Y-68317777D01*
X152366599Y-68334253D01*
X152346893Y-68348868D01*
X152325850Y-68361480D01*
X152303671Y-68371970D01*
X152280572Y-68380235D01*
X152256773Y-68386196D01*
X152232505Y-68389796D01*
X152208001Y-68391000D01*
X151557999Y-68391000D01*
X151533495Y-68389796D01*
X151509227Y-68386196D01*
X151485428Y-68380235D01*
X151462329Y-68371970D01*
X151440150Y-68361480D01*
X151419107Y-68348868D01*
X151399401Y-68334253D01*
X151381223Y-68317777D01*
X151364747Y-68299599D01*
X151350132Y-68279893D01*
X151337520Y-68258850D01*
X151327030Y-68236671D01*
X151318765Y-68213572D01*
X151312804Y-68189773D01*
X151309204Y-68165505D01*
X151308000Y-68141001D01*
X151308000Y-67240999D01*
X151309204Y-67216495D01*
X151312804Y-67192227D01*
X151318765Y-67168428D01*
X151327030Y-67145329D01*
X151337520Y-67123150D01*
X151350132Y-67102107D01*
X151364747Y-67082401D01*
X151381223Y-67064223D01*
X151399401Y-67047747D01*
X151419107Y-67033132D01*
X151440150Y-67020520D01*
X151462329Y-67010030D01*
X151485428Y-67001765D01*
X151509227Y-66995804D01*
X151533495Y-66992204D01*
X151557999Y-66991000D01*
X152208001Y-66991000D01*
X152232505Y-66992204D01*
X152232505Y-66992204D01*
G37*
D12*
X151883000Y-67691000D03*
D10*
G36*
X154282505Y-66992204D02*
X154306773Y-66995804D01*
X154330572Y-67001765D01*
X154353671Y-67010030D01*
X154375850Y-67020520D01*
X154396893Y-67033132D01*
X154416599Y-67047747D01*
X154434777Y-67064223D01*
X154451253Y-67082401D01*
X154465868Y-67102107D01*
X154478480Y-67123150D01*
X154488970Y-67145329D01*
X154497235Y-67168428D01*
X154503196Y-67192227D01*
X154506796Y-67216495D01*
X154508000Y-67240999D01*
X154508000Y-68141001D01*
X154506796Y-68165505D01*
X154503196Y-68189773D01*
X154497235Y-68213572D01*
X154488970Y-68236671D01*
X154478480Y-68258850D01*
X154465868Y-68279893D01*
X154451253Y-68299599D01*
X154434777Y-68317777D01*
X154416599Y-68334253D01*
X154396893Y-68348868D01*
X154375850Y-68361480D01*
X154353671Y-68371970D01*
X154330572Y-68380235D01*
X154306773Y-68386196D01*
X154282505Y-68389796D01*
X154258001Y-68391000D01*
X153607999Y-68391000D01*
X153583495Y-68389796D01*
X153559227Y-68386196D01*
X153535428Y-68380235D01*
X153512329Y-68371970D01*
X153490150Y-68361480D01*
X153469107Y-68348868D01*
X153449401Y-68334253D01*
X153431223Y-68317777D01*
X153414747Y-68299599D01*
X153400132Y-68279893D01*
X153387520Y-68258850D01*
X153377030Y-68236671D01*
X153368765Y-68213572D01*
X153362804Y-68189773D01*
X153359204Y-68165505D01*
X153358000Y-68141001D01*
X153358000Y-67240999D01*
X153359204Y-67216495D01*
X153362804Y-67192227D01*
X153368765Y-67168428D01*
X153377030Y-67145329D01*
X153387520Y-67123150D01*
X153400132Y-67102107D01*
X153414747Y-67082401D01*
X153431223Y-67064223D01*
X153449401Y-67047747D01*
X153469107Y-67033132D01*
X153490150Y-67020520D01*
X153512329Y-67010030D01*
X153535428Y-67001765D01*
X153559227Y-66995804D01*
X153583495Y-66992204D01*
X153607999Y-66991000D01*
X154258001Y-66991000D01*
X154282505Y-66992204D01*
X154282505Y-66992204D01*
G37*
D12*
X153933000Y-67691000D03*
G04 #@! TD*
D10*
G04 #@! TO.C,C9*
G36*
X99347004Y-54371204D02*
X99371273Y-54374804D01*
X99395071Y-54380765D01*
X99418171Y-54389030D01*
X99440349Y-54399520D01*
X99461393Y-54412133D01*
X99481098Y-54426747D01*
X99499277Y-54443223D01*
X99515753Y-54461402D01*
X99530367Y-54481107D01*
X99542980Y-54502151D01*
X99553470Y-54524329D01*
X99561735Y-54547429D01*
X99567696Y-54571227D01*
X99571296Y-54595496D01*
X99572500Y-54620000D01*
X99572500Y-55870000D01*
X99571296Y-55894504D01*
X99567696Y-55918773D01*
X99561735Y-55942571D01*
X99553470Y-55965671D01*
X99542980Y-55987849D01*
X99530367Y-56008893D01*
X99515753Y-56028598D01*
X99499277Y-56046777D01*
X99481098Y-56063253D01*
X99461393Y-56077867D01*
X99440349Y-56090480D01*
X99418171Y-56100970D01*
X99395071Y-56109235D01*
X99371273Y-56115196D01*
X99347004Y-56118796D01*
X99322500Y-56120000D01*
X98397500Y-56120000D01*
X98372996Y-56118796D01*
X98348727Y-56115196D01*
X98324929Y-56109235D01*
X98301829Y-56100970D01*
X98279651Y-56090480D01*
X98258607Y-56077867D01*
X98238902Y-56063253D01*
X98220723Y-56046777D01*
X98204247Y-56028598D01*
X98189633Y-56008893D01*
X98177020Y-55987849D01*
X98166530Y-55965671D01*
X98158265Y-55942571D01*
X98152304Y-55918773D01*
X98148704Y-55894504D01*
X98147500Y-55870000D01*
X98147500Y-54620000D01*
X98148704Y-54595496D01*
X98152304Y-54571227D01*
X98158265Y-54547429D01*
X98166530Y-54524329D01*
X98177020Y-54502151D01*
X98189633Y-54481107D01*
X98204247Y-54461402D01*
X98220723Y-54443223D01*
X98238902Y-54426747D01*
X98258607Y-54412133D01*
X98279651Y-54399520D01*
X98301829Y-54389030D01*
X98324929Y-54380765D01*
X98348727Y-54374804D01*
X98372996Y-54371204D01*
X98397500Y-54370000D01*
X99322500Y-54370000D01*
X99347004Y-54371204D01*
X99347004Y-54371204D01*
G37*
D11*
X98860000Y-55245000D03*
D10*
G36*
X96372004Y-54371204D02*
X96396273Y-54374804D01*
X96420071Y-54380765D01*
X96443171Y-54389030D01*
X96465349Y-54399520D01*
X96486393Y-54412133D01*
X96506098Y-54426747D01*
X96524277Y-54443223D01*
X96540753Y-54461402D01*
X96555367Y-54481107D01*
X96567980Y-54502151D01*
X96578470Y-54524329D01*
X96586735Y-54547429D01*
X96592696Y-54571227D01*
X96596296Y-54595496D01*
X96597500Y-54620000D01*
X96597500Y-55870000D01*
X96596296Y-55894504D01*
X96592696Y-55918773D01*
X96586735Y-55942571D01*
X96578470Y-55965671D01*
X96567980Y-55987849D01*
X96555367Y-56008893D01*
X96540753Y-56028598D01*
X96524277Y-56046777D01*
X96506098Y-56063253D01*
X96486393Y-56077867D01*
X96465349Y-56090480D01*
X96443171Y-56100970D01*
X96420071Y-56109235D01*
X96396273Y-56115196D01*
X96372004Y-56118796D01*
X96347500Y-56120000D01*
X95422500Y-56120000D01*
X95397996Y-56118796D01*
X95373727Y-56115196D01*
X95349929Y-56109235D01*
X95326829Y-56100970D01*
X95304651Y-56090480D01*
X95283607Y-56077867D01*
X95263902Y-56063253D01*
X95245723Y-56046777D01*
X95229247Y-56028598D01*
X95214633Y-56008893D01*
X95202020Y-55987849D01*
X95191530Y-55965671D01*
X95183265Y-55942571D01*
X95177304Y-55918773D01*
X95173704Y-55894504D01*
X95172500Y-55870000D01*
X95172500Y-54620000D01*
X95173704Y-54595496D01*
X95177304Y-54571227D01*
X95183265Y-54547429D01*
X95191530Y-54524329D01*
X95202020Y-54502151D01*
X95214633Y-54481107D01*
X95229247Y-54461402D01*
X95245723Y-54443223D01*
X95263902Y-54426747D01*
X95283607Y-54412133D01*
X95304651Y-54399520D01*
X95326829Y-54389030D01*
X95349929Y-54380765D01*
X95373727Y-54374804D01*
X95397996Y-54371204D01*
X95422500Y-54370000D01*
X96347500Y-54370000D01*
X96372004Y-54371204D01*
X96372004Y-54371204D01*
G37*
D11*
X95885000Y-55245000D03*
G04 #@! TD*
D10*
G04 #@! TO.C,C12*
G36*
X122394505Y-85541204D02*
X122418773Y-85544804D01*
X122442572Y-85550765D01*
X122465671Y-85559030D01*
X122487850Y-85569520D01*
X122508893Y-85582132D01*
X122528599Y-85596747D01*
X122546777Y-85613223D01*
X122563253Y-85631401D01*
X122577868Y-85651107D01*
X122590480Y-85672150D01*
X122600970Y-85694329D01*
X122609235Y-85717428D01*
X122615196Y-85741227D01*
X122618796Y-85765495D01*
X122620000Y-85789999D01*
X122620000Y-86440001D01*
X122618796Y-86464505D01*
X122615196Y-86488773D01*
X122609235Y-86512572D01*
X122600970Y-86535671D01*
X122590480Y-86557850D01*
X122577868Y-86578893D01*
X122563253Y-86598599D01*
X122546777Y-86616777D01*
X122528599Y-86633253D01*
X122508893Y-86647868D01*
X122487850Y-86660480D01*
X122465671Y-86670970D01*
X122442572Y-86679235D01*
X122418773Y-86685196D01*
X122394505Y-86688796D01*
X122370001Y-86690000D01*
X121469999Y-86690000D01*
X121445495Y-86688796D01*
X121421227Y-86685196D01*
X121397428Y-86679235D01*
X121374329Y-86670970D01*
X121352150Y-86660480D01*
X121331107Y-86647868D01*
X121311401Y-86633253D01*
X121293223Y-86616777D01*
X121276747Y-86598599D01*
X121262132Y-86578893D01*
X121249520Y-86557850D01*
X121239030Y-86535671D01*
X121230765Y-86512572D01*
X121224804Y-86488773D01*
X121221204Y-86464505D01*
X121220000Y-86440001D01*
X121220000Y-85789999D01*
X121221204Y-85765495D01*
X121224804Y-85741227D01*
X121230765Y-85717428D01*
X121239030Y-85694329D01*
X121249520Y-85672150D01*
X121262132Y-85651107D01*
X121276747Y-85631401D01*
X121293223Y-85613223D01*
X121311401Y-85596747D01*
X121331107Y-85582132D01*
X121352150Y-85569520D01*
X121374329Y-85559030D01*
X121397428Y-85550765D01*
X121421227Y-85544804D01*
X121445495Y-85541204D01*
X121469999Y-85540000D01*
X122370001Y-85540000D01*
X122394505Y-85541204D01*
X122394505Y-85541204D01*
G37*
D12*
X121920000Y-86115000D03*
D10*
G36*
X122394505Y-83491204D02*
X122418773Y-83494804D01*
X122442572Y-83500765D01*
X122465671Y-83509030D01*
X122487850Y-83519520D01*
X122508893Y-83532132D01*
X122528599Y-83546747D01*
X122546777Y-83563223D01*
X122563253Y-83581401D01*
X122577868Y-83601107D01*
X122590480Y-83622150D01*
X122600970Y-83644329D01*
X122609235Y-83667428D01*
X122615196Y-83691227D01*
X122618796Y-83715495D01*
X122620000Y-83739999D01*
X122620000Y-84390001D01*
X122618796Y-84414505D01*
X122615196Y-84438773D01*
X122609235Y-84462572D01*
X122600970Y-84485671D01*
X122590480Y-84507850D01*
X122577868Y-84528893D01*
X122563253Y-84548599D01*
X122546777Y-84566777D01*
X122528599Y-84583253D01*
X122508893Y-84597868D01*
X122487850Y-84610480D01*
X122465671Y-84620970D01*
X122442572Y-84629235D01*
X122418773Y-84635196D01*
X122394505Y-84638796D01*
X122370001Y-84640000D01*
X121469999Y-84640000D01*
X121445495Y-84638796D01*
X121421227Y-84635196D01*
X121397428Y-84629235D01*
X121374329Y-84620970D01*
X121352150Y-84610480D01*
X121331107Y-84597868D01*
X121311401Y-84583253D01*
X121293223Y-84566777D01*
X121276747Y-84548599D01*
X121262132Y-84528893D01*
X121249520Y-84507850D01*
X121239030Y-84485671D01*
X121230765Y-84462572D01*
X121224804Y-84438773D01*
X121221204Y-84414505D01*
X121220000Y-84390001D01*
X121220000Y-83739999D01*
X121221204Y-83715495D01*
X121224804Y-83691227D01*
X121230765Y-83667428D01*
X121239030Y-83644329D01*
X121249520Y-83622150D01*
X121262132Y-83601107D01*
X121276747Y-83581401D01*
X121293223Y-83563223D01*
X121311401Y-83546747D01*
X121331107Y-83532132D01*
X121352150Y-83519520D01*
X121374329Y-83509030D01*
X121397428Y-83500765D01*
X121421227Y-83494804D01*
X121445495Y-83491204D01*
X121469999Y-83490000D01*
X122370001Y-83490000D01*
X122394505Y-83491204D01*
X122394505Y-83491204D01*
G37*
D12*
X121920000Y-84065000D03*
G04 #@! TD*
D13*
G04 #@! TO.C,U1*
X111150000Y-47230000D03*
X111150000Y-51830000D03*
X111150000Y-49530000D03*
D14*
X117450000Y-49530000D03*
G04 #@! TD*
D15*
G04 #@! TO.C,U2*
X149800458Y-65901371D03*
D10*
G36*
X149252450Y-65530140D02*
X149429227Y-65353363D01*
X150348466Y-66272602D01*
X150171689Y-66449379D01*
X149252450Y-65530140D01*
X149252450Y-65530140D01*
G37*
D15*
X149446905Y-66254924D03*
D10*
G36*
X148898897Y-65883693D02*
X149075674Y-65706916D01*
X149994913Y-66626155D01*
X149818136Y-66802932D01*
X148898897Y-65883693D01*
X148898897Y-65883693D01*
G37*
D15*
X149093351Y-66608478D03*
D10*
G36*
X148545343Y-66237247D02*
X148722120Y-66060470D01*
X149641359Y-66979709D01*
X149464582Y-67156486D01*
X148545343Y-66237247D01*
X148545343Y-66237247D01*
G37*
D15*
X148739798Y-66962031D03*
D10*
G36*
X148191790Y-66590800D02*
X148368567Y-66414023D01*
X149287806Y-67333262D01*
X149111029Y-67510039D01*
X148191790Y-66590800D01*
X148191790Y-66590800D01*
G37*
D15*
X148386245Y-67315584D03*
D10*
G36*
X147838237Y-66944353D02*
X148015014Y-66767576D01*
X148934253Y-67686815D01*
X148757476Y-67863592D01*
X147838237Y-66944353D01*
X147838237Y-66944353D01*
G37*
D15*
X148032691Y-67669138D03*
D10*
G36*
X147484683Y-67297907D02*
X147661460Y-67121130D01*
X148580699Y-68040369D01*
X148403922Y-68217146D01*
X147484683Y-67297907D01*
X147484683Y-67297907D01*
G37*
D15*
X147679138Y-68022691D03*
D10*
G36*
X147131130Y-67651460D02*
X147307907Y-67474683D01*
X148227146Y-68393922D01*
X148050369Y-68570699D01*
X147131130Y-67651460D01*
X147131130Y-67651460D01*
G37*
D15*
X147325584Y-68376245D03*
D10*
G36*
X146777576Y-68005014D02*
X146954353Y-67828237D01*
X147873592Y-68747476D01*
X147696815Y-68924253D01*
X146777576Y-68005014D01*
X146777576Y-68005014D01*
G37*
D15*
X146972031Y-68729798D03*
D10*
G36*
X146424023Y-68358567D02*
X146600800Y-68181790D01*
X147520039Y-69101029D01*
X147343262Y-69277806D01*
X146424023Y-68358567D01*
X146424023Y-68358567D01*
G37*
D15*
X146618478Y-69083351D03*
D10*
G36*
X146070470Y-68712120D02*
X146247247Y-68535343D01*
X147166486Y-69454582D01*
X146989709Y-69631359D01*
X146070470Y-68712120D01*
X146070470Y-68712120D01*
G37*
D15*
X146264924Y-69436905D03*
D10*
G36*
X145716916Y-69065674D02*
X145893693Y-68888897D01*
X146812932Y-69808136D01*
X146636155Y-69984913D01*
X145716916Y-69065674D01*
X145716916Y-69065674D01*
G37*
D15*
X145911371Y-69790458D03*
D10*
G36*
X145363363Y-69419227D02*
X145540140Y-69242450D01*
X146459379Y-70161689D01*
X146282602Y-70338466D01*
X145363363Y-69419227D01*
X145363363Y-69419227D01*
G37*
D15*
X143648629Y-69790458D03*
D10*
G36*
X144019860Y-69242450D02*
X144196637Y-69419227D01*
X143277398Y-70338466D01*
X143100621Y-70161689D01*
X144019860Y-69242450D01*
X144019860Y-69242450D01*
G37*
D15*
X143295076Y-69436905D03*
D10*
G36*
X143666307Y-68888897D02*
X143843084Y-69065674D01*
X142923845Y-69984913D01*
X142747068Y-69808136D01*
X143666307Y-68888897D01*
X143666307Y-68888897D01*
G37*
D15*
X142941522Y-69083351D03*
D10*
G36*
X143312753Y-68535343D02*
X143489530Y-68712120D01*
X142570291Y-69631359D01*
X142393514Y-69454582D01*
X143312753Y-68535343D01*
X143312753Y-68535343D01*
G37*
D15*
X142587969Y-68729798D03*
D10*
G36*
X142959200Y-68181790D02*
X143135977Y-68358567D01*
X142216738Y-69277806D01*
X142039961Y-69101029D01*
X142959200Y-68181790D01*
X142959200Y-68181790D01*
G37*
D15*
X142234416Y-68376245D03*
D10*
G36*
X142605647Y-67828237D02*
X142782424Y-68005014D01*
X141863185Y-68924253D01*
X141686408Y-68747476D01*
X142605647Y-67828237D01*
X142605647Y-67828237D01*
G37*
D15*
X141880862Y-68022691D03*
D10*
G36*
X142252093Y-67474683D02*
X142428870Y-67651460D01*
X141509631Y-68570699D01*
X141332854Y-68393922D01*
X142252093Y-67474683D01*
X142252093Y-67474683D01*
G37*
D15*
X141527309Y-67669138D03*
D10*
G36*
X141898540Y-67121130D02*
X142075317Y-67297907D01*
X141156078Y-68217146D01*
X140979301Y-68040369D01*
X141898540Y-67121130D01*
X141898540Y-67121130D01*
G37*
D15*
X141173755Y-67315584D03*
D10*
G36*
X141544986Y-66767576D02*
X141721763Y-66944353D01*
X140802524Y-67863592D01*
X140625747Y-67686815D01*
X141544986Y-66767576D01*
X141544986Y-66767576D01*
G37*
D15*
X140820202Y-66962031D03*
D10*
G36*
X141191433Y-66414023D02*
X141368210Y-66590800D01*
X140448971Y-67510039D01*
X140272194Y-67333262D01*
X141191433Y-66414023D01*
X141191433Y-66414023D01*
G37*
D15*
X140466649Y-66608478D03*
D10*
G36*
X140837880Y-66060470D02*
X141014657Y-66237247D01*
X140095418Y-67156486D01*
X139918641Y-66979709D01*
X140837880Y-66060470D01*
X140837880Y-66060470D01*
G37*
D15*
X140113095Y-66254924D03*
D10*
G36*
X140484326Y-65706916D02*
X140661103Y-65883693D01*
X139741864Y-66802932D01*
X139565087Y-66626155D01*
X140484326Y-65706916D01*
X140484326Y-65706916D01*
G37*
D15*
X139759542Y-65901371D03*
D10*
G36*
X140130773Y-65353363D02*
X140307550Y-65530140D01*
X139388311Y-66449379D01*
X139211534Y-66272602D01*
X140130773Y-65353363D01*
X140130773Y-65353363D01*
G37*
D15*
X139759542Y-63638629D03*
D10*
G36*
X139211534Y-63267398D02*
X139388311Y-63090621D01*
X140307550Y-64009860D01*
X140130773Y-64186637D01*
X139211534Y-63267398D01*
X139211534Y-63267398D01*
G37*
D15*
X140113095Y-63285076D03*
D10*
G36*
X139565087Y-62913845D02*
X139741864Y-62737068D01*
X140661103Y-63656307D01*
X140484326Y-63833084D01*
X139565087Y-62913845D01*
X139565087Y-62913845D01*
G37*
D15*
X140466649Y-62931522D03*
D10*
G36*
X139918641Y-62560291D02*
X140095418Y-62383514D01*
X141014657Y-63302753D01*
X140837880Y-63479530D01*
X139918641Y-62560291D01*
X139918641Y-62560291D01*
G37*
D15*
X140820202Y-62577969D03*
D10*
G36*
X140272194Y-62206738D02*
X140448971Y-62029961D01*
X141368210Y-62949200D01*
X141191433Y-63125977D01*
X140272194Y-62206738D01*
X140272194Y-62206738D01*
G37*
D15*
X141173755Y-62224416D03*
D10*
G36*
X140625747Y-61853185D02*
X140802524Y-61676408D01*
X141721763Y-62595647D01*
X141544986Y-62772424D01*
X140625747Y-61853185D01*
X140625747Y-61853185D01*
G37*
D15*
X141527309Y-61870862D03*
D10*
G36*
X140979301Y-61499631D02*
X141156078Y-61322854D01*
X142075317Y-62242093D01*
X141898540Y-62418870D01*
X140979301Y-61499631D01*
X140979301Y-61499631D01*
G37*
D15*
X141880862Y-61517309D03*
D10*
G36*
X141332854Y-61146078D02*
X141509631Y-60969301D01*
X142428870Y-61888540D01*
X142252093Y-62065317D01*
X141332854Y-61146078D01*
X141332854Y-61146078D01*
G37*
D15*
X142234416Y-61163755D03*
D10*
G36*
X141686408Y-60792524D02*
X141863185Y-60615747D01*
X142782424Y-61534986D01*
X142605647Y-61711763D01*
X141686408Y-60792524D01*
X141686408Y-60792524D01*
G37*
D15*
X142587969Y-60810202D03*
D10*
G36*
X142039961Y-60438971D02*
X142216738Y-60262194D01*
X143135977Y-61181433D01*
X142959200Y-61358210D01*
X142039961Y-60438971D01*
X142039961Y-60438971D01*
G37*
D15*
X142941522Y-60456649D03*
D10*
G36*
X142393514Y-60085418D02*
X142570291Y-59908641D01*
X143489530Y-60827880D01*
X143312753Y-61004657D01*
X142393514Y-60085418D01*
X142393514Y-60085418D01*
G37*
D15*
X143295076Y-60103095D03*
D10*
G36*
X142747068Y-59731864D02*
X142923845Y-59555087D01*
X143843084Y-60474326D01*
X143666307Y-60651103D01*
X142747068Y-59731864D01*
X142747068Y-59731864D01*
G37*
D15*
X143648629Y-59749542D03*
D10*
G36*
X143100621Y-59378311D02*
X143277398Y-59201534D01*
X144196637Y-60120773D01*
X144019860Y-60297550D01*
X143100621Y-59378311D01*
X143100621Y-59378311D01*
G37*
D15*
X145911371Y-59749542D03*
D10*
G36*
X146282602Y-59201534D02*
X146459379Y-59378311D01*
X145540140Y-60297550D01*
X145363363Y-60120773D01*
X146282602Y-59201534D01*
X146282602Y-59201534D01*
G37*
D15*
X146264924Y-60103095D03*
D10*
G36*
X146636155Y-59555087D02*
X146812932Y-59731864D01*
X145893693Y-60651103D01*
X145716916Y-60474326D01*
X146636155Y-59555087D01*
X146636155Y-59555087D01*
G37*
D15*
X146618478Y-60456649D03*
D10*
G36*
X146989709Y-59908641D02*
X147166486Y-60085418D01*
X146247247Y-61004657D01*
X146070470Y-60827880D01*
X146989709Y-59908641D01*
X146989709Y-59908641D01*
G37*
D15*
X146972031Y-60810202D03*
D10*
G36*
X147343262Y-60262194D02*
X147520039Y-60438971D01*
X146600800Y-61358210D01*
X146424023Y-61181433D01*
X147343262Y-60262194D01*
X147343262Y-60262194D01*
G37*
D15*
X147325584Y-61163755D03*
D10*
G36*
X147696815Y-60615747D02*
X147873592Y-60792524D01*
X146954353Y-61711763D01*
X146777576Y-61534986D01*
X147696815Y-60615747D01*
X147696815Y-60615747D01*
G37*
D15*
X147679138Y-61517309D03*
D10*
G36*
X148050369Y-60969301D02*
X148227146Y-61146078D01*
X147307907Y-62065317D01*
X147131130Y-61888540D01*
X148050369Y-60969301D01*
X148050369Y-60969301D01*
G37*
D15*
X148032691Y-61870862D03*
D10*
G36*
X148403922Y-61322854D02*
X148580699Y-61499631D01*
X147661460Y-62418870D01*
X147484683Y-62242093D01*
X148403922Y-61322854D01*
X148403922Y-61322854D01*
G37*
D15*
X148386245Y-62224416D03*
D10*
G36*
X148757476Y-61676408D02*
X148934253Y-61853185D01*
X148015014Y-62772424D01*
X147838237Y-62595647D01*
X148757476Y-61676408D01*
X148757476Y-61676408D01*
G37*
D15*
X148739798Y-62577969D03*
D10*
G36*
X149111029Y-62029961D02*
X149287806Y-62206738D01*
X148368567Y-63125977D01*
X148191790Y-62949200D01*
X149111029Y-62029961D01*
X149111029Y-62029961D01*
G37*
D15*
X149093351Y-62931522D03*
D10*
G36*
X149464582Y-62383514D02*
X149641359Y-62560291D01*
X148722120Y-63479530D01*
X148545343Y-63302753D01*
X149464582Y-62383514D01*
X149464582Y-62383514D01*
G37*
D15*
X149446905Y-63285076D03*
D10*
G36*
X149818136Y-62737068D02*
X149994913Y-62913845D01*
X149075674Y-63833084D01*
X148898897Y-63656307D01*
X149818136Y-62737068D01*
X149818136Y-62737068D01*
G37*
D15*
X149800458Y-63638629D03*
D10*
G36*
X150171689Y-63090621D02*
X150348466Y-63267398D01*
X149429227Y-64186637D01*
X149252450Y-64009860D01*
X150171689Y-63090621D01*
X150171689Y-63090621D01*
G37*
G04 #@! TD*
D16*
G04 #@! TO.C,U5*
X112870000Y-86995000D03*
X112870000Y-85725000D03*
X112870000Y-84455000D03*
X112870000Y-83185000D03*
X118270000Y-83185000D03*
X118270000Y-84455000D03*
X118270000Y-85725000D03*
X118270000Y-86995000D03*
G04 #@! TD*
D10*
G04 #@! TO.C,C8*
G36*
X151834504Y-55006204D02*
X151858773Y-55009804D01*
X151882571Y-55015765D01*
X151905671Y-55024030D01*
X151927849Y-55034520D01*
X151948893Y-55047133D01*
X151968598Y-55061747D01*
X151986777Y-55078223D01*
X152003253Y-55096402D01*
X152017867Y-55116107D01*
X152030480Y-55137151D01*
X152040970Y-55159329D01*
X152049235Y-55182429D01*
X152055196Y-55206227D01*
X152058796Y-55230496D01*
X152060000Y-55255000D01*
X152060000Y-56505000D01*
X152058796Y-56529504D01*
X152055196Y-56553773D01*
X152049235Y-56577571D01*
X152040970Y-56600671D01*
X152030480Y-56622849D01*
X152017867Y-56643893D01*
X152003253Y-56663598D01*
X151986777Y-56681777D01*
X151968598Y-56698253D01*
X151948893Y-56712867D01*
X151927849Y-56725480D01*
X151905671Y-56735970D01*
X151882571Y-56744235D01*
X151858773Y-56750196D01*
X151834504Y-56753796D01*
X151810000Y-56755000D01*
X150885000Y-56755000D01*
X150860496Y-56753796D01*
X150836227Y-56750196D01*
X150812429Y-56744235D01*
X150789329Y-56735970D01*
X150767151Y-56725480D01*
X150746107Y-56712867D01*
X150726402Y-56698253D01*
X150708223Y-56681777D01*
X150691747Y-56663598D01*
X150677133Y-56643893D01*
X150664520Y-56622849D01*
X150654030Y-56600671D01*
X150645765Y-56577571D01*
X150639804Y-56553773D01*
X150636204Y-56529504D01*
X150635000Y-56505000D01*
X150635000Y-55255000D01*
X150636204Y-55230496D01*
X150639804Y-55206227D01*
X150645765Y-55182429D01*
X150654030Y-55159329D01*
X150664520Y-55137151D01*
X150677133Y-55116107D01*
X150691747Y-55096402D01*
X150708223Y-55078223D01*
X150726402Y-55061747D01*
X150746107Y-55047133D01*
X150767151Y-55034520D01*
X150789329Y-55024030D01*
X150812429Y-55015765D01*
X150836227Y-55009804D01*
X150860496Y-55006204D01*
X150885000Y-55005000D01*
X151810000Y-55005000D01*
X151834504Y-55006204D01*
X151834504Y-55006204D01*
G37*
D11*
X151347500Y-55880000D03*
D10*
G36*
X148859504Y-55006204D02*
X148883773Y-55009804D01*
X148907571Y-55015765D01*
X148930671Y-55024030D01*
X148952849Y-55034520D01*
X148973893Y-55047133D01*
X148993598Y-55061747D01*
X149011777Y-55078223D01*
X149028253Y-55096402D01*
X149042867Y-55116107D01*
X149055480Y-55137151D01*
X149065970Y-55159329D01*
X149074235Y-55182429D01*
X149080196Y-55206227D01*
X149083796Y-55230496D01*
X149085000Y-55255000D01*
X149085000Y-56505000D01*
X149083796Y-56529504D01*
X149080196Y-56553773D01*
X149074235Y-56577571D01*
X149065970Y-56600671D01*
X149055480Y-56622849D01*
X149042867Y-56643893D01*
X149028253Y-56663598D01*
X149011777Y-56681777D01*
X148993598Y-56698253D01*
X148973893Y-56712867D01*
X148952849Y-56725480D01*
X148930671Y-56735970D01*
X148907571Y-56744235D01*
X148883773Y-56750196D01*
X148859504Y-56753796D01*
X148835000Y-56755000D01*
X147910000Y-56755000D01*
X147885496Y-56753796D01*
X147861227Y-56750196D01*
X147837429Y-56744235D01*
X147814329Y-56735970D01*
X147792151Y-56725480D01*
X147771107Y-56712867D01*
X147751402Y-56698253D01*
X147733223Y-56681777D01*
X147716747Y-56663598D01*
X147702133Y-56643893D01*
X147689520Y-56622849D01*
X147679030Y-56600671D01*
X147670765Y-56577571D01*
X147664804Y-56553773D01*
X147661204Y-56529504D01*
X147660000Y-56505000D01*
X147660000Y-55255000D01*
X147661204Y-55230496D01*
X147664804Y-55206227D01*
X147670765Y-55182429D01*
X147679030Y-55159329D01*
X147689520Y-55137151D01*
X147702133Y-55116107D01*
X147716747Y-55096402D01*
X147733223Y-55078223D01*
X147751402Y-55061747D01*
X147771107Y-55047133D01*
X147792151Y-55034520D01*
X147814329Y-55024030D01*
X147837429Y-55015765D01*
X147861227Y-55009804D01*
X147885496Y-55006204D01*
X147910000Y-55005000D01*
X148835000Y-55005000D01*
X148859504Y-55006204D01*
X148859504Y-55006204D01*
G37*
D11*
X148372500Y-55880000D03*
G04 #@! TD*
D10*
G04 #@! TO.C,C13*
G36*
X186323504Y-93014704D02*
X186347773Y-93018304D01*
X186371571Y-93024265D01*
X186394671Y-93032530D01*
X186416849Y-93043020D01*
X186437893Y-93055633D01*
X186457598Y-93070247D01*
X186475777Y-93086723D01*
X186492253Y-93104902D01*
X186506867Y-93124607D01*
X186519480Y-93145651D01*
X186529970Y-93167829D01*
X186538235Y-93190929D01*
X186544196Y-93214727D01*
X186547796Y-93238996D01*
X186549000Y-93263500D01*
X186549000Y-94188500D01*
X186547796Y-94213004D01*
X186544196Y-94237273D01*
X186538235Y-94261071D01*
X186529970Y-94284171D01*
X186519480Y-94306349D01*
X186506867Y-94327393D01*
X186492253Y-94347098D01*
X186475777Y-94365277D01*
X186457598Y-94381753D01*
X186437893Y-94396367D01*
X186416849Y-94408980D01*
X186394671Y-94419470D01*
X186371571Y-94427735D01*
X186347773Y-94433696D01*
X186323504Y-94437296D01*
X186299000Y-94438500D01*
X185049000Y-94438500D01*
X185024496Y-94437296D01*
X185000227Y-94433696D01*
X184976429Y-94427735D01*
X184953329Y-94419470D01*
X184931151Y-94408980D01*
X184910107Y-94396367D01*
X184890402Y-94381753D01*
X184872223Y-94365277D01*
X184855747Y-94347098D01*
X184841133Y-94327393D01*
X184828520Y-94306349D01*
X184818030Y-94284171D01*
X184809765Y-94261071D01*
X184803804Y-94237273D01*
X184800204Y-94213004D01*
X184799000Y-94188500D01*
X184799000Y-93263500D01*
X184800204Y-93238996D01*
X184803804Y-93214727D01*
X184809765Y-93190929D01*
X184818030Y-93167829D01*
X184828520Y-93145651D01*
X184841133Y-93124607D01*
X184855747Y-93104902D01*
X184872223Y-93086723D01*
X184890402Y-93070247D01*
X184910107Y-93055633D01*
X184931151Y-93043020D01*
X184953329Y-93032530D01*
X184976429Y-93024265D01*
X185000227Y-93018304D01*
X185024496Y-93014704D01*
X185049000Y-93013500D01*
X186299000Y-93013500D01*
X186323504Y-93014704D01*
X186323504Y-93014704D01*
G37*
D11*
X185674000Y-93726000D03*
D10*
G36*
X186323504Y-90039704D02*
X186347773Y-90043304D01*
X186371571Y-90049265D01*
X186394671Y-90057530D01*
X186416849Y-90068020D01*
X186437893Y-90080633D01*
X186457598Y-90095247D01*
X186475777Y-90111723D01*
X186492253Y-90129902D01*
X186506867Y-90149607D01*
X186519480Y-90170651D01*
X186529970Y-90192829D01*
X186538235Y-90215929D01*
X186544196Y-90239727D01*
X186547796Y-90263996D01*
X186549000Y-90288500D01*
X186549000Y-91213500D01*
X186547796Y-91238004D01*
X186544196Y-91262273D01*
X186538235Y-91286071D01*
X186529970Y-91309171D01*
X186519480Y-91331349D01*
X186506867Y-91352393D01*
X186492253Y-91372098D01*
X186475777Y-91390277D01*
X186457598Y-91406753D01*
X186437893Y-91421367D01*
X186416849Y-91433980D01*
X186394671Y-91444470D01*
X186371571Y-91452735D01*
X186347773Y-91458696D01*
X186323504Y-91462296D01*
X186299000Y-91463500D01*
X185049000Y-91463500D01*
X185024496Y-91462296D01*
X185000227Y-91458696D01*
X184976429Y-91452735D01*
X184953329Y-91444470D01*
X184931151Y-91433980D01*
X184910107Y-91421367D01*
X184890402Y-91406753D01*
X184872223Y-91390277D01*
X184855747Y-91372098D01*
X184841133Y-91352393D01*
X184828520Y-91331349D01*
X184818030Y-91309171D01*
X184809765Y-91286071D01*
X184803804Y-91262273D01*
X184800204Y-91238004D01*
X184799000Y-91213500D01*
X184799000Y-90288500D01*
X184800204Y-90263996D01*
X184803804Y-90239727D01*
X184809765Y-90215929D01*
X184818030Y-90192829D01*
X184828520Y-90170651D01*
X184841133Y-90149607D01*
X184855747Y-90129902D01*
X184872223Y-90111723D01*
X184890402Y-90095247D01*
X184910107Y-90080633D01*
X184931151Y-90068020D01*
X184953329Y-90057530D01*
X184976429Y-90049265D01*
X185000227Y-90043304D01*
X185024496Y-90039704D01*
X185049000Y-90038500D01*
X186299000Y-90038500D01*
X186323504Y-90039704D01*
X186323504Y-90039704D01*
G37*
D11*
X185674000Y-90751000D03*
G04 #@! TD*
D10*
G04 #@! TO.C,C14*
G36*
X176417504Y-89676204D02*
X176441773Y-89679804D01*
X176465571Y-89685765D01*
X176488671Y-89694030D01*
X176510849Y-89704520D01*
X176531893Y-89717133D01*
X176551598Y-89731747D01*
X176569777Y-89748223D01*
X176586253Y-89766402D01*
X176600867Y-89786107D01*
X176613480Y-89807151D01*
X176623970Y-89829329D01*
X176632235Y-89852429D01*
X176638196Y-89876227D01*
X176641796Y-89900496D01*
X176643000Y-89925000D01*
X176643000Y-90850000D01*
X176641796Y-90874504D01*
X176638196Y-90898773D01*
X176632235Y-90922571D01*
X176623970Y-90945671D01*
X176613480Y-90967849D01*
X176600867Y-90988893D01*
X176586253Y-91008598D01*
X176569777Y-91026777D01*
X176551598Y-91043253D01*
X176531893Y-91057867D01*
X176510849Y-91070480D01*
X176488671Y-91080970D01*
X176465571Y-91089235D01*
X176441773Y-91095196D01*
X176417504Y-91098796D01*
X176393000Y-91100000D01*
X175143000Y-91100000D01*
X175118496Y-91098796D01*
X175094227Y-91095196D01*
X175070429Y-91089235D01*
X175047329Y-91080970D01*
X175025151Y-91070480D01*
X175004107Y-91057867D01*
X174984402Y-91043253D01*
X174966223Y-91026777D01*
X174949747Y-91008598D01*
X174935133Y-90988893D01*
X174922520Y-90967849D01*
X174912030Y-90945671D01*
X174903765Y-90922571D01*
X174897804Y-90898773D01*
X174894204Y-90874504D01*
X174893000Y-90850000D01*
X174893000Y-89925000D01*
X174894204Y-89900496D01*
X174897804Y-89876227D01*
X174903765Y-89852429D01*
X174912030Y-89829329D01*
X174922520Y-89807151D01*
X174935133Y-89786107D01*
X174949747Y-89766402D01*
X174966223Y-89748223D01*
X174984402Y-89731747D01*
X175004107Y-89717133D01*
X175025151Y-89704520D01*
X175047329Y-89694030D01*
X175070429Y-89685765D01*
X175094227Y-89679804D01*
X175118496Y-89676204D01*
X175143000Y-89675000D01*
X176393000Y-89675000D01*
X176417504Y-89676204D01*
X176417504Y-89676204D01*
G37*
D11*
X175768000Y-90387500D03*
D10*
G36*
X176417504Y-86701204D02*
X176441773Y-86704804D01*
X176465571Y-86710765D01*
X176488671Y-86719030D01*
X176510849Y-86729520D01*
X176531893Y-86742133D01*
X176551598Y-86756747D01*
X176569777Y-86773223D01*
X176586253Y-86791402D01*
X176600867Y-86811107D01*
X176613480Y-86832151D01*
X176623970Y-86854329D01*
X176632235Y-86877429D01*
X176638196Y-86901227D01*
X176641796Y-86925496D01*
X176643000Y-86950000D01*
X176643000Y-87875000D01*
X176641796Y-87899504D01*
X176638196Y-87923773D01*
X176632235Y-87947571D01*
X176623970Y-87970671D01*
X176613480Y-87992849D01*
X176600867Y-88013893D01*
X176586253Y-88033598D01*
X176569777Y-88051777D01*
X176551598Y-88068253D01*
X176531893Y-88082867D01*
X176510849Y-88095480D01*
X176488671Y-88105970D01*
X176465571Y-88114235D01*
X176441773Y-88120196D01*
X176417504Y-88123796D01*
X176393000Y-88125000D01*
X175143000Y-88125000D01*
X175118496Y-88123796D01*
X175094227Y-88120196D01*
X175070429Y-88114235D01*
X175047329Y-88105970D01*
X175025151Y-88095480D01*
X175004107Y-88082867D01*
X174984402Y-88068253D01*
X174966223Y-88051777D01*
X174949747Y-88033598D01*
X174935133Y-88013893D01*
X174922520Y-87992849D01*
X174912030Y-87970671D01*
X174903765Y-87947571D01*
X174897804Y-87923773D01*
X174894204Y-87899504D01*
X174893000Y-87875000D01*
X174893000Y-86950000D01*
X174894204Y-86925496D01*
X174897804Y-86901227D01*
X174903765Y-86877429D01*
X174912030Y-86854329D01*
X174922520Y-86832151D01*
X174935133Y-86811107D01*
X174949747Y-86791402D01*
X174966223Y-86773223D01*
X174984402Y-86756747D01*
X175004107Y-86742133D01*
X175025151Y-86729520D01*
X175047329Y-86719030D01*
X175070429Y-86710765D01*
X175094227Y-86704804D01*
X175118496Y-86701204D01*
X175143000Y-86700000D01*
X176393000Y-86700000D01*
X176417504Y-86701204D01*
X176417504Y-86701204D01*
G37*
D11*
X175768000Y-87412500D03*
G04 #@! TD*
D10*
G04 #@! TO.C,C15*
G36*
X173956505Y-86666204D02*
X173980773Y-86669804D01*
X174004572Y-86675765D01*
X174027671Y-86684030D01*
X174049850Y-86694520D01*
X174070893Y-86707132D01*
X174090599Y-86721747D01*
X174108777Y-86738223D01*
X174125253Y-86756401D01*
X174139868Y-86776107D01*
X174152480Y-86797150D01*
X174162970Y-86819329D01*
X174171235Y-86842428D01*
X174177196Y-86866227D01*
X174180796Y-86890495D01*
X174182000Y-86914999D01*
X174182000Y-87565001D01*
X174180796Y-87589505D01*
X174177196Y-87613773D01*
X174171235Y-87637572D01*
X174162970Y-87660671D01*
X174152480Y-87682850D01*
X174139868Y-87703893D01*
X174125253Y-87723599D01*
X174108777Y-87741777D01*
X174090599Y-87758253D01*
X174070893Y-87772868D01*
X174049850Y-87785480D01*
X174027671Y-87795970D01*
X174004572Y-87804235D01*
X173980773Y-87810196D01*
X173956505Y-87813796D01*
X173932001Y-87815000D01*
X173031999Y-87815000D01*
X173007495Y-87813796D01*
X172983227Y-87810196D01*
X172959428Y-87804235D01*
X172936329Y-87795970D01*
X172914150Y-87785480D01*
X172893107Y-87772868D01*
X172873401Y-87758253D01*
X172855223Y-87741777D01*
X172838747Y-87723599D01*
X172824132Y-87703893D01*
X172811520Y-87682850D01*
X172801030Y-87660671D01*
X172792765Y-87637572D01*
X172786804Y-87613773D01*
X172783204Y-87589505D01*
X172782000Y-87565001D01*
X172782000Y-86914999D01*
X172783204Y-86890495D01*
X172786804Y-86866227D01*
X172792765Y-86842428D01*
X172801030Y-86819329D01*
X172811520Y-86797150D01*
X172824132Y-86776107D01*
X172838747Y-86756401D01*
X172855223Y-86738223D01*
X172873401Y-86721747D01*
X172893107Y-86707132D01*
X172914150Y-86694520D01*
X172936329Y-86684030D01*
X172959428Y-86675765D01*
X172983227Y-86669804D01*
X173007495Y-86666204D01*
X173031999Y-86665000D01*
X173932001Y-86665000D01*
X173956505Y-86666204D01*
X173956505Y-86666204D01*
G37*
D12*
X173482000Y-87240000D03*
D10*
G36*
X173956505Y-88716204D02*
X173980773Y-88719804D01*
X174004572Y-88725765D01*
X174027671Y-88734030D01*
X174049850Y-88744520D01*
X174070893Y-88757132D01*
X174090599Y-88771747D01*
X174108777Y-88788223D01*
X174125253Y-88806401D01*
X174139868Y-88826107D01*
X174152480Y-88847150D01*
X174162970Y-88869329D01*
X174171235Y-88892428D01*
X174177196Y-88916227D01*
X174180796Y-88940495D01*
X174182000Y-88964999D01*
X174182000Y-89615001D01*
X174180796Y-89639505D01*
X174177196Y-89663773D01*
X174171235Y-89687572D01*
X174162970Y-89710671D01*
X174152480Y-89732850D01*
X174139868Y-89753893D01*
X174125253Y-89773599D01*
X174108777Y-89791777D01*
X174090599Y-89808253D01*
X174070893Y-89822868D01*
X174049850Y-89835480D01*
X174027671Y-89845970D01*
X174004572Y-89854235D01*
X173980773Y-89860196D01*
X173956505Y-89863796D01*
X173932001Y-89865000D01*
X173031999Y-89865000D01*
X173007495Y-89863796D01*
X172983227Y-89860196D01*
X172959428Y-89854235D01*
X172936329Y-89845970D01*
X172914150Y-89835480D01*
X172893107Y-89822868D01*
X172873401Y-89808253D01*
X172855223Y-89791777D01*
X172838747Y-89773599D01*
X172824132Y-89753893D01*
X172811520Y-89732850D01*
X172801030Y-89710671D01*
X172792765Y-89687572D01*
X172786804Y-89663773D01*
X172783204Y-89639505D01*
X172782000Y-89615001D01*
X172782000Y-88964999D01*
X172783204Y-88940495D01*
X172786804Y-88916227D01*
X172792765Y-88892428D01*
X172801030Y-88869329D01*
X172811520Y-88847150D01*
X172824132Y-88826107D01*
X172838747Y-88806401D01*
X172855223Y-88788223D01*
X172873401Y-88771747D01*
X172893107Y-88757132D01*
X172914150Y-88744520D01*
X172936329Y-88734030D01*
X172959428Y-88725765D01*
X172983227Y-88719804D01*
X173007495Y-88716204D01*
X173031999Y-88715000D01*
X173932001Y-88715000D01*
X173956505Y-88716204D01*
X173956505Y-88716204D01*
G37*
D12*
X173482000Y-89290000D03*
G04 #@! TD*
D13*
G04 #@! TO.C,U4*
X95850000Y-47700000D03*
X95850000Y-52300000D03*
X95850000Y-50000000D03*
D14*
X102150000Y-50000000D03*
G04 #@! TD*
D17*
G04 #@! TO.C,U6*
X180721000Y-87401000D03*
D18*
X180721000Y-93701000D03*
X183021000Y-93701000D03*
X178421000Y-93701000D03*
G04 #@! TD*
D19*
G04 #@! TO.C,U7*
X164939000Y-72319000D03*
X165589000Y-72319000D03*
X166239000Y-72319000D03*
X166889000Y-72319000D03*
X167539000Y-72319000D03*
X168189000Y-72319000D03*
X168839000Y-72319000D03*
X169489000Y-72319000D03*
X170139000Y-72319000D03*
X170789000Y-72319000D03*
X171439000Y-72319000D03*
X172089000Y-72319000D03*
X172739000Y-72319000D03*
X173389000Y-72319000D03*
X173389000Y-66619000D03*
X172739000Y-66619000D03*
X172089000Y-66619000D03*
X171439000Y-66619000D03*
X170789000Y-66619000D03*
X170139000Y-66619000D03*
X169489000Y-66619000D03*
X168839000Y-66619000D03*
X168189000Y-66619000D03*
X167539000Y-66619000D03*
X166889000Y-66619000D03*
X166239000Y-66619000D03*
X165589000Y-66619000D03*
X164939000Y-66619000D03*
D20*
X167384000Y-70069000D03*
X167384000Y-68869000D03*
X169164000Y-68869000D03*
X169164000Y-70069000D03*
X170944000Y-68869000D03*
X170944000Y-70069000D03*
G04 #@! TD*
D10*
G04 #@! TO.C,R1*
G36*
X110710505Y-85668204D02*
X110734773Y-85671804D01*
X110758572Y-85677765D01*
X110781671Y-85686030D01*
X110803850Y-85696520D01*
X110824893Y-85709132D01*
X110844599Y-85723747D01*
X110862777Y-85740223D01*
X110879253Y-85758401D01*
X110893868Y-85778107D01*
X110906480Y-85799150D01*
X110916970Y-85821329D01*
X110925235Y-85844428D01*
X110931196Y-85868227D01*
X110934796Y-85892495D01*
X110936000Y-85916999D01*
X110936000Y-86567001D01*
X110934796Y-86591505D01*
X110931196Y-86615773D01*
X110925235Y-86639572D01*
X110916970Y-86662671D01*
X110906480Y-86684850D01*
X110893868Y-86705893D01*
X110879253Y-86725599D01*
X110862777Y-86743777D01*
X110844599Y-86760253D01*
X110824893Y-86774868D01*
X110803850Y-86787480D01*
X110781671Y-86797970D01*
X110758572Y-86806235D01*
X110734773Y-86812196D01*
X110710505Y-86815796D01*
X110686001Y-86817000D01*
X109785999Y-86817000D01*
X109761495Y-86815796D01*
X109737227Y-86812196D01*
X109713428Y-86806235D01*
X109690329Y-86797970D01*
X109668150Y-86787480D01*
X109647107Y-86774868D01*
X109627401Y-86760253D01*
X109609223Y-86743777D01*
X109592747Y-86725599D01*
X109578132Y-86705893D01*
X109565520Y-86684850D01*
X109555030Y-86662671D01*
X109546765Y-86639572D01*
X109540804Y-86615773D01*
X109537204Y-86591505D01*
X109536000Y-86567001D01*
X109536000Y-85916999D01*
X109537204Y-85892495D01*
X109540804Y-85868227D01*
X109546765Y-85844428D01*
X109555030Y-85821329D01*
X109565520Y-85799150D01*
X109578132Y-85778107D01*
X109592747Y-85758401D01*
X109609223Y-85740223D01*
X109627401Y-85723747D01*
X109647107Y-85709132D01*
X109668150Y-85696520D01*
X109690329Y-85686030D01*
X109713428Y-85677765D01*
X109737227Y-85671804D01*
X109761495Y-85668204D01*
X109785999Y-85667000D01*
X110686001Y-85667000D01*
X110710505Y-85668204D01*
X110710505Y-85668204D01*
G37*
D12*
X110236000Y-86242000D03*
D10*
G36*
X110710505Y-83618204D02*
X110734773Y-83621804D01*
X110758572Y-83627765D01*
X110781671Y-83636030D01*
X110803850Y-83646520D01*
X110824893Y-83659132D01*
X110844599Y-83673747D01*
X110862777Y-83690223D01*
X110879253Y-83708401D01*
X110893868Y-83728107D01*
X110906480Y-83749150D01*
X110916970Y-83771329D01*
X110925235Y-83794428D01*
X110931196Y-83818227D01*
X110934796Y-83842495D01*
X110936000Y-83866999D01*
X110936000Y-84517001D01*
X110934796Y-84541505D01*
X110931196Y-84565773D01*
X110925235Y-84589572D01*
X110916970Y-84612671D01*
X110906480Y-84634850D01*
X110893868Y-84655893D01*
X110879253Y-84675599D01*
X110862777Y-84693777D01*
X110844599Y-84710253D01*
X110824893Y-84724868D01*
X110803850Y-84737480D01*
X110781671Y-84747970D01*
X110758572Y-84756235D01*
X110734773Y-84762196D01*
X110710505Y-84765796D01*
X110686001Y-84767000D01*
X109785999Y-84767000D01*
X109761495Y-84765796D01*
X109737227Y-84762196D01*
X109713428Y-84756235D01*
X109690329Y-84747970D01*
X109668150Y-84737480D01*
X109647107Y-84724868D01*
X109627401Y-84710253D01*
X109609223Y-84693777D01*
X109592747Y-84675599D01*
X109578132Y-84655893D01*
X109565520Y-84634850D01*
X109555030Y-84612671D01*
X109546765Y-84589572D01*
X109540804Y-84565773D01*
X109537204Y-84541505D01*
X109536000Y-84517001D01*
X109536000Y-83866999D01*
X109537204Y-83842495D01*
X109540804Y-83818227D01*
X109546765Y-83794428D01*
X109555030Y-83771329D01*
X109565520Y-83749150D01*
X109578132Y-83728107D01*
X109592747Y-83708401D01*
X109609223Y-83690223D01*
X109627401Y-83673747D01*
X109647107Y-83659132D01*
X109668150Y-83646520D01*
X109690329Y-83636030D01*
X109713428Y-83627765D01*
X109737227Y-83621804D01*
X109761495Y-83618204D01*
X109785999Y-83617000D01*
X110686001Y-83617000D01*
X110710505Y-83618204D01*
X110710505Y-83618204D01*
G37*
D12*
X110236000Y-84192000D03*
G04 #@! TD*
D10*
G04 #@! TO.C,R2*
G36*
X166082505Y-61266204D02*
X166106773Y-61269804D01*
X166130572Y-61275765D01*
X166153671Y-61284030D01*
X166175850Y-61294520D01*
X166196893Y-61307132D01*
X166216599Y-61321747D01*
X166234777Y-61338223D01*
X166251253Y-61356401D01*
X166265868Y-61376107D01*
X166278480Y-61397150D01*
X166288970Y-61419329D01*
X166297235Y-61442428D01*
X166303196Y-61466227D01*
X166306796Y-61490495D01*
X166308000Y-61514999D01*
X166308000Y-62165001D01*
X166306796Y-62189505D01*
X166303196Y-62213773D01*
X166297235Y-62237572D01*
X166288970Y-62260671D01*
X166278480Y-62282850D01*
X166265868Y-62303893D01*
X166251253Y-62323599D01*
X166234777Y-62341777D01*
X166216599Y-62358253D01*
X166196893Y-62372868D01*
X166175850Y-62385480D01*
X166153671Y-62395970D01*
X166130572Y-62404235D01*
X166106773Y-62410196D01*
X166082505Y-62413796D01*
X166058001Y-62415000D01*
X165157999Y-62415000D01*
X165133495Y-62413796D01*
X165109227Y-62410196D01*
X165085428Y-62404235D01*
X165062329Y-62395970D01*
X165040150Y-62385480D01*
X165019107Y-62372868D01*
X164999401Y-62358253D01*
X164981223Y-62341777D01*
X164964747Y-62323599D01*
X164950132Y-62303893D01*
X164937520Y-62282850D01*
X164927030Y-62260671D01*
X164918765Y-62237572D01*
X164912804Y-62213773D01*
X164909204Y-62189505D01*
X164908000Y-62165001D01*
X164908000Y-61514999D01*
X164909204Y-61490495D01*
X164912804Y-61466227D01*
X164918765Y-61442428D01*
X164927030Y-61419329D01*
X164937520Y-61397150D01*
X164950132Y-61376107D01*
X164964747Y-61356401D01*
X164981223Y-61338223D01*
X164999401Y-61321747D01*
X165019107Y-61307132D01*
X165040150Y-61294520D01*
X165062329Y-61284030D01*
X165085428Y-61275765D01*
X165109227Y-61269804D01*
X165133495Y-61266204D01*
X165157999Y-61265000D01*
X166058001Y-61265000D01*
X166082505Y-61266204D01*
X166082505Y-61266204D01*
G37*
D12*
X165608000Y-61840000D03*
D10*
G36*
X166082505Y-63316204D02*
X166106773Y-63319804D01*
X166130572Y-63325765D01*
X166153671Y-63334030D01*
X166175850Y-63344520D01*
X166196893Y-63357132D01*
X166216599Y-63371747D01*
X166234777Y-63388223D01*
X166251253Y-63406401D01*
X166265868Y-63426107D01*
X166278480Y-63447150D01*
X166288970Y-63469329D01*
X166297235Y-63492428D01*
X166303196Y-63516227D01*
X166306796Y-63540495D01*
X166308000Y-63564999D01*
X166308000Y-64215001D01*
X166306796Y-64239505D01*
X166303196Y-64263773D01*
X166297235Y-64287572D01*
X166288970Y-64310671D01*
X166278480Y-64332850D01*
X166265868Y-64353893D01*
X166251253Y-64373599D01*
X166234777Y-64391777D01*
X166216599Y-64408253D01*
X166196893Y-64422868D01*
X166175850Y-64435480D01*
X166153671Y-64445970D01*
X166130572Y-64454235D01*
X166106773Y-64460196D01*
X166082505Y-64463796D01*
X166058001Y-64465000D01*
X165157999Y-64465000D01*
X165133495Y-64463796D01*
X165109227Y-64460196D01*
X165085428Y-64454235D01*
X165062329Y-64445970D01*
X165040150Y-64435480D01*
X165019107Y-64422868D01*
X164999401Y-64408253D01*
X164981223Y-64391777D01*
X164964747Y-64373599D01*
X164950132Y-64353893D01*
X164937520Y-64332850D01*
X164927030Y-64310671D01*
X164918765Y-64287572D01*
X164912804Y-64263773D01*
X164909204Y-64239505D01*
X164908000Y-64215001D01*
X164908000Y-63564999D01*
X164909204Y-63540495D01*
X164912804Y-63516227D01*
X164918765Y-63492428D01*
X164927030Y-63469329D01*
X164937520Y-63447150D01*
X164950132Y-63426107D01*
X164964747Y-63406401D01*
X164981223Y-63388223D01*
X164999401Y-63371747D01*
X165019107Y-63357132D01*
X165040150Y-63344520D01*
X165062329Y-63334030D01*
X165085428Y-63325765D01*
X165109227Y-63319804D01*
X165133495Y-63316204D01*
X165157999Y-63315000D01*
X166058001Y-63315000D01*
X166082505Y-63316204D01*
X166082505Y-63316204D01*
G37*
D12*
X165608000Y-63890000D03*
G04 #@! TD*
D10*
G04 #@! TO.C,C10*
G36*
X102720504Y-41634204D02*
X102744773Y-41637804D01*
X102768571Y-41643765D01*
X102791671Y-41652030D01*
X102813849Y-41662520D01*
X102834893Y-41675133D01*
X102854598Y-41689747D01*
X102872777Y-41706223D01*
X102889253Y-41724402D01*
X102903867Y-41744107D01*
X102916480Y-41765151D01*
X102926970Y-41787329D01*
X102935235Y-41810429D01*
X102941196Y-41834227D01*
X102944796Y-41858496D01*
X102946000Y-41883000D01*
X102946000Y-43133000D01*
X102944796Y-43157504D01*
X102941196Y-43181773D01*
X102935235Y-43205571D01*
X102926970Y-43228671D01*
X102916480Y-43250849D01*
X102903867Y-43271893D01*
X102889253Y-43291598D01*
X102872777Y-43309777D01*
X102854598Y-43326253D01*
X102834893Y-43340867D01*
X102813849Y-43353480D01*
X102791671Y-43363970D01*
X102768571Y-43372235D01*
X102744773Y-43378196D01*
X102720504Y-43381796D01*
X102696000Y-43383000D01*
X101771000Y-43383000D01*
X101746496Y-43381796D01*
X101722227Y-43378196D01*
X101698429Y-43372235D01*
X101675329Y-43363970D01*
X101653151Y-43353480D01*
X101632107Y-43340867D01*
X101612402Y-43326253D01*
X101594223Y-43309777D01*
X101577747Y-43291598D01*
X101563133Y-43271893D01*
X101550520Y-43250849D01*
X101540030Y-43228671D01*
X101531765Y-43205571D01*
X101525804Y-43181773D01*
X101522204Y-43157504D01*
X101521000Y-43133000D01*
X101521000Y-41883000D01*
X101522204Y-41858496D01*
X101525804Y-41834227D01*
X101531765Y-41810429D01*
X101540030Y-41787329D01*
X101550520Y-41765151D01*
X101563133Y-41744107D01*
X101577747Y-41724402D01*
X101594223Y-41706223D01*
X101612402Y-41689747D01*
X101632107Y-41675133D01*
X101653151Y-41662520D01*
X101675329Y-41652030D01*
X101698429Y-41643765D01*
X101722227Y-41637804D01*
X101746496Y-41634204D01*
X101771000Y-41633000D01*
X102696000Y-41633000D01*
X102720504Y-41634204D01*
X102720504Y-41634204D01*
G37*
D11*
X102233500Y-42508000D03*
D10*
G36*
X99745504Y-41634204D02*
X99769773Y-41637804D01*
X99793571Y-41643765D01*
X99816671Y-41652030D01*
X99838849Y-41662520D01*
X99859893Y-41675133D01*
X99879598Y-41689747D01*
X99897777Y-41706223D01*
X99914253Y-41724402D01*
X99928867Y-41744107D01*
X99941480Y-41765151D01*
X99951970Y-41787329D01*
X99960235Y-41810429D01*
X99966196Y-41834227D01*
X99969796Y-41858496D01*
X99971000Y-41883000D01*
X99971000Y-43133000D01*
X99969796Y-43157504D01*
X99966196Y-43181773D01*
X99960235Y-43205571D01*
X99951970Y-43228671D01*
X99941480Y-43250849D01*
X99928867Y-43271893D01*
X99914253Y-43291598D01*
X99897777Y-43309777D01*
X99879598Y-43326253D01*
X99859893Y-43340867D01*
X99838849Y-43353480D01*
X99816671Y-43363970D01*
X99793571Y-43372235D01*
X99769773Y-43378196D01*
X99745504Y-43381796D01*
X99721000Y-43383000D01*
X98796000Y-43383000D01*
X98771496Y-43381796D01*
X98747227Y-43378196D01*
X98723429Y-43372235D01*
X98700329Y-43363970D01*
X98678151Y-43353480D01*
X98657107Y-43340867D01*
X98637402Y-43326253D01*
X98619223Y-43309777D01*
X98602747Y-43291598D01*
X98588133Y-43271893D01*
X98575520Y-43250849D01*
X98565030Y-43228671D01*
X98556765Y-43205571D01*
X98550804Y-43181773D01*
X98547204Y-43157504D01*
X98546000Y-43133000D01*
X98546000Y-41883000D01*
X98547204Y-41858496D01*
X98550804Y-41834227D01*
X98556765Y-41810429D01*
X98565030Y-41787329D01*
X98575520Y-41765151D01*
X98588133Y-41744107D01*
X98602747Y-41724402D01*
X98619223Y-41706223D01*
X98637402Y-41689747D01*
X98657107Y-41675133D01*
X98678151Y-41662520D01*
X98700329Y-41652030D01*
X98723429Y-41643765D01*
X98747227Y-41637804D01*
X98771496Y-41634204D01*
X98796000Y-41633000D01*
X99721000Y-41633000D01*
X99745504Y-41634204D01*
X99745504Y-41634204D01*
G37*
D11*
X99258500Y-42508000D03*
G04 #@! TD*
D10*
G04 #@! TO.C,C11*
G36*
X102466505Y-44259204D02*
X102490773Y-44262804D01*
X102514572Y-44268765D01*
X102537671Y-44277030D01*
X102559850Y-44287520D01*
X102580893Y-44300132D01*
X102600599Y-44314747D01*
X102618777Y-44331223D01*
X102635253Y-44349401D01*
X102649868Y-44369107D01*
X102662480Y-44390150D01*
X102672970Y-44412329D01*
X102681235Y-44435428D01*
X102687196Y-44459227D01*
X102690796Y-44483495D01*
X102692000Y-44507999D01*
X102692000Y-45408001D01*
X102690796Y-45432505D01*
X102687196Y-45456773D01*
X102681235Y-45480572D01*
X102672970Y-45503671D01*
X102662480Y-45525850D01*
X102649868Y-45546893D01*
X102635253Y-45566599D01*
X102618777Y-45584777D01*
X102600599Y-45601253D01*
X102580893Y-45615868D01*
X102559850Y-45628480D01*
X102537671Y-45638970D01*
X102514572Y-45647235D01*
X102490773Y-45653196D01*
X102466505Y-45656796D01*
X102442001Y-45658000D01*
X101791999Y-45658000D01*
X101767495Y-45656796D01*
X101743227Y-45653196D01*
X101719428Y-45647235D01*
X101696329Y-45638970D01*
X101674150Y-45628480D01*
X101653107Y-45615868D01*
X101633401Y-45601253D01*
X101615223Y-45584777D01*
X101598747Y-45566599D01*
X101584132Y-45546893D01*
X101571520Y-45525850D01*
X101561030Y-45503671D01*
X101552765Y-45480572D01*
X101546804Y-45456773D01*
X101543204Y-45432505D01*
X101542000Y-45408001D01*
X101542000Y-44507999D01*
X101543204Y-44483495D01*
X101546804Y-44459227D01*
X101552765Y-44435428D01*
X101561030Y-44412329D01*
X101571520Y-44390150D01*
X101584132Y-44369107D01*
X101598747Y-44349401D01*
X101615223Y-44331223D01*
X101633401Y-44314747D01*
X101653107Y-44300132D01*
X101674150Y-44287520D01*
X101696329Y-44277030D01*
X101719428Y-44268765D01*
X101743227Y-44262804D01*
X101767495Y-44259204D01*
X101791999Y-44258000D01*
X102442001Y-44258000D01*
X102466505Y-44259204D01*
X102466505Y-44259204D01*
G37*
D12*
X102117000Y-44958000D03*
D10*
G36*
X100416505Y-44259204D02*
X100440773Y-44262804D01*
X100464572Y-44268765D01*
X100487671Y-44277030D01*
X100509850Y-44287520D01*
X100530893Y-44300132D01*
X100550599Y-44314747D01*
X100568777Y-44331223D01*
X100585253Y-44349401D01*
X100599868Y-44369107D01*
X100612480Y-44390150D01*
X100622970Y-44412329D01*
X100631235Y-44435428D01*
X100637196Y-44459227D01*
X100640796Y-44483495D01*
X100642000Y-44507999D01*
X100642000Y-45408001D01*
X100640796Y-45432505D01*
X100637196Y-45456773D01*
X100631235Y-45480572D01*
X100622970Y-45503671D01*
X100612480Y-45525850D01*
X100599868Y-45546893D01*
X100585253Y-45566599D01*
X100568777Y-45584777D01*
X100550599Y-45601253D01*
X100530893Y-45615868D01*
X100509850Y-45628480D01*
X100487671Y-45638970D01*
X100464572Y-45647235D01*
X100440773Y-45653196D01*
X100416505Y-45656796D01*
X100392001Y-45658000D01*
X99741999Y-45658000D01*
X99717495Y-45656796D01*
X99693227Y-45653196D01*
X99669428Y-45647235D01*
X99646329Y-45638970D01*
X99624150Y-45628480D01*
X99603107Y-45615868D01*
X99583401Y-45601253D01*
X99565223Y-45584777D01*
X99548747Y-45566599D01*
X99534132Y-45546893D01*
X99521520Y-45525850D01*
X99511030Y-45503671D01*
X99502765Y-45480572D01*
X99496804Y-45456773D01*
X99493204Y-45432505D01*
X99492000Y-45408001D01*
X99492000Y-44507999D01*
X99493204Y-44483495D01*
X99496804Y-44459227D01*
X99502765Y-44435428D01*
X99511030Y-44412329D01*
X99521520Y-44390150D01*
X99534132Y-44369107D01*
X99548747Y-44349401D01*
X99565223Y-44331223D01*
X99583401Y-44314747D01*
X99603107Y-44300132D01*
X99624150Y-44287520D01*
X99646329Y-44277030D01*
X99669428Y-44268765D01*
X99693227Y-44262804D01*
X99717495Y-44259204D01*
X99741999Y-44258000D01*
X100392001Y-44258000D01*
X100416505Y-44259204D01*
X100416505Y-44259204D01*
G37*
D12*
X100067000Y-44958000D03*
G04 #@! TD*
M02*
