M48
;DRILL file {KiCad (5.0.2)-1} date 3/12/2019 3:58:20 PM
;FORMAT={-:-/ absolute / inch / decimal}
FMAT,2
INCH,TZ
T1C0.0118
T2C0.0157
T3C0.0197
T4C0.0354
T5C0.0374
T6C0.0394
T7C0.1260
T8C0.1654
%
G90
G05
T1
X6.4848Y-2.6838
X6.4848Y-2.735
X6.4848Y-2.7862
X6.5549Y-2.6838
X6.5549Y-2.735
X6.5549Y-2.7862
X6.625Y-2.6838
X6.625Y-2.735
X6.625Y-2.7862
X6.695Y-2.6838
X6.695Y-2.735
X6.695Y-2.7862
X6.7651Y-2.6838
X6.7651Y-2.735
X6.7651Y-2.7862
X6.8352Y-2.6838
X6.8352Y-2.735
X6.8352Y-2.7862
T2
X3.91Y-2.315
X4.15Y-2.375
X4.18Y-2.115
X4.2Y-1.665
X4.335Y-3.055
X4.425Y-2.94
X4.445Y-2.565
X4.45Y-3.1
X4.455Y-2.69
X4.49Y-2.975
X4.6Y-2.41
X4.625Y-2.69
X4.65Y-2.73
X4.665Y-3.05
X4.685Y-3.575
X4.725Y-2.45
X4.735Y-2.635
X4.74Y-3.685
X4.755Y-3.585
X4.89Y-2.17
X4.894Y-3.438
X4.895Y-3.256
X4.995Y-2.28
X5.115Y-2.13
X5.1235Y-3.2739
X5.14Y-2.455
X5.145Y-3.307
X5.155Y-2.28
X5.1707Y-3.2102
X5.24Y-3.41
X5.28Y-3.35
X5.285Y-2.12
X5.302Y-2.72
X5.31Y-3.185
X5.343Y-2.689
X5.345Y-3.515
X5.35Y-3.365
X5.4Y-2.668
X5.421Y-3.002
X5.46Y-2.475
X5.463Y-3.284
X5.469Y-2.412
X5.485Y-2.74
X5.545Y-2.86
X5.58Y-1.915
X5.597Y-2.553
X5.65Y-2.67
X5.658Y-2.5483
X5.66Y-1.915
X5.66Y-2.06
X5.66Y-2.255
X5.6691Y-2.5135
X5.675Y-1.965
X5.683Y-2.639
X5.69Y-2.005
X5.7Y-2.56
X5.734Y-2.4464
X5.735Y-2.295
X5.765Y-2.565
X5.779Y-2.246
X5.7832Y-2.7948
X5.785Y-3.36
X5.795Y-3.195
X5.808Y-2.282
X5.819Y-2.516
X5.82Y-3.39
X5.8382Y-2.5518
X5.845Y-3.305
X5.85Y-2.865
X5.854Y-3.178
X5.904Y-3.207
X5.91Y-1.84
X5.94Y-3.277
X5.985Y-2.525
X5.99Y-1.855
X6.0025Y-2.26
X6.0035Y-2.4879
X6.005Y-2.085
X6.0398Y-2.4919
X6.05Y-2.75
X6.075Y-3.05
X6.076Y-2.475
X6.11Y-3.0943
X6.12Y-1.905
X6.225Y-1.945
X6.305Y-2.3
X6.32Y-1.91
X6.3386Y-3.3071
X6.37Y-2.895
X6.41Y-2.8
X6.42Y-3.535
X6.435Y-2.06
X6.45Y-3.12
X6.5Y-3.015
X6.515Y-1.93
X6.535Y-3.305
X6.5354Y-3.5433
X6.55Y-3.025
X6.58Y-2.415
X6.58Y-2.5007
X6.595Y-3.04
X6.605Y-2.165
X6.61Y-1.84
X6.6164Y-2.4929
X6.625Y-1.965
X6.6535Y-3.3071
X6.6535Y-3.5827
X6.675Y-2.06
X6.735Y-1.895
X6.81Y-2.16
X6.81Y-2.325
X6.825Y-1.925
X6.825Y-2.115
X6.875Y-1.845
X6.905Y-2.735
X6.94Y-2.03
X6.96Y-2.205
X6.98Y-3.34
X7.03Y-2.07
X7.075Y-1.885
X7.085Y-2.305
X7.13Y-1.76
X7.16Y-3.345
X7.21Y-2.015
X7.215Y-1.755
X7.25Y-2.215
X7.295Y-1.81
X7.315Y-3.365
X7.445Y-3.585
X7.45Y-3.36
X7.45Y-3.675
T3
X6.3025Y-2.195
X6.4533Y-2.545
T4
X5.4457Y-1.4
X5.5457Y-1.4
X4.0457Y-1.4
X4.1457Y-1.4
X5.7957Y-1.4
X5.8957Y-1.4
X5.0957Y-1.4
X5.1957Y-1.4
X4.3957Y-1.4
X4.4957Y-1.4
X4.7457Y-1.4
X4.8457Y-1.4
X7.1457Y-1.4
X7.2457Y-1.4
X7.7886Y-2.5555
X7.8886Y-2.5555
X6.8307Y-1.4
X6.9307Y-1.4
X7.7886Y-2.1555
X7.8886Y-2.1555
X6.1457Y-1.4
X6.2457Y-1.4
X7.4803Y-1.4173
X7.5803Y-1.4173
X7.7886Y-3.2677
X7.8886Y-3.2677
X6.4957Y-1.4
X6.5957Y-1.4
X7.7886Y-1.8055
X7.8886Y-1.8055
X7.7953Y-2.9134
X7.8953Y-2.9134
T5
X4.8996Y-3.6598
X4.9996Y-3.6598
X5.0996Y-3.6598
X5.1996Y-3.6598
X5.2528Y-1.7575
X5.2996Y-3.6598
X5.3528Y-1.7575
X5.3988Y-3.6598
X5.4528Y-1.7575
X5.4996Y-3.6598
X5.5528Y-1.7575
X5.5996Y-3.6598
X5.6528Y-1.7575
X5.7528Y-1.7575
X5.7622Y-3.6598
X5.8622Y-3.6598
X5.9547Y-1.7575
X5.9622Y-3.6598
X6.0547Y-1.7575
X6.0622Y-3.6598
X6.1547Y-1.7575
X6.1622Y-3.6598
X6.2547Y-1.7575
X6.2622Y-3.6598
X6.3547Y-1.7575
X6.3622Y-3.6598
X6.4547Y-1.7575
X6.4622Y-3.6598
T6
X3.8512Y-2.9563
X3.8512Y-3.0654
X3.8512Y-3.1744
X3.8512Y-3.2835
X3.8512Y-3.3925
X3.963Y-3.0108
X3.963Y-3.1199
X3.963Y-3.2289
X3.963Y-3.338
X6.3386Y-3.4252
X6.4386Y-3.4252
X6.5386Y-3.4252
X6.6386Y-3.4252
T7
X3.9071Y-2.6823
X3.9071Y-3.6665
T8
X3.8189Y-1.3976
X4.425Y-3.63
X7.8346Y-1.4173
X7.8465Y-3.6988
T0
M30
