%FSLAX45Y45*%
G04 Gerber Fmt 4.5, Leading zero omitted, Abs format (unit mm)*
G04 Created by KiCad (PCBNEW (5.0.2)-1) date 3/12/2019 3:58:21 PM*
%MOMM*%
%LPD*%
G01*
G04 APERTURE LIST*
%ADD10C,0.150000*%
%ADD11C,0.200000*%
%ADD12C,0.300000*%
G04 APERTURE END LIST*
D10*
X9245000Y-9805000D02*
X9245000Y-9765000D01*
X20400000Y-9800000D02*
X9245000Y-9805000D01*
X9245000Y-3080000D02*
X9245000Y-9765000D01*
X20400000Y-3090000D02*
X9245000Y-3080000D01*
X20400000Y-9800000D02*
X20400000Y-3090000D01*
D11*
X16456400Y-6801900D02*
X16486400Y-6831900D01*
X16486400Y-6801900D02*
X16456400Y-6831900D01*
X16456400Y-6931900D02*
X16486400Y-6961900D01*
X16486400Y-6931900D02*
X16456400Y-6961900D01*
X16456400Y-7061900D02*
X16486400Y-7091900D01*
X16486400Y-7061900D02*
X16456400Y-7091900D01*
X16634400Y-6801900D02*
X16664400Y-6831900D01*
X16664400Y-6801900D02*
X16634400Y-6831900D01*
X16634400Y-6931900D02*
X16664400Y-6961900D01*
X16664400Y-6931900D02*
X16634400Y-6961900D01*
X16634400Y-7061900D02*
X16664400Y-7091900D01*
X16664400Y-7061900D02*
X16634400Y-7091900D01*
X16812400Y-6801900D02*
X16842400Y-6831900D01*
X16842400Y-6801900D02*
X16812400Y-6831900D01*
X16812400Y-6931900D02*
X16842400Y-6961900D01*
X16842400Y-6931900D02*
X16812400Y-6961900D01*
X16812400Y-7061900D02*
X16842400Y-7091900D01*
X16842400Y-7061900D02*
X16812400Y-7091900D01*
X16990400Y-6801900D02*
X17020400Y-6831900D01*
X17020400Y-6801900D02*
X16990400Y-6831900D01*
X16990400Y-6931900D02*
X17020400Y-6961900D01*
X17020400Y-6931900D02*
X16990400Y-6961900D01*
X16990400Y-7061900D02*
X17020400Y-7091900D01*
X17020400Y-7061900D02*
X16990400Y-7091900D01*
X17168400Y-6801900D02*
X17198400Y-6831900D01*
X17198400Y-6801900D02*
X17168400Y-6831900D01*
X17168400Y-6931900D02*
X17198400Y-6961900D01*
X17198400Y-6931900D02*
X17168400Y-6961900D01*
X17168400Y-7061900D02*
X17198400Y-7091900D01*
X17198400Y-7061900D02*
X17168400Y-7091900D01*
X17346400Y-6801900D02*
X17376400Y-6831900D01*
X17376400Y-6801900D02*
X17346400Y-6831900D01*
X17346400Y-6931900D02*
X17376400Y-6961900D01*
X17376400Y-6931900D02*
X17346400Y-6961900D01*
X17346400Y-7061900D02*
X17376400Y-7091900D01*
X17376400Y-7061900D02*
X17346400Y-7091900D01*
X9951400Y-5880100D02*
G75*
G03X9951400Y-5880100I-20000J0D01*
G01*
X10561000Y-6032500D02*
G75*
G03X10561000Y-6032500I-20000J0D01*
G01*
X10637200Y-5372100D02*
G75*
G03X10637200Y-5372100I-20000J0D01*
G01*
X10688000Y-4229100D02*
G75*
G03X10688000Y-4229100I-20000J0D01*
G01*
X11030900Y-7759700D02*
G75*
G03X11030900Y-7759700I-20000J0D01*
G01*
X11259500Y-7467600D02*
G75*
G03X11259500Y-7467600I-20000J0D01*
G01*
X11310300Y-6515100D02*
G75*
G03X11310300Y-6515100I-20000J0D01*
G01*
X11323000Y-7874000D02*
G75*
G03X11323000Y-7874000I-20000J0D01*
G01*
X11335700Y-6832600D02*
G75*
G03X11335700Y-6832600I-20000J0D01*
G01*
X11424600Y-7556500D02*
G75*
G03X11424600Y-7556500I-20000J0D01*
G01*
X11704000Y-6121400D02*
G75*
G03X11704000Y-6121400I-20000J0D01*
G01*
X11767500Y-6832600D02*
G75*
G03X11767500Y-6832600I-20000J0D01*
G01*
X11831000Y-6934200D02*
G75*
G03X11831000Y-6934200I-20000J0D01*
G01*
X11869100Y-7747000D02*
G75*
G03X11869100Y-7747000I-20000J0D01*
G01*
X11919900Y-9080500D02*
G75*
G03X11919900Y-9080500I-20000J0D01*
G01*
X12021500Y-6223000D02*
G75*
G03X12021500Y-6223000I-20000J0D01*
G01*
X12046900Y-6692900D02*
G75*
G03X12046900Y-6692900I-20000J0D01*
G01*
X12059600Y-9359900D02*
G75*
G03X12059600Y-9359900I-20000J0D01*
G01*
X12097700Y-9105900D02*
G75*
G03X12097700Y-9105900I-20000J0D01*
G01*
X12440600Y-5511800D02*
G75*
G03X12440600Y-5511800I-20000J0D01*
G01*
X12450760Y-8732520D02*
G75*
G03X12450760Y-8732520I-20000J0D01*
G01*
X12453300Y-8270240D02*
G75*
G03X12453300Y-8270240I-20000J0D01*
G01*
X12707300Y-5791200D02*
G75*
G03X12707300Y-5791200I-20000J0D01*
G01*
X13012100Y-5410200D02*
G75*
G03X13012100Y-5410200I-20000J0D01*
G01*
X13033722Y-8315590D02*
G75*
G03X13033722Y-8315590I-20000J0D01*
G01*
X13075600Y-6235700D02*
G75*
G03X13075600Y-6235700I-20000J0D01*
G01*
X13088300Y-8399780D02*
G75*
G03X13088300Y-8399780I-20000J0D01*
G01*
X13113700Y-5791200D02*
G75*
G03X13113700Y-5791200I-20000J0D01*
G01*
X13153501Y-8153896D02*
G75*
G03X13153501Y-8153896I-20000J0D01*
G01*
X13329600Y-8661400D02*
G75*
G03X13329600Y-8661400I-20000J0D01*
G01*
X13431200Y-8509000D02*
G75*
G03X13431200Y-8509000I-20000J0D01*
G01*
X13443900Y-5384800D02*
G75*
G03X13443900Y-5384800I-20000J0D01*
G01*
X13487080Y-6908800D02*
G75*
G03X13487080Y-6908800I-20000J0D01*
G01*
X13507400Y-8089900D02*
G75*
G03X13507400Y-8089900I-20000J0D01*
G01*
X13591220Y-6830060D02*
G75*
G03X13591220Y-6830060I-20000J0D01*
G01*
X13596300Y-8928100D02*
G75*
G03X13596300Y-8928100I-20000J0D01*
G01*
X13609000Y-8547100D02*
G75*
G03X13609000Y-8547100I-20000J0D01*
G01*
X13736000Y-6776720D02*
G75*
G03X13736000Y-6776720I-20000J0D01*
G01*
X13789340Y-7625080D02*
G75*
G03X13789340Y-7625080I-20000J0D01*
G01*
X13888400Y-6286500D02*
G75*
G03X13888400Y-6286500I-20000J0D01*
G01*
X13896020Y-8341360D02*
G75*
G03X13896020Y-8341360I-20000J0D01*
G01*
X13911260Y-6126480D02*
G75*
G03X13911260Y-6126480I-20000J0D01*
G01*
X13951900Y-6959600D02*
G75*
G03X13951900Y-6959600I-20000J0D01*
G01*
X14104300Y-7264400D02*
G75*
G03X14104300Y-7264400I-20000J0D01*
G01*
X14193200Y-4864100D02*
G75*
G03X14193200Y-4864100I-20000J0D01*
G01*
X14236380Y-6484620D02*
G75*
G03X14236380Y-6484620I-20000J0D01*
G01*
X14371000Y-6781800D02*
G75*
G03X14371000Y-6781800I-20000J0D01*
G01*
X14391307Y-6472621D02*
G75*
G03X14391307Y-6472621I-20000J0D01*
G01*
X14396400Y-4864100D02*
G75*
G03X14396400Y-4864100I-20000J0D01*
G01*
X14396400Y-5232400D02*
G75*
G03X14396400Y-5232400I-20000J0D01*
G01*
X14396400Y-5727700D02*
G75*
G03X14396400Y-5727700I-20000J0D01*
G01*
X14419478Y-6384304D02*
G75*
G03X14419478Y-6384304I-20000J0D01*
G01*
X14434500Y-4991100D02*
G75*
G03X14434500Y-4991100I-20000J0D01*
G01*
X14454820Y-6703060D02*
G75*
G03X14454820Y-6703060I-20000J0D01*
G01*
X14472600Y-5092700D02*
G75*
G03X14472600Y-5092700I-20000J0D01*
G01*
X14498000Y-6502400D02*
G75*
G03X14498000Y-6502400I-20000J0D01*
G01*
X14584360Y-6213863D02*
G75*
G03X14584360Y-6213863I-20000J0D01*
G01*
X14586900Y-5829300D02*
G75*
G03X14586900Y-5829300I-20000J0D01*
G01*
X14663100Y-6515100D02*
G75*
G03X14663100Y-6515100I-20000J0D01*
G01*
X14698660Y-5704840D02*
G75*
G03X14698660Y-5704840I-20000J0D01*
G01*
X14709280Y-7098687D02*
G75*
G03X14709280Y-7098687I-20000J0D01*
G01*
X14713900Y-8534400D02*
G75*
G03X14713900Y-8534400I-20000J0D01*
G01*
X14739300Y-8115300D02*
G75*
G03X14739300Y-8115300I-20000J0D01*
G01*
X14772320Y-5796280D02*
G75*
G03X14772320Y-5796280I-20000J0D01*
G01*
X14800260Y-6390640D02*
G75*
G03X14800260Y-6390640I-20000J0D01*
G01*
X14802800Y-8610600D02*
G75*
G03X14802800Y-8610600I-20000J0D01*
G01*
X14848904Y-6481696D02*
G75*
G03X14848904Y-6481696I-20000J0D01*
G01*
X14866300Y-8394700D02*
G75*
G03X14866300Y-8394700I-20000J0D01*
G01*
X14879000Y-7277100D02*
G75*
G03X14879000Y-7277100I-20000J0D01*
G01*
X14889160Y-8072120D02*
G75*
G03X14889160Y-8072120I-20000J0D01*
G01*
X15016160Y-8145780D02*
G75*
G03X15016160Y-8145780I-20000J0D01*
G01*
X15031400Y-4673600D02*
G75*
G03X15031400Y-4673600I-20000J0D01*
G01*
X15107600Y-8323580D02*
G75*
G03X15107600Y-8323580I-20000J0D01*
G01*
X15221900Y-6413500D02*
G75*
G03X15221900Y-6413500I-20000J0D01*
G01*
X15234600Y-4711700D02*
G75*
G03X15234600Y-4711700I-20000J0D01*
G01*
X15266350Y-5740400D02*
G75*
G03X15266350Y-5740400I-20000J0D01*
G01*
X15268859Y-6319384D02*
G75*
G03X15268859Y-6319384I-20000J0D01*
G01*
X15272700Y-5295900D02*
G75*
G03X15272700Y-5295900I-20000J0D01*
G01*
X15361026Y-6329323D02*
G75*
G03X15361026Y-6329323I-20000J0D01*
G01*
X15387000Y-6985000D02*
G75*
G03X15387000Y-6985000I-20000J0D01*
G01*
X15450500Y-7747000D02*
G75*
G03X15450500Y-7747000I-20000J0D01*
G01*
X15453040Y-6286500D02*
G75*
G03X15453040Y-6286500I-20000J0D01*
G01*
X15539400Y-7859599D02*
G75*
G03X15539400Y-7859599I-20000J0D01*
G01*
X15564800Y-4838700D02*
G75*
G03X15564800Y-4838700I-20000J0D01*
G01*
X15831500Y-4940300D02*
G75*
G03X15831500Y-4940300I-20000J0D01*
G01*
X16034700Y-5842000D02*
G75*
G03X16034700Y-5842000I-20000J0D01*
G01*
X16072800Y-4851400D02*
G75*
G03X16072800Y-4851400I-20000J0D01*
G01*
X16120000Y-8400000D02*
G75*
G03X16120000Y-8400000I-20000J0D01*
G01*
X16199800Y-7353300D02*
G75*
G03X16199800Y-7353300I-20000J0D01*
G01*
X16301400Y-7112000D02*
G75*
G03X16301400Y-7112000I-20000J0D01*
G01*
X16326800Y-8978900D02*
G75*
G03X16326800Y-8978900I-20000J0D01*
G01*
X16364900Y-5232400D02*
G75*
G03X16364900Y-5232400I-20000J0D01*
G01*
X16403000Y-7924800D02*
G75*
G03X16403000Y-7924800I-20000J0D01*
G01*
X16530000Y-7658100D02*
G75*
G03X16530000Y-7658100I-20000J0D01*
G01*
X16568100Y-4902200D02*
G75*
G03X16568100Y-4902200I-20000J0D01*
G01*
X16618900Y-8394700D02*
G75*
G03X16618900Y-8394700I-20000J0D01*
G01*
X16620000Y-9000000D02*
G75*
G03X16620000Y-9000000I-20000J0D01*
G01*
X16657000Y-7683500D02*
G75*
G03X16657000Y-7683500I-20000J0D01*
G01*
X16733200Y-6134100D02*
G75*
G03X16733200Y-6134100I-20000J0D01*
G01*
X16733200Y-6351701D02*
G75*
G03X16733200Y-6351701I-20000J0D01*
G01*
X16771300Y-7721600D02*
G75*
G03X16771300Y-7721600I-20000J0D01*
G01*
X16796700Y-5499100D02*
G75*
G03X16796700Y-5499100I-20000J0D01*
G01*
X16809400Y-4673600D02*
G75*
G03X16809400Y-4673600I-20000J0D01*
G01*
X16825550Y-6331861D02*
G75*
G03X16825550Y-6331861I-20000J0D01*
G01*
X16847500Y-4991100D02*
G75*
G03X16847500Y-4991100I-20000J0D01*
G01*
X16920000Y-8400000D02*
G75*
G03X16920000Y-8400000I-20000J0D01*
G01*
X16920000Y-9100000D02*
G75*
G03X16920000Y-9100000I-20000J0D01*
G01*
X16974500Y-5232400D02*
G75*
G03X16974500Y-5232400I-20000J0D01*
G01*
X17126900Y-4813300D02*
G75*
G03X17126900Y-4813300I-20000J0D01*
G01*
X17317400Y-5486400D02*
G75*
G03X17317400Y-5486400I-20000J0D01*
G01*
X17317400Y-5905500D02*
G75*
G03X17317400Y-5905500I-20000J0D01*
G01*
X17355500Y-4889500D02*
G75*
G03X17355500Y-4889500I-20000J0D01*
G01*
X17355500Y-5372100D02*
G75*
G03X17355500Y-5372100I-20000J0D01*
G01*
X17482500Y-4686300D02*
G75*
G03X17482500Y-4686300I-20000J0D01*
G01*
X17558700Y-6946900D02*
G75*
G03X17558700Y-6946900I-20000J0D01*
G01*
X17647600Y-5156200D02*
G75*
G03X17647600Y-5156200I-20000J0D01*
G01*
X17698400Y-5600700D02*
G75*
G03X17698400Y-5600700I-20000J0D01*
G01*
X17749200Y-8483600D02*
G75*
G03X17749200Y-8483600I-20000J0D01*
G01*
X17876200Y-5257800D02*
G75*
G03X17876200Y-5257800I-20000J0D01*
G01*
X17990500Y-4787900D02*
G75*
G03X17990500Y-4787900I-20000J0D01*
G01*
X18015900Y-5854700D02*
G75*
G03X18015900Y-5854700I-20000J0D01*
G01*
X18130200Y-4470400D02*
G75*
G03X18130200Y-4470400I-20000J0D01*
G01*
X18206400Y-8496300D02*
G75*
G03X18206400Y-8496300I-20000J0D01*
G01*
X18333400Y-5118100D02*
G75*
G03X18333400Y-5118100I-20000J0D01*
G01*
X18346100Y-4457700D02*
G75*
G03X18346100Y-4457700I-20000J0D01*
G01*
X18435000Y-5626100D02*
G75*
G03X18435000Y-5626100I-20000J0D01*
G01*
X18549300Y-4597400D02*
G75*
G03X18549300Y-4597400I-20000J0D01*
G01*
X18600100Y-8547100D02*
G75*
G03X18600100Y-8547100I-20000J0D01*
G01*
X18930300Y-9105900D02*
G75*
G03X18930300Y-9105900I-20000J0D01*
G01*
X18943000Y-8534400D02*
G75*
G03X18943000Y-8534400I-20000J0D01*
G01*
X18943000Y-9334500D02*
G75*
G03X18943000Y-9334500I-20000J0D01*
G01*
X16008350Y-5550300D02*
X16008350Y-5600300D01*
X15983350Y-5575300D02*
X16033350Y-5575300D01*
X16391300Y-6439300D02*
X16391300Y-6489300D01*
X16366300Y-6464300D02*
X16416300Y-6464300D01*
X13863820Y-3587820D02*
X13863820Y-3524180D01*
X13800180Y-3524180D01*
X13800180Y-3587820D01*
X13863820Y-3587820D01*
X14117820Y-3587820D02*
X14117820Y-3524180D01*
X14054180Y-3524180D01*
X14054180Y-3587820D01*
X14117820Y-3587820D01*
X10307820Y-3587820D02*
X10307820Y-3524180D01*
X10244180Y-3524180D01*
X10244180Y-3587820D01*
X10307820Y-3587820D01*
X10561820Y-3587820D02*
X10561820Y-3524180D01*
X10498180Y-3524180D01*
X10498180Y-3587820D01*
X10561820Y-3587820D01*
X14752820Y-3587820D02*
X14752820Y-3524180D01*
X14689180Y-3524180D01*
X14689180Y-3587820D01*
X14752820Y-3587820D01*
X15006820Y-3587820D02*
X15006820Y-3524180D01*
X14943180Y-3524180D01*
X14943180Y-3587820D01*
X15006820Y-3587820D01*
X12974820Y-3587820D02*
X12974820Y-3524180D01*
X12911180Y-3524180D01*
X12911180Y-3587820D01*
X12974820Y-3587820D01*
X13228820Y-3587820D02*
X13228820Y-3524180D01*
X13165180Y-3524180D01*
X13165180Y-3587820D01*
X13228820Y-3587820D01*
X11196820Y-3587820D02*
X11196820Y-3524180D01*
X11133180Y-3524180D01*
X11133180Y-3587820D01*
X11196820Y-3587820D01*
X11450820Y-3587820D02*
X11450820Y-3524180D01*
X11387180Y-3524180D01*
X11387180Y-3587820D01*
X11450820Y-3587820D01*
X12085820Y-3587820D02*
X12085820Y-3524180D01*
X12022180Y-3524180D01*
X12022180Y-3587820D01*
X12085820Y-3587820D01*
X12339820Y-3587820D02*
X12339820Y-3524180D01*
X12276180Y-3524180D01*
X12276180Y-3587820D01*
X12339820Y-3587820D01*
X18181820Y-3587820D02*
X18181820Y-3524180D01*
X18118180Y-3524180D01*
X18118180Y-3587820D01*
X18181820Y-3587820D01*
X18435820Y-3587820D02*
X18435820Y-3524180D01*
X18372180Y-3524180D01*
X18372180Y-3587820D01*
X18435820Y-3587820D01*
X19814820Y-6522820D02*
X19814820Y-6459180D01*
X19751180Y-6459180D01*
X19751180Y-6522820D01*
X19814820Y-6522820D01*
X20068820Y-6522820D02*
X20068820Y-6459180D01*
X20005180Y-6459180D01*
X20005180Y-6522820D01*
X20068820Y-6522820D01*
X17381820Y-3587820D02*
X17381820Y-3524180D01*
X17318180Y-3524180D01*
X17318180Y-3587820D01*
X17381820Y-3587820D01*
X17635820Y-3587820D02*
X17635820Y-3524180D01*
X17572180Y-3524180D01*
X17572180Y-3587820D01*
X17635820Y-3587820D01*
X19814820Y-5506820D02*
X19814820Y-5443180D01*
X19751180Y-5443180D01*
X19751180Y-5506820D01*
X19814820Y-5506820D01*
X20068820Y-5506820D02*
X20068820Y-5443180D01*
X20005180Y-5443180D01*
X20005180Y-5506820D01*
X20068820Y-5506820D01*
X15641820Y-3587820D02*
X15641820Y-3524180D01*
X15578180Y-3524180D01*
X15578180Y-3587820D01*
X15641820Y-3587820D01*
X15895820Y-3587820D02*
X15895820Y-3524180D01*
X15832180Y-3524180D01*
X15832180Y-3587820D01*
X15895820Y-3587820D01*
X19031820Y-3631820D02*
X19031820Y-3568180D01*
X18968180Y-3568180D01*
X18968180Y-3631820D01*
X19031820Y-3631820D01*
X19285820Y-3631820D02*
X19285820Y-3568180D01*
X19222180Y-3568180D01*
X19222180Y-3631820D01*
X19285820Y-3631820D01*
X19814820Y-8331820D02*
X19814820Y-8268180D01*
X19751180Y-8268180D01*
X19751180Y-8331820D01*
X19814820Y-8331820D01*
X20068820Y-8331820D02*
X20068820Y-8268180D01*
X20005180Y-8268180D01*
X20005180Y-8331820D01*
X20068820Y-8331820D01*
X16530820Y-3587820D02*
X16530820Y-3524180D01*
X16467180Y-3524180D01*
X16467180Y-3587820D01*
X16530820Y-3587820D01*
X16784820Y-3587820D02*
X16784820Y-3524180D01*
X16721180Y-3524180D01*
X16721180Y-3587820D01*
X16784820Y-3587820D01*
X19814820Y-4617820D02*
X19814820Y-4554180D01*
X19751180Y-4554180D01*
X19751180Y-4617820D01*
X19814820Y-4617820D01*
X20068820Y-4617820D02*
X20068820Y-4554180D01*
X20005180Y-4554180D01*
X20005180Y-4617820D01*
X20068820Y-4617820D01*
X19831820Y-7431820D02*
X19831820Y-7368180D01*
X19768180Y-7368180D01*
X19768180Y-7431820D01*
X19831820Y-7431820D01*
X20085820Y-7431820D02*
X20085820Y-7368180D01*
X20022180Y-7368180D01*
X20022180Y-7431820D01*
X20085820Y-7431820D01*
X12445000Y-9343500D02*
X12492500Y-9296000D01*
X12445000Y-9248500D01*
X12397500Y-9296000D01*
X12445000Y-9343500D01*
X12699000Y-9343500D02*
X12746500Y-9296000D01*
X12699000Y-9248500D01*
X12651500Y-9296000D01*
X12699000Y-9343500D01*
X12953000Y-9343500D02*
X13000500Y-9296000D01*
X12953000Y-9248500D01*
X12905500Y-9296000D01*
X12953000Y-9343500D01*
X13207000Y-9343500D02*
X13254500Y-9296000D01*
X13207000Y-9248500D01*
X13159500Y-9296000D01*
X13207000Y-9343500D01*
X13342000Y-4511500D02*
X13389500Y-4464000D01*
X13342000Y-4416500D01*
X13294500Y-4464000D01*
X13342000Y-4511500D01*
X13461000Y-9343500D02*
X13508500Y-9296000D01*
X13461000Y-9248500D01*
X13413500Y-9296000D01*
X13461000Y-9343500D01*
X13596000Y-4511500D02*
X13643500Y-4464000D01*
X13596000Y-4416500D01*
X13548500Y-4464000D01*
X13596000Y-4511500D01*
X13713000Y-9343500D02*
X13760500Y-9296000D01*
X13713000Y-9248500D01*
X13665500Y-9296000D01*
X13713000Y-9343500D01*
X13850000Y-4511500D02*
X13897500Y-4464000D01*
X13850000Y-4416500D01*
X13802500Y-4464000D01*
X13850000Y-4511500D01*
X13969000Y-9343500D02*
X14016500Y-9296000D01*
X13969000Y-9248500D01*
X13921500Y-9296000D01*
X13969000Y-9343500D01*
X14104000Y-4511500D02*
X14151500Y-4464000D01*
X14104000Y-4416500D01*
X14056500Y-4464000D01*
X14104000Y-4511500D01*
X14223000Y-9343500D02*
X14270500Y-9296000D01*
X14223000Y-9248500D01*
X14175500Y-9296000D01*
X14223000Y-9343500D01*
X14358000Y-4511500D02*
X14405500Y-4464000D01*
X14358000Y-4416500D01*
X14310500Y-4464000D01*
X14358000Y-4511500D01*
X14612000Y-4511500D02*
X14659500Y-4464000D01*
X14612000Y-4416500D01*
X14564500Y-4464000D01*
X14612000Y-4511500D01*
X14636000Y-9343500D02*
X14683500Y-9296000D01*
X14636000Y-9248500D01*
X14588500Y-9296000D01*
X14636000Y-9343500D01*
X14890000Y-9343500D02*
X14937500Y-9296000D01*
X14890000Y-9248500D01*
X14842500Y-9296000D01*
X14890000Y-9343500D01*
X15125000Y-4511500D02*
X15172500Y-4464000D01*
X15125000Y-4416500D01*
X15077500Y-4464000D01*
X15125000Y-4511500D01*
X15144000Y-9343500D02*
X15191500Y-9296000D01*
X15144000Y-9248500D01*
X15096500Y-9296000D01*
X15144000Y-9343500D01*
X15379000Y-4511500D02*
X15426500Y-4464000D01*
X15379000Y-4416500D01*
X15331500Y-4464000D01*
X15379000Y-4511500D01*
X15398000Y-9343500D02*
X15445500Y-9296000D01*
X15398000Y-9248500D01*
X15350500Y-9296000D01*
X15398000Y-9343500D01*
X15633000Y-4511500D02*
X15680500Y-4464000D01*
X15633000Y-4416500D01*
X15585500Y-4464000D01*
X15633000Y-4511500D01*
X15652000Y-9343500D02*
X15699500Y-9296000D01*
X15652000Y-9248500D01*
X15604500Y-9296000D01*
X15652000Y-9343500D01*
X15887000Y-4511500D02*
X15934500Y-4464000D01*
X15887000Y-4416500D01*
X15839500Y-4464000D01*
X15887000Y-4511500D01*
X15906000Y-9343500D02*
X15953500Y-9296000D01*
X15906000Y-9248500D01*
X15858500Y-9296000D01*
X15906000Y-9343500D01*
X16141000Y-4511500D02*
X16188500Y-4464000D01*
X16141000Y-4416500D01*
X16093500Y-4464000D01*
X16141000Y-4511500D01*
X16160000Y-9343500D02*
X16207500Y-9296000D01*
X16160000Y-9248500D01*
X16112500Y-9296000D01*
X16160000Y-9343500D01*
X16395000Y-4511500D02*
X16442500Y-4464000D01*
X16395000Y-4416500D01*
X16347500Y-4464000D01*
X16395000Y-4511500D01*
X16414000Y-9343500D02*
X16461500Y-9296000D01*
X16414000Y-9248500D01*
X16366500Y-9296000D01*
X16414000Y-9343500D01*
X9732020Y-7459020D02*
X9832020Y-7559020D01*
X9832020Y-7459020D02*
X9732020Y-7559020D01*
X9832020Y-7509020D02*
G75*
G03X9832020Y-7509020I-50000J0D01*
G01*
X9732020Y-7736020D02*
X9832020Y-7836020D01*
X9832020Y-7736020D02*
X9732020Y-7836020D01*
X9832020Y-7786020D02*
G75*
G03X9832020Y-7786020I-50000J0D01*
G01*
X9732020Y-8013020D02*
X9832020Y-8113020D01*
X9832020Y-8013020D02*
X9732020Y-8113020D01*
X9832020Y-8063020D02*
G75*
G03X9832020Y-8063020I-50000J0D01*
G01*
X9732020Y-8290020D02*
X9832020Y-8390020D01*
X9832020Y-8290020D02*
X9732020Y-8390020D01*
X9832020Y-8340020D02*
G75*
G03X9832020Y-8340020I-50000J0D01*
G01*
X9732020Y-8567020D02*
X9832020Y-8667020D01*
X9832020Y-8567020D02*
X9732020Y-8667020D01*
X9832020Y-8617020D02*
G75*
G03X9832020Y-8617020I-50000J0D01*
G01*
X10016020Y-7597520D02*
X10116020Y-7697520D01*
X10116020Y-7597520D02*
X10016020Y-7697520D01*
X10116020Y-7647520D02*
G75*
G03X10116020Y-7647520I-50000J0D01*
G01*
X10016020Y-7874520D02*
X10116020Y-7974520D01*
X10116020Y-7874520D02*
X10016020Y-7974520D01*
X10116020Y-7924520D02*
G75*
G03X10116020Y-7924520I-50000J0D01*
G01*
X10016020Y-8151520D02*
X10116020Y-8251520D01*
X10116020Y-8151520D02*
X10016020Y-8251520D01*
X10116020Y-8201520D02*
G75*
G03X10116020Y-8201520I-50000J0D01*
G01*
X10016020Y-8428520D02*
X10116020Y-8528520D01*
X10116020Y-8428520D02*
X10016020Y-8528520D01*
X10116020Y-8478520D02*
G75*
G03X10116020Y-8478520I-50000J0D01*
G01*
X16050000Y-8650000D02*
X16150000Y-8750000D01*
X16150000Y-8650000D02*
X16050000Y-8750000D01*
X16150000Y-8700000D02*
G75*
G03X16150000Y-8700000I-50000J0D01*
G01*
X16304000Y-8650000D02*
X16404000Y-8750000D01*
X16404000Y-8650000D02*
X16304000Y-8750000D01*
X16404000Y-8700000D02*
G75*
G03X16404000Y-8700000I-50000J0D01*
G01*
X16558000Y-8650000D02*
X16658000Y-8750000D01*
X16658000Y-8650000D02*
X16558000Y-8750000D01*
X16658000Y-8700000D02*
G75*
G03X16658000Y-8700000I-50000J0D01*
G01*
X16812000Y-8650000D02*
X16912000Y-8750000D01*
X16912000Y-8650000D02*
X16812000Y-8750000D01*
X16912000Y-8700000D02*
G75*
G03X16912000Y-8700000I-50000J0D01*
G01*
X9764020Y-6653020D02*
X10084020Y-6973020D01*
X10084020Y-6653020D02*
X9764020Y-6973020D01*
X9924020Y-6653020D02*
X9924020Y-6973020D01*
X9764020Y-6813020D02*
X10084020Y-6813020D01*
X9764020Y-9153020D02*
X10084020Y-9473020D01*
X10084020Y-9153020D02*
X9764020Y-9473020D01*
X9924020Y-9153020D02*
X9924020Y-9473020D01*
X9764020Y-9313020D02*
X10084020Y-9313020D01*
X9490000Y-3340000D02*
X9910000Y-3760000D01*
X9910000Y-3340000D02*
X9490000Y-3760000D01*
X9848494Y-3698494D02*
X9848494Y-3401506D01*
X9551506Y-3401506D01*
X9551506Y-3698494D01*
X9848494Y-3698494D01*
X11029500Y-9010200D02*
X11449500Y-9430200D01*
X11449500Y-9010200D02*
X11029500Y-9430200D01*
X11387994Y-9368694D02*
X11387994Y-9071706D01*
X11091006Y-9071706D01*
X11091006Y-9368694D01*
X11387994Y-9368694D01*
X19690000Y-3390000D02*
X20110000Y-3810000D01*
X20110000Y-3390000D02*
X19690000Y-3810000D01*
X20048494Y-3748494D02*
X20048494Y-3451506D01*
X19751506Y-3451506D01*
X19751506Y-3748494D01*
X20048494Y-3748494D01*
X19720000Y-9185000D02*
X20140000Y-9605000D01*
X20140000Y-9185000D02*
X19720000Y-9605000D01*
X20078494Y-9543494D02*
X20078494Y-9246506D01*
X19781506Y-9246506D01*
X19781506Y-9543494D01*
X20078494Y-9543494D01*
D12*
X9523928Y-10278214D02*
X9523928Y-9978214D01*
X9595357Y-9978214D01*
X9638214Y-9992500D01*
X9666786Y-10021072D01*
X9681071Y-10049643D01*
X9695357Y-10106786D01*
X9695357Y-10149643D01*
X9681071Y-10206786D01*
X9666786Y-10235357D01*
X9638214Y-10263929D01*
X9595357Y-10278214D01*
X9523928Y-10278214D01*
X9823928Y-10278214D02*
X9823928Y-10078214D01*
X9823928Y-10135357D02*
X9838214Y-10106786D01*
X9852500Y-10092500D01*
X9881071Y-10078214D01*
X9909643Y-10078214D01*
X10009643Y-10278214D02*
X10009643Y-10078214D01*
X10009643Y-9978214D02*
X9995357Y-9992500D01*
X10009643Y-10006786D01*
X10023928Y-9992500D01*
X10009643Y-9978214D01*
X10009643Y-10006786D01*
X10195357Y-10278214D02*
X10166786Y-10263929D01*
X10152500Y-10235357D01*
X10152500Y-9978214D01*
X10352500Y-10278214D02*
X10323928Y-10263929D01*
X10309643Y-10235357D01*
X10309643Y-9978214D01*
X10695357Y-10278214D02*
X10695357Y-9978214D01*
X10795357Y-10192500D01*
X10895357Y-9978214D01*
X10895357Y-10278214D01*
X11166786Y-10278214D02*
X11166786Y-10121072D01*
X11152500Y-10092500D01*
X11123928Y-10078214D01*
X11066786Y-10078214D01*
X11038214Y-10092500D01*
X11166786Y-10263929D02*
X11138214Y-10278214D01*
X11066786Y-10278214D01*
X11038214Y-10263929D01*
X11023928Y-10235357D01*
X11023928Y-10206786D01*
X11038214Y-10178214D01*
X11066786Y-10163929D01*
X11138214Y-10163929D01*
X11166786Y-10149643D01*
X11309643Y-10078214D02*
X11309643Y-10378214D01*
X11309643Y-10092500D02*
X11338214Y-10078214D01*
X11395357Y-10078214D01*
X11423928Y-10092500D01*
X11438214Y-10106786D01*
X11452500Y-10135357D01*
X11452500Y-10221072D01*
X11438214Y-10249643D01*
X11423928Y-10263929D01*
X11395357Y-10278214D01*
X11338214Y-10278214D01*
X11309643Y-10263929D01*
X11581071Y-10249643D02*
X11595357Y-10263929D01*
X11581071Y-10278214D01*
X11566786Y-10263929D01*
X11581071Y-10249643D01*
X11581071Y-10278214D01*
X11581071Y-10092500D02*
X11595357Y-10106786D01*
X11581071Y-10121072D01*
X11566786Y-10106786D01*
X11581071Y-10092500D01*
X11581071Y-10121072D01*
X9207500Y-10757500D02*
X9237500Y-10787500D01*
X9237500Y-10757500D02*
X9207500Y-10787500D01*
X9581071Y-10608214D02*
X9609643Y-10608214D01*
X9638214Y-10622500D01*
X9652500Y-10636786D01*
X9666786Y-10665357D01*
X9681071Y-10722500D01*
X9681071Y-10793929D01*
X9666786Y-10851072D01*
X9652500Y-10879643D01*
X9638214Y-10893929D01*
X9609643Y-10908214D01*
X9581071Y-10908214D01*
X9552500Y-10893929D01*
X9538214Y-10879643D01*
X9523928Y-10851072D01*
X9509643Y-10793929D01*
X9509643Y-10722500D01*
X9523928Y-10665357D01*
X9538214Y-10636786D01*
X9552500Y-10622500D01*
X9581071Y-10608214D01*
X9809643Y-10879643D02*
X9823928Y-10893929D01*
X9809643Y-10908214D01*
X9795357Y-10893929D01*
X9809643Y-10879643D01*
X9809643Y-10908214D01*
X9923928Y-10608214D02*
X10109643Y-10608214D01*
X10009643Y-10722500D01*
X10052500Y-10722500D01*
X10081071Y-10736786D01*
X10095357Y-10751072D01*
X10109643Y-10779643D01*
X10109643Y-10851072D01*
X10095357Y-10879643D01*
X10081071Y-10893929D01*
X10052500Y-10908214D01*
X9966786Y-10908214D01*
X9938214Y-10893929D01*
X9923928Y-10879643D01*
X10295357Y-10608214D02*
X10323928Y-10608214D01*
X10352500Y-10622500D01*
X10366786Y-10636786D01*
X10381071Y-10665357D01*
X10395357Y-10722500D01*
X10395357Y-10793929D01*
X10381071Y-10851072D01*
X10366786Y-10879643D01*
X10352500Y-10893929D01*
X10323928Y-10908214D01*
X10295357Y-10908214D01*
X10266786Y-10893929D01*
X10252500Y-10879643D01*
X10238214Y-10851072D01*
X10223928Y-10793929D01*
X10223928Y-10722500D01*
X10238214Y-10665357D01*
X10252500Y-10636786D01*
X10266786Y-10622500D01*
X10295357Y-10608214D01*
X10523928Y-10908214D02*
X10523928Y-10708214D01*
X10523928Y-10736786D02*
X10538214Y-10722500D01*
X10566786Y-10708214D01*
X10609643Y-10708214D01*
X10638214Y-10722500D01*
X10652500Y-10751072D01*
X10652500Y-10908214D01*
X10652500Y-10751072D02*
X10666786Y-10722500D01*
X10695357Y-10708214D01*
X10738214Y-10708214D01*
X10766786Y-10722500D01*
X10781071Y-10751072D01*
X10781071Y-10908214D01*
X10923928Y-10908214D02*
X10923928Y-10708214D01*
X10923928Y-10736786D02*
X10938214Y-10722500D01*
X10966786Y-10708214D01*
X11009643Y-10708214D01*
X11038214Y-10722500D01*
X11052500Y-10751072D01*
X11052500Y-10908214D01*
X11052500Y-10751072D02*
X11066786Y-10722500D01*
X11095357Y-10708214D01*
X11138214Y-10708214D01*
X11166786Y-10722500D01*
X11181071Y-10751072D01*
X11181071Y-10908214D01*
X11766786Y-10593929D02*
X11509643Y-10979643D01*
X12152500Y-10608214D02*
X12181071Y-10608214D01*
X12209643Y-10622500D01*
X12223928Y-10636786D01*
X12238214Y-10665357D01*
X12252500Y-10722500D01*
X12252500Y-10793929D01*
X12238214Y-10851072D01*
X12223928Y-10879643D01*
X12209643Y-10893929D01*
X12181071Y-10908214D01*
X12152500Y-10908214D01*
X12123928Y-10893929D01*
X12109643Y-10879643D01*
X12095357Y-10851072D01*
X12081071Y-10793929D01*
X12081071Y-10722500D01*
X12095357Y-10665357D01*
X12109643Y-10636786D01*
X12123928Y-10622500D01*
X12152500Y-10608214D01*
X12381071Y-10879643D02*
X12395357Y-10893929D01*
X12381071Y-10908214D01*
X12366786Y-10893929D01*
X12381071Y-10879643D01*
X12381071Y-10908214D01*
X12581071Y-10608214D02*
X12609643Y-10608214D01*
X12638214Y-10622500D01*
X12652500Y-10636786D01*
X12666786Y-10665357D01*
X12681071Y-10722500D01*
X12681071Y-10793929D01*
X12666786Y-10851072D01*
X12652500Y-10879643D01*
X12638214Y-10893929D01*
X12609643Y-10908214D01*
X12581071Y-10908214D01*
X12552500Y-10893929D01*
X12538214Y-10879643D01*
X12523928Y-10851072D01*
X12509643Y-10793929D01*
X12509643Y-10722500D01*
X12523928Y-10665357D01*
X12538214Y-10636786D01*
X12552500Y-10622500D01*
X12581071Y-10608214D01*
X12966786Y-10908214D02*
X12795357Y-10908214D01*
X12881071Y-10908214D02*
X12881071Y-10608214D01*
X12852500Y-10651072D01*
X12823928Y-10679643D01*
X12795357Y-10693929D01*
X13081071Y-10636786D02*
X13095357Y-10622500D01*
X13123928Y-10608214D01*
X13195357Y-10608214D01*
X13223928Y-10622500D01*
X13238214Y-10636786D01*
X13252500Y-10665357D01*
X13252500Y-10693929D01*
X13238214Y-10736786D01*
X13066786Y-10908214D01*
X13252500Y-10908214D01*
X13366786Y-10608214D02*
X13366786Y-10665357D01*
X13481071Y-10608214D02*
X13481071Y-10665357D01*
X13923928Y-11022500D02*
X13909643Y-11008214D01*
X13881071Y-10965357D01*
X13866786Y-10936786D01*
X13852500Y-10893929D01*
X13838214Y-10822500D01*
X13838214Y-10765357D01*
X13852500Y-10693929D01*
X13866786Y-10651072D01*
X13881071Y-10622500D01*
X13909643Y-10579643D01*
X13923928Y-10565357D01*
X14195357Y-10908214D02*
X14023928Y-10908214D01*
X14109643Y-10908214D02*
X14109643Y-10608214D01*
X14081071Y-10651072D01*
X14052500Y-10679643D01*
X14023928Y-10693929D01*
X14366786Y-10736786D02*
X14338214Y-10722500D01*
X14323928Y-10708214D01*
X14309643Y-10679643D01*
X14309643Y-10665357D01*
X14323928Y-10636786D01*
X14338214Y-10622500D01*
X14366786Y-10608214D01*
X14423928Y-10608214D01*
X14452500Y-10622500D01*
X14466786Y-10636786D01*
X14481071Y-10665357D01*
X14481071Y-10679643D01*
X14466786Y-10708214D01*
X14452500Y-10722500D01*
X14423928Y-10736786D01*
X14366786Y-10736786D01*
X14338214Y-10751072D01*
X14323928Y-10765357D01*
X14309643Y-10793929D01*
X14309643Y-10851072D01*
X14323928Y-10879643D01*
X14338214Y-10893929D01*
X14366786Y-10908214D01*
X14423928Y-10908214D01*
X14452500Y-10893929D01*
X14466786Y-10879643D01*
X14481071Y-10851072D01*
X14481071Y-10793929D01*
X14466786Y-10765357D01*
X14452500Y-10751072D01*
X14423928Y-10736786D01*
X14838214Y-10908214D02*
X14838214Y-10608214D01*
X14966786Y-10908214D02*
X14966786Y-10751072D01*
X14952500Y-10722500D01*
X14923928Y-10708214D01*
X14881071Y-10708214D01*
X14852500Y-10722500D01*
X14838214Y-10736786D01*
X15152500Y-10908214D02*
X15123928Y-10893929D01*
X15109643Y-10879643D01*
X15095357Y-10851072D01*
X15095357Y-10765357D01*
X15109643Y-10736786D01*
X15123928Y-10722500D01*
X15152500Y-10708214D01*
X15195357Y-10708214D01*
X15223928Y-10722500D01*
X15238214Y-10736786D01*
X15252500Y-10765357D01*
X15252500Y-10851072D01*
X15238214Y-10879643D01*
X15223928Y-10893929D01*
X15195357Y-10908214D01*
X15152500Y-10908214D01*
X15423928Y-10908214D02*
X15395357Y-10893929D01*
X15381071Y-10865357D01*
X15381071Y-10608214D01*
X15652500Y-10893929D02*
X15623928Y-10908214D01*
X15566786Y-10908214D01*
X15538214Y-10893929D01*
X15523928Y-10865357D01*
X15523928Y-10751072D01*
X15538214Y-10722500D01*
X15566786Y-10708214D01*
X15623928Y-10708214D01*
X15652500Y-10722500D01*
X15666786Y-10751072D01*
X15666786Y-10779643D01*
X15523928Y-10808214D01*
X15781071Y-10893929D02*
X15809643Y-10908214D01*
X15866786Y-10908214D01*
X15895357Y-10893929D01*
X15909643Y-10865357D01*
X15909643Y-10851072D01*
X15895357Y-10822500D01*
X15866786Y-10808214D01*
X15823928Y-10808214D01*
X15795357Y-10793929D01*
X15781071Y-10765357D01*
X15781071Y-10751072D01*
X15795357Y-10722500D01*
X15823928Y-10708214D01*
X15866786Y-10708214D01*
X15895357Y-10722500D01*
X16009643Y-11022500D02*
X16023928Y-11008214D01*
X16052500Y-10965357D01*
X16066786Y-10936786D01*
X16081071Y-10893929D01*
X16095357Y-10822500D01*
X16095357Y-10765357D01*
X16081071Y-10693929D01*
X16066786Y-10651072D01*
X16052500Y-10622500D01*
X16023928Y-10579643D01*
X16009643Y-10565357D01*
X9237500Y-11168500D02*
G75*
G03X9237500Y-11168500I-20000J0D01*
G01*
X9581071Y-11004214D02*
X9609643Y-11004214D01*
X9638214Y-11018500D01*
X9652500Y-11032786D01*
X9666786Y-11061357D01*
X9681071Y-11118500D01*
X9681071Y-11189929D01*
X9666786Y-11247071D01*
X9652500Y-11275643D01*
X9638214Y-11289929D01*
X9609643Y-11304214D01*
X9581071Y-11304214D01*
X9552500Y-11289929D01*
X9538214Y-11275643D01*
X9523928Y-11247071D01*
X9509643Y-11189929D01*
X9509643Y-11118500D01*
X9523928Y-11061357D01*
X9538214Y-11032786D01*
X9552500Y-11018500D01*
X9581071Y-11004214D01*
X9809643Y-11275643D02*
X9823928Y-11289929D01*
X9809643Y-11304214D01*
X9795357Y-11289929D01*
X9809643Y-11275643D01*
X9809643Y-11304214D01*
X10081071Y-11104214D02*
X10081071Y-11304214D01*
X10009643Y-10989929D02*
X9938214Y-11204214D01*
X10123928Y-11204214D01*
X10295357Y-11004214D02*
X10323928Y-11004214D01*
X10352500Y-11018500D01*
X10366786Y-11032786D01*
X10381071Y-11061357D01*
X10395357Y-11118500D01*
X10395357Y-11189929D01*
X10381071Y-11247071D01*
X10366786Y-11275643D01*
X10352500Y-11289929D01*
X10323928Y-11304214D01*
X10295357Y-11304214D01*
X10266786Y-11289929D01*
X10252500Y-11275643D01*
X10238214Y-11247071D01*
X10223928Y-11189929D01*
X10223928Y-11118500D01*
X10238214Y-11061357D01*
X10252500Y-11032786D01*
X10266786Y-11018500D01*
X10295357Y-11004214D01*
X10523928Y-11304214D02*
X10523928Y-11104214D01*
X10523928Y-11132786D02*
X10538214Y-11118500D01*
X10566786Y-11104214D01*
X10609643Y-11104214D01*
X10638214Y-11118500D01*
X10652500Y-11147072D01*
X10652500Y-11304214D01*
X10652500Y-11147072D02*
X10666786Y-11118500D01*
X10695357Y-11104214D01*
X10738214Y-11104214D01*
X10766786Y-11118500D01*
X10781071Y-11147072D01*
X10781071Y-11304214D01*
X10923928Y-11304214D02*
X10923928Y-11104214D01*
X10923928Y-11132786D02*
X10938214Y-11118500D01*
X10966786Y-11104214D01*
X11009643Y-11104214D01*
X11038214Y-11118500D01*
X11052500Y-11147072D01*
X11052500Y-11304214D01*
X11052500Y-11147072D02*
X11066786Y-11118500D01*
X11095357Y-11104214D01*
X11138214Y-11104214D01*
X11166786Y-11118500D01*
X11181071Y-11147072D01*
X11181071Y-11304214D01*
X11766786Y-10989929D02*
X11509643Y-11375643D01*
X12152500Y-11004214D02*
X12181071Y-11004214D01*
X12209643Y-11018500D01*
X12223928Y-11032786D01*
X12238214Y-11061357D01*
X12252500Y-11118500D01*
X12252500Y-11189929D01*
X12238214Y-11247071D01*
X12223928Y-11275643D01*
X12209643Y-11289929D01*
X12181071Y-11304214D01*
X12152500Y-11304214D01*
X12123928Y-11289929D01*
X12109643Y-11275643D01*
X12095357Y-11247071D01*
X12081071Y-11189929D01*
X12081071Y-11118500D01*
X12095357Y-11061357D01*
X12109643Y-11032786D01*
X12123928Y-11018500D01*
X12152500Y-11004214D01*
X12381071Y-11275643D02*
X12395357Y-11289929D01*
X12381071Y-11304214D01*
X12366786Y-11289929D01*
X12381071Y-11275643D01*
X12381071Y-11304214D01*
X12581071Y-11004214D02*
X12609643Y-11004214D01*
X12638214Y-11018500D01*
X12652500Y-11032786D01*
X12666786Y-11061357D01*
X12681071Y-11118500D01*
X12681071Y-11189929D01*
X12666786Y-11247071D01*
X12652500Y-11275643D01*
X12638214Y-11289929D01*
X12609643Y-11304214D01*
X12581071Y-11304214D01*
X12552500Y-11289929D01*
X12538214Y-11275643D01*
X12523928Y-11247071D01*
X12509643Y-11189929D01*
X12509643Y-11118500D01*
X12523928Y-11061357D01*
X12538214Y-11032786D01*
X12552500Y-11018500D01*
X12581071Y-11004214D01*
X12966786Y-11304214D02*
X12795357Y-11304214D01*
X12881071Y-11304214D02*
X12881071Y-11004214D01*
X12852500Y-11047072D01*
X12823928Y-11075643D01*
X12795357Y-11089929D01*
X13223928Y-11004214D02*
X13166786Y-11004214D01*
X13138214Y-11018500D01*
X13123928Y-11032786D01*
X13095357Y-11075643D01*
X13081071Y-11132786D01*
X13081071Y-11247071D01*
X13095357Y-11275643D01*
X13109643Y-11289929D01*
X13138214Y-11304214D01*
X13195357Y-11304214D01*
X13223928Y-11289929D01*
X13238214Y-11275643D01*
X13252500Y-11247071D01*
X13252500Y-11175643D01*
X13238214Y-11147072D01*
X13223928Y-11132786D01*
X13195357Y-11118500D01*
X13138214Y-11118500D01*
X13109643Y-11132786D01*
X13095357Y-11147072D01*
X13081071Y-11175643D01*
X13366786Y-11004214D02*
X13366786Y-11061357D01*
X13481071Y-11004214D02*
X13481071Y-11061357D01*
X13923928Y-11418500D02*
X13909643Y-11404214D01*
X13881071Y-11361357D01*
X13866786Y-11332786D01*
X13852500Y-11289929D01*
X13838214Y-11218500D01*
X13838214Y-11161357D01*
X13852500Y-11089929D01*
X13866786Y-11047072D01*
X13881071Y-11018500D01*
X13909643Y-10975643D01*
X13923928Y-10961357D01*
X14195357Y-11304214D02*
X14023928Y-11304214D01*
X14109643Y-11304214D02*
X14109643Y-11004214D01*
X14081071Y-11047072D01*
X14052500Y-11075643D01*
X14023928Y-11089929D01*
X14295357Y-11004214D02*
X14481071Y-11004214D01*
X14381071Y-11118500D01*
X14423928Y-11118500D01*
X14452500Y-11132786D01*
X14466786Y-11147072D01*
X14481071Y-11175643D01*
X14481071Y-11247071D01*
X14466786Y-11275643D01*
X14452500Y-11289929D01*
X14423928Y-11304214D01*
X14338214Y-11304214D01*
X14309643Y-11289929D01*
X14295357Y-11275643D01*
X14766786Y-11304214D02*
X14595357Y-11304214D01*
X14681071Y-11304214D02*
X14681071Y-11004214D01*
X14652500Y-11047072D01*
X14623928Y-11075643D01*
X14595357Y-11089929D01*
X15123928Y-11304214D02*
X15123928Y-11004214D01*
X15252500Y-11304214D02*
X15252500Y-11147072D01*
X15238214Y-11118500D01*
X15209643Y-11104214D01*
X15166786Y-11104214D01*
X15138214Y-11118500D01*
X15123928Y-11132786D01*
X15438214Y-11304214D02*
X15409643Y-11289929D01*
X15395357Y-11275643D01*
X15381071Y-11247071D01*
X15381071Y-11161357D01*
X15395357Y-11132786D01*
X15409643Y-11118500D01*
X15438214Y-11104214D01*
X15481071Y-11104214D01*
X15509643Y-11118500D01*
X15523928Y-11132786D01*
X15538214Y-11161357D01*
X15538214Y-11247071D01*
X15523928Y-11275643D01*
X15509643Y-11289929D01*
X15481071Y-11304214D01*
X15438214Y-11304214D01*
X15709643Y-11304214D02*
X15681071Y-11289929D01*
X15666786Y-11261357D01*
X15666786Y-11004214D01*
X15938214Y-11289929D02*
X15909643Y-11304214D01*
X15852500Y-11304214D01*
X15823928Y-11289929D01*
X15809643Y-11261357D01*
X15809643Y-11147072D01*
X15823928Y-11118500D01*
X15852500Y-11104214D01*
X15909643Y-11104214D01*
X15938214Y-11118500D01*
X15952500Y-11147072D01*
X15952500Y-11175643D01*
X15809643Y-11204214D01*
X16066786Y-11289929D02*
X16095357Y-11304214D01*
X16152500Y-11304214D01*
X16181071Y-11289929D01*
X16195357Y-11261357D01*
X16195357Y-11247071D01*
X16181071Y-11218500D01*
X16152500Y-11204214D01*
X16109643Y-11204214D01*
X16081071Y-11189929D01*
X16066786Y-11161357D01*
X16066786Y-11147072D01*
X16081071Y-11118500D01*
X16109643Y-11104214D01*
X16152500Y-11104214D01*
X16181071Y-11118500D01*
X16295357Y-11418500D02*
X16309643Y-11404214D01*
X16338214Y-11361357D01*
X16352500Y-11332786D01*
X16366786Y-11289929D01*
X16381071Y-11218500D01*
X16381071Y-11161357D01*
X16366786Y-11089929D01*
X16352500Y-11047072D01*
X16338214Y-11018500D01*
X16309643Y-10975643D01*
X16295357Y-10961357D01*
X9212500Y-11539500D02*
X9212500Y-11589500D01*
X9187500Y-11564500D02*
X9237500Y-11564500D01*
X9581071Y-11400214D02*
X9609643Y-11400214D01*
X9638214Y-11414500D01*
X9652500Y-11428786D01*
X9666786Y-11457357D01*
X9681071Y-11514500D01*
X9681071Y-11585929D01*
X9666786Y-11643071D01*
X9652500Y-11671643D01*
X9638214Y-11685929D01*
X9609643Y-11700214D01*
X9581071Y-11700214D01*
X9552500Y-11685929D01*
X9538214Y-11671643D01*
X9523928Y-11643071D01*
X9509643Y-11585929D01*
X9509643Y-11514500D01*
X9523928Y-11457357D01*
X9538214Y-11428786D01*
X9552500Y-11414500D01*
X9581071Y-11400214D01*
X9809643Y-11671643D02*
X9823928Y-11685929D01*
X9809643Y-11700214D01*
X9795357Y-11685929D01*
X9809643Y-11671643D01*
X9809643Y-11700214D01*
X10095357Y-11400214D02*
X9952500Y-11400214D01*
X9938214Y-11543071D01*
X9952500Y-11528786D01*
X9981071Y-11514500D01*
X10052500Y-11514500D01*
X10081071Y-11528786D01*
X10095357Y-11543071D01*
X10109643Y-11571643D01*
X10109643Y-11643071D01*
X10095357Y-11671643D01*
X10081071Y-11685929D01*
X10052500Y-11700214D01*
X9981071Y-11700214D01*
X9952500Y-11685929D01*
X9938214Y-11671643D01*
X10295357Y-11400214D02*
X10323928Y-11400214D01*
X10352500Y-11414500D01*
X10366786Y-11428786D01*
X10381071Y-11457357D01*
X10395357Y-11514500D01*
X10395357Y-11585929D01*
X10381071Y-11643071D01*
X10366786Y-11671643D01*
X10352500Y-11685929D01*
X10323928Y-11700214D01*
X10295357Y-11700214D01*
X10266786Y-11685929D01*
X10252500Y-11671643D01*
X10238214Y-11643071D01*
X10223928Y-11585929D01*
X10223928Y-11514500D01*
X10238214Y-11457357D01*
X10252500Y-11428786D01*
X10266786Y-11414500D01*
X10295357Y-11400214D01*
X10523928Y-11700214D02*
X10523928Y-11500214D01*
X10523928Y-11528786D02*
X10538214Y-11514500D01*
X10566786Y-11500214D01*
X10609643Y-11500214D01*
X10638214Y-11514500D01*
X10652500Y-11543071D01*
X10652500Y-11700214D01*
X10652500Y-11543071D02*
X10666786Y-11514500D01*
X10695357Y-11500214D01*
X10738214Y-11500214D01*
X10766786Y-11514500D01*
X10781071Y-11543071D01*
X10781071Y-11700214D01*
X10923928Y-11700214D02*
X10923928Y-11500214D01*
X10923928Y-11528786D02*
X10938214Y-11514500D01*
X10966786Y-11500214D01*
X11009643Y-11500214D01*
X11038214Y-11514500D01*
X11052500Y-11543071D01*
X11052500Y-11700214D01*
X11052500Y-11543071D02*
X11066786Y-11514500D01*
X11095357Y-11500214D01*
X11138214Y-11500214D01*
X11166786Y-11514500D01*
X11181071Y-11543071D01*
X11181071Y-11700214D01*
X11766786Y-11385929D02*
X11509643Y-11771643D01*
X12152500Y-11400214D02*
X12181071Y-11400214D01*
X12209643Y-11414500D01*
X12223928Y-11428786D01*
X12238214Y-11457357D01*
X12252500Y-11514500D01*
X12252500Y-11585929D01*
X12238214Y-11643071D01*
X12223928Y-11671643D01*
X12209643Y-11685929D01*
X12181071Y-11700214D01*
X12152500Y-11700214D01*
X12123928Y-11685929D01*
X12109643Y-11671643D01*
X12095357Y-11643071D01*
X12081071Y-11585929D01*
X12081071Y-11514500D01*
X12095357Y-11457357D01*
X12109643Y-11428786D01*
X12123928Y-11414500D01*
X12152500Y-11400214D01*
X12381071Y-11671643D02*
X12395357Y-11685929D01*
X12381071Y-11700214D01*
X12366786Y-11685929D01*
X12381071Y-11671643D01*
X12381071Y-11700214D01*
X12581071Y-11400214D02*
X12609643Y-11400214D01*
X12638214Y-11414500D01*
X12652500Y-11428786D01*
X12666786Y-11457357D01*
X12681071Y-11514500D01*
X12681071Y-11585929D01*
X12666786Y-11643071D01*
X12652500Y-11671643D01*
X12638214Y-11685929D01*
X12609643Y-11700214D01*
X12581071Y-11700214D01*
X12552500Y-11685929D01*
X12538214Y-11671643D01*
X12523928Y-11643071D01*
X12509643Y-11585929D01*
X12509643Y-11514500D01*
X12523928Y-11457357D01*
X12538214Y-11428786D01*
X12552500Y-11414500D01*
X12581071Y-11400214D01*
X12795357Y-11428786D02*
X12809643Y-11414500D01*
X12838214Y-11400214D01*
X12909643Y-11400214D01*
X12938214Y-11414500D01*
X12952500Y-11428786D01*
X12966786Y-11457357D01*
X12966786Y-11485929D01*
X12952500Y-11528786D01*
X12781071Y-11700214D01*
X12966786Y-11700214D01*
X13152500Y-11400214D02*
X13181071Y-11400214D01*
X13209643Y-11414500D01*
X13223928Y-11428786D01*
X13238214Y-11457357D01*
X13252500Y-11514500D01*
X13252500Y-11585929D01*
X13238214Y-11643071D01*
X13223928Y-11671643D01*
X13209643Y-11685929D01*
X13181071Y-11700214D01*
X13152500Y-11700214D01*
X13123928Y-11685929D01*
X13109643Y-11671643D01*
X13095357Y-11643071D01*
X13081071Y-11585929D01*
X13081071Y-11514500D01*
X13095357Y-11457357D01*
X13109643Y-11428786D01*
X13123928Y-11414500D01*
X13152500Y-11400214D01*
X13366786Y-11400214D02*
X13366786Y-11457357D01*
X13481071Y-11400214D02*
X13481071Y-11457357D01*
X13923928Y-11814500D02*
X13909643Y-11800214D01*
X13881071Y-11757357D01*
X13866786Y-11728786D01*
X13852500Y-11685929D01*
X13838214Y-11614500D01*
X13838214Y-11557357D01*
X13852500Y-11485929D01*
X13866786Y-11443071D01*
X13881071Y-11414500D01*
X13909643Y-11371643D01*
X13923928Y-11357357D01*
X14023928Y-11428786D02*
X14038214Y-11414500D01*
X14066786Y-11400214D01*
X14138214Y-11400214D01*
X14166786Y-11414500D01*
X14181071Y-11428786D01*
X14195357Y-11457357D01*
X14195357Y-11485929D01*
X14181071Y-11528786D01*
X14009643Y-11700214D01*
X14195357Y-11700214D01*
X14552500Y-11700214D02*
X14552500Y-11400214D01*
X14681071Y-11700214D02*
X14681071Y-11543071D01*
X14666786Y-11514500D01*
X14638214Y-11500214D01*
X14595357Y-11500214D01*
X14566786Y-11514500D01*
X14552500Y-11528786D01*
X14866786Y-11700214D02*
X14838214Y-11685929D01*
X14823928Y-11671643D01*
X14809643Y-11643071D01*
X14809643Y-11557357D01*
X14823928Y-11528786D01*
X14838214Y-11514500D01*
X14866786Y-11500214D01*
X14909643Y-11500214D01*
X14938214Y-11514500D01*
X14952500Y-11528786D01*
X14966786Y-11557357D01*
X14966786Y-11643071D01*
X14952500Y-11671643D01*
X14938214Y-11685929D01*
X14909643Y-11700214D01*
X14866786Y-11700214D01*
X15138214Y-11700214D02*
X15109643Y-11685929D01*
X15095357Y-11657357D01*
X15095357Y-11400214D01*
X15366786Y-11685929D02*
X15338214Y-11700214D01*
X15281071Y-11700214D01*
X15252500Y-11685929D01*
X15238214Y-11657357D01*
X15238214Y-11543071D01*
X15252500Y-11514500D01*
X15281071Y-11500214D01*
X15338214Y-11500214D01*
X15366786Y-11514500D01*
X15381071Y-11543071D01*
X15381071Y-11571643D01*
X15238214Y-11600214D01*
X15495357Y-11685929D02*
X15523928Y-11700214D01*
X15581071Y-11700214D01*
X15609643Y-11685929D01*
X15623928Y-11657357D01*
X15623928Y-11643071D01*
X15609643Y-11614500D01*
X15581071Y-11600214D01*
X15538214Y-11600214D01*
X15509643Y-11585929D01*
X15495357Y-11557357D01*
X15495357Y-11543071D01*
X15509643Y-11514500D01*
X15538214Y-11500214D01*
X15581071Y-11500214D01*
X15609643Y-11514500D01*
X15723928Y-11814500D02*
X15738214Y-11800214D01*
X15766786Y-11757357D01*
X15781071Y-11728786D01*
X15795357Y-11685929D01*
X15809643Y-11614500D01*
X15809643Y-11557357D01*
X15795357Y-11485929D01*
X15781071Y-11443071D01*
X15766786Y-11414500D01*
X15738214Y-11371643D01*
X15723928Y-11357357D01*
X9224320Y-11992320D02*
X9224320Y-11928680D01*
X9160680Y-11928680D01*
X9160680Y-11992320D01*
X9224320Y-11992320D01*
X9581071Y-11796214D02*
X9609643Y-11796214D01*
X9638214Y-11810500D01*
X9652500Y-11824786D01*
X9666786Y-11853357D01*
X9681071Y-11910500D01*
X9681071Y-11981929D01*
X9666786Y-12039071D01*
X9652500Y-12067643D01*
X9638214Y-12081929D01*
X9609643Y-12096214D01*
X9581071Y-12096214D01*
X9552500Y-12081929D01*
X9538214Y-12067643D01*
X9523928Y-12039071D01*
X9509643Y-11981929D01*
X9509643Y-11910500D01*
X9523928Y-11853357D01*
X9538214Y-11824786D01*
X9552500Y-11810500D01*
X9581071Y-11796214D01*
X9809643Y-12067643D02*
X9823928Y-12081929D01*
X9809643Y-12096214D01*
X9795357Y-12081929D01*
X9809643Y-12067643D01*
X9809643Y-12096214D01*
X9966786Y-12096214D02*
X10023928Y-12096214D01*
X10052500Y-12081929D01*
X10066786Y-12067643D01*
X10095357Y-12024786D01*
X10109643Y-11967643D01*
X10109643Y-11853357D01*
X10095357Y-11824786D01*
X10081071Y-11810500D01*
X10052500Y-11796214D01*
X9995357Y-11796214D01*
X9966786Y-11810500D01*
X9952500Y-11824786D01*
X9938214Y-11853357D01*
X9938214Y-11924786D01*
X9952500Y-11953357D01*
X9966786Y-11967643D01*
X9995357Y-11981929D01*
X10052500Y-11981929D01*
X10081071Y-11967643D01*
X10095357Y-11953357D01*
X10109643Y-11924786D01*
X10295357Y-11796214D02*
X10323928Y-11796214D01*
X10352500Y-11810500D01*
X10366786Y-11824786D01*
X10381071Y-11853357D01*
X10395357Y-11910500D01*
X10395357Y-11981929D01*
X10381071Y-12039071D01*
X10366786Y-12067643D01*
X10352500Y-12081929D01*
X10323928Y-12096214D01*
X10295357Y-12096214D01*
X10266786Y-12081929D01*
X10252500Y-12067643D01*
X10238214Y-12039071D01*
X10223928Y-11981929D01*
X10223928Y-11910500D01*
X10238214Y-11853357D01*
X10252500Y-11824786D01*
X10266786Y-11810500D01*
X10295357Y-11796214D01*
X10523928Y-12096214D02*
X10523928Y-11896214D01*
X10523928Y-11924786D02*
X10538214Y-11910500D01*
X10566786Y-11896214D01*
X10609643Y-11896214D01*
X10638214Y-11910500D01*
X10652500Y-11939071D01*
X10652500Y-12096214D01*
X10652500Y-11939071D02*
X10666786Y-11910500D01*
X10695357Y-11896214D01*
X10738214Y-11896214D01*
X10766786Y-11910500D01*
X10781071Y-11939071D01*
X10781071Y-12096214D01*
X10923928Y-12096214D02*
X10923928Y-11896214D01*
X10923928Y-11924786D02*
X10938214Y-11910500D01*
X10966786Y-11896214D01*
X11009643Y-11896214D01*
X11038214Y-11910500D01*
X11052500Y-11939071D01*
X11052500Y-12096214D01*
X11052500Y-11939071D02*
X11066786Y-11910500D01*
X11095357Y-11896214D01*
X11138214Y-11896214D01*
X11166786Y-11910500D01*
X11181071Y-11939071D01*
X11181071Y-12096214D01*
X11766786Y-11781929D02*
X11509643Y-12167643D01*
X12152500Y-11796214D02*
X12181071Y-11796214D01*
X12209643Y-11810500D01*
X12223928Y-11824786D01*
X12238214Y-11853357D01*
X12252500Y-11910500D01*
X12252500Y-11981929D01*
X12238214Y-12039071D01*
X12223928Y-12067643D01*
X12209643Y-12081929D01*
X12181071Y-12096214D01*
X12152500Y-12096214D01*
X12123928Y-12081929D01*
X12109643Y-12067643D01*
X12095357Y-12039071D01*
X12081071Y-11981929D01*
X12081071Y-11910500D01*
X12095357Y-11853357D01*
X12109643Y-11824786D01*
X12123928Y-11810500D01*
X12152500Y-11796214D01*
X12381071Y-12067643D02*
X12395357Y-12081929D01*
X12381071Y-12096214D01*
X12366786Y-12081929D01*
X12381071Y-12067643D01*
X12381071Y-12096214D01*
X12581071Y-11796214D02*
X12609643Y-11796214D01*
X12638214Y-11810500D01*
X12652500Y-11824786D01*
X12666786Y-11853357D01*
X12681071Y-11910500D01*
X12681071Y-11981929D01*
X12666786Y-12039071D01*
X12652500Y-12067643D01*
X12638214Y-12081929D01*
X12609643Y-12096214D01*
X12581071Y-12096214D01*
X12552500Y-12081929D01*
X12538214Y-12067643D01*
X12523928Y-12039071D01*
X12509643Y-11981929D01*
X12509643Y-11910500D01*
X12523928Y-11853357D01*
X12538214Y-11824786D01*
X12552500Y-11810500D01*
X12581071Y-11796214D01*
X12781071Y-11796214D02*
X12966786Y-11796214D01*
X12866786Y-11910500D01*
X12909643Y-11910500D01*
X12938214Y-11924786D01*
X12952500Y-11939071D01*
X12966786Y-11967643D01*
X12966786Y-12039071D01*
X12952500Y-12067643D01*
X12938214Y-12081929D01*
X12909643Y-12096214D01*
X12823928Y-12096214D01*
X12795357Y-12081929D01*
X12781071Y-12067643D01*
X13238214Y-11796214D02*
X13095357Y-11796214D01*
X13081071Y-11939071D01*
X13095357Y-11924786D01*
X13123928Y-11910500D01*
X13195357Y-11910500D01*
X13223928Y-11924786D01*
X13238214Y-11939071D01*
X13252500Y-11967643D01*
X13252500Y-12039071D01*
X13238214Y-12067643D01*
X13223928Y-12081929D01*
X13195357Y-12096214D01*
X13123928Y-12096214D01*
X13095357Y-12081929D01*
X13081071Y-12067643D01*
X13366786Y-11796214D02*
X13366786Y-11853357D01*
X13481071Y-11796214D02*
X13481071Y-11853357D01*
X13923928Y-12210500D02*
X13909643Y-12196214D01*
X13881071Y-12153357D01*
X13866786Y-12124786D01*
X13852500Y-12081929D01*
X13838214Y-12010500D01*
X13838214Y-11953357D01*
X13852500Y-11881929D01*
X13866786Y-11839071D01*
X13881071Y-11810500D01*
X13909643Y-11767643D01*
X13923928Y-11753357D01*
X14009643Y-11796214D02*
X14195357Y-11796214D01*
X14095357Y-11910500D01*
X14138214Y-11910500D01*
X14166786Y-11924786D01*
X14181071Y-11939071D01*
X14195357Y-11967643D01*
X14195357Y-12039071D01*
X14181071Y-12067643D01*
X14166786Y-12081929D01*
X14138214Y-12096214D01*
X14052500Y-12096214D01*
X14023928Y-12081929D01*
X14009643Y-12067643D01*
X14309643Y-11824786D02*
X14323928Y-11810500D01*
X14352500Y-11796214D01*
X14423928Y-11796214D01*
X14452500Y-11810500D01*
X14466786Y-11824786D01*
X14481071Y-11853357D01*
X14481071Y-11881929D01*
X14466786Y-11924786D01*
X14295357Y-12096214D01*
X14481071Y-12096214D01*
X14838214Y-12096214D02*
X14838214Y-11796214D01*
X14966786Y-12096214D02*
X14966786Y-11939071D01*
X14952500Y-11910500D01*
X14923928Y-11896214D01*
X14881071Y-11896214D01*
X14852500Y-11910500D01*
X14838214Y-11924786D01*
X15152500Y-12096214D02*
X15123928Y-12081929D01*
X15109643Y-12067643D01*
X15095357Y-12039071D01*
X15095357Y-11953357D01*
X15109643Y-11924786D01*
X15123928Y-11910500D01*
X15152500Y-11896214D01*
X15195357Y-11896214D01*
X15223928Y-11910500D01*
X15238214Y-11924786D01*
X15252500Y-11953357D01*
X15252500Y-12039071D01*
X15238214Y-12067643D01*
X15223928Y-12081929D01*
X15195357Y-12096214D01*
X15152500Y-12096214D01*
X15423928Y-12096214D02*
X15395357Y-12081929D01*
X15381071Y-12053357D01*
X15381071Y-11796214D01*
X15652500Y-12081929D02*
X15623928Y-12096214D01*
X15566786Y-12096214D01*
X15538214Y-12081929D01*
X15523928Y-12053357D01*
X15523928Y-11939071D01*
X15538214Y-11910500D01*
X15566786Y-11896214D01*
X15623928Y-11896214D01*
X15652500Y-11910500D01*
X15666786Y-11939071D01*
X15666786Y-11967643D01*
X15523928Y-11996214D01*
X15781071Y-12081929D02*
X15809643Y-12096214D01*
X15866786Y-12096214D01*
X15895357Y-12081929D01*
X15909643Y-12053357D01*
X15909643Y-12039071D01*
X15895357Y-12010500D01*
X15866786Y-11996214D01*
X15823928Y-11996214D01*
X15795357Y-11981929D01*
X15781071Y-11953357D01*
X15781071Y-11939071D01*
X15795357Y-11910500D01*
X15823928Y-11896214D01*
X15866786Y-11896214D01*
X15895357Y-11910500D01*
X16009643Y-12210500D02*
X16023928Y-12196214D01*
X16052500Y-12153357D01*
X16066786Y-12124786D01*
X16081071Y-12081929D01*
X16095357Y-12010500D01*
X16095357Y-11953357D01*
X16081071Y-11881929D01*
X16066786Y-11839071D01*
X16052500Y-11810500D01*
X16023928Y-11767643D01*
X16009643Y-11753357D01*
X9190000Y-12404000D02*
X9237500Y-12356500D01*
X9190000Y-12309000D01*
X9142500Y-12356500D01*
X9190000Y-12404000D01*
X9581071Y-12192214D02*
X9609643Y-12192214D01*
X9638214Y-12206500D01*
X9652500Y-12220786D01*
X9666786Y-12249357D01*
X9681071Y-12306500D01*
X9681071Y-12377929D01*
X9666786Y-12435071D01*
X9652500Y-12463643D01*
X9638214Y-12477929D01*
X9609643Y-12492214D01*
X9581071Y-12492214D01*
X9552500Y-12477929D01*
X9538214Y-12463643D01*
X9523928Y-12435071D01*
X9509643Y-12377929D01*
X9509643Y-12306500D01*
X9523928Y-12249357D01*
X9538214Y-12220786D01*
X9552500Y-12206500D01*
X9581071Y-12192214D01*
X9809643Y-12463643D02*
X9823928Y-12477929D01*
X9809643Y-12492214D01*
X9795357Y-12477929D01*
X9809643Y-12463643D01*
X9809643Y-12492214D01*
X9966786Y-12492214D02*
X10023928Y-12492214D01*
X10052500Y-12477929D01*
X10066786Y-12463643D01*
X10095357Y-12420786D01*
X10109643Y-12363643D01*
X10109643Y-12249357D01*
X10095357Y-12220786D01*
X10081071Y-12206500D01*
X10052500Y-12192214D01*
X9995357Y-12192214D01*
X9966786Y-12206500D01*
X9952500Y-12220786D01*
X9938214Y-12249357D01*
X9938214Y-12320786D01*
X9952500Y-12349357D01*
X9966786Y-12363643D01*
X9995357Y-12377929D01*
X10052500Y-12377929D01*
X10081071Y-12363643D01*
X10095357Y-12349357D01*
X10109643Y-12320786D01*
X10381071Y-12192214D02*
X10238214Y-12192214D01*
X10223928Y-12335071D01*
X10238214Y-12320786D01*
X10266786Y-12306500D01*
X10338214Y-12306500D01*
X10366786Y-12320786D01*
X10381071Y-12335071D01*
X10395357Y-12363643D01*
X10395357Y-12435071D01*
X10381071Y-12463643D01*
X10366786Y-12477929D01*
X10338214Y-12492214D01*
X10266786Y-12492214D01*
X10238214Y-12477929D01*
X10223928Y-12463643D01*
X10523928Y-12492214D02*
X10523928Y-12292214D01*
X10523928Y-12320786D02*
X10538214Y-12306500D01*
X10566786Y-12292214D01*
X10609643Y-12292214D01*
X10638214Y-12306500D01*
X10652500Y-12335071D01*
X10652500Y-12492214D01*
X10652500Y-12335071D02*
X10666786Y-12306500D01*
X10695357Y-12292214D01*
X10738214Y-12292214D01*
X10766786Y-12306500D01*
X10781071Y-12335071D01*
X10781071Y-12492214D01*
X10923928Y-12492214D02*
X10923928Y-12292214D01*
X10923928Y-12320786D02*
X10938214Y-12306500D01*
X10966786Y-12292214D01*
X11009643Y-12292214D01*
X11038214Y-12306500D01*
X11052500Y-12335071D01*
X11052500Y-12492214D01*
X11052500Y-12335071D02*
X11066786Y-12306500D01*
X11095357Y-12292214D01*
X11138214Y-12292214D01*
X11166786Y-12306500D01*
X11181071Y-12335071D01*
X11181071Y-12492214D01*
X11766786Y-12177929D02*
X11509643Y-12563643D01*
X12152500Y-12192214D02*
X12181071Y-12192214D01*
X12209643Y-12206500D01*
X12223928Y-12220786D01*
X12238214Y-12249357D01*
X12252500Y-12306500D01*
X12252500Y-12377929D01*
X12238214Y-12435071D01*
X12223928Y-12463643D01*
X12209643Y-12477929D01*
X12181071Y-12492214D01*
X12152500Y-12492214D01*
X12123928Y-12477929D01*
X12109643Y-12463643D01*
X12095357Y-12435071D01*
X12081071Y-12377929D01*
X12081071Y-12306500D01*
X12095357Y-12249357D01*
X12109643Y-12220786D01*
X12123928Y-12206500D01*
X12152500Y-12192214D01*
X12381071Y-12463643D02*
X12395357Y-12477929D01*
X12381071Y-12492214D01*
X12366786Y-12477929D01*
X12381071Y-12463643D01*
X12381071Y-12492214D01*
X12581071Y-12192214D02*
X12609643Y-12192214D01*
X12638214Y-12206500D01*
X12652500Y-12220786D01*
X12666786Y-12249357D01*
X12681071Y-12306500D01*
X12681071Y-12377929D01*
X12666786Y-12435071D01*
X12652500Y-12463643D01*
X12638214Y-12477929D01*
X12609643Y-12492214D01*
X12581071Y-12492214D01*
X12552500Y-12477929D01*
X12538214Y-12463643D01*
X12523928Y-12435071D01*
X12509643Y-12377929D01*
X12509643Y-12306500D01*
X12523928Y-12249357D01*
X12538214Y-12220786D01*
X12552500Y-12206500D01*
X12581071Y-12192214D01*
X12781071Y-12192214D02*
X12966786Y-12192214D01*
X12866786Y-12306500D01*
X12909643Y-12306500D01*
X12938214Y-12320786D01*
X12952500Y-12335071D01*
X12966786Y-12363643D01*
X12966786Y-12435071D01*
X12952500Y-12463643D01*
X12938214Y-12477929D01*
X12909643Y-12492214D01*
X12823928Y-12492214D01*
X12795357Y-12477929D01*
X12781071Y-12463643D01*
X13066786Y-12192214D02*
X13266786Y-12192214D01*
X13138214Y-12492214D01*
X13366786Y-12192214D02*
X13366786Y-12249357D01*
X13481071Y-12192214D02*
X13481071Y-12249357D01*
X13923928Y-12606500D02*
X13909643Y-12592214D01*
X13881071Y-12549357D01*
X13866786Y-12520786D01*
X13852500Y-12477929D01*
X13838214Y-12406500D01*
X13838214Y-12349357D01*
X13852500Y-12277929D01*
X13866786Y-12235071D01*
X13881071Y-12206500D01*
X13909643Y-12163643D01*
X13923928Y-12149357D01*
X14023928Y-12220786D02*
X14038214Y-12206500D01*
X14066786Y-12192214D01*
X14138214Y-12192214D01*
X14166786Y-12206500D01*
X14181071Y-12220786D01*
X14195357Y-12249357D01*
X14195357Y-12277929D01*
X14181071Y-12320786D01*
X14009643Y-12492214D01*
X14195357Y-12492214D01*
X14366786Y-12320786D02*
X14338214Y-12306500D01*
X14323928Y-12292214D01*
X14309643Y-12263643D01*
X14309643Y-12249357D01*
X14323928Y-12220786D01*
X14338214Y-12206500D01*
X14366786Y-12192214D01*
X14423928Y-12192214D01*
X14452500Y-12206500D01*
X14466786Y-12220786D01*
X14481071Y-12249357D01*
X14481071Y-12263643D01*
X14466786Y-12292214D01*
X14452500Y-12306500D01*
X14423928Y-12320786D01*
X14366786Y-12320786D01*
X14338214Y-12335071D01*
X14323928Y-12349357D01*
X14309643Y-12377929D01*
X14309643Y-12435071D01*
X14323928Y-12463643D01*
X14338214Y-12477929D01*
X14366786Y-12492214D01*
X14423928Y-12492214D01*
X14452500Y-12477929D01*
X14466786Y-12463643D01*
X14481071Y-12435071D01*
X14481071Y-12377929D01*
X14466786Y-12349357D01*
X14452500Y-12335071D01*
X14423928Y-12320786D01*
X14838214Y-12492214D02*
X14838214Y-12192214D01*
X14966786Y-12492214D02*
X14966786Y-12335071D01*
X14952500Y-12306500D01*
X14923928Y-12292214D01*
X14881071Y-12292214D01*
X14852500Y-12306500D01*
X14838214Y-12320786D01*
X15152500Y-12492214D02*
X15123928Y-12477929D01*
X15109643Y-12463643D01*
X15095357Y-12435071D01*
X15095357Y-12349357D01*
X15109643Y-12320786D01*
X15123928Y-12306500D01*
X15152500Y-12292214D01*
X15195357Y-12292214D01*
X15223928Y-12306500D01*
X15238214Y-12320786D01*
X15252500Y-12349357D01*
X15252500Y-12435071D01*
X15238214Y-12463643D01*
X15223928Y-12477929D01*
X15195357Y-12492214D01*
X15152500Y-12492214D01*
X15423928Y-12492214D02*
X15395357Y-12477929D01*
X15381071Y-12449357D01*
X15381071Y-12192214D01*
X15652500Y-12477929D02*
X15623928Y-12492214D01*
X15566786Y-12492214D01*
X15538214Y-12477929D01*
X15523928Y-12449357D01*
X15523928Y-12335071D01*
X15538214Y-12306500D01*
X15566786Y-12292214D01*
X15623928Y-12292214D01*
X15652500Y-12306500D01*
X15666786Y-12335071D01*
X15666786Y-12363643D01*
X15523928Y-12392214D01*
X15781071Y-12477929D02*
X15809643Y-12492214D01*
X15866786Y-12492214D01*
X15895357Y-12477929D01*
X15909643Y-12449357D01*
X15909643Y-12435071D01*
X15895357Y-12406500D01*
X15866786Y-12392214D01*
X15823928Y-12392214D01*
X15795357Y-12377929D01*
X15781071Y-12349357D01*
X15781071Y-12335071D01*
X15795357Y-12306500D01*
X15823928Y-12292214D01*
X15866786Y-12292214D01*
X15895357Y-12306500D01*
X16009643Y-12606500D02*
X16023928Y-12592214D01*
X16052500Y-12549357D01*
X16066786Y-12520786D01*
X16081071Y-12477929D01*
X16095357Y-12406500D01*
X16095357Y-12349357D01*
X16081071Y-12277929D01*
X16066786Y-12235071D01*
X16052500Y-12206500D01*
X16023928Y-12163643D01*
X16009643Y-12149357D01*
X9137500Y-12702500D02*
X9237500Y-12802500D01*
X9237500Y-12702500D02*
X9137500Y-12802500D01*
X9237500Y-12752500D02*
G75*
G03X9237500Y-12752500I-50000J0D01*
G01*
X9681071Y-12888214D02*
X9509643Y-12888214D01*
X9595357Y-12888214D02*
X9595357Y-12588214D01*
X9566786Y-12631071D01*
X9538214Y-12659643D01*
X9509643Y-12673929D01*
X9809643Y-12859643D02*
X9823928Y-12873929D01*
X9809643Y-12888214D01*
X9795357Y-12873929D01*
X9809643Y-12859643D01*
X9809643Y-12888214D01*
X10009643Y-12588214D02*
X10038214Y-12588214D01*
X10066786Y-12602500D01*
X10081071Y-12616786D01*
X10095357Y-12645357D01*
X10109643Y-12702500D01*
X10109643Y-12773929D01*
X10095357Y-12831071D01*
X10081071Y-12859643D01*
X10066786Y-12873929D01*
X10038214Y-12888214D01*
X10009643Y-12888214D01*
X9981071Y-12873929D01*
X9966786Y-12859643D01*
X9952500Y-12831071D01*
X9938214Y-12773929D01*
X9938214Y-12702500D01*
X9952500Y-12645357D01*
X9966786Y-12616786D01*
X9981071Y-12602500D01*
X10009643Y-12588214D01*
X10295357Y-12588214D02*
X10323928Y-12588214D01*
X10352500Y-12602500D01*
X10366786Y-12616786D01*
X10381071Y-12645357D01*
X10395357Y-12702500D01*
X10395357Y-12773929D01*
X10381071Y-12831071D01*
X10366786Y-12859643D01*
X10352500Y-12873929D01*
X10323928Y-12888214D01*
X10295357Y-12888214D01*
X10266786Y-12873929D01*
X10252500Y-12859643D01*
X10238214Y-12831071D01*
X10223928Y-12773929D01*
X10223928Y-12702500D01*
X10238214Y-12645357D01*
X10252500Y-12616786D01*
X10266786Y-12602500D01*
X10295357Y-12588214D01*
X10523928Y-12888214D02*
X10523928Y-12688214D01*
X10523928Y-12716786D02*
X10538214Y-12702500D01*
X10566786Y-12688214D01*
X10609643Y-12688214D01*
X10638214Y-12702500D01*
X10652500Y-12731071D01*
X10652500Y-12888214D01*
X10652500Y-12731071D02*
X10666786Y-12702500D01*
X10695357Y-12688214D01*
X10738214Y-12688214D01*
X10766786Y-12702500D01*
X10781071Y-12731071D01*
X10781071Y-12888214D01*
X10923928Y-12888214D02*
X10923928Y-12688214D01*
X10923928Y-12716786D02*
X10938214Y-12702500D01*
X10966786Y-12688214D01*
X11009643Y-12688214D01*
X11038214Y-12702500D01*
X11052500Y-12731071D01*
X11052500Y-12888214D01*
X11052500Y-12731071D02*
X11066786Y-12702500D01*
X11095357Y-12688214D01*
X11138214Y-12688214D01*
X11166786Y-12702500D01*
X11181071Y-12731071D01*
X11181071Y-12888214D01*
X11766786Y-12573929D02*
X11509643Y-12959643D01*
X12152500Y-12588214D02*
X12181071Y-12588214D01*
X12209643Y-12602500D01*
X12223928Y-12616786D01*
X12238214Y-12645357D01*
X12252500Y-12702500D01*
X12252500Y-12773929D01*
X12238214Y-12831071D01*
X12223928Y-12859643D01*
X12209643Y-12873929D01*
X12181071Y-12888214D01*
X12152500Y-12888214D01*
X12123928Y-12873929D01*
X12109643Y-12859643D01*
X12095357Y-12831071D01*
X12081071Y-12773929D01*
X12081071Y-12702500D01*
X12095357Y-12645357D01*
X12109643Y-12616786D01*
X12123928Y-12602500D01*
X12152500Y-12588214D01*
X12381071Y-12859643D02*
X12395357Y-12873929D01*
X12381071Y-12888214D01*
X12366786Y-12873929D01*
X12381071Y-12859643D01*
X12381071Y-12888214D01*
X12581071Y-12588214D02*
X12609643Y-12588214D01*
X12638214Y-12602500D01*
X12652500Y-12616786D01*
X12666786Y-12645357D01*
X12681071Y-12702500D01*
X12681071Y-12773929D01*
X12666786Y-12831071D01*
X12652500Y-12859643D01*
X12638214Y-12873929D01*
X12609643Y-12888214D01*
X12581071Y-12888214D01*
X12552500Y-12873929D01*
X12538214Y-12859643D01*
X12523928Y-12831071D01*
X12509643Y-12773929D01*
X12509643Y-12702500D01*
X12523928Y-12645357D01*
X12538214Y-12616786D01*
X12552500Y-12602500D01*
X12581071Y-12588214D01*
X12781071Y-12588214D02*
X12966786Y-12588214D01*
X12866786Y-12702500D01*
X12909643Y-12702500D01*
X12938214Y-12716786D01*
X12952500Y-12731071D01*
X12966786Y-12759643D01*
X12966786Y-12831071D01*
X12952500Y-12859643D01*
X12938214Y-12873929D01*
X12909643Y-12888214D01*
X12823928Y-12888214D01*
X12795357Y-12873929D01*
X12781071Y-12859643D01*
X13109643Y-12888214D02*
X13166786Y-12888214D01*
X13195357Y-12873929D01*
X13209643Y-12859643D01*
X13238214Y-12816786D01*
X13252500Y-12759643D01*
X13252500Y-12645357D01*
X13238214Y-12616786D01*
X13223928Y-12602500D01*
X13195357Y-12588214D01*
X13138214Y-12588214D01*
X13109643Y-12602500D01*
X13095357Y-12616786D01*
X13081071Y-12645357D01*
X13081071Y-12716786D01*
X13095357Y-12745357D01*
X13109643Y-12759643D01*
X13138214Y-12773929D01*
X13195357Y-12773929D01*
X13223928Y-12759643D01*
X13238214Y-12745357D01*
X13252500Y-12716786D01*
X13366786Y-12588214D02*
X13366786Y-12645357D01*
X13481071Y-12588214D02*
X13481071Y-12645357D01*
X13923928Y-13002500D02*
X13909643Y-12988214D01*
X13881071Y-12945357D01*
X13866786Y-12916786D01*
X13852500Y-12873929D01*
X13838214Y-12802500D01*
X13838214Y-12745357D01*
X13852500Y-12673929D01*
X13866786Y-12631071D01*
X13881071Y-12602500D01*
X13909643Y-12559643D01*
X13923928Y-12545357D01*
X14195357Y-12888214D02*
X14023928Y-12888214D01*
X14109643Y-12888214D02*
X14109643Y-12588214D01*
X14081071Y-12631071D01*
X14052500Y-12659643D01*
X14023928Y-12673929D01*
X14295357Y-12588214D02*
X14481071Y-12588214D01*
X14381071Y-12702500D01*
X14423928Y-12702500D01*
X14452500Y-12716786D01*
X14466786Y-12731071D01*
X14481071Y-12759643D01*
X14481071Y-12831071D01*
X14466786Y-12859643D01*
X14452500Y-12873929D01*
X14423928Y-12888214D01*
X14338214Y-12888214D01*
X14309643Y-12873929D01*
X14295357Y-12859643D01*
X14838214Y-12888214D02*
X14838214Y-12588214D01*
X14966786Y-12888214D02*
X14966786Y-12731071D01*
X14952500Y-12702500D01*
X14923928Y-12688214D01*
X14881071Y-12688214D01*
X14852500Y-12702500D01*
X14838214Y-12716786D01*
X15152500Y-12888214D02*
X15123928Y-12873929D01*
X15109643Y-12859643D01*
X15095357Y-12831071D01*
X15095357Y-12745357D01*
X15109643Y-12716786D01*
X15123928Y-12702500D01*
X15152500Y-12688214D01*
X15195357Y-12688214D01*
X15223928Y-12702500D01*
X15238214Y-12716786D01*
X15252500Y-12745357D01*
X15252500Y-12831071D01*
X15238214Y-12859643D01*
X15223928Y-12873929D01*
X15195357Y-12888214D01*
X15152500Y-12888214D01*
X15423928Y-12888214D02*
X15395357Y-12873929D01*
X15381071Y-12845357D01*
X15381071Y-12588214D01*
X15652500Y-12873929D02*
X15623928Y-12888214D01*
X15566786Y-12888214D01*
X15538214Y-12873929D01*
X15523928Y-12845357D01*
X15523928Y-12731071D01*
X15538214Y-12702500D01*
X15566786Y-12688214D01*
X15623928Y-12688214D01*
X15652500Y-12702500D01*
X15666786Y-12731071D01*
X15666786Y-12759643D01*
X15523928Y-12788214D01*
X15781071Y-12873929D02*
X15809643Y-12888214D01*
X15866786Y-12888214D01*
X15895357Y-12873929D01*
X15909643Y-12845357D01*
X15909643Y-12831071D01*
X15895357Y-12802500D01*
X15866786Y-12788214D01*
X15823928Y-12788214D01*
X15795357Y-12773929D01*
X15781071Y-12745357D01*
X15781071Y-12731071D01*
X15795357Y-12702500D01*
X15823928Y-12688214D01*
X15866786Y-12688214D01*
X15895357Y-12702500D01*
X16009643Y-13002500D02*
X16023928Y-12988214D01*
X16052500Y-12945357D01*
X16066786Y-12916786D01*
X16081071Y-12873929D01*
X16095357Y-12802500D01*
X16095357Y-12745357D01*
X16081071Y-12673929D01*
X16066786Y-12631071D01*
X16052500Y-12602500D01*
X16023928Y-12559643D01*
X16009643Y-12545357D01*
X8917500Y-12988500D02*
X9237500Y-13308500D01*
X9237500Y-12988500D02*
X8917500Y-13308500D01*
X9077500Y-12988500D02*
X9077500Y-13308500D01*
X8917500Y-13148500D02*
X9237500Y-13148500D01*
X9495357Y-12984214D02*
X9681071Y-12984214D01*
X9581071Y-13098500D01*
X9623928Y-13098500D01*
X9652500Y-13112786D01*
X9666786Y-13127071D01*
X9681071Y-13155643D01*
X9681071Y-13227071D01*
X9666786Y-13255643D01*
X9652500Y-13269929D01*
X9623928Y-13284214D01*
X9538214Y-13284214D01*
X9509643Y-13269929D01*
X9495357Y-13255643D01*
X9809643Y-13255643D02*
X9823928Y-13269929D01*
X9809643Y-13284214D01*
X9795357Y-13269929D01*
X9809643Y-13255643D01*
X9809643Y-13284214D01*
X9938214Y-13012786D02*
X9952500Y-12998500D01*
X9981071Y-12984214D01*
X10052500Y-12984214D01*
X10081071Y-12998500D01*
X10095357Y-13012786D01*
X10109643Y-13041357D01*
X10109643Y-13069929D01*
X10095357Y-13112786D01*
X9923928Y-13284214D01*
X10109643Y-13284214D01*
X10295357Y-12984214D02*
X10323928Y-12984214D01*
X10352500Y-12998500D01*
X10366786Y-13012786D01*
X10381071Y-13041357D01*
X10395357Y-13098500D01*
X10395357Y-13169929D01*
X10381071Y-13227071D01*
X10366786Y-13255643D01*
X10352500Y-13269929D01*
X10323928Y-13284214D01*
X10295357Y-13284214D01*
X10266786Y-13269929D01*
X10252500Y-13255643D01*
X10238214Y-13227071D01*
X10223928Y-13169929D01*
X10223928Y-13098500D01*
X10238214Y-13041357D01*
X10252500Y-13012786D01*
X10266786Y-12998500D01*
X10295357Y-12984214D01*
X10523928Y-13284214D02*
X10523928Y-13084214D01*
X10523928Y-13112786D02*
X10538214Y-13098500D01*
X10566786Y-13084214D01*
X10609643Y-13084214D01*
X10638214Y-13098500D01*
X10652500Y-13127071D01*
X10652500Y-13284214D01*
X10652500Y-13127071D02*
X10666786Y-13098500D01*
X10695357Y-13084214D01*
X10738214Y-13084214D01*
X10766786Y-13098500D01*
X10781071Y-13127071D01*
X10781071Y-13284214D01*
X10923928Y-13284214D02*
X10923928Y-13084214D01*
X10923928Y-13112786D02*
X10938214Y-13098500D01*
X10966786Y-13084214D01*
X11009643Y-13084214D01*
X11038214Y-13098500D01*
X11052500Y-13127071D01*
X11052500Y-13284214D01*
X11052500Y-13127071D02*
X11066786Y-13098500D01*
X11095357Y-13084214D01*
X11138214Y-13084214D01*
X11166786Y-13098500D01*
X11181071Y-13127071D01*
X11181071Y-13284214D01*
X11766786Y-12969929D02*
X11509643Y-13355643D01*
X12152500Y-12984214D02*
X12181071Y-12984214D01*
X12209643Y-12998500D01*
X12223928Y-13012786D01*
X12238214Y-13041357D01*
X12252500Y-13098500D01*
X12252500Y-13169929D01*
X12238214Y-13227071D01*
X12223928Y-13255643D01*
X12209643Y-13269929D01*
X12181071Y-13284214D01*
X12152500Y-13284214D01*
X12123928Y-13269929D01*
X12109643Y-13255643D01*
X12095357Y-13227071D01*
X12081071Y-13169929D01*
X12081071Y-13098500D01*
X12095357Y-13041357D01*
X12109643Y-13012786D01*
X12123928Y-12998500D01*
X12152500Y-12984214D01*
X12381071Y-13255643D02*
X12395357Y-13269929D01*
X12381071Y-13284214D01*
X12366786Y-13269929D01*
X12381071Y-13255643D01*
X12381071Y-13284214D01*
X12681071Y-13284214D02*
X12509643Y-13284214D01*
X12595357Y-13284214D02*
X12595357Y-12984214D01*
X12566786Y-13027071D01*
X12538214Y-13055643D01*
X12509643Y-13069929D01*
X12795357Y-13012786D02*
X12809643Y-12998500D01*
X12838214Y-12984214D01*
X12909643Y-12984214D01*
X12938214Y-12998500D01*
X12952500Y-13012786D01*
X12966786Y-13041357D01*
X12966786Y-13069929D01*
X12952500Y-13112786D01*
X12781071Y-13284214D01*
X12966786Y-13284214D01*
X13223928Y-12984214D02*
X13166786Y-12984214D01*
X13138214Y-12998500D01*
X13123928Y-13012786D01*
X13095357Y-13055643D01*
X13081071Y-13112786D01*
X13081071Y-13227071D01*
X13095357Y-13255643D01*
X13109643Y-13269929D01*
X13138214Y-13284214D01*
X13195357Y-13284214D01*
X13223928Y-13269929D01*
X13238214Y-13255643D01*
X13252500Y-13227071D01*
X13252500Y-13155643D01*
X13238214Y-13127071D01*
X13223928Y-13112786D01*
X13195357Y-13098500D01*
X13138214Y-13098500D01*
X13109643Y-13112786D01*
X13095357Y-13127071D01*
X13081071Y-13155643D01*
X13366786Y-12984214D02*
X13366786Y-13041357D01*
X13481071Y-12984214D02*
X13481071Y-13041357D01*
X13923928Y-13398500D02*
X13909643Y-13384214D01*
X13881071Y-13341357D01*
X13866786Y-13312786D01*
X13852500Y-13269929D01*
X13838214Y-13198500D01*
X13838214Y-13141357D01*
X13852500Y-13069929D01*
X13866786Y-13027071D01*
X13881071Y-12998500D01*
X13909643Y-12955643D01*
X13923928Y-12941357D01*
X14023928Y-13012786D02*
X14038214Y-12998500D01*
X14066786Y-12984214D01*
X14138214Y-12984214D01*
X14166786Y-12998500D01*
X14181071Y-13012786D01*
X14195357Y-13041357D01*
X14195357Y-13069929D01*
X14181071Y-13112786D01*
X14009643Y-13284214D01*
X14195357Y-13284214D01*
X14552500Y-13284214D02*
X14552500Y-12984214D01*
X14681071Y-13284214D02*
X14681071Y-13127071D01*
X14666786Y-13098500D01*
X14638214Y-13084214D01*
X14595357Y-13084214D01*
X14566786Y-13098500D01*
X14552500Y-13112786D01*
X14866786Y-13284214D02*
X14838214Y-13269929D01*
X14823928Y-13255643D01*
X14809643Y-13227071D01*
X14809643Y-13141357D01*
X14823928Y-13112786D01*
X14838214Y-13098500D01*
X14866786Y-13084214D01*
X14909643Y-13084214D01*
X14938214Y-13098500D01*
X14952500Y-13112786D01*
X14966786Y-13141357D01*
X14966786Y-13227071D01*
X14952500Y-13255643D01*
X14938214Y-13269929D01*
X14909643Y-13284214D01*
X14866786Y-13284214D01*
X15138214Y-13284214D02*
X15109643Y-13269929D01*
X15095357Y-13241357D01*
X15095357Y-12984214D01*
X15366786Y-13269929D02*
X15338214Y-13284214D01*
X15281071Y-13284214D01*
X15252500Y-13269929D01*
X15238214Y-13241357D01*
X15238214Y-13127071D01*
X15252500Y-13098500D01*
X15281071Y-13084214D01*
X15338214Y-13084214D01*
X15366786Y-13098500D01*
X15381071Y-13127071D01*
X15381071Y-13155643D01*
X15238214Y-13184214D01*
X15495357Y-13269929D02*
X15523928Y-13284214D01*
X15581071Y-13284214D01*
X15609643Y-13269929D01*
X15623928Y-13241357D01*
X15623928Y-13227071D01*
X15609643Y-13198500D01*
X15581071Y-13184214D01*
X15538214Y-13184214D01*
X15509643Y-13169929D01*
X15495357Y-13141357D01*
X15495357Y-13127071D01*
X15509643Y-13098500D01*
X15538214Y-13084214D01*
X15581071Y-13084214D01*
X15609643Y-13098500D01*
X15723928Y-13398500D02*
X15738214Y-13384214D01*
X15766786Y-13341357D01*
X15781071Y-13312786D01*
X15795357Y-13269929D01*
X15809643Y-13198500D01*
X15809643Y-13141357D01*
X15795357Y-13069929D01*
X15781071Y-13027071D01*
X15766786Y-12998500D01*
X15738214Y-12955643D01*
X15723928Y-12941357D01*
X8817500Y-13388500D02*
X9237500Y-13808500D01*
X9237500Y-13388500D02*
X8817500Y-13808500D01*
X9175994Y-13746994D02*
X9175994Y-13450006D01*
X8879006Y-13450006D01*
X8879006Y-13746994D01*
X9175994Y-13746994D01*
X9652500Y-13534214D02*
X9652500Y-13734214D01*
X9581071Y-13419929D02*
X9509643Y-13634214D01*
X9695357Y-13634214D01*
X9809643Y-13705643D02*
X9823928Y-13719929D01*
X9809643Y-13734214D01*
X9795357Y-13719929D01*
X9809643Y-13705643D01*
X9809643Y-13734214D01*
X9938214Y-13462786D02*
X9952500Y-13448500D01*
X9981071Y-13434214D01*
X10052500Y-13434214D01*
X10081071Y-13448500D01*
X10095357Y-13462786D01*
X10109643Y-13491357D01*
X10109643Y-13519929D01*
X10095357Y-13562786D01*
X9923928Y-13734214D01*
X10109643Y-13734214D01*
X10295357Y-13434214D02*
X10323928Y-13434214D01*
X10352500Y-13448500D01*
X10366786Y-13462786D01*
X10381071Y-13491357D01*
X10395357Y-13548500D01*
X10395357Y-13619929D01*
X10381071Y-13677071D01*
X10366786Y-13705643D01*
X10352500Y-13719929D01*
X10323928Y-13734214D01*
X10295357Y-13734214D01*
X10266786Y-13719929D01*
X10252500Y-13705643D01*
X10238214Y-13677071D01*
X10223928Y-13619929D01*
X10223928Y-13548500D01*
X10238214Y-13491357D01*
X10252500Y-13462786D01*
X10266786Y-13448500D01*
X10295357Y-13434214D01*
X10523928Y-13734214D02*
X10523928Y-13534214D01*
X10523928Y-13562786D02*
X10538214Y-13548500D01*
X10566786Y-13534214D01*
X10609643Y-13534214D01*
X10638214Y-13548500D01*
X10652500Y-13577071D01*
X10652500Y-13734214D01*
X10652500Y-13577071D02*
X10666786Y-13548500D01*
X10695357Y-13534214D01*
X10738214Y-13534214D01*
X10766786Y-13548500D01*
X10781071Y-13577071D01*
X10781071Y-13734214D01*
X10923928Y-13734214D02*
X10923928Y-13534214D01*
X10923928Y-13562786D02*
X10938214Y-13548500D01*
X10966786Y-13534214D01*
X11009643Y-13534214D01*
X11038214Y-13548500D01*
X11052500Y-13577071D01*
X11052500Y-13734214D01*
X11052500Y-13577071D02*
X11066786Y-13548500D01*
X11095357Y-13534214D01*
X11138214Y-13534214D01*
X11166786Y-13548500D01*
X11181071Y-13577071D01*
X11181071Y-13734214D01*
X11766786Y-13419929D02*
X11509643Y-13805643D01*
X12152500Y-13434214D02*
X12181071Y-13434214D01*
X12209643Y-13448500D01*
X12223928Y-13462786D01*
X12238214Y-13491357D01*
X12252500Y-13548500D01*
X12252500Y-13619929D01*
X12238214Y-13677071D01*
X12223928Y-13705643D01*
X12209643Y-13719929D01*
X12181071Y-13734214D01*
X12152500Y-13734214D01*
X12123928Y-13719929D01*
X12109643Y-13705643D01*
X12095357Y-13677071D01*
X12081071Y-13619929D01*
X12081071Y-13548500D01*
X12095357Y-13491357D01*
X12109643Y-13462786D01*
X12123928Y-13448500D01*
X12152500Y-13434214D01*
X12381071Y-13705643D02*
X12395357Y-13719929D01*
X12381071Y-13734214D01*
X12366786Y-13719929D01*
X12381071Y-13705643D01*
X12381071Y-13734214D01*
X12681071Y-13734214D02*
X12509643Y-13734214D01*
X12595357Y-13734214D02*
X12595357Y-13434214D01*
X12566786Y-13477071D01*
X12538214Y-13505643D01*
X12509643Y-13519929D01*
X12938214Y-13434214D02*
X12881071Y-13434214D01*
X12852500Y-13448500D01*
X12838214Y-13462786D01*
X12809643Y-13505643D01*
X12795357Y-13562786D01*
X12795357Y-13677071D01*
X12809643Y-13705643D01*
X12823928Y-13719929D01*
X12852500Y-13734214D01*
X12909643Y-13734214D01*
X12938214Y-13719929D01*
X12952500Y-13705643D01*
X12966786Y-13677071D01*
X12966786Y-13605643D01*
X12952500Y-13577071D01*
X12938214Y-13562786D01*
X12909643Y-13548500D01*
X12852500Y-13548500D01*
X12823928Y-13562786D01*
X12809643Y-13577071D01*
X12795357Y-13605643D01*
X13238214Y-13434214D02*
X13095357Y-13434214D01*
X13081071Y-13577071D01*
X13095357Y-13562786D01*
X13123928Y-13548500D01*
X13195357Y-13548500D01*
X13223928Y-13562786D01*
X13238214Y-13577071D01*
X13252500Y-13605643D01*
X13252500Y-13677071D01*
X13238214Y-13705643D01*
X13223928Y-13719929D01*
X13195357Y-13734214D01*
X13123928Y-13734214D01*
X13095357Y-13719929D01*
X13081071Y-13705643D01*
X13366786Y-13434214D02*
X13366786Y-13491357D01*
X13481071Y-13434214D02*
X13481071Y-13491357D01*
X13923928Y-13848500D02*
X13909643Y-13834214D01*
X13881071Y-13791357D01*
X13866786Y-13762786D01*
X13852500Y-13719929D01*
X13838214Y-13648500D01*
X13838214Y-13591357D01*
X13852500Y-13519929D01*
X13866786Y-13477071D01*
X13881071Y-13448500D01*
X13909643Y-13405643D01*
X13923928Y-13391357D01*
X14166786Y-13534214D02*
X14166786Y-13734214D01*
X14095357Y-13419929D02*
X14023928Y-13634214D01*
X14209643Y-13634214D01*
X14552500Y-13734214D02*
X14552500Y-13434214D01*
X14681071Y-13734214D02*
X14681071Y-13577071D01*
X14666786Y-13548500D01*
X14638214Y-13534214D01*
X14595357Y-13534214D01*
X14566786Y-13548500D01*
X14552500Y-13562786D01*
X14866786Y-13734214D02*
X14838214Y-13719929D01*
X14823928Y-13705643D01*
X14809643Y-13677071D01*
X14809643Y-13591357D01*
X14823928Y-13562786D01*
X14838214Y-13548500D01*
X14866786Y-13534214D01*
X14909643Y-13534214D01*
X14938214Y-13548500D01*
X14952500Y-13562786D01*
X14966786Y-13591357D01*
X14966786Y-13677071D01*
X14952500Y-13705643D01*
X14938214Y-13719929D01*
X14909643Y-13734214D01*
X14866786Y-13734214D01*
X15138214Y-13734214D02*
X15109643Y-13719929D01*
X15095357Y-13691357D01*
X15095357Y-13434214D01*
X15366786Y-13719929D02*
X15338214Y-13734214D01*
X15281071Y-13734214D01*
X15252500Y-13719929D01*
X15238214Y-13691357D01*
X15238214Y-13577071D01*
X15252500Y-13548500D01*
X15281071Y-13534214D01*
X15338214Y-13534214D01*
X15366786Y-13548500D01*
X15381071Y-13577071D01*
X15381071Y-13605643D01*
X15238214Y-13634214D01*
X15495357Y-13719929D02*
X15523928Y-13734214D01*
X15581071Y-13734214D01*
X15609643Y-13719929D01*
X15623928Y-13691357D01*
X15623928Y-13677071D01*
X15609643Y-13648500D01*
X15581071Y-13634214D01*
X15538214Y-13634214D01*
X15509643Y-13619929D01*
X15495357Y-13591357D01*
X15495357Y-13577071D01*
X15509643Y-13548500D01*
X15538214Y-13534214D01*
X15581071Y-13534214D01*
X15609643Y-13548500D01*
X15723928Y-13848500D02*
X15738214Y-13834214D01*
X15766786Y-13791357D01*
X15781071Y-13762786D01*
X15795357Y-13719929D01*
X15809643Y-13648500D01*
X15809643Y-13591357D01*
X15795357Y-13519929D01*
X15781071Y-13477071D01*
X15766786Y-13448500D01*
X15738214Y-13405643D01*
X15723928Y-13391357D01*
M02*
