G04 #@! TF.GenerationSoftware,KiCad,Pcbnew,(5.0.2)-1*
G04 #@! TF.CreationDate,2019-03-12T15:58:17+02:00*
G04 #@! TF.ProjectId,ev19dashboardv1,65763139-6461-4736-9862-6f6172647631,rev?*
G04 #@! TF.SameCoordinates,Original*
G04 #@! TF.FileFunction,Soldermask,Top*
G04 #@! TF.FilePolarity,Negative*
%FSLAX46Y46*%
G04 Gerber Fmt 4.6, Leading zero omitted, Abs format (unit mm)*
G04 Created by KiCad (PCBNEW (5.0.2)-1) date 3/12/2019 3:58:17 PM*
%MOMM*%
%LPD*%
G01*
G04 APERTURE LIST*
%ADD10C,0.100000*%
G04 APERTURE END LIST*
D10*
G36*
X99826496Y-91197443D02*
X100192292Y-91348961D01*
X100521501Y-91568931D01*
X100801469Y-91848899D01*
X101021439Y-92178108D01*
X101172957Y-92543904D01*
X101250200Y-92932232D01*
X101250200Y-93328168D01*
X101172957Y-93716496D01*
X101021439Y-94082292D01*
X100801469Y-94411501D01*
X100521501Y-94691469D01*
X100192292Y-94911439D01*
X99826496Y-95062957D01*
X99438168Y-95140200D01*
X99042232Y-95140200D01*
X98653904Y-95062957D01*
X98288108Y-94911439D01*
X97958899Y-94691469D01*
X97678931Y-94411501D01*
X97458961Y-94082292D01*
X97307443Y-93716496D01*
X97230200Y-93328168D01*
X97230200Y-92932232D01*
X97307443Y-92543904D01*
X97458961Y-92178108D01*
X97678931Y-91848899D01*
X97958899Y-91568931D01*
X98288108Y-91348961D01*
X98653904Y-91197443D01*
X99042232Y-91120200D01*
X99438168Y-91120200D01*
X99826496Y-91197443D01*
X99826496Y-91197443D01*
G37*
G36*
X183781000Y-94711000D02*
X182261000Y-94711000D01*
X182261000Y-92691000D01*
X183781000Y-92691000D01*
X183781000Y-94711000D01*
X183781000Y-94711000D01*
G37*
G36*
X179181000Y-94711000D02*
X177661000Y-94711000D01*
X177661000Y-92691000D01*
X179181000Y-92691000D01*
X179181000Y-94711000D01*
X179181000Y-94711000D01*
G37*
G36*
X181481000Y-94711000D02*
X179961000Y-94711000D01*
X179961000Y-92691000D01*
X181481000Y-92691000D01*
X181481000Y-94711000D01*
X181481000Y-94711000D01*
G37*
G36*
X137288787Y-91461720D02*
X137441472Y-91508037D01*
X137582188Y-91583251D01*
X137705528Y-91684472D01*
X137806749Y-91807811D01*
X137881963Y-91948527D01*
X137928280Y-92101212D01*
X137940000Y-92220209D01*
X137940000Y-93699791D01*
X137928280Y-93818788D01*
X137881963Y-93971473D01*
X137806749Y-94112189D01*
X137705528Y-94235528D01*
X137582189Y-94336749D01*
X137441473Y-94411963D01*
X137288788Y-94458280D01*
X137130000Y-94473919D01*
X136971213Y-94458280D01*
X136818528Y-94411963D01*
X136677812Y-94336749D01*
X136554473Y-94235528D01*
X136453252Y-94112189D01*
X136378038Y-93971473D01*
X136331721Y-93818788D01*
X136320001Y-93699791D01*
X136320000Y-92220210D01*
X136331720Y-92101213D01*
X136378037Y-91948528D01*
X136453251Y-91807812D01*
X136554472Y-91684472D01*
X136677811Y-91583251D01*
X136818527Y-91508037D01*
X136971212Y-91461720D01*
X137130000Y-91446081D01*
X137288787Y-91461720D01*
X137288787Y-91461720D01*
G37*
G36*
X127148787Y-91461720D02*
X127301472Y-91508037D01*
X127442188Y-91583251D01*
X127565528Y-91684472D01*
X127666749Y-91807811D01*
X127741963Y-91948527D01*
X127788280Y-92101212D01*
X127800000Y-92220209D01*
X127800000Y-93699791D01*
X127788280Y-93818788D01*
X127741963Y-93971473D01*
X127666749Y-94112189D01*
X127565528Y-94235528D01*
X127442189Y-94336749D01*
X127301473Y-94411963D01*
X127148788Y-94458280D01*
X126990000Y-94473919D01*
X126831213Y-94458280D01*
X126678528Y-94411963D01*
X126537812Y-94336749D01*
X126414473Y-94235528D01*
X126313252Y-94112189D01*
X126238038Y-93971473D01*
X126191721Y-93818788D01*
X126180001Y-93699791D01*
X126180000Y-92220210D01*
X126191720Y-92101213D01*
X126238037Y-91948528D01*
X126313251Y-91807812D01*
X126414472Y-91684472D01*
X126537811Y-91583251D01*
X126678527Y-91508037D01*
X126831212Y-91461720D01*
X126990000Y-91446081D01*
X127148787Y-91461720D01*
X127148787Y-91461720D01*
G37*
G36*
X129688787Y-91461720D02*
X129841472Y-91508037D01*
X129982188Y-91583251D01*
X130105528Y-91684472D01*
X130206749Y-91807811D01*
X130281963Y-91948527D01*
X130328280Y-92101212D01*
X130340000Y-92220209D01*
X130340000Y-93699791D01*
X130328280Y-93818788D01*
X130281963Y-93971473D01*
X130206749Y-94112189D01*
X130105528Y-94235528D01*
X129982189Y-94336749D01*
X129841473Y-94411963D01*
X129688788Y-94458280D01*
X129530000Y-94473919D01*
X129371213Y-94458280D01*
X129218528Y-94411963D01*
X129077812Y-94336749D01*
X128954473Y-94235528D01*
X128853252Y-94112189D01*
X128778038Y-93971473D01*
X128731721Y-93818788D01*
X128720001Y-93699791D01*
X128720000Y-92220210D01*
X128731720Y-92101213D01*
X128778037Y-91948528D01*
X128853251Y-91807812D01*
X128954472Y-91684472D01*
X129077811Y-91583251D01*
X129218527Y-91508037D01*
X129371212Y-91461720D01*
X129530000Y-91446081D01*
X129688787Y-91461720D01*
X129688787Y-91461720D01*
G37*
G36*
X132228787Y-91461720D02*
X132381472Y-91508037D01*
X132522188Y-91583251D01*
X132645528Y-91684472D01*
X132746749Y-91807811D01*
X132821963Y-91948527D01*
X132868280Y-92101212D01*
X132880000Y-92220209D01*
X132880000Y-93699791D01*
X132868280Y-93818788D01*
X132821963Y-93971473D01*
X132746749Y-94112189D01*
X132645528Y-94235528D01*
X132522189Y-94336749D01*
X132381473Y-94411963D01*
X132228788Y-94458280D01*
X132070000Y-94473919D01*
X131911213Y-94458280D01*
X131758528Y-94411963D01*
X131617812Y-94336749D01*
X131494473Y-94235528D01*
X131393252Y-94112189D01*
X131318038Y-93971473D01*
X131271721Y-93818788D01*
X131260001Y-93699791D01*
X131260000Y-92220210D01*
X131271720Y-92101213D01*
X131318037Y-91948528D01*
X131393251Y-91807812D01*
X131494472Y-91684472D01*
X131617811Y-91583251D01*
X131758527Y-91508037D01*
X131911212Y-91461720D01*
X132070000Y-91446081D01*
X132228787Y-91461720D01*
X132228787Y-91461720D01*
G37*
G36*
X134768787Y-91461720D02*
X134921472Y-91508037D01*
X135062188Y-91583251D01*
X135185528Y-91684472D01*
X135286749Y-91807811D01*
X135361963Y-91948527D01*
X135408280Y-92101212D01*
X135420000Y-92220209D01*
X135420000Y-93699791D01*
X135408280Y-93818788D01*
X135361963Y-93971473D01*
X135286749Y-94112189D01*
X135185528Y-94235528D01*
X135062189Y-94336749D01*
X134921473Y-94411963D01*
X134768788Y-94458280D01*
X134610000Y-94473919D01*
X134451213Y-94458280D01*
X134298528Y-94411963D01*
X134157812Y-94336749D01*
X134034473Y-94235528D01*
X133933252Y-94112189D01*
X133858038Y-93971473D01*
X133811721Y-93818788D01*
X133800001Y-93699791D01*
X133800000Y-92220210D01*
X133811720Y-92101213D01*
X133858037Y-91948528D01*
X133933251Y-91807812D01*
X134034472Y-91684472D01*
X134157811Y-91583251D01*
X134298527Y-91508037D01*
X134451212Y-91461720D01*
X134610000Y-91446081D01*
X134768787Y-91461720D01*
X134768787Y-91461720D01*
G37*
G36*
X139848787Y-91461720D02*
X140001472Y-91508037D01*
X140142188Y-91583251D01*
X140265528Y-91684472D01*
X140366749Y-91807811D01*
X140441963Y-91948527D01*
X140488280Y-92101212D01*
X140500000Y-92220209D01*
X140500000Y-93699791D01*
X140488280Y-93818788D01*
X140441963Y-93971473D01*
X140366749Y-94112189D01*
X140265528Y-94235528D01*
X140142189Y-94336749D01*
X140001473Y-94411963D01*
X139848788Y-94458280D01*
X139690000Y-94473919D01*
X139531213Y-94458280D01*
X139378528Y-94411963D01*
X139237812Y-94336749D01*
X139114473Y-94235528D01*
X139013252Y-94112189D01*
X138938038Y-93971473D01*
X138891721Y-93818788D01*
X138880001Y-93699791D01*
X138880000Y-92220210D01*
X138891720Y-92101213D01*
X138938037Y-91948528D01*
X139013251Y-91807812D01*
X139114472Y-91684472D01*
X139237811Y-91583251D01*
X139378527Y-91508037D01*
X139531212Y-91461720D01*
X139690000Y-91446081D01*
X139848787Y-91461720D01*
X139848787Y-91461720D01*
G37*
G36*
X142388787Y-91461720D02*
X142541472Y-91508037D01*
X142682188Y-91583251D01*
X142805528Y-91684472D01*
X142906749Y-91807811D01*
X142981963Y-91948527D01*
X143028280Y-92101212D01*
X143040000Y-92220209D01*
X143040000Y-93699791D01*
X143028280Y-93818788D01*
X142981963Y-93971473D01*
X142906749Y-94112189D01*
X142805528Y-94235528D01*
X142682189Y-94336749D01*
X142541473Y-94411963D01*
X142388788Y-94458280D01*
X142230000Y-94473919D01*
X142071213Y-94458280D01*
X141918528Y-94411963D01*
X141777812Y-94336749D01*
X141654473Y-94235528D01*
X141553252Y-94112189D01*
X141478038Y-93971473D01*
X141431721Y-93818788D01*
X141420001Y-93699791D01*
X141420000Y-92220210D01*
X141431720Y-92101213D01*
X141478037Y-91948528D01*
X141553251Y-91807812D01*
X141654472Y-91684472D01*
X141777811Y-91583251D01*
X141918527Y-91508037D01*
X142071212Y-91461720D01*
X142230000Y-91446081D01*
X142388787Y-91461720D01*
X142388787Y-91461720D01*
G37*
G36*
X146518787Y-91461720D02*
X146671472Y-91508037D01*
X146812188Y-91583251D01*
X146935528Y-91684472D01*
X147036749Y-91807811D01*
X147111963Y-91948527D01*
X147158280Y-92101212D01*
X147170000Y-92220209D01*
X147170000Y-93699791D01*
X147158280Y-93818788D01*
X147111963Y-93971473D01*
X147036749Y-94112189D01*
X146935528Y-94235528D01*
X146812189Y-94336749D01*
X146671473Y-94411963D01*
X146518788Y-94458280D01*
X146360000Y-94473919D01*
X146201213Y-94458280D01*
X146048528Y-94411963D01*
X145907812Y-94336749D01*
X145784473Y-94235528D01*
X145683252Y-94112189D01*
X145608038Y-93971473D01*
X145561721Y-93818788D01*
X145550001Y-93699791D01*
X145550000Y-92220210D01*
X145561720Y-92101213D01*
X145608037Y-91948528D01*
X145683251Y-91807812D01*
X145784472Y-91684472D01*
X145907811Y-91583251D01*
X146048527Y-91508037D01*
X146201212Y-91461720D01*
X146360000Y-91446081D01*
X146518787Y-91461720D01*
X146518787Y-91461720D01*
G37*
G36*
X149058787Y-91461720D02*
X149211472Y-91508037D01*
X149352188Y-91583251D01*
X149475528Y-91684472D01*
X149576749Y-91807811D01*
X149651963Y-91948527D01*
X149698280Y-92101212D01*
X149710000Y-92220209D01*
X149710000Y-93699791D01*
X149698280Y-93818788D01*
X149651963Y-93971473D01*
X149576749Y-94112189D01*
X149475528Y-94235528D01*
X149352189Y-94336749D01*
X149211473Y-94411963D01*
X149058788Y-94458280D01*
X148900000Y-94473919D01*
X148741213Y-94458280D01*
X148588528Y-94411963D01*
X148447812Y-94336749D01*
X148324473Y-94235528D01*
X148223252Y-94112189D01*
X148148038Y-93971473D01*
X148101721Y-93818788D01*
X148090001Y-93699791D01*
X148090000Y-92220210D01*
X148101720Y-92101213D01*
X148148037Y-91948528D01*
X148223251Y-91807812D01*
X148324472Y-91684472D01*
X148447811Y-91583251D01*
X148588527Y-91508037D01*
X148741212Y-91461720D01*
X148900000Y-91446081D01*
X149058787Y-91461720D01*
X149058787Y-91461720D01*
G37*
G36*
X151598787Y-91461720D02*
X151751472Y-91508037D01*
X151892188Y-91583251D01*
X152015528Y-91684472D01*
X152116749Y-91807811D01*
X152191963Y-91948527D01*
X152238280Y-92101212D01*
X152250000Y-92220209D01*
X152250000Y-93699791D01*
X152238280Y-93818788D01*
X152191963Y-93971473D01*
X152116749Y-94112189D01*
X152015528Y-94235528D01*
X151892189Y-94336749D01*
X151751473Y-94411963D01*
X151598788Y-94458280D01*
X151440000Y-94473919D01*
X151281213Y-94458280D01*
X151128528Y-94411963D01*
X150987812Y-94336749D01*
X150864473Y-94235528D01*
X150763252Y-94112189D01*
X150688038Y-93971473D01*
X150641721Y-93818788D01*
X150630001Y-93699791D01*
X150630000Y-92220210D01*
X150641720Y-92101213D01*
X150688037Y-91948528D01*
X150763251Y-91807812D01*
X150864472Y-91684472D01*
X150987811Y-91583251D01*
X151128527Y-91508037D01*
X151281212Y-91461720D01*
X151440000Y-91446081D01*
X151598787Y-91461720D01*
X151598787Y-91461720D01*
G37*
G36*
X154138787Y-91461720D02*
X154291472Y-91508037D01*
X154432188Y-91583251D01*
X154555528Y-91684472D01*
X154656749Y-91807811D01*
X154731963Y-91948527D01*
X154778280Y-92101212D01*
X154790000Y-92220209D01*
X154790000Y-93699791D01*
X154778280Y-93818788D01*
X154731963Y-93971473D01*
X154656749Y-94112189D01*
X154555528Y-94235528D01*
X154432189Y-94336749D01*
X154291473Y-94411963D01*
X154138788Y-94458280D01*
X153980000Y-94473919D01*
X153821213Y-94458280D01*
X153668528Y-94411963D01*
X153527812Y-94336749D01*
X153404473Y-94235528D01*
X153303252Y-94112189D01*
X153228038Y-93971473D01*
X153181721Y-93818788D01*
X153170001Y-93699791D01*
X153170000Y-92220210D01*
X153181720Y-92101213D01*
X153228037Y-91948528D01*
X153303251Y-91807812D01*
X153404472Y-91684472D01*
X153527811Y-91583251D01*
X153668527Y-91508037D01*
X153821212Y-91461720D01*
X153980000Y-91446081D01*
X154138787Y-91461720D01*
X154138787Y-91461720D01*
G37*
G36*
X156678787Y-91461720D02*
X156831472Y-91508037D01*
X156972188Y-91583251D01*
X157095528Y-91684472D01*
X157196749Y-91807811D01*
X157271963Y-91948527D01*
X157318280Y-92101212D01*
X157330000Y-92220209D01*
X157330000Y-93699791D01*
X157318280Y-93818788D01*
X157271963Y-93971473D01*
X157196749Y-94112189D01*
X157095528Y-94235528D01*
X156972189Y-94336749D01*
X156831473Y-94411963D01*
X156678788Y-94458280D01*
X156520000Y-94473919D01*
X156361213Y-94458280D01*
X156208528Y-94411963D01*
X156067812Y-94336749D01*
X155944473Y-94235528D01*
X155843252Y-94112189D01*
X155768038Y-93971473D01*
X155721721Y-93818788D01*
X155710001Y-93699791D01*
X155710000Y-92220210D01*
X155721720Y-92101213D01*
X155768037Y-91948528D01*
X155843251Y-91807812D01*
X155944472Y-91684472D01*
X156067811Y-91583251D01*
X156208527Y-91508037D01*
X156361212Y-91461720D01*
X156520000Y-91446081D01*
X156678787Y-91461720D01*
X156678787Y-91461720D01*
G37*
G36*
X159218787Y-91461720D02*
X159371472Y-91508037D01*
X159512188Y-91583251D01*
X159635528Y-91684472D01*
X159736749Y-91807811D01*
X159811963Y-91948527D01*
X159858280Y-92101212D01*
X159870000Y-92220209D01*
X159870000Y-93699791D01*
X159858280Y-93818788D01*
X159811963Y-93971473D01*
X159736749Y-94112189D01*
X159635528Y-94235528D01*
X159512189Y-94336749D01*
X159371473Y-94411963D01*
X159218788Y-94458280D01*
X159060000Y-94473919D01*
X158901213Y-94458280D01*
X158748528Y-94411963D01*
X158607812Y-94336749D01*
X158484473Y-94235528D01*
X158383252Y-94112189D01*
X158308038Y-93971473D01*
X158261721Y-93818788D01*
X158250001Y-93699791D01*
X158250000Y-92220210D01*
X158261720Y-92101213D01*
X158308037Y-91948528D01*
X158383251Y-91807812D01*
X158484472Y-91684472D01*
X158607811Y-91583251D01*
X158748527Y-91508037D01*
X158901212Y-91461720D01*
X159060000Y-91446081D01*
X159218787Y-91461720D01*
X159218787Y-91461720D01*
G37*
G36*
X161758787Y-91461720D02*
X161911472Y-91508037D01*
X162052188Y-91583251D01*
X162175528Y-91684472D01*
X162276749Y-91807811D01*
X162351963Y-91948527D01*
X162398280Y-92101212D01*
X162410000Y-92220209D01*
X162410000Y-93699791D01*
X162398280Y-93818788D01*
X162351963Y-93971473D01*
X162276749Y-94112189D01*
X162175528Y-94235528D01*
X162052189Y-94336749D01*
X161911473Y-94411963D01*
X161758788Y-94458280D01*
X161600000Y-94473919D01*
X161441213Y-94458280D01*
X161288528Y-94411963D01*
X161147812Y-94336749D01*
X161024473Y-94235528D01*
X160923252Y-94112189D01*
X160848038Y-93971473D01*
X160801721Y-93818788D01*
X160790001Y-93699791D01*
X160790000Y-92220210D01*
X160801720Y-92101213D01*
X160848037Y-91948528D01*
X160923251Y-91807812D01*
X161024472Y-91684472D01*
X161147811Y-91583251D01*
X161288527Y-91508037D01*
X161441212Y-91461720D01*
X161600000Y-91446081D01*
X161758787Y-91461720D01*
X161758787Y-91461720D01*
G37*
G36*
X164298787Y-91461720D02*
X164451472Y-91508037D01*
X164592188Y-91583251D01*
X164715528Y-91684472D01*
X164816749Y-91807811D01*
X164891963Y-91948527D01*
X164938280Y-92101212D01*
X164950000Y-92220209D01*
X164950000Y-93699791D01*
X164938280Y-93818788D01*
X164891963Y-93971473D01*
X164816749Y-94112189D01*
X164715528Y-94235528D01*
X164592189Y-94336749D01*
X164451473Y-94411963D01*
X164298788Y-94458280D01*
X164140000Y-94473919D01*
X163981213Y-94458280D01*
X163828528Y-94411963D01*
X163687812Y-94336749D01*
X163564473Y-94235528D01*
X163463252Y-94112189D01*
X163388038Y-93971473D01*
X163341721Y-93818788D01*
X163330001Y-93699791D01*
X163330000Y-92220210D01*
X163341720Y-92101213D01*
X163388037Y-91948528D01*
X163463251Y-91807812D01*
X163564472Y-91684472D01*
X163687811Y-91583251D01*
X163828527Y-91508037D01*
X163981212Y-91461720D01*
X164140000Y-91446081D01*
X164298787Y-91461720D01*
X164298787Y-91461720D01*
G37*
G36*
X124608787Y-91461720D02*
X124761472Y-91508037D01*
X124902188Y-91583251D01*
X125025528Y-91684472D01*
X125126749Y-91807811D01*
X125201963Y-91948527D01*
X125248280Y-92101212D01*
X125260000Y-92220209D01*
X125260000Y-93699791D01*
X125248280Y-93818788D01*
X125201963Y-93971473D01*
X125126749Y-94112189D01*
X125025528Y-94235528D01*
X124902189Y-94336749D01*
X124761473Y-94411963D01*
X124608788Y-94458280D01*
X124450000Y-94473919D01*
X124291213Y-94458280D01*
X124138528Y-94411963D01*
X123997812Y-94336749D01*
X123874473Y-94235528D01*
X123773252Y-94112189D01*
X123698038Y-93971473D01*
X123651721Y-93818788D01*
X123640001Y-93699791D01*
X123640000Y-92220210D01*
X123651720Y-92101213D01*
X123698037Y-91948528D01*
X123773251Y-91807812D01*
X123874472Y-91684472D01*
X123997811Y-91583251D01*
X124138527Y-91508037D01*
X124291212Y-91461720D01*
X124450000Y-91446081D01*
X124608787Y-91461720D01*
X124608787Y-91461720D01*
G37*
G36*
X186394690Y-93007782D02*
X186432899Y-93019372D01*
X186468110Y-93038194D01*
X186498976Y-93063524D01*
X186524306Y-93094390D01*
X186543128Y-93129601D01*
X186554718Y-93167810D01*
X186559000Y-93211289D01*
X186559000Y-94240711D01*
X186554718Y-94284190D01*
X186543128Y-94322399D01*
X186524306Y-94357610D01*
X186498976Y-94388476D01*
X186468110Y-94413806D01*
X186432899Y-94432628D01*
X186394690Y-94444218D01*
X186351211Y-94448500D01*
X184996789Y-94448500D01*
X184953310Y-94444218D01*
X184915101Y-94432628D01*
X184879890Y-94413806D01*
X184849024Y-94388476D01*
X184823694Y-94357610D01*
X184804872Y-94322399D01*
X184793282Y-94284190D01*
X184789000Y-94240711D01*
X184789000Y-93211289D01*
X184793282Y-93167810D01*
X184804872Y-93129601D01*
X184823694Y-93094390D01*
X184849024Y-93063524D01*
X184879890Y-93038194D01*
X184915101Y-93019372D01*
X184953310Y-93007782D01*
X184996789Y-93003500D01*
X186351211Y-93003500D01*
X186394690Y-93007782D01*
X186394690Y-93007782D01*
G37*
G36*
X186394690Y-90032782D02*
X186432899Y-90044372D01*
X186468110Y-90063194D01*
X186498976Y-90088524D01*
X186524306Y-90119390D01*
X186543128Y-90154601D01*
X186554718Y-90192810D01*
X186559000Y-90236289D01*
X186559000Y-91265711D01*
X186554718Y-91309190D01*
X186543128Y-91347399D01*
X186524306Y-91382610D01*
X186498976Y-91413476D01*
X186468110Y-91438806D01*
X186432899Y-91457628D01*
X186394690Y-91469218D01*
X186351211Y-91473500D01*
X184996789Y-91473500D01*
X184953310Y-91469218D01*
X184915101Y-91457628D01*
X184879890Y-91438806D01*
X184849024Y-91413476D01*
X184823694Y-91382610D01*
X184804872Y-91347399D01*
X184793282Y-91309190D01*
X184789000Y-91265711D01*
X184789000Y-90236289D01*
X184793282Y-90192810D01*
X184804872Y-90154601D01*
X184823694Y-90119390D01*
X184849024Y-90088524D01*
X184879890Y-90063194D01*
X184915101Y-90044372D01*
X184953310Y-90032782D01*
X184996789Y-90028500D01*
X186351211Y-90028500D01*
X186394690Y-90032782D01*
X186394690Y-90032782D01*
G37*
G36*
X176488690Y-89669282D02*
X176526899Y-89680872D01*
X176562110Y-89699694D01*
X176592976Y-89725024D01*
X176618306Y-89755890D01*
X176637128Y-89791101D01*
X176648718Y-89829310D01*
X176653000Y-89872789D01*
X176653000Y-90902211D01*
X176648718Y-90945690D01*
X176637128Y-90983899D01*
X176618306Y-91019110D01*
X176592976Y-91049976D01*
X176562110Y-91075306D01*
X176526899Y-91094128D01*
X176488690Y-91105718D01*
X176445211Y-91110000D01*
X175090789Y-91110000D01*
X175047310Y-91105718D01*
X175009101Y-91094128D01*
X174973890Y-91075306D01*
X174943024Y-91049976D01*
X174917694Y-91019110D01*
X174898872Y-90983899D01*
X174887282Y-90945690D01*
X174883000Y-90902211D01*
X174883000Y-89872789D01*
X174887282Y-89829310D01*
X174898872Y-89791101D01*
X174917694Y-89755890D01*
X174943024Y-89725024D01*
X174973890Y-89699694D01*
X175009101Y-89680872D01*
X175047310Y-89669282D01*
X175090789Y-89665000D01*
X176445211Y-89665000D01*
X176488690Y-89669282D01*
X176488690Y-89669282D01*
G37*
G36*
X174021869Y-88709421D02*
X174061435Y-88721423D01*
X174097895Y-88740912D01*
X174129857Y-88767143D01*
X174156088Y-88799105D01*
X174175577Y-88835565D01*
X174187579Y-88875131D01*
X174192000Y-88920020D01*
X174192000Y-89659980D01*
X174187579Y-89704869D01*
X174175577Y-89744435D01*
X174156088Y-89780895D01*
X174129857Y-89812857D01*
X174097895Y-89839088D01*
X174061435Y-89858577D01*
X174021869Y-89870579D01*
X173976980Y-89875000D01*
X172987020Y-89875000D01*
X172942131Y-89870579D01*
X172902565Y-89858577D01*
X172866105Y-89839088D01*
X172834143Y-89812857D01*
X172807912Y-89780895D01*
X172788423Y-89744435D01*
X172776421Y-89704869D01*
X172772000Y-89659980D01*
X172772000Y-88920020D01*
X172776421Y-88875131D01*
X172788423Y-88835565D01*
X172807912Y-88799105D01*
X172834143Y-88767143D01*
X172866105Y-88740912D01*
X172902565Y-88721423D01*
X172942131Y-88709421D01*
X172987020Y-88705000D01*
X173976980Y-88705000D01*
X174021869Y-88709421D01*
X174021869Y-88709421D01*
G37*
G36*
X182631000Y-88411000D02*
X178811000Y-88411000D01*
X178811000Y-86391000D01*
X182631000Y-86391000D01*
X182631000Y-88411000D01*
X182631000Y-88411000D01*
G37*
G36*
X176488690Y-86694282D02*
X176526899Y-86705872D01*
X176562110Y-86724694D01*
X176592976Y-86750024D01*
X176618306Y-86780890D01*
X176637128Y-86816101D01*
X176648718Y-86854310D01*
X176653000Y-86897789D01*
X176653000Y-87927211D01*
X176648718Y-87970690D01*
X176637128Y-88008899D01*
X176618306Y-88044110D01*
X176592976Y-88074976D01*
X176562110Y-88100306D01*
X176526899Y-88119128D01*
X176488690Y-88130718D01*
X176445211Y-88135000D01*
X175090789Y-88135000D01*
X175047310Y-88130718D01*
X175009101Y-88119128D01*
X174973890Y-88100306D01*
X174943024Y-88074976D01*
X174917694Y-88044110D01*
X174898872Y-88008899D01*
X174887282Y-87970690D01*
X174883000Y-87927211D01*
X174883000Y-86897789D01*
X174887282Y-86854310D01*
X174898872Y-86816101D01*
X174917694Y-86780890D01*
X174943024Y-86750024D01*
X174973890Y-86724694D01*
X175009101Y-86705872D01*
X175047310Y-86694282D01*
X175090789Y-86690000D01*
X176445211Y-86690000D01*
X176488690Y-86694282D01*
X176488690Y-86694282D01*
G37*
G36*
X161860000Y-87860000D02*
X160140000Y-87860000D01*
X160140000Y-86140000D01*
X161860000Y-86140000D01*
X161860000Y-87860000D01*
X161860000Y-87860000D01*
G37*
G36*
X166248589Y-86152444D02*
X166410700Y-86201619D01*
X166560102Y-86281476D01*
X166691054Y-86388946D01*
X166798524Y-86519898D01*
X166878381Y-86669300D01*
X166927556Y-86831411D01*
X166944161Y-87000000D01*
X166927556Y-87168589D01*
X166878381Y-87330700D01*
X166798524Y-87480102D01*
X166691054Y-87611054D01*
X166560102Y-87718524D01*
X166410700Y-87798381D01*
X166248589Y-87847556D01*
X166122246Y-87860000D01*
X166037754Y-87860000D01*
X165911411Y-87847556D01*
X165749300Y-87798381D01*
X165599898Y-87718524D01*
X165468946Y-87611054D01*
X165361476Y-87480102D01*
X165281619Y-87330700D01*
X165232444Y-87168589D01*
X165215839Y-87000000D01*
X165232444Y-86831411D01*
X165281619Y-86669300D01*
X165361476Y-86519898D01*
X165468946Y-86388946D01*
X165599898Y-86281476D01*
X165749300Y-86201619D01*
X165911411Y-86152444D01*
X166037754Y-86140000D01*
X166122246Y-86140000D01*
X166248589Y-86152444D01*
X166248589Y-86152444D01*
G37*
G36*
X168788589Y-86152444D02*
X168950700Y-86201619D01*
X169100102Y-86281476D01*
X169231054Y-86388946D01*
X169338524Y-86519898D01*
X169418381Y-86669300D01*
X169467556Y-86831411D01*
X169484161Y-87000000D01*
X169467556Y-87168589D01*
X169418381Y-87330700D01*
X169338524Y-87480102D01*
X169231054Y-87611054D01*
X169100102Y-87718524D01*
X168950700Y-87798381D01*
X168788589Y-87847556D01*
X168662246Y-87860000D01*
X168577754Y-87860000D01*
X168451411Y-87847556D01*
X168289300Y-87798381D01*
X168139898Y-87718524D01*
X168008946Y-87611054D01*
X167901476Y-87480102D01*
X167821619Y-87330700D01*
X167772444Y-87168589D01*
X167755839Y-87000000D01*
X167772444Y-86831411D01*
X167821619Y-86669300D01*
X167901476Y-86519898D01*
X168008946Y-86388946D01*
X168139898Y-86281476D01*
X168289300Y-86201619D01*
X168451411Y-86152444D01*
X168577754Y-86140000D01*
X168662246Y-86140000D01*
X168788589Y-86152444D01*
X168788589Y-86152444D01*
G37*
G36*
X163708589Y-86152444D02*
X163870700Y-86201619D01*
X164020102Y-86281476D01*
X164151054Y-86388946D01*
X164258524Y-86519898D01*
X164338381Y-86669300D01*
X164387556Y-86831411D01*
X164404161Y-87000000D01*
X164387556Y-87168589D01*
X164338381Y-87330700D01*
X164258524Y-87480102D01*
X164151054Y-87611054D01*
X164020102Y-87718524D01*
X163870700Y-87798381D01*
X163708589Y-87847556D01*
X163582246Y-87860000D01*
X163497754Y-87860000D01*
X163371411Y-87847556D01*
X163209300Y-87798381D01*
X163059898Y-87718524D01*
X162928946Y-87611054D01*
X162821476Y-87480102D01*
X162741619Y-87330700D01*
X162692444Y-87168589D01*
X162675839Y-87000000D01*
X162692444Y-86831411D01*
X162741619Y-86669300D01*
X162821476Y-86519898D01*
X162928946Y-86388946D01*
X163059898Y-86281476D01*
X163209300Y-86201619D01*
X163371411Y-86152444D01*
X163497754Y-86140000D01*
X163582246Y-86140000D01*
X163708589Y-86152444D01*
X163708589Y-86152444D01*
G37*
G36*
X174021869Y-86659421D02*
X174061435Y-86671423D01*
X174097895Y-86690912D01*
X174129857Y-86717143D01*
X174156088Y-86749105D01*
X174175577Y-86785565D01*
X174187579Y-86825131D01*
X174192000Y-86870020D01*
X174192000Y-87609980D01*
X174187579Y-87654869D01*
X174175577Y-87694435D01*
X174156088Y-87730895D01*
X174129857Y-87762857D01*
X174097895Y-87789088D01*
X174061435Y-87808577D01*
X174021869Y-87820579D01*
X173976980Y-87825000D01*
X172987020Y-87825000D01*
X172942131Y-87820579D01*
X172902565Y-87808577D01*
X172866105Y-87789088D01*
X172834143Y-87762857D01*
X172807912Y-87730895D01*
X172788423Y-87694435D01*
X172776421Y-87654869D01*
X172772000Y-87609980D01*
X172772000Y-86870020D01*
X172776421Y-86825131D01*
X172788423Y-86785565D01*
X172807912Y-86749105D01*
X172834143Y-86717143D01*
X172866105Y-86690912D01*
X172902565Y-86671423D01*
X172942131Y-86659421D01*
X172987020Y-86655000D01*
X173976980Y-86655000D01*
X174021869Y-86659421D01*
X174021869Y-86659421D01*
G37*
G36*
X119055000Y-87305000D02*
X117485000Y-87305000D01*
X117485000Y-86685000D01*
X119055000Y-86685000D01*
X119055000Y-87305000D01*
X119055000Y-87305000D01*
G37*
G36*
X113655000Y-87305000D02*
X112085000Y-87305000D01*
X112085000Y-86685000D01*
X113655000Y-86685000D01*
X113655000Y-87305000D01*
X113655000Y-87305000D01*
G37*
G36*
X97938834Y-85367929D02*
X98056466Y-85391327D01*
X98056469Y-85391328D01*
X98056468Y-85391328D01*
X98203879Y-85452388D01*
X98203882Y-85452390D01*
X98336542Y-85541029D01*
X98449371Y-85653858D01*
X98503404Y-85734726D01*
X98538012Y-85786521D01*
X98554833Y-85827131D01*
X98599073Y-85933934D01*
X98630200Y-86090423D01*
X98630200Y-86249977D01*
X98599073Y-86406466D01*
X98599072Y-86406468D01*
X98538012Y-86553879D01*
X98538010Y-86553882D01*
X98449371Y-86686542D01*
X98336542Y-86799371D01*
X98230806Y-86870020D01*
X98203879Y-86888012D01*
X98083693Y-86937795D01*
X98056466Y-86949073D01*
X97938834Y-86972471D01*
X97899978Y-86980200D01*
X97740422Y-86980200D01*
X97701566Y-86972471D01*
X97583934Y-86949073D01*
X97556707Y-86937795D01*
X97436521Y-86888012D01*
X97409594Y-86870020D01*
X97303858Y-86799371D01*
X97191029Y-86686542D01*
X97102390Y-86553882D01*
X97102388Y-86553879D01*
X97041328Y-86406468D01*
X97041327Y-86406466D01*
X97010200Y-86249977D01*
X97010200Y-86090423D01*
X97041327Y-85933934D01*
X97085567Y-85827131D01*
X97102388Y-85786521D01*
X97136996Y-85734726D01*
X97191029Y-85653858D01*
X97303858Y-85541029D01*
X97436518Y-85452390D01*
X97436521Y-85452388D01*
X97583932Y-85391328D01*
X97583931Y-85391328D01*
X97583934Y-85391327D01*
X97701566Y-85367929D01*
X97740422Y-85360200D01*
X97899978Y-85360200D01*
X97938834Y-85367929D01*
X97938834Y-85367929D01*
G37*
G36*
X110775869Y-85661421D02*
X110815435Y-85673423D01*
X110851895Y-85692912D01*
X110883857Y-85719143D01*
X110910088Y-85751105D01*
X110929577Y-85787565D01*
X110941579Y-85827131D01*
X110946000Y-85872020D01*
X110946000Y-86611980D01*
X110941579Y-86656869D01*
X110929577Y-86696435D01*
X110910088Y-86732895D01*
X110883857Y-86764857D01*
X110851895Y-86791088D01*
X110815435Y-86810577D01*
X110775869Y-86822579D01*
X110730980Y-86827000D01*
X109741020Y-86827000D01*
X109696131Y-86822579D01*
X109656565Y-86810577D01*
X109620105Y-86791088D01*
X109588143Y-86764857D01*
X109561912Y-86732895D01*
X109542423Y-86696435D01*
X109530421Y-86656869D01*
X109526000Y-86611980D01*
X109526000Y-85872020D01*
X109530421Y-85827131D01*
X109542423Y-85787565D01*
X109561912Y-85751105D01*
X109588143Y-85719143D01*
X109620105Y-85692912D01*
X109656565Y-85673423D01*
X109696131Y-85661421D01*
X109741020Y-85657000D01*
X110730980Y-85657000D01*
X110775869Y-85661421D01*
X110775869Y-85661421D01*
G37*
G36*
X122459869Y-85534421D02*
X122499435Y-85546423D01*
X122535895Y-85565912D01*
X122567857Y-85592143D01*
X122594088Y-85624105D01*
X122613577Y-85660565D01*
X122625579Y-85700131D01*
X122630000Y-85745020D01*
X122630000Y-86484980D01*
X122625579Y-86529869D01*
X122613577Y-86569435D01*
X122594088Y-86605895D01*
X122567857Y-86637857D01*
X122535895Y-86664088D01*
X122499435Y-86683577D01*
X122459869Y-86695579D01*
X122414980Y-86700000D01*
X121425020Y-86700000D01*
X121380131Y-86695579D01*
X121340565Y-86683577D01*
X121304105Y-86664088D01*
X121272143Y-86637857D01*
X121245912Y-86605895D01*
X121226423Y-86569435D01*
X121214421Y-86529869D01*
X121210000Y-86484980D01*
X121210000Y-85745020D01*
X121214421Y-85700131D01*
X121226423Y-85660565D01*
X121245912Y-85624105D01*
X121272143Y-85592143D01*
X121304105Y-85565912D01*
X121340565Y-85546423D01*
X121380131Y-85534421D01*
X121425020Y-85530000D01*
X122414980Y-85530000D01*
X122459869Y-85534421D01*
X122459869Y-85534421D01*
G37*
G36*
X113655000Y-86035000D02*
X112085000Y-86035000D01*
X112085000Y-85415000D01*
X113655000Y-85415000D01*
X113655000Y-86035000D01*
X113655000Y-86035000D01*
G37*
G36*
X119055000Y-86035000D02*
X117485000Y-86035000D01*
X117485000Y-85415000D01*
X119055000Y-85415000D01*
X119055000Y-86035000D01*
X119055000Y-86035000D01*
G37*
G36*
X100778834Y-83982929D02*
X100896466Y-84006327D01*
X100896469Y-84006328D01*
X100896468Y-84006328D01*
X101043879Y-84067388D01*
X101043882Y-84067390D01*
X101176542Y-84156029D01*
X101289371Y-84268858D01*
X101374091Y-84395653D01*
X101378012Y-84401521D01*
X101391871Y-84434980D01*
X101439073Y-84548934D01*
X101470200Y-84705423D01*
X101470200Y-84864977D01*
X101439073Y-85021466D01*
X101439072Y-85021468D01*
X101378012Y-85168879D01*
X101378010Y-85168882D01*
X101289371Y-85301542D01*
X101176542Y-85414371D01*
X101043882Y-85503010D01*
X101043879Y-85503012D01*
X100968051Y-85534421D01*
X100896466Y-85564073D01*
X100778834Y-85587471D01*
X100739978Y-85595200D01*
X100580422Y-85595200D01*
X100541566Y-85587471D01*
X100423934Y-85564073D01*
X100352349Y-85534421D01*
X100276521Y-85503012D01*
X100276518Y-85503010D01*
X100143858Y-85414371D01*
X100031029Y-85301542D01*
X99942390Y-85168882D01*
X99942388Y-85168879D01*
X99881328Y-85021468D01*
X99881327Y-85021466D01*
X99850200Y-84864977D01*
X99850200Y-84705423D01*
X99881327Y-84548934D01*
X99928529Y-84434980D01*
X99942388Y-84401521D01*
X99946309Y-84395653D01*
X100031029Y-84268858D01*
X100143858Y-84156029D01*
X100276518Y-84067390D01*
X100276521Y-84067388D01*
X100423932Y-84006328D01*
X100423931Y-84006328D01*
X100423934Y-84006327D01*
X100541566Y-83982929D01*
X100580422Y-83975200D01*
X100739978Y-83975200D01*
X100778834Y-83982929D01*
X100778834Y-83982929D01*
G37*
G36*
X110775869Y-83611421D02*
X110815435Y-83623423D01*
X110851895Y-83642912D01*
X110883857Y-83669143D01*
X110910088Y-83701105D01*
X110929577Y-83737565D01*
X110941579Y-83777131D01*
X110946000Y-83822020D01*
X110946000Y-84561980D01*
X110941579Y-84606869D01*
X110929577Y-84646435D01*
X110910088Y-84682895D01*
X110883857Y-84714857D01*
X110851895Y-84741088D01*
X110815435Y-84760577D01*
X110775869Y-84772579D01*
X110730980Y-84777000D01*
X109741020Y-84777000D01*
X109696131Y-84772579D01*
X109656565Y-84760577D01*
X109620105Y-84741088D01*
X109588143Y-84714857D01*
X109561912Y-84682895D01*
X109542423Y-84646435D01*
X109530421Y-84606869D01*
X109526000Y-84561980D01*
X109526000Y-83822020D01*
X109530421Y-83777131D01*
X109542423Y-83737565D01*
X109561912Y-83701105D01*
X109588143Y-83669143D01*
X109620105Y-83642912D01*
X109656565Y-83623423D01*
X109696131Y-83611421D01*
X109741020Y-83607000D01*
X110730980Y-83607000D01*
X110775869Y-83611421D01*
X110775869Y-83611421D01*
G37*
G36*
X119055000Y-84765000D02*
X117485000Y-84765000D01*
X117485000Y-84145000D01*
X119055000Y-84145000D01*
X119055000Y-84765000D01*
X119055000Y-84765000D01*
G37*
G36*
X113655000Y-84765000D02*
X112085000Y-84765000D01*
X112085000Y-84145000D01*
X113655000Y-84145000D01*
X113655000Y-84765000D01*
X113655000Y-84765000D01*
G37*
G36*
X122459869Y-83484421D02*
X122499435Y-83496423D01*
X122535895Y-83515912D01*
X122567857Y-83542143D01*
X122594088Y-83574105D01*
X122613577Y-83610565D01*
X122625579Y-83650131D01*
X122630000Y-83695020D01*
X122630000Y-84434980D01*
X122625579Y-84479869D01*
X122613577Y-84519435D01*
X122594088Y-84555895D01*
X122567857Y-84587857D01*
X122535895Y-84614088D01*
X122499435Y-84633577D01*
X122459869Y-84645579D01*
X122414980Y-84650000D01*
X121425020Y-84650000D01*
X121380131Y-84645579D01*
X121340565Y-84633577D01*
X121304105Y-84614088D01*
X121272143Y-84587857D01*
X121245912Y-84555895D01*
X121226423Y-84519435D01*
X121214421Y-84479869D01*
X121210000Y-84434980D01*
X121210000Y-83695020D01*
X121214421Y-83650131D01*
X121226423Y-83610565D01*
X121245912Y-83574105D01*
X121272143Y-83542143D01*
X121304105Y-83515912D01*
X121340565Y-83496423D01*
X121380131Y-83484421D01*
X121425020Y-83480000D01*
X122414980Y-83480000D01*
X122459869Y-83484421D01*
X122459869Y-83484421D01*
G37*
G36*
X97938834Y-82597929D02*
X98056466Y-82621327D01*
X98056469Y-82621328D01*
X98056468Y-82621328D01*
X98203879Y-82682388D01*
X98203882Y-82682390D01*
X98336542Y-82771029D01*
X98449371Y-82883858D01*
X98538010Y-83016518D01*
X98538012Y-83016521D01*
X98587795Y-83136707D01*
X98599073Y-83163934D01*
X98619262Y-83265435D01*
X98630200Y-83320422D01*
X98630200Y-83479978D01*
X98627212Y-83495000D01*
X98599073Y-83636466D01*
X98599072Y-83636468D01*
X98538012Y-83783879D01*
X98538010Y-83783882D01*
X98449371Y-83916542D01*
X98336542Y-84029371D01*
X98203882Y-84118010D01*
X98203879Y-84118012D01*
X98112098Y-84156029D01*
X98056466Y-84179073D01*
X97938834Y-84202471D01*
X97899978Y-84210200D01*
X97740422Y-84210200D01*
X97701566Y-84202471D01*
X97583934Y-84179073D01*
X97528302Y-84156029D01*
X97436521Y-84118012D01*
X97436518Y-84118010D01*
X97303858Y-84029371D01*
X97191029Y-83916542D01*
X97102390Y-83783882D01*
X97102388Y-83783879D01*
X97041328Y-83636468D01*
X97041327Y-83636466D01*
X97013188Y-83495000D01*
X97010200Y-83479978D01*
X97010200Y-83320422D01*
X97021138Y-83265435D01*
X97041327Y-83163934D01*
X97052605Y-83136707D01*
X97102388Y-83016521D01*
X97102390Y-83016518D01*
X97191029Y-82883858D01*
X97303858Y-82771029D01*
X97436518Y-82682390D01*
X97436521Y-82682388D01*
X97583932Y-82621328D01*
X97583931Y-82621328D01*
X97583934Y-82621327D01*
X97701566Y-82597929D01*
X97740422Y-82590200D01*
X97899978Y-82590200D01*
X97938834Y-82597929D01*
X97938834Y-82597929D01*
G37*
G36*
X198740000Y-83910000D02*
X196920000Y-83910000D01*
X196920000Y-82090000D01*
X198740000Y-82090000D01*
X198740000Y-83910000D01*
X198740000Y-83910000D01*
G37*
G36*
X200484653Y-82094978D02*
X200635435Y-82124970D01*
X200635438Y-82124971D01*
X200635437Y-82124971D01*
X200801047Y-82193569D01*
X200801050Y-82193571D01*
X200950088Y-82293154D01*
X201076846Y-82419912D01*
X201151434Y-82531542D01*
X201176431Y-82568953D01*
X201198125Y-82621327D01*
X201245030Y-82734565D01*
X201280000Y-82910374D01*
X201280000Y-83089626D01*
X201245030Y-83265435D01*
X201245029Y-83265437D01*
X201176431Y-83431047D01*
X201176429Y-83431050D01*
X201076846Y-83580088D01*
X200950088Y-83706846D01*
X200834794Y-83783882D01*
X200801047Y-83806431D01*
X200668468Y-83861347D01*
X200635435Y-83875030D01*
X200503280Y-83901317D01*
X200459627Y-83910000D01*
X200280373Y-83910000D01*
X200236720Y-83901317D01*
X200104565Y-83875030D01*
X200071532Y-83861347D01*
X199938953Y-83806431D01*
X199905206Y-83783882D01*
X199789912Y-83706846D01*
X199663154Y-83580088D01*
X199563571Y-83431050D01*
X199563569Y-83431047D01*
X199494971Y-83265437D01*
X199494970Y-83265435D01*
X199460000Y-83089626D01*
X199460000Y-82910374D01*
X199494970Y-82734565D01*
X199541875Y-82621327D01*
X199563569Y-82568953D01*
X199588566Y-82531542D01*
X199663154Y-82419912D01*
X199789912Y-82293154D01*
X199938950Y-82193571D01*
X199938953Y-82193569D01*
X200104563Y-82124971D01*
X200104562Y-82124971D01*
X200104565Y-82124970D01*
X200255347Y-82094978D01*
X200280373Y-82090000D01*
X200459627Y-82090000D01*
X200484653Y-82094978D01*
X200484653Y-82094978D01*
G37*
G36*
X113655000Y-83495000D02*
X112085000Y-83495000D01*
X112085000Y-82875000D01*
X113655000Y-82875000D01*
X113655000Y-83495000D01*
X113655000Y-83495000D01*
G37*
G36*
X119055000Y-83495000D02*
X117485000Y-83495000D01*
X117485000Y-82875000D01*
X119055000Y-82875000D01*
X119055000Y-83495000D01*
X119055000Y-83495000D01*
G37*
G36*
X100778834Y-81212929D02*
X100896466Y-81236327D01*
X100896469Y-81236328D01*
X100896468Y-81236328D01*
X101043879Y-81297388D01*
X101043882Y-81297390D01*
X101176542Y-81386029D01*
X101289371Y-81498858D01*
X101378010Y-81631518D01*
X101378012Y-81631521D01*
X101427795Y-81751707D01*
X101439073Y-81778934D01*
X101470200Y-81935423D01*
X101470200Y-82094977D01*
X101439073Y-82251466D01*
X101439072Y-82251468D01*
X101378012Y-82398879D01*
X101378010Y-82398882D01*
X101289371Y-82531542D01*
X101176542Y-82644371D01*
X101043882Y-82733010D01*
X101043879Y-82733012D01*
X100952098Y-82771029D01*
X100896466Y-82794073D01*
X100778834Y-82817471D01*
X100739978Y-82825200D01*
X100580422Y-82825200D01*
X100541566Y-82817471D01*
X100423934Y-82794073D01*
X100368302Y-82771029D01*
X100276521Y-82733012D01*
X100276518Y-82733010D01*
X100143858Y-82644371D01*
X100031029Y-82531542D01*
X99942390Y-82398882D01*
X99942388Y-82398879D01*
X99881328Y-82251468D01*
X99881327Y-82251466D01*
X99850200Y-82094977D01*
X99850200Y-81935423D01*
X99881327Y-81778934D01*
X99892605Y-81751707D01*
X99942388Y-81631521D01*
X99942390Y-81631518D01*
X100031029Y-81498858D01*
X100143858Y-81386029D01*
X100276518Y-81297390D01*
X100276521Y-81297388D01*
X100423932Y-81236328D01*
X100423931Y-81236328D01*
X100423934Y-81236327D01*
X100541566Y-81212929D01*
X100580422Y-81205200D01*
X100739978Y-81205200D01*
X100778834Y-81212929D01*
X100778834Y-81212929D01*
G37*
G36*
X97938834Y-79827929D02*
X98056466Y-79851327D01*
X98056469Y-79851328D01*
X98056468Y-79851328D01*
X98203879Y-79912388D01*
X98203882Y-79912390D01*
X98336542Y-80001029D01*
X98449371Y-80113858D01*
X98538010Y-80246518D01*
X98538012Y-80246521D01*
X98587795Y-80366707D01*
X98599073Y-80393934D01*
X98630200Y-80550423D01*
X98630200Y-80709977D01*
X98599073Y-80866466D01*
X98599072Y-80866468D01*
X98538012Y-81013879D01*
X98538010Y-81013882D01*
X98449371Y-81146542D01*
X98336542Y-81259371D01*
X98203882Y-81348010D01*
X98203879Y-81348012D01*
X98112098Y-81386029D01*
X98056466Y-81409073D01*
X97938834Y-81432471D01*
X97899978Y-81440200D01*
X97740422Y-81440200D01*
X97701566Y-81432471D01*
X97583934Y-81409073D01*
X97528302Y-81386029D01*
X97436521Y-81348012D01*
X97436518Y-81348010D01*
X97303858Y-81259371D01*
X97191029Y-81146542D01*
X97102390Y-81013882D01*
X97102388Y-81013879D01*
X97041328Y-80866468D01*
X97041327Y-80866466D01*
X97010200Y-80709977D01*
X97010200Y-80550423D01*
X97041327Y-80393934D01*
X97052605Y-80366707D01*
X97102388Y-80246521D01*
X97102390Y-80246518D01*
X97191029Y-80113858D01*
X97303858Y-80001029D01*
X97436518Y-79912390D01*
X97436521Y-79912388D01*
X97583932Y-79851328D01*
X97583931Y-79851328D01*
X97583934Y-79851327D01*
X97701566Y-79827929D01*
X97740422Y-79820200D01*
X97899978Y-79820200D01*
X97938834Y-79827929D01*
X97938834Y-79827929D01*
G37*
G36*
X100778834Y-78442929D02*
X100896466Y-78466327D01*
X100896469Y-78466328D01*
X100896468Y-78466328D01*
X101043879Y-78527388D01*
X101043882Y-78527390D01*
X101176542Y-78616029D01*
X101289371Y-78728858D01*
X101378010Y-78861518D01*
X101378012Y-78861521D01*
X101427795Y-78981707D01*
X101439073Y-79008934D01*
X101470200Y-79165423D01*
X101470200Y-79324977D01*
X101439073Y-79481466D01*
X101439072Y-79481468D01*
X101378012Y-79628879D01*
X101378010Y-79628882D01*
X101289371Y-79761542D01*
X101176542Y-79874371D01*
X101043882Y-79963010D01*
X101043879Y-79963012D01*
X100952098Y-80001029D01*
X100896466Y-80024073D01*
X100778834Y-80047471D01*
X100739978Y-80055200D01*
X100580422Y-80055200D01*
X100541566Y-80047471D01*
X100423934Y-80024073D01*
X100368302Y-80001029D01*
X100276521Y-79963012D01*
X100276518Y-79963010D01*
X100143858Y-79874371D01*
X100031029Y-79761542D01*
X99942390Y-79628882D01*
X99942388Y-79628879D01*
X99881328Y-79481468D01*
X99881327Y-79481466D01*
X99850200Y-79324977D01*
X99850200Y-79165423D01*
X99881327Y-79008934D01*
X99892605Y-78981707D01*
X99942388Y-78861521D01*
X99942390Y-78861518D01*
X100031029Y-78728858D01*
X100143858Y-78616029D01*
X100276518Y-78527390D01*
X100276521Y-78527388D01*
X100423932Y-78466328D01*
X100423931Y-78466328D01*
X100423934Y-78466327D01*
X100541566Y-78442929D01*
X100580422Y-78435200D01*
X100739978Y-78435200D01*
X100778834Y-78442929D01*
X100778834Y-78442929D01*
G37*
G36*
X97938834Y-77057929D02*
X98056466Y-77081327D01*
X98056469Y-77081328D01*
X98056468Y-77081328D01*
X98203879Y-77142388D01*
X98203882Y-77142390D01*
X98336542Y-77231029D01*
X98449371Y-77343858D01*
X98538010Y-77476518D01*
X98538012Y-77476521D01*
X98587795Y-77596707D01*
X98599073Y-77623934D01*
X98630200Y-77780423D01*
X98630200Y-77939977D01*
X98599073Y-78096466D01*
X98599072Y-78096468D01*
X98538012Y-78243879D01*
X98538010Y-78243882D01*
X98449371Y-78376542D01*
X98336542Y-78489371D01*
X98203882Y-78578010D01*
X98203879Y-78578012D01*
X98112098Y-78616029D01*
X98056466Y-78639073D01*
X97938834Y-78662471D01*
X97899978Y-78670200D01*
X97740422Y-78670200D01*
X97701566Y-78662471D01*
X97583934Y-78639073D01*
X97528302Y-78616029D01*
X97436521Y-78578012D01*
X97436518Y-78578010D01*
X97303858Y-78489371D01*
X97191029Y-78376542D01*
X97102390Y-78243882D01*
X97102388Y-78243879D01*
X97041328Y-78096468D01*
X97041327Y-78096466D01*
X97010200Y-77939977D01*
X97010200Y-77780423D01*
X97041327Y-77623934D01*
X97052605Y-77596707D01*
X97102388Y-77476521D01*
X97102390Y-77476518D01*
X97191029Y-77343858D01*
X97303858Y-77231029D01*
X97436518Y-77142390D01*
X97436521Y-77142388D01*
X97583932Y-77081328D01*
X97583931Y-77081328D01*
X97583934Y-77081327D01*
X97701566Y-77057929D01*
X97740422Y-77050200D01*
X97899978Y-77050200D01*
X97938834Y-77057929D01*
X97938834Y-77057929D01*
G37*
G36*
X100778834Y-75672929D02*
X100896466Y-75696327D01*
X100896469Y-75696328D01*
X100896468Y-75696328D01*
X101043879Y-75757388D01*
X101043882Y-75757390D01*
X101176542Y-75846029D01*
X101289371Y-75958858D01*
X101378010Y-76091518D01*
X101378012Y-76091521D01*
X101427795Y-76211707D01*
X101439073Y-76238934D01*
X101470200Y-76395423D01*
X101470200Y-76554977D01*
X101439073Y-76711466D01*
X101439072Y-76711468D01*
X101378012Y-76858879D01*
X101378010Y-76858882D01*
X101289371Y-76991542D01*
X101176542Y-77104371D01*
X101043882Y-77193010D01*
X101043879Y-77193012D01*
X100952098Y-77231029D01*
X100896466Y-77254073D01*
X100778834Y-77277471D01*
X100739978Y-77285200D01*
X100580422Y-77285200D01*
X100541566Y-77277471D01*
X100423934Y-77254073D01*
X100368302Y-77231029D01*
X100276521Y-77193012D01*
X100276518Y-77193010D01*
X100143858Y-77104371D01*
X100031029Y-76991542D01*
X99942390Y-76858882D01*
X99942388Y-76858879D01*
X99881328Y-76711468D01*
X99881327Y-76711466D01*
X99850200Y-76554977D01*
X99850200Y-76395423D01*
X99881327Y-76238934D01*
X99892605Y-76211707D01*
X99942388Y-76091521D01*
X99942390Y-76091518D01*
X100031029Y-75958858D01*
X100143858Y-75846029D01*
X100276518Y-75757390D01*
X100276521Y-75757388D01*
X100423932Y-75696328D01*
X100423931Y-75696328D01*
X100423934Y-75696327D01*
X100541566Y-75672929D01*
X100580422Y-75665200D01*
X100739978Y-75665200D01*
X100778834Y-75672929D01*
X100778834Y-75672929D01*
G37*
G36*
X98630200Y-75900200D02*
X97010200Y-75900200D01*
X97010200Y-74280200D01*
X98630200Y-74280200D01*
X98630200Y-75900200D01*
X98630200Y-75900200D01*
G37*
G36*
X142779869Y-74104421D02*
X142819435Y-74116423D01*
X142855895Y-74135912D01*
X142887857Y-74162143D01*
X142914088Y-74194105D01*
X142933577Y-74230565D01*
X142945579Y-74270131D01*
X142950000Y-74315020D01*
X142950000Y-75054980D01*
X142945579Y-75099869D01*
X142933577Y-75139435D01*
X142914088Y-75175895D01*
X142887857Y-75207857D01*
X142855895Y-75234088D01*
X142819435Y-75253577D01*
X142779869Y-75265579D01*
X142734980Y-75270000D01*
X141745020Y-75270000D01*
X141700131Y-75265579D01*
X141660565Y-75253577D01*
X141624105Y-75234088D01*
X141592143Y-75207857D01*
X141565912Y-75175895D01*
X141546423Y-75139435D01*
X141534421Y-75099869D01*
X141530000Y-75054980D01*
X141530000Y-74315020D01*
X141534421Y-74270131D01*
X141546423Y-74230565D01*
X141565912Y-74194105D01*
X141592143Y-74162143D01*
X141624105Y-74135912D01*
X141660565Y-74116423D01*
X141700131Y-74104421D01*
X141745020Y-74100000D01*
X142734980Y-74100000D01*
X142779869Y-74104421D01*
X142779869Y-74104421D01*
G37*
G36*
X198910000Y-74910000D02*
X197090000Y-74910000D01*
X197090000Y-73090000D01*
X198910000Y-73090000D01*
X198910000Y-74910000D01*
X198910000Y-74910000D01*
G37*
G36*
X200673280Y-73098683D02*
X200805435Y-73124970D01*
X200805438Y-73124971D01*
X200805437Y-73124971D01*
X200971047Y-73193569D01*
X200971050Y-73193571D01*
X201120088Y-73293154D01*
X201246846Y-73419912D01*
X201346429Y-73568950D01*
X201346431Y-73568953D01*
X201402360Y-73703976D01*
X201415030Y-73734565D01*
X201441317Y-73866720D01*
X201450000Y-73910373D01*
X201450000Y-74089627D01*
X201441317Y-74133280D01*
X201415030Y-74265435D01*
X201415029Y-74265437D01*
X201346431Y-74431047D01*
X201346429Y-74431050D01*
X201246846Y-74580088D01*
X201120088Y-74706846D01*
X200971050Y-74806429D01*
X200971047Y-74806431D01*
X200836024Y-74862360D01*
X200805435Y-74875030D01*
X200673280Y-74901317D01*
X200629627Y-74910000D01*
X200450373Y-74910000D01*
X200406720Y-74901317D01*
X200274565Y-74875030D01*
X200243976Y-74862360D01*
X200108953Y-74806431D01*
X200108950Y-74806429D01*
X199959912Y-74706846D01*
X199833154Y-74580088D01*
X199733571Y-74431050D01*
X199733569Y-74431047D01*
X199664971Y-74265437D01*
X199664970Y-74265435D01*
X199638683Y-74133280D01*
X199630000Y-74089627D01*
X199630000Y-73910373D01*
X199638683Y-73866720D01*
X199664970Y-73734565D01*
X199677640Y-73703976D01*
X199733569Y-73568953D01*
X199733571Y-73568950D01*
X199833154Y-73419912D01*
X199959912Y-73293154D01*
X200108950Y-73193571D01*
X200108953Y-73193569D01*
X200274563Y-73124971D01*
X200274562Y-73124971D01*
X200274565Y-73124970D01*
X200406720Y-73098683D01*
X200450373Y-73090000D01*
X200629627Y-73090000D01*
X200673280Y-73098683D01*
X200673280Y-73098683D01*
G37*
G36*
X142779869Y-72054421D02*
X142819435Y-72066423D01*
X142855895Y-72085912D01*
X142887857Y-72112143D01*
X142914088Y-72144105D01*
X142933577Y-72180565D01*
X142945579Y-72220131D01*
X142950000Y-72265020D01*
X142950000Y-73004980D01*
X142945579Y-73049869D01*
X142933577Y-73089435D01*
X142914088Y-73125895D01*
X142887857Y-73157857D01*
X142855895Y-73184088D01*
X142819435Y-73203577D01*
X142779869Y-73215579D01*
X142734980Y-73220000D01*
X141745020Y-73220000D01*
X141700131Y-73215579D01*
X141660565Y-73203577D01*
X141624105Y-73184088D01*
X141592143Y-73157857D01*
X141565912Y-73125895D01*
X141546423Y-73089435D01*
X141534421Y-73049869D01*
X141530000Y-73004980D01*
X141530000Y-72265020D01*
X141534421Y-72220131D01*
X141546423Y-72180565D01*
X141565912Y-72144105D01*
X141592143Y-72112143D01*
X141624105Y-72085912D01*
X141660565Y-72066423D01*
X141700131Y-72054421D01*
X141745020Y-72050000D01*
X142734980Y-72050000D01*
X142779869Y-72054421D01*
X142779869Y-72054421D01*
G37*
G36*
X169699000Y-72879000D02*
X169279000Y-72879000D01*
X169279000Y-71759000D01*
X169699000Y-71759000D01*
X169699000Y-72879000D01*
X169699000Y-72879000D01*
G37*
G36*
X165149000Y-72879000D02*
X164729000Y-72879000D01*
X164729000Y-71759000D01*
X165149000Y-71759000D01*
X165149000Y-72879000D01*
X165149000Y-72879000D01*
G37*
G36*
X165799000Y-72879000D02*
X165379000Y-72879000D01*
X165379000Y-71759000D01*
X165799000Y-71759000D01*
X165799000Y-72879000D01*
X165799000Y-72879000D01*
G37*
G36*
X167099000Y-72879000D02*
X166679000Y-72879000D01*
X166679000Y-71759000D01*
X167099000Y-71759000D01*
X167099000Y-72879000D01*
X167099000Y-72879000D01*
G37*
G36*
X167749000Y-72879000D02*
X167329000Y-72879000D01*
X167329000Y-71759000D01*
X167749000Y-71759000D01*
X167749000Y-72879000D01*
X167749000Y-72879000D01*
G37*
G36*
X168399000Y-72879000D02*
X167979000Y-72879000D01*
X167979000Y-71759000D01*
X168399000Y-71759000D01*
X168399000Y-72879000D01*
X168399000Y-72879000D01*
G37*
G36*
X169049000Y-72879000D02*
X168629000Y-72879000D01*
X168629000Y-71759000D01*
X169049000Y-71759000D01*
X169049000Y-72879000D01*
X169049000Y-72879000D01*
G37*
G36*
X170349000Y-72879000D02*
X169929000Y-72879000D01*
X169929000Y-71759000D01*
X170349000Y-71759000D01*
X170349000Y-72879000D01*
X170349000Y-72879000D01*
G37*
G36*
X170999000Y-72879000D02*
X170579000Y-72879000D01*
X170579000Y-71759000D01*
X170999000Y-71759000D01*
X170999000Y-72879000D01*
X170999000Y-72879000D01*
G37*
G36*
X171649000Y-72879000D02*
X171229000Y-72879000D01*
X171229000Y-71759000D01*
X171649000Y-71759000D01*
X171649000Y-72879000D01*
X171649000Y-72879000D01*
G37*
G36*
X172299000Y-72879000D02*
X171879000Y-72879000D01*
X171879000Y-71759000D01*
X172299000Y-71759000D01*
X172299000Y-72879000D01*
X172299000Y-72879000D01*
G37*
G36*
X172949000Y-72879000D02*
X172529000Y-72879000D01*
X172529000Y-71759000D01*
X172949000Y-71759000D01*
X172949000Y-72879000D01*
X172949000Y-72879000D01*
G37*
G36*
X173599000Y-72879000D02*
X173179000Y-72879000D01*
X173179000Y-71759000D01*
X173599000Y-71759000D01*
X173599000Y-72879000D01*
X173599000Y-72879000D01*
G37*
G36*
X166449000Y-72879000D02*
X166029000Y-72879000D01*
X166029000Y-71759000D01*
X166449000Y-71759000D01*
X166449000Y-72879000D01*
X166449000Y-72879000D01*
G37*
G36*
X172249000Y-70669000D02*
X166079000Y-70669000D01*
X166079000Y-68269000D01*
X172249000Y-68269000D01*
X172249000Y-70669000D01*
X172249000Y-70669000D01*
G37*
G36*
X146473521Y-70161689D02*
X146282602Y-70352608D01*
X145349221Y-69419227D01*
X145540140Y-69228308D01*
X146473521Y-70161689D01*
X146473521Y-70161689D01*
G37*
G36*
X144210779Y-69419227D02*
X143277398Y-70352608D01*
X143086479Y-70161689D01*
X144019860Y-69228308D01*
X144210779Y-69419227D01*
X144210779Y-69419227D01*
G37*
G36*
X99826496Y-66197443D02*
X100192292Y-66348961D01*
X100521501Y-66568931D01*
X100801469Y-66848899D01*
X101021439Y-67178108D01*
X101172957Y-67543904D01*
X101250200Y-67932232D01*
X101250200Y-68328168D01*
X101172957Y-68716496D01*
X101021439Y-69082292D01*
X100801469Y-69411501D01*
X100521501Y-69691469D01*
X100192292Y-69911439D01*
X99826496Y-70062957D01*
X99438168Y-70140200D01*
X99042232Y-70140200D01*
X98653904Y-70062957D01*
X98288108Y-69911439D01*
X97958899Y-69691469D01*
X97678931Y-69411501D01*
X97458961Y-69082292D01*
X97307443Y-68716496D01*
X97230200Y-68328168D01*
X97230200Y-67932232D01*
X97307443Y-67543904D01*
X97458961Y-67178108D01*
X97678931Y-66848899D01*
X97958899Y-66568931D01*
X98288108Y-66348961D01*
X98653904Y-66197443D01*
X99042232Y-66120200D01*
X99438168Y-66120200D01*
X99826496Y-66197443D01*
X99826496Y-66197443D01*
G37*
G36*
X143857226Y-69065674D02*
X142923845Y-69999055D01*
X142732926Y-69808136D01*
X143666307Y-68874755D01*
X143857226Y-69065674D01*
X143857226Y-69065674D01*
G37*
G36*
X146827074Y-69808136D02*
X146636155Y-69999055D01*
X145702774Y-69065674D01*
X145893693Y-68874755D01*
X146827074Y-69808136D01*
X146827074Y-69808136D01*
G37*
G36*
X147180628Y-69454582D02*
X146989709Y-69645501D01*
X146056328Y-68712120D01*
X146247247Y-68521201D01*
X147180628Y-69454582D01*
X147180628Y-69454582D01*
G37*
G36*
X143503672Y-68712120D02*
X142570291Y-69645501D01*
X142379372Y-69454582D01*
X143312753Y-68521201D01*
X143503672Y-68712120D01*
X143503672Y-68712120D01*
G37*
G36*
X147534181Y-69101029D02*
X147343262Y-69291948D01*
X146409881Y-68358567D01*
X146600800Y-68167648D01*
X147534181Y-69101029D01*
X147534181Y-69101029D01*
G37*
G36*
X143150119Y-68358567D02*
X142216738Y-69291948D01*
X142025819Y-69101029D01*
X142959200Y-68167648D01*
X143150119Y-68358567D01*
X143150119Y-68358567D01*
G37*
G36*
X142796566Y-68005014D02*
X141863185Y-68938395D01*
X141672266Y-68747476D01*
X142605647Y-67814095D01*
X142796566Y-68005014D01*
X142796566Y-68005014D01*
G37*
G36*
X147887734Y-68747476D02*
X147696815Y-68938395D01*
X146763434Y-68005014D01*
X146954353Y-67814095D01*
X147887734Y-68747476D01*
X147887734Y-68747476D01*
G37*
G36*
X142443012Y-67651460D02*
X141509631Y-68584841D01*
X141318712Y-68393922D01*
X142252093Y-67460541D01*
X142443012Y-67651460D01*
X142443012Y-67651460D01*
G37*
G36*
X148241288Y-68393922D02*
X148050369Y-68584841D01*
X147116988Y-67651460D01*
X147307907Y-67460541D01*
X148241288Y-68393922D01*
X148241288Y-68393922D01*
G37*
G36*
X152297869Y-66985421D02*
X152337435Y-66997423D01*
X152373895Y-67016912D01*
X152405857Y-67043143D01*
X152432088Y-67075105D01*
X152451577Y-67111565D01*
X152463579Y-67151131D01*
X152468000Y-67196020D01*
X152468000Y-68185980D01*
X152463579Y-68230869D01*
X152451577Y-68270435D01*
X152432088Y-68306895D01*
X152405857Y-68338857D01*
X152373895Y-68365088D01*
X152337435Y-68384577D01*
X152297869Y-68396579D01*
X152252980Y-68401000D01*
X151513020Y-68401000D01*
X151468131Y-68396579D01*
X151428565Y-68384577D01*
X151392105Y-68365088D01*
X151360143Y-68338857D01*
X151333912Y-68306895D01*
X151314423Y-68270435D01*
X151302421Y-68230869D01*
X151298000Y-68185980D01*
X151298000Y-67196020D01*
X151302421Y-67151131D01*
X151314423Y-67111565D01*
X151333912Y-67075105D01*
X151360143Y-67043143D01*
X151392105Y-67016912D01*
X151428565Y-66997423D01*
X151468131Y-66985421D01*
X151513020Y-66981000D01*
X152252980Y-66981000D01*
X152297869Y-66985421D01*
X152297869Y-66985421D01*
G37*
G36*
X154347869Y-66985421D02*
X154387435Y-66997423D01*
X154423895Y-67016912D01*
X154455857Y-67043143D01*
X154482088Y-67075105D01*
X154501577Y-67111565D01*
X154513579Y-67151131D01*
X154518000Y-67196020D01*
X154518000Y-68185980D01*
X154513579Y-68230869D01*
X154501577Y-68270435D01*
X154482088Y-68306895D01*
X154455857Y-68338857D01*
X154423895Y-68365088D01*
X154387435Y-68384577D01*
X154347869Y-68396579D01*
X154302980Y-68401000D01*
X153563020Y-68401000D01*
X153518131Y-68396579D01*
X153478565Y-68384577D01*
X153442105Y-68365088D01*
X153410143Y-68338857D01*
X153383912Y-68306895D01*
X153364423Y-68270435D01*
X153352421Y-68230869D01*
X153348000Y-68185980D01*
X153348000Y-67196020D01*
X153352421Y-67151131D01*
X153364423Y-67111565D01*
X153383912Y-67075105D01*
X153410143Y-67043143D01*
X153442105Y-67016912D01*
X153478565Y-66997423D01*
X153518131Y-66985421D01*
X153563020Y-66981000D01*
X154302980Y-66981000D01*
X154347869Y-66985421D01*
X154347869Y-66985421D01*
G37*
G36*
X142089459Y-67297907D02*
X141156078Y-68231288D01*
X140965159Y-68040369D01*
X141898540Y-67106988D01*
X142089459Y-67297907D01*
X142089459Y-67297907D01*
G37*
G36*
X148594841Y-68040369D02*
X148403922Y-68231288D01*
X147470541Y-67297907D01*
X147661460Y-67106988D01*
X148594841Y-68040369D01*
X148594841Y-68040369D01*
G37*
G36*
X148948395Y-67686815D02*
X148757476Y-67877734D01*
X147824095Y-66944353D01*
X148015014Y-66753434D01*
X148948395Y-67686815D01*
X148948395Y-67686815D01*
G37*
G36*
X141735905Y-66944353D02*
X140802524Y-67877734D01*
X140611605Y-67686815D01*
X141544986Y-66753434D01*
X141735905Y-66944353D01*
X141735905Y-66944353D01*
G37*
G36*
X149301948Y-67333262D02*
X149111029Y-67524181D01*
X148177648Y-66590800D01*
X148368567Y-66399881D01*
X149301948Y-67333262D01*
X149301948Y-67333262D01*
G37*
G36*
X141382352Y-66590800D02*
X140448971Y-67524181D01*
X140258052Y-67333262D01*
X141191433Y-66399881D01*
X141382352Y-66590800D01*
X141382352Y-66590800D01*
G37*
G36*
X165149000Y-67179000D02*
X164729000Y-67179000D01*
X164729000Y-66059000D01*
X165149000Y-66059000D01*
X165149000Y-67179000D01*
X165149000Y-67179000D01*
G37*
G36*
X165799000Y-67179000D02*
X165379000Y-67179000D01*
X165379000Y-66059000D01*
X165799000Y-66059000D01*
X165799000Y-67179000D01*
X165799000Y-67179000D01*
G37*
G36*
X166449000Y-67179000D02*
X166029000Y-67179000D01*
X166029000Y-66059000D01*
X166449000Y-66059000D01*
X166449000Y-67179000D01*
X166449000Y-67179000D01*
G37*
G36*
X167099000Y-67179000D02*
X166679000Y-67179000D01*
X166679000Y-66059000D01*
X167099000Y-66059000D01*
X167099000Y-67179000D01*
X167099000Y-67179000D01*
G37*
G36*
X167749000Y-67179000D02*
X167329000Y-67179000D01*
X167329000Y-66059000D01*
X167749000Y-66059000D01*
X167749000Y-67179000D01*
X167749000Y-67179000D01*
G37*
G36*
X168399000Y-67179000D02*
X167979000Y-67179000D01*
X167979000Y-66059000D01*
X168399000Y-66059000D01*
X168399000Y-67179000D01*
X168399000Y-67179000D01*
G37*
G36*
X169049000Y-67179000D02*
X168629000Y-67179000D01*
X168629000Y-66059000D01*
X169049000Y-66059000D01*
X169049000Y-67179000D01*
X169049000Y-67179000D01*
G37*
G36*
X170349000Y-67179000D02*
X169929000Y-67179000D01*
X169929000Y-66059000D01*
X170349000Y-66059000D01*
X170349000Y-67179000D01*
X170349000Y-67179000D01*
G37*
G36*
X169699000Y-67179000D02*
X169279000Y-67179000D01*
X169279000Y-66059000D01*
X169699000Y-66059000D01*
X169699000Y-67179000D01*
X169699000Y-67179000D01*
G37*
G36*
X172299000Y-67179000D02*
X171879000Y-67179000D01*
X171879000Y-66059000D01*
X172299000Y-66059000D01*
X172299000Y-67179000D01*
X172299000Y-67179000D01*
G37*
G36*
X173599000Y-67179000D02*
X173179000Y-67179000D01*
X173179000Y-66059000D01*
X173599000Y-66059000D01*
X173599000Y-67179000D01*
X173599000Y-67179000D01*
G37*
G36*
X170999000Y-67179000D02*
X170579000Y-67179000D01*
X170579000Y-66059000D01*
X170999000Y-66059000D01*
X170999000Y-67179000D01*
X170999000Y-67179000D01*
G37*
G36*
X171649000Y-67179000D02*
X171229000Y-67179000D01*
X171229000Y-66059000D01*
X171649000Y-66059000D01*
X171649000Y-67179000D01*
X171649000Y-67179000D01*
G37*
G36*
X172949000Y-67179000D02*
X172529000Y-67179000D01*
X172529000Y-66059000D01*
X172949000Y-66059000D01*
X172949000Y-67179000D01*
X172949000Y-67179000D01*
G37*
G36*
X149655501Y-66979709D02*
X149464582Y-67170628D01*
X148531201Y-66237247D01*
X148722120Y-66046328D01*
X149655501Y-66979709D01*
X149655501Y-66979709D01*
G37*
G36*
X141028799Y-66237247D02*
X140095418Y-67170628D01*
X139904499Y-66979709D01*
X140837880Y-66046328D01*
X141028799Y-66237247D01*
X141028799Y-66237247D01*
G37*
G36*
X150009055Y-66626155D02*
X149818136Y-66817074D01*
X148884755Y-65883693D01*
X149075674Y-65692774D01*
X150009055Y-66626155D01*
X150009055Y-66626155D01*
G37*
G36*
X140675245Y-65883693D02*
X139741864Y-66817074D01*
X139550945Y-66626155D01*
X140484326Y-65692774D01*
X140675245Y-65883693D01*
X140675245Y-65883693D01*
G37*
G36*
X150362608Y-66272602D02*
X150171689Y-66463521D01*
X149238308Y-65530140D01*
X149429227Y-65339221D01*
X150362608Y-66272602D01*
X150362608Y-66272602D01*
G37*
G36*
X140321692Y-65530140D02*
X139388311Y-66463521D01*
X139197392Y-66272602D01*
X140130773Y-65339221D01*
X140321692Y-65530140D01*
X140321692Y-65530140D01*
G37*
G36*
X200503280Y-64008683D02*
X200635435Y-64034970D01*
X200635438Y-64034971D01*
X200635437Y-64034971D01*
X200801047Y-64103569D01*
X200801050Y-64103571D01*
X200950088Y-64203154D01*
X201076846Y-64329912D01*
X201149794Y-64439088D01*
X201176431Y-64478953D01*
X201232360Y-64613976D01*
X201245030Y-64644565D01*
X201280000Y-64820374D01*
X201280000Y-64999626D01*
X201245030Y-65175435D01*
X201245029Y-65175437D01*
X201176431Y-65341047D01*
X201176429Y-65341050D01*
X201076846Y-65490088D01*
X200950088Y-65616846D01*
X200836451Y-65692775D01*
X200801047Y-65716431D01*
X200666024Y-65772360D01*
X200635435Y-65785030D01*
X200503280Y-65811317D01*
X200459627Y-65820000D01*
X200280373Y-65820000D01*
X200236720Y-65811317D01*
X200104565Y-65785030D01*
X200073976Y-65772360D01*
X199938953Y-65716431D01*
X199903549Y-65692775D01*
X199789912Y-65616846D01*
X199663154Y-65490088D01*
X199563571Y-65341050D01*
X199563569Y-65341047D01*
X199494971Y-65175437D01*
X199494970Y-65175435D01*
X199460000Y-64999626D01*
X199460000Y-64820374D01*
X199494970Y-64644565D01*
X199507640Y-64613976D01*
X199563569Y-64478953D01*
X199590206Y-64439088D01*
X199663154Y-64329912D01*
X199789912Y-64203154D01*
X199938950Y-64103571D01*
X199938953Y-64103569D01*
X200104563Y-64034971D01*
X200104562Y-64034971D01*
X200104565Y-64034970D01*
X200236720Y-64008683D01*
X200280373Y-64000000D01*
X200459627Y-64000000D01*
X200503280Y-64008683D01*
X200503280Y-64008683D01*
G37*
G36*
X198740000Y-65820000D02*
X196920000Y-65820000D01*
X196920000Y-64000000D01*
X198740000Y-64000000D01*
X198740000Y-65820000D01*
X198740000Y-65820000D01*
G37*
G36*
X166147869Y-63309421D02*
X166187435Y-63321423D01*
X166223895Y-63340912D01*
X166255857Y-63367143D01*
X166282088Y-63399105D01*
X166301577Y-63435565D01*
X166313579Y-63475131D01*
X166318000Y-63520020D01*
X166318000Y-64259980D01*
X166313579Y-64304869D01*
X166301577Y-64344435D01*
X166282088Y-64380895D01*
X166255857Y-64412857D01*
X166223895Y-64439088D01*
X166187435Y-64458577D01*
X166147869Y-64470579D01*
X166102980Y-64475000D01*
X165113020Y-64475000D01*
X165068131Y-64470579D01*
X165028565Y-64458577D01*
X164992105Y-64439088D01*
X164960143Y-64412857D01*
X164933912Y-64380895D01*
X164914423Y-64344435D01*
X164902421Y-64304869D01*
X164898000Y-64259980D01*
X164898000Y-63520020D01*
X164902421Y-63475131D01*
X164914423Y-63435565D01*
X164933912Y-63399105D01*
X164960143Y-63367143D01*
X164992105Y-63340912D01*
X165028565Y-63321423D01*
X165068131Y-63309421D01*
X165113020Y-63305000D01*
X166102980Y-63305000D01*
X166147869Y-63309421D01*
X166147869Y-63309421D01*
G37*
G36*
X150362608Y-63267398D02*
X149429227Y-64200779D01*
X149238308Y-64009860D01*
X150171689Y-63076479D01*
X150362608Y-63267398D01*
X150362608Y-63267398D01*
G37*
G36*
X140321692Y-64009860D02*
X140130773Y-64200779D01*
X139197392Y-63267398D01*
X139388311Y-63076479D01*
X140321692Y-64009860D01*
X140321692Y-64009860D01*
G37*
G36*
X150009055Y-62913845D02*
X149075674Y-63847226D01*
X148884755Y-63656307D01*
X149818136Y-62722926D01*
X150009055Y-62913845D01*
X150009055Y-62913845D01*
G37*
G36*
X140675245Y-63656307D02*
X140484326Y-63847226D01*
X139550945Y-62913845D01*
X139741864Y-62722926D01*
X140675245Y-63656307D01*
X140675245Y-63656307D01*
G37*
G36*
X141028799Y-63302753D02*
X140837880Y-63493672D01*
X139904499Y-62560291D01*
X140095418Y-62369372D01*
X141028799Y-63302753D01*
X141028799Y-63302753D01*
G37*
G36*
X149655501Y-62560291D02*
X148722120Y-63493672D01*
X148531201Y-63302753D01*
X149464582Y-62369372D01*
X149655501Y-62560291D01*
X149655501Y-62560291D01*
G37*
G36*
X141382352Y-62949200D02*
X141191433Y-63140119D01*
X140258052Y-62206738D01*
X140448971Y-62015819D01*
X141382352Y-62949200D01*
X141382352Y-62949200D01*
G37*
G36*
X149301948Y-62206738D02*
X148368567Y-63140119D01*
X148177648Y-62949200D01*
X149111029Y-62015819D01*
X149301948Y-62206738D01*
X149301948Y-62206738D01*
G37*
G36*
X135279869Y-61524421D02*
X135319435Y-61536423D01*
X135355895Y-61555912D01*
X135387857Y-61582143D01*
X135414088Y-61614105D01*
X135433577Y-61650565D01*
X135445579Y-61690131D01*
X135450000Y-61735020D01*
X135450000Y-62724980D01*
X135445579Y-62769869D01*
X135433577Y-62809435D01*
X135414088Y-62845895D01*
X135387857Y-62877857D01*
X135355895Y-62904088D01*
X135319435Y-62923577D01*
X135279869Y-62935579D01*
X135234980Y-62940000D01*
X134495020Y-62940000D01*
X134450131Y-62935579D01*
X134410565Y-62923577D01*
X134374105Y-62904088D01*
X134342143Y-62877857D01*
X134315912Y-62845895D01*
X134296423Y-62809435D01*
X134284421Y-62769869D01*
X134280000Y-62724980D01*
X134280000Y-61735020D01*
X134284421Y-61690131D01*
X134296423Y-61650565D01*
X134315912Y-61614105D01*
X134342143Y-61582143D01*
X134374105Y-61555912D01*
X134410565Y-61536423D01*
X134450131Y-61524421D01*
X134495020Y-61520000D01*
X135234980Y-61520000D01*
X135279869Y-61524421D01*
X135279869Y-61524421D01*
G37*
G36*
X137329869Y-61524421D02*
X137369435Y-61536423D01*
X137405895Y-61555912D01*
X137437857Y-61582143D01*
X137464088Y-61614105D01*
X137483577Y-61650565D01*
X137495579Y-61690131D01*
X137500000Y-61735020D01*
X137500000Y-62724980D01*
X137495579Y-62769869D01*
X137483577Y-62809435D01*
X137464088Y-62845895D01*
X137437857Y-62877857D01*
X137405895Y-62904088D01*
X137369435Y-62923577D01*
X137329869Y-62935579D01*
X137284980Y-62940000D01*
X136545020Y-62940000D01*
X136500131Y-62935579D01*
X136460565Y-62923577D01*
X136424105Y-62904088D01*
X136392143Y-62877857D01*
X136365912Y-62845895D01*
X136346423Y-62809435D01*
X136334421Y-62769869D01*
X136330000Y-62724980D01*
X136330000Y-61735020D01*
X136334421Y-61690131D01*
X136346423Y-61650565D01*
X136365912Y-61614105D01*
X136392143Y-61582143D01*
X136424105Y-61555912D01*
X136460565Y-61536423D01*
X136500131Y-61524421D01*
X136545020Y-61520000D01*
X137284980Y-61520000D01*
X137329869Y-61524421D01*
X137329869Y-61524421D01*
G37*
G36*
X148948395Y-61853185D02*
X148015014Y-62786566D01*
X147824095Y-62595647D01*
X148757476Y-61662266D01*
X148948395Y-61853185D01*
X148948395Y-61853185D01*
G37*
G36*
X141735905Y-62595647D02*
X141544986Y-62786566D01*
X140611605Y-61853185D01*
X140802524Y-61662266D01*
X141735905Y-62595647D01*
X141735905Y-62595647D01*
G37*
G36*
X148594841Y-61499631D02*
X147661460Y-62433012D01*
X147470541Y-62242093D01*
X148403922Y-61308712D01*
X148594841Y-61499631D01*
X148594841Y-61499631D01*
G37*
G36*
X142089459Y-62242093D02*
X141898540Y-62433012D01*
X140965159Y-61499631D01*
X141156078Y-61308712D01*
X142089459Y-62242093D01*
X142089459Y-62242093D01*
G37*
G36*
X166147869Y-61259421D02*
X166187435Y-61271423D01*
X166223895Y-61290912D01*
X166255857Y-61317143D01*
X166282088Y-61349105D01*
X166301577Y-61385565D01*
X166313579Y-61425131D01*
X166318000Y-61470020D01*
X166318000Y-62209980D01*
X166313579Y-62254869D01*
X166301577Y-62294435D01*
X166282088Y-62330895D01*
X166255857Y-62362857D01*
X166223895Y-62389088D01*
X166187435Y-62408577D01*
X166147869Y-62420579D01*
X166102980Y-62425000D01*
X165113020Y-62425000D01*
X165068131Y-62420579D01*
X165028565Y-62408577D01*
X164992105Y-62389088D01*
X164960143Y-62362857D01*
X164933912Y-62330895D01*
X164914423Y-62294435D01*
X164902421Y-62254869D01*
X164898000Y-62209980D01*
X164898000Y-61470020D01*
X164902421Y-61425131D01*
X164914423Y-61385565D01*
X164933912Y-61349105D01*
X164960143Y-61317143D01*
X164992105Y-61290912D01*
X165028565Y-61271423D01*
X165068131Y-61259421D01*
X165113020Y-61255000D01*
X166102980Y-61255000D01*
X166147869Y-61259421D01*
X166147869Y-61259421D01*
G37*
G36*
X142443012Y-61888540D02*
X142252093Y-62079459D01*
X141318712Y-61146078D01*
X141509631Y-60955159D01*
X142443012Y-61888540D01*
X142443012Y-61888540D01*
G37*
G36*
X148241288Y-61146078D02*
X147307907Y-62079459D01*
X147116988Y-61888540D01*
X148050369Y-60955159D01*
X148241288Y-61146078D01*
X148241288Y-61146078D01*
G37*
G36*
X142796566Y-61534986D02*
X142605647Y-61725905D01*
X141672266Y-60792524D01*
X141863185Y-60601605D01*
X142796566Y-61534986D01*
X142796566Y-61534986D01*
G37*
G36*
X147887734Y-60792524D02*
X146954353Y-61725905D01*
X146763434Y-61534986D01*
X147696815Y-60601605D01*
X147887734Y-60792524D01*
X147887734Y-60792524D01*
G37*
G36*
X143150119Y-61181433D02*
X142959200Y-61372352D01*
X142025819Y-60438971D01*
X142216738Y-60248052D01*
X143150119Y-61181433D01*
X143150119Y-61181433D01*
G37*
G36*
X147534181Y-60438971D02*
X146600800Y-61372352D01*
X146409881Y-61181433D01*
X147343262Y-60248052D01*
X147534181Y-60438971D01*
X147534181Y-60438971D01*
G37*
G36*
X143503672Y-60827880D02*
X143312753Y-61018799D01*
X142379372Y-60085418D01*
X142570291Y-59894499D01*
X143503672Y-60827880D01*
X143503672Y-60827880D01*
G37*
G36*
X147180628Y-60085418D02*
X146247247Y-61018799D01*
X146056328Y-60827880D01*
X146989709Y-59894499D01*
X147180628Y-60085418D01*
X147180628Y-60085418D01*
G37*
G36*
X143857226Y-60474326D02*
X143666307Y-60665245D01*
X142732926Y-59731864D01*
X142923845Y-59540945D01*
X143857226Y-60474326D01*
X143857226Y-60474326D01*
G37*
G36*
X146827074Y-59731864D02*
X145893693Y-60665245D01*
X145702774Y-60474326D01*
X146636155Y-59540945D01*
X146827074Y-59731864D01*
X146827074Y-59731864D01*
G37*
G36*
X144210779Y-60120773D02*
X144019860Y-60311692D01*
X143086479Y-59378311D01*
X143277398Y-59187392D01*
X144210779Y-60120773D01*
X144210779Y-60120773D01*
G37*
G36*
X146473521Y-59378311D02*
X145540140Y-60311692D01*
X145349221Y-60120773D01*
X146282602Y-59187392D01*
X146473521Y-59378311D01*
X146473521Y-59378311D01*
G37*
G36*
X149249869Y-57714421D02*
X149289435Y-57726423D01*
X149325895Y-57745912D01*
X149357857Y-57772143D01*
X149384088Y-57804105D01*
X149403577Y-57840565D01*
X149415579Y-57880131D01*
X149420000Y-57925020D01*
X149420000Y-58914980D01*
X149415579Y-58959869D01*
X149403577Y-58999435D01*
X149384088Y-59035895D01*
X149357857Y-59067857D01*
X149325895Y-59094088D01*
X149289435Y-59113577D01*
X149249869Y-59125579D01*
X149204980Y-59130000D01*
X148465020Y-59130000D01*
X148420131Y-59125579D01*
X148380565Y-59113577D01*
X148344105Y-59094088D01*
X148312143Y-59067857D01*
X148285912Y-59035895D01*
X148266423Y-58999435D01*
X148254421Y-58959869D01*
X148250000Y-58914980D01*
X148250000Y-57925020D01*
X148254421Y-57880131D01*
X148266423Y-57840565D01*
X148285912Y-57804105D01*
X148312143Y-57772143D01*
X148344105Y-57745912D01*
X148380565Y-57726423D01*
X148420131Y-57714421D01*
X148465020Y-57710000D01*
X149204980Y-57710000D01*
X149249869Y-57714421D01*
X149249869Y-57714421D01*
G37*
G36*
X151299869Y-57714421D02*
X151339435Y-57726423D01*
X151375895Y-57745912D01*
X151407857Y-57772143D01*
X151434088Y-57804105D01*
X151453577Y-57840565D01*
X151465579Y-57880131D01*
X151470000Y-57925020D01*
X151470000Y-58914980D01*
X151465579Y-58959869D01*
X151453577Y-58999435D01*
X151434088Y-59035895D01*
X151407857Y-59067857D01*
X151375895Y-59094088D01*
X151339435Y-59113577D01*
X151299869Y-59125579D01*
X151254980Y-59130000D01*
X150515020Y-59130000D01*
X150470131Y-59125579D01*
X150430565Y-59113577D01*
X150394105Y-59094088D01*
X150362143Y-59067857D01*
X150335912Y-59035895D01*
X150316423Y-58999435D01*
X150304421Y-58959869D01*
X150300000Y-58914980D01*
X150300000Y-57925020D01*
X150304421Y-57880131D01*
X150316423Y-57840565D01*
X150335912Y-57804105D01*
X150362143Y-57772143D01*
X150394105Y-57745912D01*
X150430565Y-57726423D01*
X150470131Y-57714421D01*
X150515020Y-57710000D01*
X151254980Y-57710000D01*
X151299869Y-57714421D01*
X151299869Y-57714421D01*
G37*
G36*
X158919869Y-57714421D02*
X158959435Y-57726423D01*
X158995895Y-57745912D01*
X159027857Y-57772143D01*
X159054088Y-57804105D01*
X159073577Y-57840565D01*
X159085579Y-57880131D01*
X159090000Y-57925020D01*
X159090000Y-58914980D01*
X159085579Y-58959869D01*
X159073577Y-58999435D01*
X159054088Y-59035895D01*
X159027857Y-59067857D01*
X158995895Y-59094088D01*
X158959435Y-59113577D01*
X158919869Y-59125579D01*
X158874980Y-59130000D01*
X158135020Y-59130000D01*
X158090131Y-59125579D01*
X158050565Y-59113577D01*
X158014105Y-59094088D01*
X157982143Y-59067857D01*
X157955912Y-59035895D01*
X157936423Y-58999435D01*
X157924421Y-58959869D01*
X157920000Y-58914980D01*
X157920000Y-57925020D01*
X157924421Y-57880131D01*
X157936423Y-57840565D01*
X157955912Y-57804105D01*
X157982143Y-57772143D01*
X158014105Y-57745912D01*
X158050565Y-57726423D01*
X158090131Y-57714421D01*
X158135020Y-57710000D01*
X158874980Y-57710000D01*
X158919869Y-57714421D01*
X158919869Y-57714421D01*
G37*
G36*
X156869869Y-57714421D02*
X156909435Y-57726423D01*
X156945895Y-57745912D01*
X156977857Y-57772143D01*
X157004088Y-57804105D01*
X157023577Y-57840565D01*
X157035579Y-57880131D01*
X157040000Y-57925020D01*
X157040000Y-58914980D01*
X157035579Y-58959869D01*
X157023577Y-58999435D01*
X157004088Y-59035895D01*
X156977857Y-59067857D01*
X156945895Y-59094088D01*
X156909435Y-59113577D01*
X156869869Y-59125579D01*
X156824980Y-59130000D01*
X156085020Y-59130000D01*
X156040131Y-59125579D01*
X156000565Y-59113577D01*
X155964105Y-59094088D01*
X155932143Y-59067857D01*
X155905912Y-59035895D01*
X155886423Y-58999435D01*
X155874421Y-58959869D01*
X155870000Y-58914980D01*
X155870000Y-57925020D01*
X155874421Y-57880131D01*
X155886423Y-57840565D01*
X155905912Y-57804105D01*
X155932143Y-57772143D01*
X155964105Y-57745912D01*
X156000565Y-57726423D01*
X156040131Y-57714421D01*
X156085020Y-57710000D01*
X156824980Y-57710000D01*
X156869869Y-57714421D01*
X156869869Y-57714421D01*
G37*
G36*
X151905690Y-54999282D02*
X151943899Y-55010872D01*
X151979110Y-55029694D01*
X152009976Y-55055024D01*
X152035306Y-55085890D01*
X152054128Y-55121101D01*
X152065718Y-55159310D01*
X152070000Y-55202789D01*
X152070000Y-56557211D01*
X152065718Y-56600690D01*
X152054128Y-56638899D01*
X152035306Y-56674110D01*
X152009976Y-56704976D01*
X151979110Y-56730306D01*
X151943899Y-56749128D01*
X151905690Y-56760718D01*
X151862211Y-56765000D01*
X150832789Y-56765000D01*
X150789310Y-56760718D01*
X150751101Y-56749128D01*
X150715890Y-56730306D01*
X150685024Y-56704976D01*
X150659694Y-56674110D01*
X150640872Y-56638899D01*
X150629282Y-56600690D01*
X150625000Y-56557211D01*
X150625000Y-55202789D01*
X150629282Y-55159310D01*
X150640872Y-55121101D01*
X150659694Y-55085890D01*
X150685024Y-55055024D01*
X150715890Y-55029694D01*
X150751101Y-55010872D01*
X150789310Y-54999282D01*
X150832789Y-54995000D01*
X151862211Y-54995000D01*
X151905690Y-54999282D01*
X151905690Y-54999282D01*
G37*
G36*
X148930690Y-54999282D02*
X148968899Y-55010872D01*
X149004110Y-55029694D01*
X149034976Y-55055024D01*
X149060306Y-55085890D01*
X149079128Y-55121101D01*
X149090718Y-55159310D01*
X149095000Y-55202789D01*
X149095000Y-56557211D01*
X149090718Y-56600690D01*
X149079128Y-56638899D01*
X149060306Y-56674110D01*
X149034976Y-56704976D01*
X149004110Y-56730306D01*
X148968899Y-56749128D01*
X148930690Y-56760718D01*
X148887211Y-56765000D01*
X147857789Y-56765000D01*
X147814310Y-56760718D01*
X147776101Y-56749128D01*
X147740890Y-56730306D01*
X147710024Y-56704976D01*
X147684694Y-56674110D01*
X147665872Y-56638899D01*
X147654282Y-56600690D01*
X147650000Y-56557211D01*
X147650000Y-55202789D01*
X147654282Y-55159310D01*
X147665872Y-55121101D01*
X147684694Y-55085890D01*
X147710024Y-55055024D01*
X147740890Y-55029694D01*
X147776101Y-55010872D01*
X147814310Y-54999282D01*
X147857789Y-54995000D01*
X148887211Y-54995000D01*
X148930690Y-54999282D01*
X148930690Y-54999282D01*
G37*
G36*
X99418190Y-54364282D02*
X99456399Y-54375872D01*
X99491610Y-54394694D01*
X99522476Y-54420024D01*
X99547806Y-54450890D01*
X99566628Y-54486101D01*
X99578218Y-54524310D01*
X99582500Y-54567789D01*
X99582500Y-55922211D01*
X99578218Y-55965690D01*
X99566628Y-56003899D01*
X99547806Y-56039110D01*
X99522476Y-56069976D01*
X99491610Y-56095306D01*
X99456399Y-56114128D01*
X99418190Y-56125718D01*
X99374711Y-56130000D01*
X98345289Y-56130000D01*
X98301810Y-56125718D01*
X98263601Y-56114128D01*
X98228390Y-56095306D01*
X98197524Y-56069976D01*
X98172194Y-56039110D01*
X98153372Y-56003899D01*
X98141782Y-55965690D01*
X98137500Y-55922211D01*
X98137500Y-54567789D01*
X98141782Y-54524310D01*
X98153372Y-54486101D01*
X98172194Y-54450890D01*
X98197524Y-54420024D01*
X98228390Y-54394694D01*
X98263601Y-54375872D01*
X98301810Y-54364282D01*
X98345289Y-54360000D01*
X99374711Y-54360000D01*
X99418190Y-54364282D01*
X99418190Y-54364282D01*
G37*
G36*
X96443190Y-54364282D02*
X96481399Y-54375872D01*
X96516610Y-54394694D01*
X96547476Y-54420024D01*
X96572806Y-54450890D01*
X96591628Y-54486101D01*
X96603218Y-54524310D01*
X96607500Y-54567789D01*
X96607500Y-55922211D01*
X96603218Y-55965690D01*
X96591628Y-56003899D01*
X96572806Y-56039110D01*
X96547476Y-56069976D01*
X96516610Y-56095306D01*
X96481399Y-56114128D01*
X96443190Y-56125718D01*
X96399711Y-56130000D01*
X95370289Y-56130000D01*
X95326810Y-56125718D01*
X95288601Y-56114128D01*
X95253390Y-56095306D01*
X95222524Y-56069976D01*
X95197194Y-56039110D01*
X95178372Y-56003899D01*
X95166782Y-55965690D01*
X95162500Y-55922211D01*
X95162500Y-54567789D01*
X95166782Y-54524310D01*
X95178372Y-54486101D01*
X95197194Y-54450890D01*
X95222524Y-54420024D01*
X95253390Y-54394694D01*
X95288601Y-54375872D01*
X95326810Y-54364282D01*
X95370289Y-54360000D01*
X96399711Y-54360000D01*
X96443190Y-54364282D01*
X96443190Y-54364282D01*
G37*
G36*
X111070690Y-54119282D02*
X111108899Y-54130872D01*
X111144110Y-54149694D01*
X111174976Y-54175024D01*
X111200306Y-54205890D01*
X111219128Y-54241101D01*
X111230718Y-54279310D01*
X111235000Y-54322789D01*
X111235000Y-55677211D01*
X111230718Y-55720690D01*
X111219128Y-55758899D01*
X111200306Y-55794110D01*
X111174976Y-55824976D01*
X111144110Y-55850306D01*
X111108899Y-55869128D01*
X111070690Y-55880718D01*
X111027211Y-55885000D01*
X109997789Y-55885000D01*
X109954310Y-55880718D01*
X109916101Y-55869128D01*
X109880890Y-55850306D01*
X109850024Y-55824976D01*
X109824694Y-55794110D01*
X109805872Y-55758899D01*
X109794282Y-55720690D01*
X109790000Y-55677211D01*
X109790000Y-54322789D01*
X109794282Y-54279310D01*
X109805872Y-54241101D01*
X109824694Y-54205890D01*
X109850024Y-54175024D01*
X109880890Y-54149694D01*
X109916101Y-54130872D01*
X109954310Y-54119282D01*
X109997789Y-54115000D01*
X111027211Y-54115000D01*
X111070690Y-54119282D01*
X111070690Y-54119282D01*
G37*
G36*
X114045690Y-54119282D02*
X114083899Y-54130872D01*
X114119110Y-54149694D01*
X114149976Y-54175024D01*
X114175306Y-54205890D01*
X114194128Y-54241101D01*
X114205718Y-54279310D01*
X114210000Y-54322789D01*
X114210000Y-55677211D01*
X114205718Y-55720690D01*
X114194128Y-55758899D01*
X114175306Y-55794110D01*
X114149976Y-55824976D01*
X114119110Y-55850306D01*
X114083899Y-55869128D01*
X114045690Y-55880718D01*
X114002211Y-55885000D01*
X112972789Y-55885000D01*
X112929310Y-55880718D01*
X112891101Y-55869128D01*
X112855890Y-55850306D01*
X112825024Y-55824976D01*
X112799694Y-55794110D01*
X112780872Y-55758899D01*
X112769282Y-55720690D01*
X112765000Y-55677211D01*
X112765000Y-54322789D01*
X112769282Y-54279310D01*
X112780872Y-54241101D01*
X112799694Y-54205890D01*
X112825024Y-54175024D01*
X112855890Y-54149694D01*
X112891101Y-54130872D01*
X112929310Y-54119282D01*
X112972789Y-54115000D01*
X114002211Y-54115000D01*
X114045690Y-54119282D01*
X114045690Y-54119282D01*
G37*
G36*
X198740000Y-55660000D02*
X196920000Y-55660000D01*
X196920000Y-53840000D01*
X198740000Y-53840000D01*
X198740000Y-55660000D01*
X198740000Y-55660000D01*
G37*
G36*
X200503280Y-53848683D02*
X200635435Y-53874970D01*
X200635438Y-53874971D01*
X200635437Y-53874971D01*
X200801047Y-53943569D01*
X200801050Y-53943571D01*
X200950088Y-54043154D01*
X201076846Y-54169912D01*
X201176429Y-54318950D01*
X201176431Y-54318953D01*
X201201426Y-54379297D01*
X201245030Y-54484565D01*
X201280000Y-54660374D01*
X201280000Y-54839626D01*
X201245030Y-55015435D01*
X201245029Y-55015437D01*
X201176431Y-55181047D01*
X201176429Y-55181050D01*
X201076846Y-55330088D01*
X200950088Y-55456846D01*
X200801050Y-55556429D01*
X200801047Y-55556431D01*
X200666024Y-55612360D01*
X200635435Y-55625030D01*
X200503280Y-55651317D01*
X200459627Y-55660000D01*
X200280373Y-55660000D01*
X200236720Y-55651317D01*
X200104565Y-55625030D01*
X200073976Y-55612360D01*
X199938953Y-55556431D01*
X199938950Y-55556429D01*
X199789912Y-55456846D01*
X199663154Y-55330088D01*
X199563571Y-55181050D01*
X199563569Y-55181047D01*
X199494971Y-55015437D01*
X199494970Y-55015435D01*
X199460000Y-54839626D01*
X199460000Y-54660374D01*
X199494970Y-54484565D01*
X199538574Y-54379297D01*
X199563569Y-54318953D01*
X199563571Y-54318950D01*
X199663154Y-54169912D01*
X199789912Y-54043154D01*
X199938950Y-53943571D01*
X199938953Y-53943569D01*
X200104563Y-53874971D01*
X200104562Y-53874971D01*
X200104565Y-53874970D01*
X200236720Y-53848683D01*
X200280373Y-53840000D01*
X200459627Y-53840000D01*
X200503280Y-53848683D01*
X200503280Y-53848683D01*
G37*
G36*
X96860000Y-53060000D02*
X94840000Y-53060000D01*
X94840000Y-51540000D01*
X96860000Y-51540000D01*
X96860000Y-53060000D01*
X96860000Y-53060000D01*
G37*
G36*
X112160000Y-52590000D02*
X110140000Y-52590000D01*
X110140000Y-51070000D01*
X112160000Y-51070000D01*
X112160000Y-52590000D01*
X112160000Y-52590000D01*
G37*
G36*
X103160000Y-51910000D02*
X101140000Y-51910000D01*
X101140000Y-48090000D01*
X103160000Y-48090000D01*
X103160000Y-51910000D01*
X103160000Y-51910000D01*
G37*
G36*
X118460000Y-51440000D02*
X116440000Y-51440000D01*
X116440000Y-47620000D01*
X118460000Y-47620000D01*
X118460000Y-51440000D01*
X118460000Y-51440000D01*
G37*
G36*
X96860000Y-50760000D02*
X94840000Y-50760000D01*
X94840000Y-49240000D01*
X96860000Y-49240000D01*
X96860000Y-50760000D01*
X96860000Y-50760000D01*
G37*
G36*
X112160000Y-50290000D02*
X110140000Y-50290000D01*
X110140000Y-48770000D01*
X112160000Y-48770000D01*
X112160000Y-50290000D01*
X112160000Y-50290000D01*
G37*
G36*
X96860000Y-48460000D02*
X94840000Y-48460000D01*
X94840000Y-46940000D01*
X96860000Y-46940000D01*
X96860000Y-48460000D01*
X96860000Y-48460000D01*
G37*
G36*
X112160000Y-47990000D02*
X110140000Y-47990000D01*
X110140000Y-46470000D01*
X112160000Y-46470000D01*
X112160000Y-47990000D01*
X112160000Y-47990000D01*
G37*
G36*
X198740000Y-46770000D02*
X196920000Y-46770000D01*
X196920000Y-44950000D01*
X198740000Y-44950000D01*
X198740000Y-46770000D01*
X198740000Y-46770000D01*
G37*
G36*
X200503280Y-44958683D02*
X200635435Y-44984970D01*
X200635438Y-44984971D01*
X200635437Y-44984971D01*
X200801047Y-45053569D01*
X200801050Y-45053571D01*
X200950088Y-45153154D01*
X201076846Y-45279912D01*
X201113654Y-45335000D01*
X201176431Y-45428953D01*
X201221366Y-45537435D01*
X201245030Y-45594565D01*
X201280000Y-45770374D01*
X201280000Y-45949626D01*
X201245030Y-46125435D01*
X201245029Y-46125437D01*
X201176431Y-46291047D01*
X201176429Y-46291050D01*
X201076846Y-46440088D01*
X200950088Y-46566846D01*
X200801050Y-46666429D01*
X200801047Y-46666431D01*
X200666024Y-46722360D01*
X200635435Y-46735030D01*
X200503280Y-46761317D01*
X200459627Y-46770000D01*
X200280373Y-46770000D01*
X200236720Y-46761317D01*
X200104565Y-46735030D01*
X200073976Y-46722360D01*
X199938953Y-46666431D01*
X199938950Y-46666429D01*
X199789912Y-46566846D01*
X199663154Y-46440088D01*
X199563571Y-46291050D01*
X199563569Y-46291047D01*
X199494971Y-46125437D01*
X199494970Y-46125435D01*
X199460000Y-45949626D01*
X199460000Y-45770374D01*
X199494970Y-45594565D01*
X199518634Y-45537435D01*
X199563569Y-45428953D01*
X199626346Y-45335000D01*
X199663154Y-45279912D01*
X199789912Y-45153154D01*
X199938950Y-45053571D01*
X199938953Y-45053569D01*
X200104563Y-44984971D01*
X200104562Y-44984971D01*
X200104565Y-44984970D01*
X200236720Y-44958683D01*
X200280373Y-44950000D01*
X200459627Y-44950000D01*
X200503280Y-44958683D01*
X200503280Y-44958683D01*
G37*
G36*
X136118787Y-43141720D02*
X136271472Y-43188037D01*
X136412188Y-43263251D01*
X136535528Y-43364472D01*
X136636749Y-43487811D01*
X136711963Y-43628527D01*
X136758280Y-43781212D01*
X136770000Y-43900209D01*
X136770000Y-45379791D01*
X136758280Y-45498788D01*
X136711963Y-45651473D01*
X136636749Y-45792189D01*
X136535528Y-45915528D01*
X136412189Y-46016749D01*
X136271473Y-46091963D01*
X136118788Y-46138280D01*
X135960000Y-46153919D01*
X135801213Y-46138280D01*
X135648528Y-46091963D01*
X135507812Y-46016749D01*
X135384473Y-45915528D01*
X135283252Y-45792189D01*
X135208038Y-45651473D01*
X135161721Y-45498788D01*
X135150001Y-45379791D01*
X135150000Y-43900210D01*
X135161720Y-43781213D01*
X135208037Y-43628528D01*
X135283251Y-43487812D01*
X135384472Y-43364472D01*
X135507811Y-43263251D01*
X135648527Y-43188037D01*
X135801212Y-43141720D01*
X135960000Y-43126081D01*
X136118787Y-43141720D01*
X136118787Y-43141720D01*
G37*
G36*
X164108787Y-43141720D02*
X164261472Y-43188037D01*
X164402188Y-43263251D01*
X164525528Y-43364472D01*
X164626749Y-43487811D01*
X164701963Y-43628527D01*
X164748280Y-43781212D01*
X164760000Y-43900209D01*
X164760000Y-45379791D01*
X164748280Y-45498788D01*
X164701963Y-45651473D01*
X164626749Y-45792189D01*
X164525528Y-45915528D01*
X164402189Y-46016749D01*
X164261473Y-46091963D01*
X164108788Y-46138280D01*
X163950000Y-46153919D01*
X163791213Y-46138280D01*
X163638528Y-46091963D01*
X163497812Y-46016749D01*
X163374473Y-45915528D01*
X163273252Y-45792189D01*
X163198038Y-45651473D01*
X163151721Y-45498788D01*
X163140001Y-45379791D01*
X163140000Y-43900210D01*
X163151720Y-43781213D01*
X163198037Y-43628528D01*
X163273251Y-43487812D01*
X163374472Y-43364472D01*
X163497811Y-43263251D01*
X163638527Y-43188037D01*
X163791212Y-43141720D01*
X163950000Y-43126081D01*
X164108787Y-43141720D01*
X164108787Y-43141720D01*
G37*
G36*
X138658787Y-43141720D02*
X138811472Y-43188037D01*
X138952188Y-43263251D01*
X139075528Y-43364472D01*
X139176749Y-43487811D01*
X139251963Y-43628527D01*
X139298280Y-43781212D01*
X139310000Y-43900209D01*
X139310000Y-45379791D01*
X139298280Y-45498788D01*
X139251963Y-45651473D01*
X139176749Y-45792189D01*
X139075528Y-45915528D01*
X138952189Y-46016749D01*
X138811473Y-46091963D01*
X138658788Y-46138280D01*
X138500000Y-46153919D01*
X138341213Y-46138280D01*
X138188528Y-46091963D01*
X138047812Y-46016749D01*
X137924473Y-45915528D01*
X137823252Y-45792189D01*
X137748038Y-45651473D01*
X137701721Y-45498788D01*
X137690001Y-45379791D01*
X137690000Y-43900210D01*
X137701720Y-43781213D01*
X137748037Y-43628528D01*
X137823251Y-43487812D01*
X137924472Y-43364472D01*
X138047811Y-43263251D01*
X138188527Y-43188037D01*
X138341212Y-43141720D01*
X138500000Y-43126081D01*
X138658787Y-43141720D01*
X138658787Y-43141720D01*
G37*
G36*
X143738787Y-43141720D02*
X143891472Y-43188037D01*
X144032188Y-43263251D01*
X144155528Y-43364472D01*
X144256749Y-43487811D01*
X144331963Y-43628527D01*
X144378280Y-43781212D01*
X144390000Y-43900209D01*
X144390000Y-45379791D01*
X144378280Y-45498788D01*
X144331963Y-45651473D01*
X144256749Y-45792189D01*
X144155528Y-45915528D01*
X144032189Y-46016749D01*
X143891473Y-46091963D01*
X143738788Y-46138280D01*
X143580000Y-46153919D01*
X143421213Y-46138280D01*
X143268528Y-46091963D01*
X143127812Y-46016749D01*
X143004473Y-45915528D01*
X142903252Y-45792189D01*
X142828038Y-45651473D01*
X142781721Y-45498788D01*
X142770001Y-45379791D01*
X142770000Y-43900210D01*
X142781720Y-43781213D01*
X142828037Y-43628528D01*
X142903251Y-43487812D01*
X143004472Y-43364472D01*
X143127811Y-43263251D01*
X143268527Y-43188037D01*
X143421212Y-43141720D01*
X143580000Y-43126081D01*
X143738787Y-43141720D01*
X143738787Y-43141720D01*
G37*
G36*
X133578787Y-43141720D02*
X133731472Y-43188037D01*
X133872188Y-43263251D01*
X133995528Y-43364472D01*
X134096749Y-43487811D01*
X134171963Y-43628527D01*
X134218280Y-43781212D01*
X134230000Y-43900209D01*
X134230000Y-45379791D01*
X134218280Y-45498788D01*
X134171963Y-45651473D01*
X134096749Y-45792189D01*
X133995528Y-45915528D01*
X133872189Y-46016749D01*
X133731473Y-46091963D01*
X133578788Y-46138280D01*
X133420000Y-46153919D01*
X133261213Y-46138280D01*
X133108528Y-46091963D01*
X132967812Y-46016749D01*
X132844473Y-45915528D01*
X132743252Y-45792189D01*
X132668038Y-45651473D01*
X132621721Y-45498788D01*
X132610001Y-45379791D01*
X132610000Y-43900210D01*
X132621720Y-43781213D01*
X132668037Y-43628528D01*
X132743251Y-43487812D01*
X132844472Y-43364472D01*
X132967811Y-43263251D01*
X133108527Y-43188037D01*
X133261212Y-43141720D01*
X133420000Y-43126081D01*
X133578787Y-43141720D01*
X133578787Y-43141720D01*
G37*
G36*
X141198787Y-43141720D02*
X141351472Y-43188037D01*
X141492188Y-43263251D01*
X141615528Y-43364472D01*
X141716749Y-43487811D01*
X141791963Y-43628527D01*
X141838280Y-43781212D01*
X141850000Y-43900209D01*
X141850000Y-45379791D01*
X141838280Y-45498788D01*
X141791963Y-45651473D01*
X141716749Y-45792189D01*
X141615528Y-45915528D01*
X141492189Y-46016749D01*
X141351473Y-46091963D01*
X141198788Y-46138280D01*
X141040000Y-46153919D01*
X140881213Y-46138280D01*
X140728528Y-46091963D01*
X140587812Y-46016749D01*
X140464473Y-45915528D01*
X140363252Y-45792189D01*
X140288038Y-45651473D01*
X140241721Y-45498788D01*
X140230001Y-45379791D01*
X140230000Y-43900210D01*
X140241720Y-43781213D01*
X140288037Y-43628528D01*
X140363251Y-43487812D01*
X140464472Y-43364472D01*
X140587811Y-43263251D01*
X140728527Y-43188037D01*
X140881212Y-43141720D01*
X141040000Y-43126081D01*
X141198787Y-43141720D01*
X141198787Y-43141720D01*
G37*
G36*
X159028787Y-43141720D02*
X159181472Y-43188037D01*
X159322188Y-43263251D01*
X159445528Y-43364472D01*
X159546749Y-43487811D01*
X159621963Y-43628527D01*
X159668280Y-43781212D01*
X159680000Y-43900209D01*
X159680000Y-45379791D01*
X159668280Y-45498788D01*
X159621963Y-45651473D01*
X159546749Y-45792189D01*
X159445528Y-45915528D01*
X159322189Y-46016749D01*
X159181473Y-46091963D01*
X159028788Y-46138280D01*
X158870000Y-46153919D01*
X158711213Y-46138280D01*
X158558528Y-46091963D01*
X158417812Y-46016749D01*
X158294473Y-45915528D01*
X158193252Y-45792189D01*
X158118038Y-45651473D01*
X158071721Y-45498788D01*
X158060001Y-45379791D01*
X158060000Y-43900210D01*
X158071720Y-43781213D01*
X158118037Y-43628528D01*
X158193251Y-43487812D01*
X158294472Y-43364472D01*
X158417811Y-43263251D01*
X158558527Y-43188037D01*
X158711212Y-43141720D01*
X158870000Y-43126081D01*
X159028787Y-43141720D01*
X159028787Y-43141720D01*
G37*
G36*
X156488787Y-43141720D02*
X156641472Y-43188037D01*
X156782188Y-43263251D01*
X156905528Y-43364472D01*
X157006749Y-43487811D01*
X157081963Y-43628527D01*
X157128280Y-43781212D01*
X157140000Y-43900209D01*
X157140000Y-45379791D01*
X157128280Y-45498788D01*
X157081963Y-45651473D01*
X157006749Y-45792189D01*
X156905528Y-45915528D01*
X156782189Y-46016749D01*
X156641473Y-46091963D01*
X156488788Y-46138280D01*
X156330000Y-46153919D01*
X156171213Y-46138280D01*
X156018528Y-46091963D01*
X155877812Y-46016749D01*
X155754473Y-45915528D01*
X155653252Y-45792189D01*
X155578038Y-45651473D01*
X155531721Y-45498788D01*
X155520001Y-45379791D01*
X155520000Y-43900210D01*
X155531720Y-43781213D01*
X155578037Y-43628528D01*
X155653251Y-43487812D01*
X155754472Y-43364472D01*
X155877811Y-43263251D01*
X156018527Y-43188037D01*
X156171212Y-43141720D01*
X156330000Y-43126081D01*
X156488787Y-43141720D01*
X156488787Y-43141720D01*
G37*
G36*
X153948787Y-43141720D02*
X154101472Y-43188037D01*
X154242188Y-43263251D01*
X154365528Y-43364472D01*
X154466749Y-43487811D01*
X154541963Y-43628527D01*
X154588280Y-43781212D01*
X154600000Y-43900209D01*
X154600000Y-45379791D01*
X154588280Y-45498788D01*
X154541963Y-45651473D01*
X154466749Y-45792189D01*
X154365528Y-45915528D01*
X154242189Y-46016749D01*
X154101473Y-46091963D01*
X153948788Y-46138280D01*
X153790000Y-46153919D01*
X153631213Y-46138280D01*
X153478528Y-46091963D01*
X153337812Y-46016749D01*
X153214473Y-45915528D01*
X153113252Y-45792189D01*
X153038038Y-45651473D01*
X152991721Y-45498788D01*
X152980001Y-45379791D01*
X152980000Y-43900210D01*
X152991720Y-43781213D01*
X153038037Y-43628528D01*
X153113251Y-43487812D01*
X153214472Y-43364472D01*
X153337811Y-43263251D01*
X153478527Y-43188037D01*
X153631212Y-43141720D01*
X153790000Y-43126081D01*
X153948787Y-43141720D01*
X153948787Y-43141720D01*
G37*
G36*
X151408787Y-43141720D02*
X151561472Y-43188037D01*
X151702188Y-43263251D01*
X151825528Y-43364472D01*
X151926749Y-43487811D01*
X152001963Y-43628527D01*
X152048280Y-43781212D01*
X152060000Y-43900209D01*
X152060000Y-45379791D01*
X152048280Y-45498788D01*
X152001963Y-45651473D01*
X151926749Y-45792189D01*
X151825528Y-45915528D01*
X151702189Y-46016749D01*
X151561473Y-46091963D01*
X151408788Y-46138280D01*
X151250000Y-46153919D01*
X151091213Y-46138280D01*
X150938528Y-46091963D01*
X150797812Y-46016749D01*
X150674473Y-45915528D01*
X150573252Y-45792189D01*
X150498038Y-45651473D01*
X150451721Y-45498788D01*
X150440001Y-45379791D01*
X150440000Y-43900210D01*
X150451720Y-43781213D01*
X150498037Y-43628528D01*
X150573251Y-43487812D01*
X150674472Y-43364472D01*
X150797811Y-43263251D01*
X150938527Y-43188037D01*
X151091212Y-43141720D01*
X151250000Y-43126081D01*
X151408787Y-43141720D01*
X151408787Y-43141720D01*
G37*
G36*
X146278787Y-43141720D02*
X146431472Y-43188037D01*
X146572188Y-43263251D01*
X146695528Y-43364472D01*
X146796749Y-43487811D01*
X146871963Y-43628527D01*
X146918280Y-43781212D01*
X146930000Y-43900209D01*
X146930000Y-45379791D01*
X146918280Y-45498788D01*
X146871963Y-45651473D01*
X146796749Y-45792189D01*
X146695528Y-45915528D01*
X146572189Y-46016749D01*
X146431473Y-46091963D01*
X146278788Y-46138280D01*
X146120000Y-46153919D01*
X145961213Y-46138280D01*
X145808528Y-46091963D01*
X145667812Y-46016749D01*
X145544473Y-45915528D01*
X145443252Y-45792189D01*
X145368038Y-45651473D01*
X145321721Y-45498788D01*
X145310001Y-45379791D01*
X145310000Y-43900210D01*
X145321720Y-43781213D01*
X145368037Y-43628528D01*
X145443251Y-43487812D01*
X145544472Y-43364472D01*
X145667811Y-43263251D01*
X145808527Y-43188037D01*
X145961212Y-43141720D01*
X146120000Y-43126081D01*
X146278787Y-43141720D01*
X146278787Y-43141720D01*
G37*
G36*
X161568787Y-43141720D02*
X161721472Y-43188037D01*
X161862188Y-43263251D01*
X161985528Y-43364472D01*
X162086749Y-43487811D01*
X162161963Y-43628527D01*
X162208280Y-43781212D01*
X162220000Y-43900209D01*
X162220000Y-45379791D01*
X162208280Y-45498788D01*
X162161963Y-45651473D01*
X162086749Y-45792189D01*
X161985528Y-45915528D01*
X161862189Y-46016749D01*
X161721473Y-46091963D01*
X161568788Y-46138280D01*
X161410000Y-46153919D01*
X161251213Y-46138280D01*
X161098528Y-46091963D01*
X160957812Y-46016749D01*
X160834473Y-45915528D01*
X160733252Y-45792189D01*
X160658038Y-45651473D01*
X160611721Y-45498788D01*
X160600001Y-45379791D01*
X160600000Y-43900210D01*
X160611720Y-43781213D01*
X160658037Y-43628528D01*
X160733251Y-43487812D01*
X160834472Y-43364472D01*
X160957811Y-43263251D01*
X161098527Y-43188037D01*
X161251212Y-43141720D01*
X161410000Y-43126081D01*
X161568787Y-43141720D01*
X161568787Y-43141720D01*
G37*
G36*
X100481869Y-44252421D02*
X100521435Y-44264423D01*
X100557895Y-44283912D01*
X100589857Y-44310143D01*
X100616088Y-44342105D01*
X100635577Y-44378565D01*
X100647579Y-44418131D01*
X100652000Y-44463020D01*
X100652000Y-45452980D01*
X100647579Y-45497869D01*
X100635577Y-45537435D01*
X100616088Y-45573895D01*
X100589857Y-45605857D01*
X100557895Y-45632088D01*
X100521435Y-45651577D01*
X100481869Y-45663579D01*
X100436980Y-45668000D01*
X99697020Y-45668000D01*
X99652131Y-45663579D01*
X99612565Y-45651577D01*
X99576105Y-45632088D01*
X99544143Y-45605857D01*
X99517912Y-45573895D01*
X99498423Y-45537435D01*
X99486421Y-45497869D01*
X99482000Y-45452980D01*
X99482000Y-44463020D01*
X99486421Y-44418131D01*
X99498423Y-44378565D01*
X99517912Y-44342105D01*
X99544143Y-44310143D01*
X99576105Y-44283912D01*
X99612565Y-44264423D01*
X99652131Y-44252421D01*
X99697020Y-44248000D01*
X100436980Y-44248000D01*
X100481869Y-44252421D01*
X100481869Y-44252421D01*
G37*
G36*
X102531869Y-44252421D02*
X102571435Y-44264423D01*
X102607895Y-44283912D01*
X102639857Y-44310143D01*
X102666088Y-44342105D01*
X102685577Y-44378565D01*
X102697579Y-44418131D01*
X102702000Y-44463020D01*
X102702000Y-45452980D01*
X102697579Y-45497869D01*
X102685577Y-45537435D01*
X102666088Y-45573895D01*
X102639857Y-45605857D01*
X102607895Y-45632088D01*
X102571435Y-45651577D01*
X102531869Y-45663579D01*
X102486980Y-45668000D01*
X101747020Y-45668000D01*
X101702131Y-45663579D01*
X101662565Y-45651577D01*
X101626105Y-45632088D01*
X101594143Y-45605857D01*
X101567912Y-45573895D01*
X101548423Y-45537435D01*
X101536421Y-45497869D01*
X101532000Y-45452980D01*
X101532000Y-44463020D01*
X101536421Y-44418131D01*
X101548423Y-44378565D01*
X101567912Y-44342105D01*
X101594143Y-44310143D01*
X101626105Y-44283912D01*
X101662565Y-44264423D01*
X101702131Y-44252421D01*
X101747020Y-44248000D01*
X102486980Y-44248000D01*
X102531869Y-44252421D01*
X102531869Y-44252421D01*
G37*
G36*
X116345690Y-43569282D02*
X116383899Y-43580872D01*
X116419110Y-43599694D01*
X116449976Y-43625024D01*
X116475306Y-43655890D01*
X116494128Y-43691101D01*
X116505718Y-43729310D01*
X116510000Y-43772789D01*
X116510000Y-45127211D01*
X116505718Y-45170690D01*
X116494128Y-45208899D01*
X116475306Y-45244110D01*
X116449976Y-45274976D01*
X116419110Y-45300306D01*
X116383899Y-45319128D01*
X116345690Y-45330718D01*
X116302211Y-45335000D01*
X115272789Y-45335000D01*
X115229310Y-45330718D01*
X115191101Y-45319128D01*
X115155890Y-45300306D01*
X115125024Y-45274976D01*
X115099694Y-45244110D01*
X115080872Y-45208899D01*
X115069282Y-45170690D01*
X115065000Y-45127211D01*
X115065000Y-43772789D01*
X115069282Y-43729310D01*
X115080872Y-43691101D01*
X115099694Y-43655890D01*
X115125024Y-43625024D01*
X115155890Y-43599694D01*
X115191101Y-43580872D01*
X115229310Y-43569282D01*
X115272789Y-43565000D01*
X116302211Y-43565000D01*
X116345690Y-43569282D01*
X116345690Y-43569282D01*
G37*
G36*
X113370690Y-43569282D02*
X113408899Y-43580872D01*
X113444110Y-43599694D01*
X113474976Y-43625024D01*
X113500306Y-43655890D01*
X113519128Y-43691101D01*
X113530718Y-43729310D01*
X113535000Y-43772789D01*
X113535000Y-45127211D01*
X113530718Y-45170690D01*
X113519128Y-45208899D01*
X113500306Y-45244110D01*
X113474976Y-45274976D01*
X113444110Y-45300306D01*
X113408899Y-45319128D01*
X113370690Y-45330718D01*
X113327211Y-45335000D01*
X112297789Y-45335000D01*
X112254310Y-45330718D01*
X112216101Y-45319128D01*
X112180890Y-45300306D01*
X112150024Y-45274976D01*
X112124694Y-45244110D01*
X112105872Y-45208899D01*
X112094282Y-45170690D01*
X112090000Y-45127211D01*
X112090000Y-43772789D01*
X112094282Y-43729310D01*
X112105872Y-43691101D01*
X112124694Y-43655890D01*
X112150024Y-43625024D01*
X112180890Y-43599694D01*
X112216101Y-43580872D01*
X112254310Y-43569282D01*
X112297789Y-43565000D01*
X113327211Y-43565000D01*
X113370690Y-43569282D01*
X113370690Y-43569282D01*
G37*
G36*
X102791690Y-41627282D02*
X102829899Y-41638872D01*
X102865110Y-41657694D01*
X102895976Y-41683024D01*
X102921306Y-41713890D01*
X102940128Y-41749101D01*
X102951718Y-41787310D01*
X102956000Y-41830789D01*
X102956000Y-43185211D01*
X102951718Y-43228690D01*
X102940128Y-43266899D01*
X102921306Y-43302110D01*
X102895976Y-43332976D01*
X102865110Y-43358306D01*
X102829899Y-43377128D01*
X102791690Y-43388718D01*
X102748211Y-43393000D01*
X101718789Y-43393000D01*
X101675310Y-43388718D01*
X101637101Y-43377128D01*
X101601890Y-43358306D01*
X101571024Y-43332976D01*
X101545694Y-43302110D01*
X101526872Y-43266899D01*
X101515282Y-43228690D01*
X101511000Y-43185211D01*
X101511000Y-41830789D01*
X101515282Y-41787310D01*
X101526872Y-41749101D01*
X101545694Y-41713890D01*
X101571024Y-41683024D01*
X101601890Y-41657694D01*
X101637101Y-41638872D01*
X101675310Y-41627282D01*
X101718789Y-41623000D01*
X102748211Y-41623000D01*
X102791690Y-41627282D01*
X102791690Y-41627282D01*
G37*
G36*
X99816690Y-41627282D02*
X99854899Y-41638872D01*
X99890110Y-41657694D01*
X99920976Y-41683024D01*
X99946306Y-41713890D01*
X99965128Y-41749101D01*
X99976718Y-41787310D01*
X99981000Y-41830789D01*
X99981000Y-43185211D01*
X99976718Y-43228690D01*
X99965128Y-43266899D01*
X99946306Y-43302110D01*
X99920976Y-43332976D01*
X99890110Y-43358306D01*
X99854899Y-43377128D01*
X99816690Y-43388718D01*
X99773211Y-43393000D01*
X98743789Y-43393000D01*
X98700310Y-43388718D01*
X98662101Y-43377128D01*
X98626890Y-43358306D01*
X98596024Y-43332976D01*
X98570694Y-43302110D01*
X98551872Y-43266899D01*
X98540282Y-43228690D01*
X98536000Y-43185211D01*
X98536000Y-41830789D01*
X98540282Y-41787310D01*
X98551872Y-41749101D01*
X98570694Y-41713890D01*
X98596024Y-41683024D01*
X98626890Y-41657694D01*
X98662101Y-41638872D01*
X98700310Y-41627282D01*
X98743789Y-41623000D01*
X99773211Y-41623000D01*
X99816690Y-41627282D01*
X99816690Y-41627282D01*
G37*
G36*
X192673280Y-35098683D02*
X192805435Y-35124970D01*
X192836024Y-35137640D01*
X192971047Y-35193569D01*
X192971050Y-35193571D01*
X193120088Y-35293154D01*
X193246846Y-35419912D01*
X193280563Y-35470374D01*
X193346431Y-35568953D01*
X193379847Y-35649626D01*
X193415030Y-35734565D01*
X193450000Y-35910374D01*
X193450000Y-36089626D01*
X193415030Y-36265435D01*
X193402360Y-36296024D01*
X193346431Y-36431047D01*
X193346429Y-36431050D01*
X193246846Y-36580088D01*
X193120088Y-36706846D01*
X192971050Y-36806429D01*
X192971047Y-36806431D01*
X192836024Y-36862360D01*
X192805435Y-36875030D01*
X192673280Y-36901317D01*
X192629627Y-36910000D01*
X192450373Y-36910000D01*
X192406720Y-36901317D01*
X192274565Y-36875030D01*
X192243976Y-36862360D01*
X192108953Y-36806431D01*
X192108950Y-36806429D01*
X191959912Y-36706846D01*
X191833154Y-36580088D01*
X191733571Y-36431050D01*
X191733569Y-36431047D01*
X191677640Y-36296024D01*
X191664970Y-36265435D01*
X191630000Y-36089626D01*
X191630000Y-35910374D01*
X191664970Y-35734565D01*
X191700153Y-35649626D01*
X191733569Y-35568953D01*
X191799437Y-35470374D01*
X191833154Y-35419912D01*
X191959912Y-35293154D01*
X192108950Y-35193571D01*
X192108953Y-35193569D01*
X192243976Y-35137640D01*
X192274565Y-35124970D01*
X192406720Y-35098683D01*
X192450373Y-35090000D01*
X192629627Y-35090000D01*
X192673280Y-35098683D01*
X192673280Y-35098683D01*
G37*
G36*
X190910000Y-36910000D02*
X189090000Y-36910000D01*
X189090000Y-35090000D01*
X190910000Y-35090000D01*
X190910000Y-36910000D01*
X190910000Y-36910000D01*
G37*
G36*
X139230000Y-36470000D02*
X137410000Y-36470000D01*
X137410000Y-34650000D01*
X139230000Y-34650000D01*
X139230000Y-36470000D01*
X139230000Y-36470000D01*
G37*
G36*
X182410000Y-36470000D02*
X180590000Y-36470000D01*
X180590000Y-34650000D01*
X182410000Y-34650000D01*
X182410000Y-36470000D01*
X182410000Y-36470000D01*
G37*
G36*
X130340000Y-36470000D02*
X128520000Y-36470000D01*
X128520000Y-34650000D01*
X130340000Y-34650000D01*
X130340000Y-36470000D01*
X130340000Y-36470000D01*
G37*
G36*
X132103280Y-34658683D02*
X132235435Y-34684970D01*
X132235438Y-34684971D01*
X132235437Y-34684971D01*
X132401047Y-34753569D01*
X132401050Y-34753571D01*
X132550088Y-34853154D01*
X132676846Y-34979912D01*
X132773770Y-35124970D01*
X132776431Y-35128953D01*
X132832360Y-35263976D01*
X132845030Y-35294565D01*
X132880000Y-35470374D01*
X132880000Y-35649626D01*
X132845030Y-35825435D01*
X132845029Y-35825437D01*
X132776431Y-35991047D01*
X132776429Y-35991050D01*
X132676846Y-36140088D01*
X132550088Y-36266846D01*
X132401050Y-36366429D01*
X132401047Y-36366431D01*
X132266024Y-36422360D01*
X132235435Y-36435030D01*
X132103280Y-36461317D01*
X132059627Y-36470000D01*
X131880373Y-36470000D01*
X131836720Y-36461317D01*
X131704565Y-36435030D01*
X131673976Y-36422360D01*
X131538953Y-36366431D01*
X131538950Y-36366429D01*
X131389912Y-36266846D01*
X131263154Y-36140088D01*
X131163571Y-35991050D01*
X131163569Y-35991047D01*
X131094971Y-35825437D01*
X131094970Y-35825435D01*
X131060000Y-35649626D01*
X131060000Y-35470374D01*
X131094970Y-35294565D01*
X131107640Y-35263976D01*
X131163569Y-35128953D01*
X131166230Y-35124970D01*
X131263154Y-34979912D01*
X131389912Y-34853154D01*
X131538950Y-34753571D01*
X131538953Y-34753569D01*
X131704563Y-34684971D01*
X131704562Y-34684971D01*
X131704565Y-34684970D01*
X131836720Y-34658683D01*
X131880373Y-34650000D01*
X132059627Y-34650000D01*
X132103280Y-34658683D01*
X132103280Y-34658683D01*
G37*
G36*
X121450000Y-36470000D02*
X119630000Y-36470000D01*
X119630000Y-34650000D01*
X121450000Y-34650000D01*
X121450000Y-36470000D01*
X121450000Y-36470000D01*
G37*
G36*
X123213280Y-34658683D02*
X123345435Y-34684970D01*
X123345438Y-34684971D01*
X123345437Y-34684971D01*
X123511047Y-34753569D01*
X123511050Y-34753571D01*
X123660088Y-34853154D01*
X123786846Y-34979912D01*
X123883770Y-35124970D01*
X123886431Y-35128953D01*
X123942360Y-35263976D01*
X123955030Y-35294565D01*
X123990000Y-35470374D01*
X123990000Y-35649626D01*
X123955030Y-35825435D01*
X123955029Y-35825437D01*
X123886431Y-35991047D01*
X123886429Y-35991050D01*
X123786846Y-36140088D01*
X123660088Y-36266846D01*
X123511050Y-36366429D01*
X123511047Y-36366431D01*
X123376024Y-36422360D01*
X123345435Y-36435030D01*
X123213280Y-36461317D01*
X123169627Y-36470000D01*
X122990373Y-36470000D01*
X122946720Y-36461317D01*
X122814565Y-36435030D01*
X122783976Y-36422360D01*
X122648953Y-36366431D01*
X122648950Y-36366429D01*
X122499912Y-36266846D01*
X122373154Y-36140088D01*
X122273571Y-35991050D01*
X122273569Y-35991047D01*
X122204971Y-35825437D01*
X122204970Y-35825435D01*
X122170000Y-35649626D01*
X122170000Y-35470374D01*
X122204970Y-35294565D01*
X122217640Y-35263976D01*
X122273569Y-35128953D01*
X122276230Y-35124970D01*
X122373154Y-34979912D01*
X122499912Y-34853154D01*
X122648950Y-34753571D01*
X122648953Y-34753569D01*
X122814563Y-34684971D01*
X122814562Y-34684971D01*
X122814565Y-34684970D01*
X122946720Y-34658683D01*
X122990373Y-34650000D01*
X123169627Y-34650000D01*
X123213280Y-34658683D01*
X123213280Y-34658683D01*
G37*
G36*
X112560000Y-36470000D02*
X110740000Y-36470000D01*
X110740000Y-34650000D01*
X112560000Y-34650000D01*
X112560000Y-36470000D01*
X112560000Y-36470000D01*
G37*
G36*
X114323280Y-34658683D02*
X114455435Y-34684970D01*
X114455438Y-34684971D01*
X114455437Y-34684971D01*
X114621047Y-34753569D01*
X114621050Y-34753571D01*
X114770088Y-34853154D01*
X114896846Y-34979912D01*
X114993770Y-35124970D01*
X114996431Y-35128953D01*
X115052360Y-35263976D01*
X115065030Y-35294565D01*
X115100000Y-35470374D01*
X115100000Y-35649626D01*
X115065030Y-35825435D01*
X115065029Y-35825437D01*
X114996431Y-35991047D01*
X114996429Y-35991050D01*
X114896846Y-36140088D01*
X114770088Y-36266846D01*
X114621050Y-36366429D01*
X114621047Y-36366431D01*
X114486024Y-36422360D01*
X114455435Y-36435030D01*
X114323280Y-36461317D01*
X114279627Y-36470000D01*
X114100373Y-36470000D01*
X114056720Y-36461317D01*
X113924565Y-36435030D01*
X113893976Y-36422360D01*
X113758953Y-36366431D01*
X113758950Y-36366429D01*
X113609912Y-36266846D01*
X113483154Y-36140088D01*
X113383571Y-35991050D01*
X113383569Y-35991047D01*
X113314971Y-35825437D01*
X113314970Y-35825435D01*
X113280000Y-35649626D01*
X113280000Y-35470374D01*
X113314970Y-35294565D01*
X113327640Y-35263976D01*
X113383569Y-35128953D01*
X113386230Y-35124970D01*
X113483154Y-34979912D01*
X113609912Y-34853154D01*
X113758950Y-34753571D01*
X113758953Y-34753569D01*
X113924563Y-34684971D01*
X113924562Y-34684971D01*
X113924565Y-34684970D01*
X114056720Y-34658683D01*
X114100373Y-34650000D01*
X114279627Y-34650000D01*
X114323280Y-34658683D01*
X114323280Y-34658683D01*
G37*
G36*
X103670000Y-36470000D02*
X101850000Y-36470000D01*
X101850000Y-34650000D01*
X103670000Y-34650000D01*
X103670000Y-36470000D01*
X103670000Y-36470000D01*
G37*
G36*
X105433280Y-34658683D02*
X105565435Y-34684970D01*
X105565438Y-34684971D01*
X105565437Y-34684971D01*
X105731047Y-34753569D01*
X105731050Y-34753571D01*
X105880088Y-34853154D01*
X106006846Y-34979912D01*
X106103770Y-35124970D01*
X106106431Y-35128953D01*
X106162360Y-35263976D01*
X106175030Y-35294565D01*
X106210000Y-35470374D01*
X106210000Y-35649626D01*
X106175030Y-35825435D01*
X106175029Y-35825437D01*
X106106431Y-35991047D01*
X106106429Y-35991050D01*
X106006846Y-36140088D01*
X105880088Y-36266846D01*
X105731050Y-36366429D01*
X105731047Y-36366431D01*
X105596024Y-36422360D01*
X105565435Y-36435030D01*
X105433280Y-36461317D01*
X105389627Y-36470000D01*
X105210373Y-36470000D01*
X105166720Y-36461317D01*
X105034565Y-36435030D01*
X105003976Y-36422360D01*
X104868953Y-36366431D01*
X104868950Y-36366429D01*
X104719912Y-36266846D01*
X104593154Y-36140088D01*
X104493571Y-35991050D01*
X104493569Y-35991047D01*
X104424971Y-35825437D01*
X104424970Y-35825435D01*
X104390000Y-35649626D01*
X104390000Y-35470374D01*
X104424970Y-35294565D01*
X104437640Y-35263976D01*
X104493569Y-35128953D01*
X104496230Y-35124970D01*
X104593154Y-34979912D01*
X104719912Y-34853154D01*
X104868950Y-34753571D01*
X104868953Y-34753569D01*
X105034563Y-34684971D01*
X105034562Y-34684971D01*
X105034565Y-34684970D01*
X105166720Y-34658683D01*
X105210373Y-34650000D01*
X105389627Y-34650000D01*
X105433280Y-34658683D01*
X105433280Y-34658683D01*
G37*
G36*
X149883280Y-34658683D02*
X150015435Y-34684970D01*
X150015438Y-34684971D01*
X150015437Y-34684971D01*
X150181047Y-34753569D01*
X150181050Y-34753571D01*
X150330088Y-34853154D01*
X150456846Y-34979912D01*
X150553770Y-35124970D01*
X150556431Y-35128953D01*
X150612360Y-35263976D01*
X150625030Y-35294565D01*
X150660000Y-35470374D01*
X150660000Y-35649626D01*
X150625030Y-35825435D01*
X150625029Y-35825437D01*
X150556431Y-35991047D01*
X150556429Y-35991050D01*
X150456846Y-36140088D01*
X150330088Y-36266846D01*
X150181050Y-36366429D01*
X150181047Y-36366431D01*
X150046024Y-36422360D01*
X150015435Y-36435030D01*
X149883280Y-36461317D01*
X149839627Y-36470000D01*
X149660373Y-36470000D01*
X149616720Y-36461317D01*
X149484565Y-36435030D01*
X149453976Y-36422360D01*
X149318953Y-36366431D01*
X149318950Y-36366429D01*
X149169912Y-36266846D01*
X149043154Y-36140088D01*
X148943571Y-35991050D01*
X148943569Y-35991047D01*
X148874971Y-35825437D01*
X148874970Y-35825435D01*
X148840000Y-35649626D01*
X148840000Y-35470374D01*
X148874970Y-35294565D01*
X148887640Y-35263976D01*
X148943569Y-35128953D01*
X148946230Y-35124970D01*
X149043154Y-34979912D01*
X149169912Y-34853154D01*
X149318950Y-34753571D01*
X149318953Y-34753569D01*
X149484563Y-34684971D01*
X149484562Y-34684971D01*
X149484565Y-34684970D01*
X149616720Y-34658683D01*
X149660373Y-34650000D01*
X149839627Y-34650000D01*
X149883280Y-34658683D01*
X149883280Y-34658683D01*
G37*
G36*
X148120000Y-36470000D02*
X146300000Y-36470000D01*
X146300000Y-34650000D01*
X148120000Y-34650000D01*
X148120000Y-36470000D01*
X148120000Y-36470000D01*
G37*
G36*
X158773280Y-34658683D02*
X158905435Y-34684970D01*
X158905438Y-34684971D01*
X158905437Y-34684971D01*
X159071047Y-34753569D01*
X159071050Y-34753571D01*
X159220088Y-34853154D01*
X159346846Y-34979912D01*
X159443770Y-35124970D01*
X159446431Y-35128953D01*
X159502360Y-35263976D01*
X159515030Y-35294565D01*
X159550000Y-35470374D01*
X159550000Y-35649626D01*
X159515030Y-35825435D01*
X159515029Y-35825437D01*
X159446431Y-35991047D01*
X159446429Y-35991050D01*
X159346846Y-36140088D01*
X159220088Y-36266846D01*
X159071050Y-36366429D01*
X159071047Y-36366431D01*
X158936024Y-36422360D01*
X158905435Y-36435030D01*
X158773280Y-36461317D01*
X158729627Y-36470000D01*
X158550373Y-36470000D01*
X158506720Y-36461317D01*
X158374565Y-36435030D01*
X158343976Y-36422360D01*
X158208953Y-36366431D01*
X158208950Y-36366429D01*
X158059912Y-36266846D01*
X157933154Y-36140088D01*
X157833571Y-35991050D01*
X157833569Y-35991047D01*
X157764971Y-35825437D01*
X157764970Y-35825435D01*
X157730000Y-35649626D01*
X157730000Y-35470374D01*
X157764970Y-35294565D01*
X157777640Y-35263976D01*
X157833569Y-35128953D01*
X157836230Y-35124970D01*
X157933154Y-34979912D01*
X158059912Y-34853154D01*
X158208950Y-34753571D01*
X158208953Y-34753569D01*
X158374563Y-34684971D01*
X158374562Y-34684971D01*
X158374565Y-34684970D01*
X158506720Y-34658683D01*
X158550373Y-34650000D01*
X158729627Y-34650000D01*
X158773280Y-34658683D01*
X158773280Y-34658683D01*
G37*
G36*
X167663280Y-34658683D02*
X167795435Y-34684970D01*
X167795438Y-34684971D01*
X167795437Y-34684971D01*
X167961047Y-34753569D01*
X167961050Y-34753571D01*
X168110088Y-34853154D01*
X168236846Y-34979912D01*
X168333770Y-35124970D01*
X168336431Y-35128953D01*
X168392360Y-35263976D01*
X168405030Y-35294565D01*
X168440000Y-35470374D01*
X168440000Y-35649626D01*
X168405030Y-35825435D01*
X168405029Y-35825437D01*
X168336431Y-35991047D01*
X168336429Y-35991050D01*
X168236846Y-36140088D01*
X168110088Y-36266846D01*
X167961050Y-36366429D01*
X167961047Y-36366431D01*
X167826024Y-36422360D01*
X167795435Y-36435030D01*
X167663280Y-36461317D01*
X167619627Y-36470000D01*
X167440373Y-36470000D01*
X167396720Y-36461317D01*
X167264565Y-36435030D01*
X167233976Y-36422360D01*
X167098953Y-36366431D01*
X167098950Y-36366429D01*
X166949912Y-36266846D01*
X166823154Y-36140088D01*
X166723571Y-35991050D01*
X166723569Y-35991047D01*
X166654971Y-35825437D01*
X166654970Y-35825435D01*
X166620000Y-35649626D01*
X166620000Y-35470374D01*
X166654970Y-35294565D01*
X166667640Y-35263976D01*
X166723569Y-35128953D01*
X166726230Y-35124970D01*
X166823154Y-34979912D01*
X166949912Y-34853154D01*
X167098950Y-34753571D01*
X167098953Y-34753569D01*
X167264563Y-34684971D01*
X167264562Y-34684971D01*
X167264565Y-34684970D01*
X167396720Y-34658683D01*
X167440373Y-34650000D01*
X167619627Y-34650000D01*
X167663280Y-34658683D01*
X167663280Y-34658683D01*
G37*
G36*
X165900000Y-36470000D02*
X164080000Y-36470000D01*
X164080000Y-34650000D01*
X165900000Y-34650000D01*
X165900000Y-36470000D01*
X165900000Y-36470000D01*
G37*
G36*
X176173280Y-34658683D02*
X176305435Y-34684970D01*
X176305438Y-34684971D01*
X176305437Y-34684971D01*
X176471047Y-34753569D01*
X176471050Y-34753571D01*
X176620088Y-34853154D01*
X176746846Y-34979912D01*
X176843770Y-35124970D01*
X176846431Y-35128953D01*
X176902360Y-35263976D01*
X176915030Y-35294565D01*
X176950000Y-35470374D01*
X176950000Y-35649626D01*
X176915030Y-35825435D01*
X176915029Y-35825437D01*
X176846431Y-35991047D01*
X176846429Y-35991050D01*
X176746846Y-36140088D01*
X176620088Y-36266846D01*
X176471050Y-36366429D01*
X176471047Y-36366431D01*
X176336024Y-36422360D01*
X176305435Y-36435030D01*
X176173280Y-36461317D01*
X176129627Y-36470000D01*
X175950373Y-36470000D01*
X175906720Y-36461317D01*
X175774565Y-36435030D01*
X175743976Y-36422360D01*
X175608953Y-36366431D01*
X175608950Y-36366429D01*
X175459912Y-36266846D01*
X175333154Y-36140088D01*
X175233571Y-35991050D01*
X175233569Y-35991047D01*
X175164971Y-35825437D01*
X175164970Y-35825435D01*
X175130000Y-35649626D01*
X175130000Y-35470374D01*
X175164970Y-35294565D01*
X175177640Y-35263976D01*
X175233569Y-35128953D01*
X175236230Y-35124970D01*
X175333154Y-34979912D01*
X175459912Y-34853154D01*
X175608950Y-34753571D01*
X175608953Y-34753569D01*
X175774563Y-34684971D01*
X175774562Y-34684971D01*
X175774565Y-34684970D01*
X175906720Y-34658683D01*
X175950373Y-34650000D01*
X176129627Y-34650000D01*
X176173280Y-34658683D01*
X176173280Y-34658683D01*
G37*
G36*
X174410000Y-36470000D02*
X172590000Y-36470000D01*
X172590000Y-34650000D01*
X174410000Y-34650000D01*
X174410000Y-36470000D01*
X174410000Y-36470000D01*
G37*
G36*
X140993280Y-34658683D02*
X141125435Y-34684970D01*
X141125438Y-34684971D01*
X141125437Y-34684971D01*
X141291047Y-34753569D01*
X141291050Y-34753571D01*
X141440088Y-34853154D01*
X141566846Y-34979912D01*
X141663770Y-35124970D01*
X141666431Y-35128953D01*
X141722360Y-35263976D01*
X141735030Y-35294565D01*
X141770000Y-35470374D01*
X141770000Y-35649626D01*
X141735030Y-35825435D01*
X141735029Y-35825437D01*
X141666431Y-35991047D01*
X141666429Y-35991050D01*
X141566846Y-36140088D01*
X141440088Y-36266846D01*
X141291050Y-36366429D01*
X141291047Y-36366431D01*
X141156024Y-36422360D01*
X141125435Y-36435030D01*
X140993280Y-36461317D01*
X140949627Y-36470000D01*
X140770373Y-36470000D01*
X140726720Y-36461317D01*
X140594565Y-36435030D01*
X140563976Y-36422360D01*
X140428953Y-36366431D01*
X140428950Y-36366429D01*
X140279912Y-36266846D01*
X140153154Y-36140088D01*
X140053571Y-35991050D01*
X140053569Y-35991047D01*
X139984971Y-35825437D01*
X139984970Y-35825435D01*
X139950000Y-35649626D01*
X139950000Y-35470374D01*
X139984970Y-35294565D01*
X139997640Y-35263976D01*
X140053569Y-35128953D01*
X140056230Y-35124970D01*
X140153154Y-34979912D01*
X140279912Y-34853154D01*
X140428950Y-34753571D01*
X140428953Y-34753569D01*
X140594563Y-34684971D01*
X140594562Y-34684971D01*
X140594565Y-34684970D01*
X140726720Y-34658683D01*
X140770373Y-34650000D01*
X140949627Y-34650000D01*
X140993280Y-34658683D01*
X140993280Y-34658683D01*
G37*
G36*
X184173280Y-34658683D02*
X184305435Y-34684970D01*
X184305438Y-34684971D01*
X184305437Y-34684971D01*
X184471047Y-34753569D01*
X184471050Y-34753571D01*
X184620088Y-34853154D01*
X184746846Y-34979912D01*
X184843770Y-35124970D01*
X184846431Y-35128953D01*
X184902360Y-35263976D01*
X184915030Y-35294565D01*
X184950000Y-35470374D01*
X184950000Y-35649626D01*
X184915030Y-35825435D01*
X184915029Y-35825437D01*
X184846431Y-35991047D01*
X184846429Y-35991050D01*
X184746846Y-36140088D01*
X184620088Y-36266846D01*
X184471050Y-36366429D01*
X184471047Y-36366431D01*
X184336024Y-36422360D01*
X184305435Y-36435030D01*
X184173280Y-36461317D01*
X184129627Y-36470000D01*
X183950373Y-36470000D01*
X183906720Y-36461317D01*
X183774565Y-36435030D01*
X183743976Y-36422360D01*
X183608953Y-36366431D01*
X183608950Y-36366429D01*
X183459912Y-36266846D01*
X183333154Y-36140088D01*
X183233571Y-35991050D01*
X183233569Y-35991047D01*
X183164971Y-35825437D01*
X183164970Y-35825435D01*
X183130000Y-35649626D01*
X183130000Y-35470374D01*
X183164970Y-35294565D01*
X183177640Y-35263976D01*
X183233569Y-35128953D01*
X183236230Y-35124970D01*
X183333154Y-34979912D01*
X183459912Y-34853154D01*
X183608950Y-34753571D01*
X183608953Y-34753569D01*
X183774563Y-34684971D01*
X183774562Y-34684971D01*
X183774565Y-34684970D01*
X183906720Y-34658683D01*
X183950373Y-34650000D01*
X184129627Y-34650000D01*
X184173280Y-34658683D01*
X184173280Y-34658683D01*
G37*
G36*
X157010000Y-36470000D02*
X155190000Y-36470000D01*
X155190000Y-34650000D01*
X157010000Y-34650000D01*
X157010000Y-36470000D01*
X157010000Y-36470000D01*
G37*
M02*
