G04 #@! TF.GenerationSoftware,KiCad,Pcbnew,(5.0.2)-1*
G04 #@! TF.CreationDate,2019-03-12T15:58:17+02:00*
G04 #@! TF.ProjectId,ev19dashboardv1,65763139-6461-4736-9862-6f6172647631,rev?*
G04 #@! TF.SameCoordinates,Original*
G04 #@! TF.FileFunction,Legend,Bot*
G04 #@! TF.FilePolarity,Positive*
%FSLAX46Y46*%
G04 Gerber Fmt 4.6, Leading zero omitted, Abs format (unit mm)*
G04 Created by KiCad (PCBNEW (5.0.2)-1) date 3/12/2019 3:58:17 PM*
%MOMM*%
%LPD*%
G01*
G04 APERTURE LIST*
%ADD10C,0.500000*%
%ADD11C,0.120000*%
%ADD12C,0.150000*%
G04 APERTURE END LIST*
D10*
G04 #@! TO.C,U3*
X107950000Y-96520000D02*
X191440000Y-96520000D01*
X191440000Y-96520000D02*
X191440000Y-40890000D01*
X191440000Y-40890000D02*
X107950000Y-40890000D01*
X107950000Y-40890000D02*
X107950000Y-96520000D01*
D11*
G04 #@! TO.C,D1*
X101470000Y-37105000D02*
X101470000Y-34015000D01*
X106530000Y-35560000D02*
G75*
G03X106530000Y-35560000I-2500000J0D01*
G01*
X107020000Y-35560462D02*
G75*
G03X101470000Y-34015170I-2990000J462D01*
G01*
X107020000Y-35559538D02*
G75*
G02X101470000Y-37104830I-2990000J-462D01*
G01*
G04 #@! TO.C,D2*
X110360000Y-37105000D02*
X110360000Y-34015000D01*
X115420000Y-35560000D02*
G75*
G03X115420000Y-35560000I-2500000J0D01*
G01*
X115910000Y-35560462D02*
G75*
G03X110360000Y-34015170I-2990000J462D01*
G01*
X115910000Y-35559538D02*
G75*
G02X110360000Y-37104830I-2990000J-462D01*
G01*
G04 #@! TO.C,D3*
X119250000Y-37105000D02*
X119250000Y-34015000D01*
X124310000Y-35560000D02*
G75*
G03X124310000Y-35560000I-2500000J0D01*
G01*
X124800000Y-35560462D02*
G75*
G03X119250000Y-34015170I-2990000J462D01*
G01*
X124800000Y-35559538D02*
G75*
G02X119250000Y-37104830I-2990000J-462D01*
G01*
G04 #@! TO.C,D4*
X128140000Y-37105000D02*
X128140000Y-34015000D01*
X133200000Y-35560000D02*
G75*
G03X133200000Y-35560000I-2500000J0D01*
G01*
X133690000Y-35560462D02*
G75*
G03X128140000Y-34015170I-2990000J462D01*
G01*
X133690000Y-35559538D02*
G75*
G02X128140000Y-37104830I-2990000J-462D01*
G01*
G04 #@! TO.C,D5*
X137030000Y-37105000D02*
X137030000Y-34015000D01*
X142090000Y-35560000D02*
G75*
G03X142090000Y-35560000I-2500000J0D01*
G01*
X142580000Y-35560462D02*
G75*
G03X137030000Y-34015170I-2990000J462D01*
G01*
X142580000Y-35559538D02*
G75*
G02X137030000Y-37104830I-2990000J-462D01*
G01*
G04 #@! TO.C,D6*
X145920000Y-37105000D02*
X145920000Y-34015000D01*
X150980000Y-35560000D02*
G75*
G03X150980000Y-35560000I-2500000J0D01*
G01*
X151470000Y-35560462D02*
G75*
G03X145920000Y-34015170I-2990000J462D01*
G01*
X151470000Y-35559538D02*
G75*
G02X145920000Y-37104830I-2990000J-462D01*
G01*
G04 #@! TO.C,D7*
X154810000Y-37105000D02*
X154810000Y-34015000D01*
X159870000Y-35560000D02*
G75*
G03X159870000Y-35560000I-2500000J0D01*
G01*
X160360000Y-35560462D02*
G75*
G03X154810000Y-34015170I-2990000J462D01*
G01*
X160360000Y-35559538D02*
G75*
G02X154810000Y-37104830I-2990000J-462D01*
G01*
G04 #@! TO.C,D8*
X163700000Y-37105000D02*
X163700000Y-34015000D01*
X168760000Y-35560000D02*
G75*
G03X168760000Y-35560000I-2500000J0D01*
G01*
X169250000Y-35560462D02*
G75*
G03X163700000Y-34015170I-2990000J462D01*
G01*
X169250000Y-35559538D02*
G75*
G02X163700000Y-37104830I-2990000J-462D01*
G01*
G04 #@! TO.C,D9*
X172210000Y-37105000D02*
X172210000Y-34015000D01*
X177270000Y-35560000D02*
G75*
G03X177270000Y-35560000I-2500000J0D01*
G01*
X177760000Y-35560462D02*
G75*
G03X172210000Y-34015170I-2990000J462D01*
G01*
X177760000Y-35559538D02*
G75*
G02X172210000Y-37104830I-2990000J-462D01*
G01*
G04 #@! TO.C,D10*
X180210000Y-37105000D02*
X180210000Y-34015000D01*
X185270000Y-35560000D02*
G75*
G03X185270000Y-35560000I-2500000J0D01*
G01*
X185760000Y-35560462D02*
G75*
G03X180210000Y-34015170I-2990000J462D01*
G01*
X185760000Y-35559538D02*
G75*
G02X180210000Y-37104830I-2990000J-462D01*
G01*
G04 #@! TO.C,D11*
X188710000Y-37545000D02*
X188710000Y-34455000D01*
X193770000Y-36000000D02*
G75*
G03X193770000Y-36000000I-2500000J0D01*
G01*
X194260000Y-36000462D02*
G75*
G03X188710000Y-34455170I-2990000J462D01*
G01*
X194260000Y-35999538D02*
G75*
G02X188710000Y-37544830I-2990000J-462D01*
G01*
G04 #@! TO.C,D12*
X196540000Y-47405000D02*
X196540000Y-44315000D01*
X201600000Y-45860000D02*
G75*
G03X201600000Y-45860000I-2500000J0D01*
G01*
X202090000Y-45860462D02*
G75*
G03X196540000Y-44315170I-2990000J462D01*
G01*
X202090000Y-45859538D02*
G75*
G02X196540000Y-47404830I-2990000J-462D01*
G01*
G04 #@! TO.C,D13*
X196540000Y-56295000D02*
X196540000Y-53205000D01*
X201600000Y-54750000D02*
G75*
G03X201600000Y-54750000I-2500000J0D01*
G01*
X202090000Y-54750462D02*
G75*
G03X196540000Y-53205170I-2990000J462D01*
G01*
X202090000Y-54749538D02*
G75*
G02X196540000Y-56294830I-2990000J-462D01*
G01*
G04 #@! TO.C,D14*
X196540000Y-66455000D02*
X196540000Y-63365000D01*
X201600000Y-64910000D02*
G75*
G03X201600000Y-64910000I-2500000J0D01*
G01*
X202090000Y-64910462D02*
G75*
G03X196540000Y-63365170I-2990000J462D01*
G01*
X202090000Y-64909538D02*
G75*
G02X196540000Y-66454830I-2990000J-462D01*
G01*
G04 #@! TO.C,D15*
X196710000Y-75545000D02*
X196710000Y-72455000D01*
X201770000Y-74000000D02*
G75*
G03X201770000Y-74000000I-2500000J0D01*
G01*
X202260000Y-74000462D02*
G75*
G03X196710000Y-72455170I-2990000J462D01*
G01*
X202260000Y-73999538D02*
G75*
G02X196710000Y-75544830I-2990000J-462D01*
G01*
G04 #@! TO.C,D16*
X196540000Y-84545000D02*
X196540000Y-81455000D01*
X201600000Y-83000000D02*
G75*
G03X201600000Y-83000000I-2500000J0D01*
G01*
X202090000Y-83000462D02*
G75*
G03X196540000Y-81455170I-2990000J462D01*
G01*
X202090000Y-82999538D02*
G75*
G02X196540000Y-84544830I-2990000J-462D01*
G01*
G04 #@! TO.C,U3*
D12*
X149351904Y-43902380D02*
X149351904Y-44711904D01*
X149304285Y-44807142D01*
X149256666Y-44854761D01*
X149161428Y-44902380D01*
X148970952Y-44902380D01*
X148875714Y-44854761D01*
X148828095Y-44807142D01*
X148780476Y-44711904D01*
X148780476Y-43902380D01*
X148399523Y-43902380D02*
X147780476Y-43902380D01*
X148113809Y-44283333D01*
X147970952Y-44283333D01*
X147875714Y-44330952D01*
X147828095Y-44378571D01*
X147780476Y-44473809D01*
X147780476Y-44711904D01*
X147828095Y-44807142D01*
X147875714Y-44854761D01*
X147970952Y-44902380D01*
X148256666Y-44902380D01*
X148351904Y-44854761D01*
X148399523Y-44807142D01*
G04 #@! TO.C,D1*
X104768095Y-39972380D02*
X104768095Y-38972380D01*
X104530000Y-38972380D01*
X104387142Y-39020000D01*
X104291904Y-39115238D01*
X104244285Y-39210476D01*
X104196666Y-39400952D01*
X104196666Y-39543809D01*
X104244285Y-39734285D01*
X104291904Y-39829523D01*
X104387142Y-39924761D01*
X104530000Y-39972380D01*
X104768095Y-39972380D01*
X103244285Y-39972380D02*
X103815714Y-39972380D01*
X103530000Y-39972380D02*
X103530000Y-38972380D01*
X103625238Y-39115238D01*
X103720476Y-39210476D01*
X103815714Y-39258095D01*
G04 #@! TO.C,D2*
X113658095Y-39972380D02*
X113658095Y-38972380D01*
X113420000Y-38972380D01*
X113277142Y-39020000D01*
X113181904Y-39115238D01*
X113134285Y-39210476D01*
X113086666Y-39400952D01*
X113086666Y-39543809D01*
X113134285Y-39734285D01*
X113181904Y-39829523D01*
X113277142Y-39924761D01*
X113420000Y-39972380D01*
X113658095Y-39972380D01*
X112705714Y-39067619D02*
X112658095Y-39020000D01*
X112562857Y-38972380D01*
X112324761Y-38972380D01*
X112229523Y-39020000D01*
X112181904Y-39067619D01*
X112134285Y-39162857D01*
X112134285Y-39258095D01*
X112181904Y-39400952D01*
X112753333Y-39972380D01*
X112134285Y-39972380D01*
G04 #@! TO.C,D3*
X122548095Y-39972380D02*
X122548095Y-38972380D01*
X122310000Y-38972380D01*
X122167142Y-39020000D01*
X122071904Y-39115238D01*
X122024285Y-39210476D01*
X121976666Y-39400952D01*
X121976666Y-39543809D01*
X122024285Y-39734285D01*
X122071904Y-39829523D01*
X122167142Y-39924761D01*
X122310000Y-39972380D01*
X122548095Y-39972380D01*
X121643333Y-38972380D02*
X121024285Y-38972380D01*
X121357619Y-39353333D01*
X121214761Y-39353333D01*
X121119523Y-39400952D01*
X121071904Y-39448571D01*
X121024285Y-39543809D01*
X121024285Y-39781904D01*
X121071904Y-39877142D01*
X121119523Y-39924761D01*
X121214761Y-39972380D01*
X121500476Y-39972380D01*
X121595714Y-39924761D01*
X121643333Y-39877142D01*
G04 #@! TO.C,D4*
X131438095Y-39972380D02*
X131438095Y-38972380D01*
X131200000Y-38972380D01*
X131057142Y-39020000D01*
X130961904Y-39115238D01*
X130914285Y-39210476D01*
X130866666Y-39400952D01*
X130866666Y-39543809D01*
X130914285Y-39734285D01*
X130961904Y-39829523D01*
X131057142Y-39924761D01*
X131200000Y-39972380D01*
X131438095Y-39972380D01*
X130009523Y-39305714D02*
X130009523Y-39972380D01*
X130247619Y-38924761D02*
X130485714Y-39639047D01*
X129866666Y-39639047D01*
G04 #@! TO.C,D5*
X140328095Y-39972380D02*
X140328095Y-38972380D01*
X140090000Y-38972380D01*
X139947142Y-39020000D01*
X139851904Y-39115238D01*
X139804285Y-39210476D01*
X139756666Y-39400952D01*
X139756666Y-39543809D01*
X139804285Y-39734285D01*
X139851904Y-39829523D01*
X139947142Y-39924761D01*
X140090000Y-39972380D01*
X140328095Y-39972380D01*
X138851904Y-38972380D02*
X139328095Y-38972380D01*
X139375714Y-39448571D01*
X139328095Y-39400952D01*
X139232857Y-39353333D01*
X138994761Y-39353333D01*
X138899523Y-39400952D01*
X138851904Y-39448571D01*
X138804285Y-39543809D01*
X138804285Y-39781904D01*
X138851904Y-39877142D01*
X138899523Y-39924761D01*
X138994761Y-39972380D01*
X139232857Y-39972380D01*
X139328095Y-39924761D01*
X139375714Y-39877142D01*
G04 #@! TO.C,D6*
X149218095Y-39972380D02*
X149218095Y-38972380D01*
X148980000Y-38972380D01*
X148837142Y-39020000D01*
X148741904Y-39115238D01*
X148694285Y-39210476D01*
X148646666Y-39400952D01*
X148646666Y-39543809D01*
X148694285Y-39734285D01*
X148741904Y-39829523D01*
X148837142Y-39924761D01*
X148980000Y-39972380D01*
X149218095Y-39972380D01*
X147789523Y-38972380D02*
X147980000Y-38972380D01*
X148075238Y-39020000D01*
X148122857Y-39067619D01*
X148218095Y-39210476D01*
X148265714Y-39400952D01*
X148265714Y-39781904D01*
X148218095Y-39877142D01*
X148170476Y-39924761D01*
X148075238Y-39972380D01*
X147884761Y-39972380D01*
X147789523Y-39924761D01*
X147741904Y-39877142D01*
X147694285Y-39781904D01*
X147694285Y-39543809D01*
X147741904Y-39448571D01*
X147789523Y-39400952D01*
X147884761Y-39353333D01*
X148075238Y-39353333D01*
X148170476Y-39400952D01*
X148218095Y-39448571D01*
X148265714Y-39543809D01*
G04 #@! TO.C,D7*
X158108095Y-39972380D02*
X158108095Y-38972380D01*
X157870000Y-38972380D01*
X157727142Y-39020000D01*
X157631904Y-39115238D01*
X157584285Y-39210476D01*
X157536666Y-39400952D01*
X157536666Y-39543809D01*
X157584285Y-39734285D01*
X157631904Y-39829523D01*
X157727142Y-39924761D01*
X157870000Y-39972380D01*
X158108095Y-39972380D01*
X157203333Y-38972380D02*
X156536666Y-38972380D01*
X156965238Y-39972380D01*
G04 #@! TO.C,D8*
X166998095Y-39972380D02*
X166998095Y-38972380D01*
X166760000Y-38972380D01*
X166617142Y-39020000D01*
X166521904Y-39115238D01*
X166474285Y-39210476D01*
X166426666Y-39400952D01*
X166426666Y-39543809D01*
X166474285Y-39734285D01*
X166521904Y-39829523D01*
X166617142Y-39924761D01*
X166760000Y-39972380D01*
X166998095Y-39972380D01*
X165855238Y-39400952D02*
X165950476Y-39353333D01*
X165998095Y-39305714D01*
X166045714Y-39210476D01*
X166045714Y-39162857D01*
X165998095Y-39067619D01*
X165950476Y-39020000D01*
X165855238Y-38972380D01*
X165664761Y-38972380D01*
X165569523Y-39020000D01*
X165521904Y-39067619D01*
X165474285Y-39162857D01*
X165474285Y-39210476D01*
X165521904Y-39305714D01*
X165569523Y-39353333D01*
X165664761Y-39400952D01*
X165855238Y-39400952D01*
X165950476Y-39448571D01*
X165998095Y-39496190D01*
X166045714Y-39591428D01*
X166045714Y-39781904D01*
X165998095Y-39877142D01*
X165950476Y-39924761D01*
X165855238Y-39972380D01*
X165664761Y-39972380D01*
X165569523Y-39924761D01*
X165521904Y-39877142D01*
X165474285Y-39781904D01*
X165474285Y-39591428D01*
X165521904Y-39496190D01*
X165569523Y-39448571D01*
X165664761Y-39400952D01*
G04 #@! TO.C,D9*
X175508095Y-39972380D02*
X175508095Y-38972380D01*
X175270000Y-38972380D01*
X175127142Y-39020000D01*
X175031904Y-39115238D01*
X174984285Y-39210476D01*
X174936666Y-39400952D01*
X174936666Y-39543809D01*
X174984285Y-39734285D01*
X175031904Y-39829523D01*
X175127142Y-39924761D01*
X175270000Y-39972380D01*
X175508095Y-39972380D01*
X174460476Y-39972380D02*
X174270000Y-39972380D01*
X174174761Y-39924761D01*
X174127142Y-39877142D01*
X174031904Y-39734285D01*
X173984285Y-39543809D01*
X173984285Y-39162857D01*
X174031904Y-39067619D01*
X174079523Y-39020000D01*
X174174761Y-38972380D01*
X174365238Y-38972380D01*
X174460476Y-39020000D01*
X174508095Y-39067619D01*
X174555714Y-39162857D01*
X174555714Y-39400952D01*
X174508095Y-39496190D01*
X174460476Y-39543809D01*
X174365238Y-39591428D01*
X174174761Y-39591428D01*
X174079523Y-39543809D01*
X174031904Y-39496190D01*
X173984285Y-39400952D01*
G04 #@! TO.C,D10*
X183984285Y-39972380D02*
X183984285Y-38972380D01*
X183746190Y-38972380D01*
X183603333Y-39020000D01*
X183508095Y-39115238D01*
X183460476Y-39210476D01*
X183412857Y-39400952D01*
X183412857Y-39543809D01*
X183460476Y-39734285D01*
X183508095Y-39829523D01*
X183603333Y-39924761D01*
X183746190Y-39972380D01*
X183984285Y-39972380D01*
X182460476Y-39972380D02*
X183031904Y-39972380D01*
X182746190Y-39972380D02*
X182746190Y-38972380D01*
X182841428Y-39115238D01*
X182936666Y-39210476D01*
X183031904Y-39258095D01*
X181841428Y-38972380D02*
X181746190Y-38972380D01*
X181650952Y-39020000D01*
X181603333Y-39067619D01*
X181555714Y-39162857D01*
X181508095Y-39353333D01*
X181508095Y-39591428D01*
X181555714Y-39781904D01*
X181603333Y-39877142D01*
X181650952Y-39924761D01*
X181746190Y-39972380D01*
X181841428Y-39972380D01*
X181936666Y-39924761D01*
X181984285Y-39877142D01*
X182031904Y-39781904D01*
X182079523Y-39591428D01*
X182079523Y-39353333D01*
X182031904Y-39162857D01*
X181984285Y-39067619D01*
X181936666Y-39020000D01*
X181841428Y-38972380D01*
G04 #@! TO.C,D11*
X192484285Y-40412380D02*
X192484285Y-39412380D01*
X192246190Y-39412380D01*
X192103333Y-39460000D01*
X192008095Y-39555238D01*
X191960476Y-39650476D01*
X191912857Y-39840952D01*
X191912857Y-39983809D01*
X191960476Y-40174285D01*
X192008095Y-40269523D01*
X192103333Y-40364761D01*
X192246190Y-40412380D01*
X192484285Y-40412380D01*
X190960476Y-40412380D02*
X191531904Y-40412380D01*
X191246190Y-40412380D02*
X191246190Y-39412380D01*
X191341428Y-39555238D01*
X191436666Y-39650476D01*
X191531904Y-39698095D01*
X190008095Y-40412380D02*
X190579523Y-40412380D01*
X190293809Y-40412380D02*
X190293809Y-39412380D01*
X190389047Y-39555238D01*
X190484285Y-39650476D01*
X190579523Y-39698095D01*
G04 #@! TO.C,D12*
X200314285Y-50272380D02*
X200314285Y-49272380D01*
X200076190Y-49272380D01*
X199933333Y-49320000D01*
X199838095Y-49415238D01*
X199790476Y-49510476D01*
X199742857Y-49700952D01*
X199742857Y-49843809D01*
X199790476Y-50034285D01*
X199838095Y-50129523D01*
X199933333Y-50224761D01*
X200076190Y-50272380D01*
X200314285Y-50272380D01*
X198790476Y-50272380D02*
X199361904Y-50272380D01*
X199076190Y-50272380D02*
X199076190Y-49272380D01*
X199171428Y-49415238D01*
X199266666Y-49510476D01*
X199361904Y-49558095D01*
X198409523Y-49367619D02*
X198361904Y-49320000D01*
X198266666Y-49272380D01*
X198028571Y-49272380D01*
X197933333Y-49320000D01*
X197885714Y-49367619D01*
X197838095Y-49462857D01*
X197838095Y-49558095D01*
X197885714Y-49700952D01*
X198457142Y-50272380D01*
X197838095Y-50272380D01*
G04 #@! TO.C,D13*
X200314285Y-59162380D02*
X200314285Y-58162380D01*
X200076190Y-58162380D01*
X199933333Y-58210000D01*
X199838095Y-58305238D01*
X199790476Y-58400476D01*
X199742857Y-58590952D01*
X199742857Y-58733809D01*
X199790476Y-58924285D01*
X199838095Y-59019523D01*
X199933333Y-59114761D01*
X200076190Y-59162380D01*
X200314285Y-59162380D01*
X198790476Y-59162380D02*
X199361904Y-59162380D01*
X199076190Y-59162380D02*
X199076190Y-58162380D01*
X199171428Y-58305238D01*
X199266666Y-58400476D01*
X199361904Y-58448095D01*
X198457142Y-58162380D02*
X197838095Y-58162380D01*
X198171428Y-58543333D01*
X198028571Y-58543333D01*
X197933333Y-58590952D01*
X197885714Y-58638571D01*
X197838095Y-58733809D01*
X197838095Y-58971904D01*
X197885714Y-59067142D01*
X197933333Y-59114761D01*
X198028571Y-59162380D01*
X198314285Y-59162380D01*
X198409523Y-59114761D01*
X198457142Y-59067142D01*
G04 #@! TO.C,D14*
X200314285Y-69322380D02*
X200314285Y-68322380D01*
X200076190Y-68322380D01*
X199933333Y-68370000D01*
X199838095Y-68465238D01*
X199790476Y-68560476D01*
X199742857Y-68750952D01*
X199742857Y-68893809D01*
X199790476Y-69084285D01*
X199838095Y-69179523D01*
X199933333Y-69274761D01*
X200076190Y-69322380D01*
X200314285Y-69322380D01*
X198790476Y-69322380D02*
X199361904Y-69322380D01*
X199076190Y-69322380D02*
X199076190Y-68322380D01*
X199171428Y-68465238D01*
X199266666Y-68560476D01*
X199361904Y-68608095D01*
X197933333Y-68655714D02*
X197933333Y-69322380D01*
X198171428Y-68274761D02*
X198409523Y-68989047D01*
X197790476Y-68989047D01*
G04 #@! TO.C,D15*
X200484285Y-78412380D02*
X200484285Y-77412380D01*
X200246190Y-77412380D01*
X200103333Y-77460000D01*
X200008095Y-77555238D01*
X199960476Y-77650476D01*
X199912857Y-77840952D01*
X199912857Y-77983809D01*
X199960476Y-78174285D01*
X200008095Y-78269523D01*
X200103333Y-78364761D01*
X200246190Y-78412380D01*
X200484285Y-78412380D01*
X198960476Y-78412380D02*
X199531904Y-78412380D01*
X199246190Y-78412380D02*
X199246190Y-77412380D01*
X199341428Y-77555238D01*
X199436666Y-77650476D01*
X199531904Y-77698095D01*
X198055714Y-77412380D02*
X198531904Y-77412380D01*
X198579523Y-77888571D01*
X198531904Y-77840952D01*
X198436666Y-77793333D01*
X198198571Y-77793333D01*
X198103333Y-77840952D01*
X198055714Y-77888571D01*
X198008095Y-77983809D01*
X198008095Y-78221904D01*
X198055714Y-78317142D01*
X198103333Y-78364761D01*
X198198571Y-78412380D01*
X198436666Y-78412380D01*
X198531904Y-78364761D01*
X198579523Y-78317142D01*
G04 #@! TO.C,D16*
X200314285Y-87412380D02*
X200314285Y-86412380D01*
X200076190Y-86412380D01*
X199933333Y-86460000D01*
X199838095Y-86555238D01*
X199790476Y-86650476D01*
X199742857Y-86840952D01*
X199742857Y-86983809D01*
X199790476Y-87174285D01*
X199838095Y-87269523D01*
X199933333Y-87364761D01*
X200076190Y-87412380D01*
X200314285Y-87412380D01*
X198790476Y-87412380D02*
X199361904Y-87412380D01*
X199076190Y-87412380D02*
X199076190Y-86412380D01*
X199171428Y-86555238D01*
X199266666Y-86650476D01*
X199361904Y-86698095D01*
X197933333Y-86412380D02*
X198123809Y-86412380D01*
X198219047Y-86460000D01*
X198266666Y-86507619D01*
X198361904Y-86650476D01*
X198409523Y-86840952D01*
X198409523Y-87221904D01*
X198361904Y-87317142D01*
X198314285Y-87364761D01*
X198219047Y-87412380D01*
X198028571Y-87412380D01*
X197933333Y-87364761D01*
X197885714Y-87317142D01*
X197838095Y-87221904D01*
X197838095Y-86983809D01*
X197885714Y-86888571D01*
X197933333Y-86840952D01*
X198028571Y-86793333D01*
X198219047Y-86793333D01*
X198314285Y-86840952D01*
X198361904Y-86888571D01*
X198409523Y-86983809D01*
G04 #@! TD*
M02*
