G04 #@! TF.GenerationSoftware,KiCad,Pcbnew,(5.0.2)-1*
G04 #@! TF.CreationDate,2019-03-12T15:58:17+02:00*
G04 #@! TF.ProjectId,ev19dashboardv1,65763139-6461-4736-9862-6f6172647631,rev?*
G04 #@! TF.SameCoordinates,Original*
G04 #@! TF.FileFunction,Legend,Top*
G04 #@! TF.FilePolarity,Positive*
%FSLAX46Y46*%
G04 Gerber Fmt 4.6, Leading zero omitted, Abs format (unit mm)*
G04 Created by KiCad (PCBNEW (5.0.2)-1) date 3/12/2019 3:58:17 PM*
%MOMM*%
%LPD*%
G01*
G04 APERTURE LIST*
%ADD10C,0.120000*%
%ADD11C,0.150000*%
G04 APERTURE END LIST*
D10*
G04 #@! TO.C,J1*
X97178456Y-88496670D02*
X101878456Y-87667933D01*
X97178456Y-72763730D02*
X101878456Y-73592467D01*
X103250200Y-86033152D02*
X103250200Y-75227248D01*
X95230200Y-86861889D02*
X95230200Y-74398511D01*
X92468875Y-75090200D02*
X92035862Y-75340200D01*
X92035862Y-74840200D02*
X92468875Y-75090200D01*
X92035862Y-75340200D02*
X92035862Y-74840200D01*
X104490200Y-96115200D02*
X93990200Y-96115200D01*
X105550200Y-66205200D02*
X105550200Y-95055200D01*
X93990200Y-65145200D02*
X104490200Y-65145200D01*
X92930200Y-95055200D02*
X92930200Y-66205200D01*
X101878456Y-73592467D02*
G75*
G02X103250200Y-75227248I-288256J-1634781D01*
G01*
X101878456Y-87667933D02*
G75*
G03X103250200Y-86033152I-288256J1634781D01*
G01*
X97178456Y-72763730D02*
G75*
G03X95230200Y-74398511I-288256J-1634781D01*
G01*
X97178456Y-88496670D02*
G75*
G02X95230200Y-86861889I-288256J1634781D01*
G01*
X105550200Y-66205200D02*
G75*
G03X104490200Y-65145200I-1060000J0D01*
G01*
X105550200Y-95055200D02*
G75*
G02X104490200Y-96115200I-1060000J0D01*
G01*
X93990200Y-65145200D02*
G75*
G03X92930200Y-66205200I0J-1060000D01*
G01*
X92930200Y-95055200D02*
G75*
G03X93990200Y-96115200I1060000J0D01*
G01*
G04 #@! TO.C,C1*
X111397936Y-55910000D02*
X112602064Y-55910000D01*
X111397936Y-54090000D02*
X112602064Y-54090000D01*
G04 #@! TO.C,C2*
X114902064Y-43540000D02*
X113697936Y-43540000D01*
X114902064Y-45360000D02*
X113697936Y-45360000D01*
G04 #@! TO.C,C3*
X157218748Y-59130000D02*
X157741252Y-59130000D01*
X157218748Y-57710000D02*
X157741252Y-57710000D01*
G04 #@! TO.C,C4*
X135628748Y-62940000D02*
X136151252Y-62940000D01*
X135628748Y-61520000D02*
X136151252Y-61520000D01*
G04 #@! TO.C,C5*
X142950000Y-73921252D02*
X142950000Y-73398748D01*
X141530000Y-73921252D02*
X141530000Y-73398748D01*
G04 #@! TO.C,C6*
X149598748Y-59130000D02*
X150121252Y-59130000D01*
X149598748Y-57710000D02*
X150121252Y-57710000D01*
G04 #@! TO.C,C7*
X153169252Y-66981000D02*
X152646748Y-66981000D01*
X153169252Y-68401000D02*
X152646748Y-68401000D01*
G04 #@! TO.C,C9*
X96770436Y-56155000D02*
X97974564Y-56155000D01*
X96770436Y-54335000D02*
X97974564Y-54335000D01*
G04 #@! TO.C,C12*
X121210000Y-84828748D02*
X121210000Y-85351252D01*
X122630000Y-84828748D02*
X122630000Y-85351252D01*
G04 #@! TO.C,U1*
X110200000Y-46120000D02*
X116210000Y-46120000D01*
X112450000Y-52940000D02*
X116210000Y-52940000D01*
X116210000Y-46120000D02*
X116210000Y-47380000D01*
X116210000Y-52940000D02*
X116210000Y-51680000D01*
G04 #@! TO.C,U2*
X144780000Y-59735400D02*
X144483015Y-60032385D01*
X149814600Y-64770000D02*
X149517615Y-64473015D01*
X149517615Y-64473015D02*
X150493423Y-63497208D01*
X144780000Y-69804600D02*
X145076985Y-69507615D01*
X139745400Y-64770000D02*
X140042385Y-64473015D01*
X149814600Y-64770000D02*
X149517615Y-65066985D01*
X144780000Y-59735400D02*
X145076985Y-60032385D01*
X139745400Y-64770000D02*
X140042385Y-65066985D01*
X144780000Y-69804600D02*
X144483015Y-69507615D01*
D11*
G04 #@! TO.C,U5*
X117645000Y-87615000D02*
X119045000Y-87615000D01*
X117645000Y-82515000D02*
X113495000Y-82515000D01*
X117645000Y-87665000D02*
X113495000Y-87665000D01*
X117645000Y-82515000D02*
X117645000Y-82660000D01*
X113495000Y-82515000D02*
X113495000Y-82660000D01*
X113495000Y-87665000D02*
X113495000Y-87520000D01*
X117645000Y-87665000D02*
X117645000Y-87615000D01*
D10*
G04 #@! TO.C,C8*
X149257936Y-56790000D02*
X150462064Y-56790000D01*
X149257936Y-54970000D02*
X150462064Y-54970000D01*
G04 #@! TO.C,C13*
X184764000Y-92840564D02*
X184764000Y-91636436D01*
X186584000Y-92840564D02*
X186584000Y-91636436D01*
G04 #@! TO.C,C14*
X174858000Y-88297936D02*
X174858000Y-89502064D01*
X176678000Y-88297936D02*
X176678000Y-89502064D01*
G04 #@! TO.C,C15*
X174192000Y-88003748D02*
X174192000Y-88526252D01*
X172772000Y-88003748D02*
X172772000Y-88526252D01*
G04 #@! TO.C,U4*
X94900000Y-46590000D02*
X100910000Y-46590000D01*
X97150000Y-53410000D02*
X100910000Y-53410000D01*
X100910000Y-46590000D02*
X100910000Y-47850000D01*
X100910000Y-53410000D02*
X100910000Y-52150000D01*
G04 #@! TO.C,U6*
X184131000Y-88641000D02*
X182871000Y-88641000D01*
X177311000Y-88641000D02*
X178571000Y-88641000D01*
X184131000Y-92401000D02*
X184131000Y-88641000D01*
X177311000Y-94651000D02*
X177311000Y-88641000D01*
D11*
G04 #@! TO.C,U7*
X164189000Y-71794000D02*
X164414000Y-71794000D01*
X164189000Y-67144000D02*
X164514000Y-67144000D01*
X174189800Y-67144000D02*
X173864800Y-67144000D01*
X174189800Y-71794000D02*
X173864800Y-71794000D01*
X164189000Y-71794000D02*
X164189000Y-67144000D01*
X174189800Y-71794000D02*
X174189800Y-67144000D01*
X164414000Y-71794000D02*
X164414000Y-72869000D01*
D10*
G04 #@! TO.C,R1*
X109526000Y-85478252D02*
X109526000Y-84955748D01*
X110946000Y-85478252D02*
X110946000Y-84955748D01*
G04 #@! TO.C,R2*
X166318000Y-63126252D02*
X166318000Y-62603748D01*
X164898000Y-63126252D02*
X164898000Y-62603748D01*
G04 #@! TO.C,C10*
X101348064Y-43418000D02*
X100143936Y-43418000D01*
X101348064Y-41598000D02*
X100143936Y-41598000D01*
G04 #@! TO.C,C11*
X101353252Y-45668000D02*
X100830748Y-45668000D01*
X101353252Y-44248000D02*
X100830748Y-44248000D01*
G04 #@! TO.C,J2*
X169950000Y-88330000D02*
X169950000Y-85670000D01*
X162270000Y-88330000D02*
X169950000Y-88330000D01*
X162270000Y-85670000D02*
X169950000Y-85670000D01*
X162270000Y-88330000D02*
X162270000Y-85670000D01*
X161000000Y-88330000D02*
X159670000Y-88330000D01*
X159670000Y-88330000D02*
X159670000Y-87000000D01*
G04 #@! TO.C,J1*
D11*
X91382580Y-80963533D02*
X92096866Y-80963533D01*
X92239723Y-81011152D01*
X92334961Y-81106390D01*
X92382580Y-81249247D01*
X92382580Y-81344485D01*
X92382580Y-79963533D02*
X92382580Y-80534961D01*
X92382580Y-80249247D02*
X91382580Y-80249247D01*
X91525438Y-80344485D01*
X91620676Y-80439723D01*
X91668295Y-80534961D01*
G04 #@! TO.C,C1*
X115643333Y-55357142D02*
X115595714Y-55404761D01*
X115452857Y-55452380D01*
X115357619Y-55452380D01*
X115214761Y-55404761D01*
X115119523Y-55309523D01*
X115071904Y-55214285D01*
X115024285Y-55023809D01*
X115024285Y-54880952D01*
X115071904Y-54690476D01*
X115119523Y-54595238D01*
X115214761Y-54500000D01*
X115357619Y-54452380D01*
X115452857Y-54452380D01*
X115595714Y-54500000D01*
X115643333Y-54547619D01*
X116595714Y-55452380D02*
X116024285Y-55452380D01*
X116310000Y-55452380D02*
X116310000Y-54452380D01*
X116214761Y-54595238D01*
X116119523Y-54690476D01*
X116024285Y-54738095D01*
G04 #@! TO.C,C2*
X110640833Y-45378642D02*
X110593214Y-45426261D01*
X110450357Y-45473880D01*
X110355119Y-45473880D01*
X110212261Y-45426261D01*
X110117023Y-45331023D01*
X110069404Y-45235785D01*
X110021785Y-45045309D01*
X110021785Y-44902452D01*
X110069404Y-44711976D01*
X110117023Y-44616738D01*
X110212261Y-44521500D01*
X110355119Y-44473880D01*
X110450357Y-44473880D01*
X110593214Y-44521500D01*
X110640833Y-44569119D01*
X111021785Y-44569119D02*
X111069404Y-44521500D01*
X111164642Y-44473880D01*
X111402738Y-44473880D01*
X111497976Y-44521500D01*
X111545595Y-44569119D01*
X111593214Y-44664357D01*
X111593214Y-44759595D01*
X111545595Y-44902452D01*
X110974166Y-45473880D01*
X111593214Y-45473880D01*
G04 #@! TO.C,C3*
X161123333Y-58777142D02*
X161075714Y-58824761D01*
X160932857Y-58872380D01*
X160837619Y-58872380D01*
X160694761Y-58824761D01*
X160599523Y-58729523D01*
X160551904Y-58634285D01*
X160504285Y-58443809D01*
X160504285Y-58300952D01*
X160551904Y-58110476D01*
X160599523Y-58015238D01*
X160694761Y-57920000D01*
X160837619Y-57872380D01*
X160932857Y-57872380D01*
X161075714Y-57920000D01*
X161123333Y-57967619D01*
X161456666Y-57872380D02*
X162075714Y-57872380D01*
X161742380Y-58253333D01*
X161885238Y-58253333D01*
X161980476Y-58300952D01*
X162028095Y-58348571D01*
X162075714Y-58443809D01*
X162075714Y-58681904D01*
X162028095Y-58777142D01*
X161980476Y-58824761D01*
X161885238Y-58872380D01*
X161599523Y-58872380D01*
X161504285Y-58824761D01*
X161456666Y-58777142D01*
G04 #@! TO.C,C4*
X135723333Y-60937142D02*
X135675714Y-60984761D01*
X135532857Y-61032380D01*
X135437619Y-61032380D01*
X135294761Y-60984761D01*
X135199523Y-60889523D01*
X135151904Y-60794285D01*
X135104285Y-60603809D01*
X135104285Y-60460952D01*
X135151904Y-60270476D01*
X135199523Y-60175238D01*
X135294761Y-60080000D01*
X135437619Y-60032380D01*
X135532857Y-60032380D01*
X135675714Y-60080000D01*
X135723333Y-60127619D01*
X136580476Y-60365714D02*
X136580476Y-61032380D01*
X136342380Y-59984761D02*
X136104285Y-60699047D01*
X136723333Y-60699047D01*
G04 #@! TO.C,C5*
X140947142Y-73826666D02*
X140994761Y-73874285D01*
X141042380Y-74017142D01*
X141042380Y-74112380D01*
X140994761Y-74255238D01*
X140899523Y-74350476D01*
X140804285Y-74398095D01*
X140613809Y-74445714D01*
X140470952Y-74445714D01*
X140280476Y-74398095D01*
X140185238Y-74350476D01*
X140090000Y-74255238D01*
X140042380Y-74112380D01*
X140042380Y-74017142D01*
X140090000Y-73874285D01*
X140137619Y-73826666D01*
X140042380Y-72921904D02*
X140042380Y-73398095D01*
X140518571Y-73445714D01*
X140470952Y-73398095D01*
X140423333Y-73302857D01*
X140423333Y-73064761D01*
X140470952Y-72969523D01*
X140518571Y-72921904D01*
X140613809Y-72874285D01*
X140851904Y-72874285D01*
X140947142Y-72921904D01*
X140994761Y-72969523D01*
X141042380Y-73064761D01*
X141042380Y-73302857D01*
X140994761Y-73398095D01*
X140947142Y-73445714D01*
G04 #@! TO.C,C6*
X153503333Y-58777142D02*
X153455714Y-58824761D01*
X153312857Y-58872380D01*
X153217619Y-58872380D01*
X153074761Y-58824761D01*
X152979523Y-58729523D01*
X152931904Y-58634285D01*
X152884285Y-58443809D01*
X152884285Y-58300952D01*
X152931904Y-58110476D01*
X152979523Y-58015238D01*
X153074761Y-57920000D01*
X153217619Y-57872380D01*
X153312857Y-57872380D01*
X153455714Y-57920000D01*
X153503333Y-57967619D01*
X154360476Y-57872380D02*
X154170000Y-57872380D01*
X154074761Y-57920000D01*
X154027142Y-57967619D01*
X153931904Y-58110476D01*
X153884285Y-58300952D01*
X153884285Y-58681904D01*
X153931904Y-58777142D01*
X153979523Y-58824761D01*
X154074761Y-58872380D01*
X154265238Y-58872380D01*
X154360476Y-58824761D01*
X154408095Y-58777142D01*
X154455714Y-58681904D01*
X154455714Y-58443809D01*
X154408095Y-58348571D01*
X154360476Y-58300952D01*
X154265238Y-58253333D01*
X154074761Y-58253333D01*
X153979523Y-58300952D01*
X153931904Y-58348571D01*
X153884285Y-58443809D01*
G04 #@! TO.C,C7*
X152741333Y-69698142D02*
X152693714Y-69745761D01*
X152550857Y-69793380D01*
X152455619Y-69793380D01*
X152312761Y-69745761D01*
X152217523Y-69650523D01*
X152169904Y-69555285D01*
X152122285Y-69364809D01*
X152122285Y-69221952D01*
X152169904Y-69031476D01*
X152217523Y-68936238D01*
X152312761Y-68841000D01*
X152455619Y-68793380D01*
X152550857Y-68793380D01*
X152693714Y-68841000D01*
X152741333Y-68888619D01*
X153074666Y-68793380D02*
X153741333Y-68793380D01*
X153312761Y-69793380D01*
G04 #@! TO.C,C9*
X100290333Y-57634142D02*
X100242714Y-57681761D01*
X100099857Y-57729380D01*
X100004619Y-57729380D01*
X99861761Y-57681761D01*
X99766523Y-57586523D01*
X99718904Y-57491285D01*
X99671285Y-57300809D01*
X99671285Y-57157952D01*
X99718904Y-56967476D01*
X99766523Y-56872238D01*
X99861761Y-56777000D01*
X100004619Y-56729380D01*
X100099857Y-56729380D01*
X100242714Y-56777000D01*
X100290333Y-56824619D01*
X100766523Y-57729380D02*
X100957000Y-57729380D01*
X101052238Y-57681761D01*
X101099857Y-57634142D01*
X101195095Y-57491285D01*
X101242714Y-57300809D01*
X101242714Y-56919857D01*
X101195095Y-56824619D01*
X101147476Y-56777000D01*
X101052238Y-56729380D01*
X100861761Y-56729380D01*
X100766523Y-56777000D01*
X100718904Y-56824619D01*
X100671285Y-56919857D01*
X100671285Y-57157952D01*
X100718904Y-57253190D01*
X100766523Y-57300809D01*
X100861761Y-57348428D01*
X101052238Y-57348428D01*
X101147476Y-57300809D01*
X101195095Y-57253190D01*
X101242714Y-57157952D01*
G04 #@! TO.C,C12*
X123927142Y-85732857D02*
X123974761Y-85780476D01*
X124022380Y-85923333D01*
X124022380Y-86018571D01*
X123974761Y-86161428D01*
X123879523Y-86256666D01*
X123784285Y-86304285D01*
X123593809Y-86351904D01*
X123450952Y-86351904D01*
X123260476Y-86304285D01*
X123165238Y-86256666D01*
X123070000Y-86161428D01*
X123022380Y-86018571D01*
X123022380Y-85923333D01*
X123070000Y-85780476D01*
X123117619Y-85732857D01*
X124022380Y-84780476D02*
X124022380Y-85351904D01*
X124022380Y-85066190D02*
X123022380Y-85066190D01*
X123165238Y-85161428D01*
X123260476Y-85256666D01*
X123308095Y-85351904D01*
X123117619Y-84399523D02*
X123070000Y-84351904D01*
X123022380Y-84256666D01*
X123022380Y-84018571D01*
X123070000Y-83923333D01*
X123117619Y-83875714D01*
X123212857Y-83828095D01*
X123308095Y-83828095D01*
X123450952Y-83875714D01*
X124022380Y-84447142D01*
X124022380Y-83828095D01*
G04 #@! TO.C,U1*
X119062595Y-46315380D02*
X119062595Y-47124904D01*
X119110214Y-47220142D01*
X119157833Y-47267761D01*
X119253071Y-47315380D01*
X119443547Y-47315380D01*
X119538785Y-47267761D01*
X119586404Y-47220142D01*
X119634023Y-47124904D01*
X119634023Y-46315380D01*
X120634023Y-47315380D02*
X120062595Y-47315380D01*
X120348309Y-47315380D02*
X120348309Y-46315380D01*
X120253071Y-46458238D01*
X120157833Y-46553476D01*
X120062595Y-46601095D01*
G04 #@! TO.C,U2*
X144628477Y-71464026D02*
X144056057Y-72036446D01*
X144022385Y-72137461D01*
X144022385Y-72204805D01*
X144056057Y-72305820D01*
X144190744Y-72440507D01*
X144291759Y-72474179D01*
X144359103Y-72474179D01*
X144460118Y-72440507D01*
X145032538Y-71868087D01*
X145268240Y-72238477D02*
X145335583Y-72238477D01*
X145436599Y-72272148D01*
X145604957Y-72440507D01*
X145638629Y-72541522D01*
X145638629Y-72608866D01*
X145604957Y-72709881D01*
X145537614Y-72777225D01*
X145402927Y-72844568D01*
X144594805Y-72844568D01*
X145032538Y-73282301D01*
G04 #@! TO.C,U5*
X114808095Y-88042380D02*
X114808095Y-88851904D01*
X114855714Y-88947142D01*
X114903333Y-88994761D01*
X114998571Y-89042380D01*
X115189047Y-89042380D01*
X115284285Y-88994761D01*
X115331904Y-88947142D01*
X115379523Y-88851904D01*
X115379523Y-88042380D01*
X116331904Y-88042380D02*
X115855714Y-88042380D01*
X115808095Y-88518571D01*
X115855714Y-88470952D01*
X115950952Y-88423333D01*
X116189047Y-88423333D01*
X116284285Y-88470952D01*
X116331904Y-88518571D01*
X116379523Y-88613809D01*
X116379523Y-88851904D01*
X116331904Y-88947142D01*
X116284285Y-88994761D01*
X116189047Y-89042380D01*
X115950952Y-89042380D01*
X115855714Y-88994761D01*
X115808095Y-88947142D01*
G04 #@! TO.C,C8*
X153503333Y-56237142D02*
X153455714Y-56284761D01*
X153312857Y-56332380D01*
X153217619Y-56332380D01*
X153074761Y-56284761D01*
X152979523Y-56189523D01*
X152931904Y-56094285D01*
X152884285Y-55903809D01*
X152884285Y-55760952D01*
X152931904Y-55570476D01*
X152979523Y-55475238D01*
X153074761Y-55380000D01*
X153217619Y-55332380D01*
X153312857Y-55332380D01*
X153455714Y-55380000D01*
X153503333Y-55427619D01*
X154074761Y-55760952D02*
X153979523Y-55713333D01*
X153931904Y-55665714D01*
X153884285Y-55570476D01*
X153884285Y-55522857D01*
X153931904Y-55427619D01*
X153979523Y-55380000D01*
X154074761Y-55332380D01*
X154265238Y-55332380D01*
X154360476Y-55380000D01*
X154408095Y-55427619D01*
X154455714Y-55522857D01*
X154455714Y-55570476D01*
X154408095Y-55665714D01*
X154360476Y-55713333D01*
X154265238Y-55760952D01*
X154074761Y-55760952D01*
X153979523Y-55808571D01*
X153931904Y-55856190D01*
X153884285Y-55951428D01*
X153884285Y-56141904D01*
X153931904Y-56237142D01*
X153979523Y-56284761D01*
X154074761Y-56332380D01*
X154265238Y-56332380D01*
X154360476Y-56284761D01*
X154408095Y-56237142D01*
X154455714Y-56141904D01*
X154455714Y-55951428D01*
X154408095Y-55856190D01*
X154360476Y-55808571D01*
X154265238Y-55760952D01*
G04 #@! TO.C,C13*
X186031142Y-88780857D02*
X186078761Y-88828476D01*
X186126380Y-88971333D01*
X186126380Y-89066571D01*
X186078761Y-89209428D01*
X185983523Y-89304666D01*
X185888285Y-89352285D01*
X185697809Y-89399904D01*
X185554952Y-89399904D01*
X185364476Y-89352285D01*
X185269238Y-89304666D01*
X185174000Y-89209428D01*
X185126380Y-89066571D01*
X185126380Y-88971333D01*
X185174000Y-88828476D01*
X185221619Y-88780857D01*
X186126380Y-87828476D02*
X186126380Y-88399904D01*
X186126380Y-88114190D02*
X185126380Y-88114190D01*
X185269238Y-88209428D01*
X185364476Y-88304666D01*
X185412095Y-88399904D01*
X185126380Y-87495142D02*
X185126380Y-86876095D01*
X185507333Y-87209428D01*
X185507333Y-87066571D01*
X185554952Y-86971333D01*
X185602571Y-86923714D01*
X185697809Y-86876095D01*
X185935904Y-86876095D01*
X186031142Y-86923714D01*
X186078761Y-86971333D01*
X186126380Y-87066571D01*
X186126380Y-87352285D01*
X186078761Y-87447523D01*
X186031142Y-87495142D01*
G04 #@! TO.C,C14*
X176125142Y-93733857D02*
X176172761Y-93781476D01*
X176220380Y-93924333D01*
X176220380Y-94019571D01*
X176172761Y-94162428D01*
X176077523Y-94257666D01*
X175982285Y-94305285D01*
X175791809Y-94352904D01*
X175648952Y-94352904D01*
X175458476Y-94305285D01*
X175363238Y-94257666D01*
X175268000Y-94162428D01*
X175220380Y-94019571D01*
X175220380Y-93924333D01*
X175268000Y-93781476D01*
X175315619Y-93733857D01*
X176220380Y-92781476D02*
X176220380Y-93352904D01*
X176220380Y-93067190D02*
X175220380Y-93067190D01*
X175363238Y-93162428D01*
X175458476Y-93257666D01*
X175506095Y-93352904D01*
X175553714Y-91924333D02*
X176220380Y-91924333D01*
X175172761Y-92162428D02*
X175887047Y-92400523D01*
X175887047Y-91781476D01*
G04 #@! TO.C,C15*
X173966142Y-92209857D02*
X174013761Y-92257476D01*
X174061380Y-92400333D01*
X174061380Y-92495571D01*
X174013761Y-92638428D01*
X173918523Y-92733666D01*
X173823285Y-92781285D01*
X173632809Y-92828904D01*
X173489952Y-92828904D01*
X173299476Y-92781285D01*
X173204238Y-92733666D01*
X173109000Y-92638428D01*
X173061380Y-92495571D01*
X173061380Y-92400333D01*
X173109000Y-92257476D01*
X173156619Y-92209857D01*
X174061380Y-91257476D02*
X174061380Y-91828904D01*
X174061380Y-91543190D02*
X173061380Y-91543190D01*
X173204238Y-91638428D01*
X173299476Y-91733666D01*
X173347095Y-91828904D01*
X173061380Y-90352714D02*
X173061380Y-90828904D01*
X173537571Y-90876523D01*
X173489952Y-90828904D01*
X173442333Y-90733666D01*
X173442333Y-90495571D01*
X173489952Y-90400333D01*
X173537571Y-90352714D01*
X173632809Y-90305095D01*
X173870904Y-90305095D01*
X173966142Y-90352714D01*
X174013761Y-90400333D01*
X174061380Y-90495571D01*
X174061380Y-90733666D01*
X174013761Y-90828904D01*
X173966142Y-90876523D01*
G04 #@! TO.C,U4*
X95250095Y-44918380D02*
X95250095Y-45727904D01*
X95297714Y-45823142D01*
X95345333Y-45870761D01*
X95440571Y-45918380D01*
X95631047Y-45918380D01*
X95726285Y-45870761D01*
X95773904Y-45823142D01*
X95821523Y-45727904D01*
X95821523Y-44918380D01*
X96726285Y-45251714D02*
X96726285Y-45918380D01*
X96488190Y-44870761D02*
X96250095Y-45585047D01*
X96869142Y-45585047D01*
G04 #@! TO.C,U6*
X175673380Y-91312904D02*
X176482904Y-91312904D01*
X176578142Y-91265285D01*
X176625761Y-91217666D01*
X176673380Y-91122428D01*
X176673380Y-90931952D01*
X176625761Y-90836714D01*
X176578142Y-90789095D01*
X176482904Y-90741476D01*
X175673380Y-90741476D01*
X175673380Y-89836714D02*
X175673380Y-90027190D01*
X175721000Y-90122428D01*
X175768619Y-90170047D01*
X175911476Y-90265285D01*
X176101952Y-90312904D01*
X176482904Y-90312904D01*
X176578142Y-90265285D01*
X176625761Y-90217666D01*
X176673380Y-90122428D01*
X176673380Y-89931952D01*
X176625761Y-89836714D01*
X176578142Y-89789095D01*
X176482904Y-89741476D01*
X176244809Y-89741476D01*
X176149571Y-89789095D01*
X176101952Y-89836714D01*
X176054333Y-89931952D01*
X176054333Y-90122428D01*
X176101952Y-90217666D01*
X176149571Y-90265285D01*
X176244809Y-90312904D01*
G04 #@! TO.C,U7*
X162716380Y-70230904D02*
X163525904Y-70230904D01*
X163621142Y-70183285D01*
X163668761Y-70135666D01*
X163716380Y-70040428D01*
X163716380Y-69849952D01*
X163668761Y-69754714D01*
X163621142Y-69707095D01*
X163525904Y-69659476D01*
X162716380Y-69659476D01*
X162716380Y-69278523D02*
X162716380Y-68611857D01*
X163716380Y-69040428D01*
G04 #@! TO.C,R1*
X109038380Y-85383666D02*
X108562190Y-85717000D01*
X109038380Y-85955095D02*
X108038380Y-85955095D01*
X108038380Y-85574142D01*
X108086000Y-85478904D01*
X108133619Y-85431285D01*
X108228857Y-85383666D01*
X108371714Y-85383666D01*
X108466952Y-85431285D01*
X108514571Y-85478904D01*
X108562190Y-85574142D01*
X108562190Y-85955095D01*
X109038380Y-84431285D02*
X109038380Y-85002714D01*
X109038380Y-84717000D02*
X108038380Y-84717000D01*
X108181238Y-84812238D01*
X108276476Y-84907476D01*
X108324095Y-85002714D01*
G04 #@! TO.C,R2*
X164410380Y-63031666D02*
X163934190Y-63365000D01*
X164410380Y-63603095D02*
X163410380Y-63603095D01*
X163410380Y-63222142D01*
X163458000Y-63126904D01*
X163505619Y-63079285D01*
X163600857Y-63031666D01*
X163743714Y-63031666D01*
X163838952Y-63079285D01*
X163886571Y-63126904D01*
X163934190Y-63222142D01*
X163934190Y-63603095D01*
X163505619Y-62650714D02*
X163458000Y-62603095D01*
X163410380Y-62507857D01*
X163410380Y-62269761D01*
X163458000Y-62174523D01*
X163505619Y-62126904D01*
X163600857Y-62079285D01*
X163696095Y-62079285D01*
X163838952Y-62126904D01*
X164410380Y-62698333D01*
X164410380Y-62079285D01*
G04 #@! TO.C,C10*
X96131142Y-43092642D02*
X96083523Y-43140261D01*
X95940666Y-43187880D01*
X95845428Y-43187880D01*
X95702571Y-43140261D01*
X95607333Y-43045023D01*
X95559714Y-42949785D01*
X95512095Y-42759309D01*
X95512095Y-42616452D01*
X95559714Y-42425976D01*
X95607333Y-42330738D01*
X95702571Y-42235500D01*
X95845428Y-42187880D01*
X95940666Y-42187880D01*
X96083523Y-42235500D01*
X96131142Y-42283119D01*
X97083523Y-43187880D02*
X96512095Y-43187880D01*
X96797809Y-43187880D02*
X96797809Y-42187880D01*
X96702571Y-42330738D01*
X96607333Y-42425976D01*
X96512095Y-42473595D01*
X97702571Y-42187880D02*
X97797809Y-42187880D01*
X97893047Y-42235500D01*
X97940666Y-42283119D01*
X97988285Y-42378357D01*
X98035904Y-42568833D01*
X98035904Y-42806928D01*
X97988285Y-42997404D01*
X97940666Y-43092642D01*
X97893047Y-43140261D01*
X97797809Y-43187880D01*
X97702571Y-43187880D01*
X97607333Y-43140261D01*
X97559714Y-43092642D01*
X97512095Y-42997404D01*
X97464476Y-42806928D01*
X97464476Y-42568833D01*
X97512095Y-42378357D01*
X97559714Y-42283119D01*
X97607333Y-42235500D01*
X97702571Y-42187880D01*
G04 #@! TO.C,C11*
X104068642Y-45505642D02*
X104021023Y-45553261D01*
X103878166Y-45600880D01*
X103782928Y-45600880D01*
X103640071Y-45553261D01*
X103544833Y-45458023D01*
X103497214Y-45362785D01*
X103449595Y-45172309D01*
X103449595Y-45029452D01*
X103497214Y-44838976D01*
X103544833Y-44743738D01*
X103640071Y-44648500D01*
X103782928Y-44600880D01*
X103878166Y-44600880D01*
X104021023Y-44648500D01*
X104068642Y-44696119D01*
X105021023Y-45600880D02*
X104449595Y-45600880D01*
X104735309Y-45600880D02*
X104735309Y-44600880D01*
X104640071Y-44743738D01*
X104544833Y-44838976D01*
X104449595Y-44886595D01*
X105973404Y-45600880D02*
X105401976Y-45600880D01*
X105687690Y-45600880D02*
X105687690Y-44600880D01*
X105592452Y-44743738D01*
X105497214Y-44838976D01*
X105401976Y-44886595D01*
G04 #@! TO.C,J2*
X158122380Y-87333333D02*
X158836666Y-87333333D01*
X158979523Y-87380952D01*
X159074761Y-87476190D01*
X159122380Y-87619047D01*
X159122380Y-87714285D01*
X158217619Y-86904761D02*
X158170000Y-86857142D01*
X158122380Y-86761904D01*
X158122380Y-86523809D01*
X158170000Y-86428571D01*
X158217619Y-86380952D01*
X158312857Y-86333333D01*
X158408095Y-86333333D01*
X158550952Y-86380952D01*
X159122380Y-86952380D01*
X159122380Y-86333333D01*
G04 #@! TD*
M02*
